<?xml version="1.0" standalone="no"?>
<!DOCTYPE svg PUBLIC "-//W3C//DTD SVG 1.1//EN" "http://www.w3.org/Graphics/SVG/1.1/DTD/svg11.dtd" >
<svg xmlns="http://www.w3.org/2000/svg" xmlns:xlink="http://www.w3.org/1999/xlink" version="1.1">
<metadata>
Created by FontForge 20201107 at Wed Jun 14 12:00:55 2023
 By 
Copyright 2014 The DM Sans Project Authors (https://github.com/googlefonts/dm-fonts)
</metadata>
<defs>
<font id="DMSans18pt-SemiBold" horiz-adv-x="0" >
  <font-face 
    font-family="DM Sans 18pt SemiBold"
    font-weight="600"
    font-stretch="normal"
    units-per-em="1000"
    panose-1="0 0 0 0 0 0 0 0 0 0"
    ascent="800"
    descent="-200"
    x-height="501"
    cap-height="700"
    bbox="-58 -268 1191 974"
    underline-thickness="50"
    underline-position="-125"
    unicode-range="U+000D-FB02"
  />
<missing-glyph horiz-adv-x="541" 
d="M70 0v700h401v-700h-401zM140 57h261v586h-261v-586z" />
    <glyph glyph-name="fi" unicode="fi" horiz-adv-x="597" 
d="M91 0v400h-71v101h71v58q0 58 19.5 93.5t56.5 51.5t88 16h54v-102h-36q-33 0 -47.5 -13.5t-14.5 -46.5v-57h314v-501h-120v400h-194v-400h-120zM466 577q-32 0 -54 20t-22 51q0 30 22 50t54 20q34 0 55 -20t21 -50q0 -31 -21 -51t-55 -20z" />
    <glyph glyph-name="fl" unicode="fl" horiz-adv-x="612" 
d="M91 0v559q0 58 19.5 93.5t56.5 51.5t88 16h58v-102h-40q-33 0 -47.5 -13.5t-14.5 -46.5v-558h-120zM20 400v101h303v-101h-303zM426 0v720h120v-720h-120z" />
    <glyph glyph-name=".notdef" horiz-adv-x="541" 
d="M70 0v700h401v-700h-401zM140 57h261v586h-261v-586z" />
    <glyph glyph-name=".null" 
 />
    <glyph glyph-name="nonmarkingreturn" horiz-adv-x="333" 
 />
    <glyph glyph-name="CR" unicode="&#xd;" horiz-adv-x="600" 
 />
    <glyph glyph-name="space" unicode=" " horiz-adv-x="244" 
 />
    <glyph glyph-name="exclam" unicode="!" horiz-adv-x="289" 
d="M94 218l-14 482h129l-14 -482h-101zM145 -5q-34 0 -55 21t-21 50q0 31 21 52t55 21q33 0 54 -21t21 -52q0 -29 -21 -50t-54 -21z" />
    <glyph glyph-name="quotedbl" unicode="&#x22;" horiz-adv-x="341" 
d="M209 544l-12 211h105l-11 -211h-82zM51 544l-12 211h105l-11 -211h-82z" />
    <glyph glyph-name="numbersign" unicode="#" horiz-adv-x="845" 
d="M445 0l152 720h113l-152 -720h-113zM140 0l152 720h113l-152 -720h-113zM36 179v107h716v-107h-716zM86 436v107h718v-107h-718z" />
    <glyph glyph-name="dollar" unicode="$" horiz-adv-x="596" 
d="M264 -87v878h67v-878h-67zM306 -12q-76 0 -135 27t-92.5 77t-34.5 119h127q1 -35 17 -62.5t45.5 -43.5t71.5 -16q37 0 63.5 11.5t40.5 33t14 50.5q0 33 -15.5 55t-42.5 36.5t-62.5 26t-73.5 24.5q-83 28 -125 71.5t-42 116.5q0 61 29.5 105t82 68.5t121.5 24.5
q70 0 122 -25t82.5 -69.5t31.5 -106.5h-128q0 26 -13.5 48.5t-38 37t-58.5 14.5q-30 1 -54 -9.5t-37.5 -30t-13.5 -48.5q0 -28 13 -46.5t36.5 -31t55.5 -23.5t70 -24q52 -17 94.5 -41.5t67.5 -63.5t25 -101q0 -54 -28 -100.5t-82 -75t-134 -28.5z" />
    <glyph glyph-name="percent" unicode="%" horiz-adv-x="862" 
d="M172 0l397 700h117l-397 -700h-117zM652 -12q-47 0 -85.5 21.5t-61.5 61t-23 93.5q0 55 23 94t61.5 60.5t85.5 21.5q49 0 86.5 -21.5t60 -60.5t22.5 -94q0 -54 -22.5 -93.5t-60.5 -61t-86 -21.5zM651 72q21 0 38 10.5t27 31t10 50.5q0 31 -10 51t-26.5 30.5t-37.5 10.5
q-20 0 -37 -10.5t-27 -30.5t-10 -51q0 -30 10 -50.5t26.5 -31t36.5 -10.5zM211 360q-47 0 -85.5 21t-61.5 61t-23 94t23 93.5t61.5 60.5t86.5 21q47 0 85.5 -21t61 -60.5t22.5 -93.5t-22.5 -94t-61 -61t-86.5 -21zM211 444q21 0 37.5 10.5t26.5 31t10 50.5t-10 51
t-26.5 31.5t-37.5 10.5q-20 0 -37 -10.5t-27.5 -31.5t-10.5 -51t10.5 -50.5t27 -31t37.5 -10.5z" />
    <glyph glyph-name="ampersand" unicode="&#x26;" horiz-adv-x="766" 
d="M601 0l-382 382q-47 46 -66 83.5t-19 80.5q0 47 23 85t67.5 59.5t106.5 21.5t105 -23t66 -61t21 -86h-115q0 39 -23 58t-55 19q-37 0 -59 -20t-22 -52q0 -26 16 -53.5t48 -60.5l433 -433h-145zM289 -12q-75 0 -131.5 26.5t-87.5 75t-31 112.5q0 51 21 94t63 76.5
t104 53.5l46 15l55 -75l-45 -15q-64 -22 -95 -58t-31 -84q0 -34 17 -62t47.5 -43.5t72.5 -15.5q56 0 100 24.5t86 78.5q19 24 38.5 55.5t39.5 70.5l24 46h123l-37 -71q-26 -52 -52.5 -94.5t-54.5 -75.5q-57 -70 -123 -102t-149 -32z" />
    <glyph glyph-name="quotesingle" unicode="'" horiz-adv-x="185" 
d="M52 544l-13 211h107l-13 -211h-81z" />
    <glyph glyph-name="parenleft" unicode="(" horiz-adv-x="395" 
d="M241 -145q-55 55 -99.5 128.5t-70 161.5t-25.5 188t25.5 188t70 162t99.5 128h120v-11q-60 -63 -104 -137.5t-68.5 -157.5t-24.5 -172t24.5 -172t69 -157.5t103.5 -137.5v-11h-120z" />
    <glyph glyph-name="parenright" unicode=")" horiz-adv-x="395" 
d="M154 -145h-121v11q60 63 104.5 137.5t68.5 157.5t24 172t-24 172t-68.5 157.5t-104.5 137.5v11h121q55 -54 99.5 -128t70 -162t25.5 -188t-25.5 -188t-70 -161.5t-99.5 -128.5z" />
    <glyph glyph-name="asterisk" unicode="*" horiz-adv-x="503" 
d="M210 360l17 143l-114 -87l-46 80l132 54l-131 51l43 78l117 -87l-19 144h89l-20 -144l117 87l42 -77l-132 -54l132 -53l-44 -78l-115 86l19 -143h-87z" />
    <glyph glyph-name="plus" unicode="+" horiz-adv-x="571" 
d="M234 65v450h102v-450h-102zM46 240v100h479v-100h-479z" />
    <glyph glyph-name="comma" unicode="," horiz-adv-x="225" 
d="M16 -123l57 244h117l-95 -244h-79z" />
    <glyph glyph-name="hyphen" unicode="-" horiz-adv-x="566" 
d="M75 243v100h414v-100h-414z" />
    <glyph glyph-name="period" unicode="." horiz-adv-x="234" 
d="M118 -5q-34 0 -55 21t-21 50q0 31 21 52t55 21q33 0 54 -21t21 -52q0 -29 -21 -50t-54 -21z" />
    <glyph glyph-name="slash" unicode="/" horiz-adv-x="416" 
d="M24 -108l250 883h117l-250 -883h-117z" />
    <glyph glyph-name="zero" unicode="0" horiz-adv-x="701" 
d="M351 -12q-95 0 -163.5 45.5t-105 127t-36.5 189.5t36.5 189.5t105 127t163.5 45.5q96 0 163.5 -45.5t104.5 -127t37 -189.5t-37 -189.5t-105 -127t-163 -45.5zM351 96q54 0 95 30.5t64 87.5t23 136t-23 136t-64 87.5t-95 30.5q-53 0 -94.5 -30.5t-65 -87.5t-23.5 -136
t23.5 -136t65 -87.5t94.5 -30.5z" />
    <glyph glyph-name="one" unicode="1" horiz-adv-x="344" 
d="M150 0v563l-120 -30v93l169 74h75v-700h-124z" />
    <glyph glyph-name="two" unicode="2" horiz-adv-x="575" 
d="M54 0v87q66 53 127 106t109.5 105t76.5 102t28 96q0 30 -10.5 56t-34 42t-62.5 16q-38 0 -64 -17t-39 -45.5t-13 -64.5h-116q2 76 33 127t84 76.5t118 25.5q71 0 121 -26t76.5 -73t26.5 -111q0 -47 -17.5 -92.5t-48 -88t-69 -82t-79 -75t-78.5 -65.5h311v-99h-480z" />
    <glyph glyph-name="three" unicode="3" horiz-adv-x="598" 
d="M297 -12q-68 0 -124 24.5t-89.5 75t-35.5 127.5h118q1 -35 16.5 -63.5t44.5 -45t70 -16.5q40 0 67 15t41 41t14 58q0 39 -19 64.5t-52 38.5t-75 13h-52v100h52q55 0 90 25t35 74q0 41 -26.5 66t-74.5 25q-52 0 -81 -30t-32 -74h-118q3 63 32.5 109.5t80.5 71.5t118 25
q71 0 120 -25t74 -67t25 -92q0 -39 -14.5 -70.5t-40 -53.5t-59.5 -31q40 -8 70 -31t47.5 -59t17.5 -83q0 -57 -27.5 -105.5t-81 -77.5t-131.5 -29z" />
    <glyph glyph-name="four" unicode="4" horiz-adv-x="637" 
d="M389 0v133h-347v96l330 471h137v-462h95v-105h-95v-133h-120zM171 238h226v330v0z" />
    <glyph glyph-name="five" unicode="5" horiz-adv-x="619" 
d="M317 -12q-75 0 -130 27t-86 73.5t-37 105.5h117q9 -45 45.5 -74.5t91.5 -29.5q40 0 69.5 19.5t46 53.5t16.5 75q0 44 -17 76t-46 49.5t-67 17.5q-47 0 -81 -22t-49 -55h-115l59 396h385v-105h-296l-32 -172q23 25 61 40.5t87 15.5q55 0 97 -19t71 -52.5t44 -76.5t15 -91
q0 -54 -18 -100t-50.5 -80t-78.5 -53t-102 -19z" />
    <glyph glyph-name="six" unicode="6" horiz-adv-x="633" 
d="M330 -12q-78 0 -132 29t-86 77.5t-46.5 109t-14.5 122.5q0 117 32.5 203.5t94.5 134.5t149 48q71 0 121 -27.5t78 -73t33 -98.5h-111q-9 48 -40.5 73.5t-81.5 25.5q-45 0 -80 -28t-55 -84t-23 -142v-3v-3q15 28 42.5 50.5t63 35.5t76.5 13q59 0 110 -27.5t82.5 -78.5
t31.5 -120q0 -63 -30.5 -117t-85 -87t-128.5 -33zM323 91q39 0 69.5 17t47.5 46t17 66q0 39 -17 68t-48 45t-70 16q-38 0 -69 -17t-49 -46t-18 -65q0 -38 18 -67t49 -46t70 -17z" />
    <glyph glyph-name="seven" unicode="7" horiz-adv-x="535" 
d="M116 0l264 597h-352v103h475v-86l-262 -614h-125z" />
    <glyph glyph-name="eight" unicode="8" horiz-adv-x="626" 
d="M313 -12q-71 0 -128 25.5t-91 72t-34 109.5q0 42 15.5 78t43 62.5t65.5 39.5q-49 22 -77.5 61.5t-28.5 88.5q0 51 27 93t79.5 68t128.5 26t128.5 -26t79 -68t26.5 -93q0 -48 -28.5 -88.5t-77.5 -61.5q39 -13 66.5 -40t42.5 -62.5t15 -77.5q0 -63 -33.5 -109.5t-90.5 -72
t-128 -25.5zM313 89q67 0 100.5 32.5t33.5 82.5q0 56 -36 86.5t-98 30.5q-63 0 -99 -30.5t-36 -86.5q0 -50 34 -82.5t101 -32.5zM313 412q54 0 85 28.5t31 71.5q0 49 -30.5 75.5t-85.5 26.5t-85.5 -26.5t-30.5 -75.5q0 -44 30.5 -72t85.5 -28z" />
    <glyph glyph-name="nine" unicode="9" horiz-adv-x="633" 
d="M306 -12q-71 0 -121 27.5t-77.5 73.5t-33.5 98h112q9 -48 40.5 -73.5t80.5 -25.5q46 0 80.5 27.5t54.5 83t23 139.5v5.5v4.5q-15 -28 -42.5 -50.5t-63 -35.5t-76.5 -13q-58 0 -109.5 27.5t-83 78.5t-31.5 120q0 63 30.5 117t85.5 87t128 33q78 0 131.5 -29t86 -77.5
t47 -109t14.5 -122.5q0 -116 -32.5 -203t-94.5 -135t-149 -48zM311 351q38 0 69 17t49 46t18 65q0 38 -18 67.5t-49 46t-70 16.5t-69.5 -17t-48 -45.5t-17.5 -66.5q0 -39 17.5 -68t48.5 -45t70 -16z" />
    <glyph glyph-name="colon" unicode=":" horiz-adv-x="237" 
d="M118 -5q-34 0 -55 21t-21 50q0 31 21 52t55 21q33 0 54 -21t21 -52q0 -29 -21 -50t-54 -21zM118 370q-34 0 -55 21t-21 50q0 31 21 52t55 21q33 0 54 -21t21 -52q0 -29 -21 -50t-54 -21z" />
    <glyph glyph-name="semicolon" unicode=";" horiz-adv-x="261" 
d="M142 370q-34 0 -55 21t-21 50q0 31 21 52t55 21q33 0 54 -21t21 -52q0 -29 -21 -50t-54 -21zM28 -123l57 244h117l-95 -244h-79z" />
    <glyph glyph-name="less" unicode="&#x3c;" horiz-adv-x="571" 
d="M475 47h-152l-227 227v0l227 227h152l-228 -227z" />
    <glyph glyph-name="equal" unicode="=" horiz-adv-x="571" 
d="M75 347v105h420v-105h-420zM75 128v105h420v-105h-420z" />
    <glyph glyph-name="greater" unicode="&#x3e;" horiz-adv-x="571" 
d="M96 47l228 227l-228 227h151l228 -227v0l-228 -227h-151z" />
    <glyph glyph-name="question" unicode="?" horiz-adv-x="530" 
d="M144 217l-4 162h43q39 0 73.5 4.5t60.5 18t41 38t15 64.5q0 34 -14 58t-39.5 37t-59.5 13q-35 0 -60.5 -13t-39.5 -37t-14 -57h-114q0 60 27.5 107t79 73.5t122.5 26.5q67 0 118.5 -25t80.5 -71.5t29 -112.5q0 -70 -30 -115t-83.5 -67t-122.5 -22l-3 -82h-106zM197 -5
q-33 0 -54.5 21t-21.5 50q0 31 21.5 52t54.5 21q34 0 55 -21t21 -52q0 -29 -21 -50t-55 -21z" />
    <glyph glyph-name="at" unicode="@" horiz-adv-x="1037" 
d="M440 -210q-109 0 -191.5 42.5t-128 121t-45.5 184.5q0 109 38 202.5t106.5 163.5t162 109t206.5 39q114 0 198 -44t130 -121t46 -180q0 -60 -15 -115.5t-44 -100t-71.5 -71t-97.5 -26.5q-67 0 -97.5 39.5t-21.5 102.5l3 33l19 -47q-25 -59 -77.5 -93.5t-116.5 -34.5
q-74 0 -116.5 45t-42.5 124q0 54 17 104.5t48.5 90t74.5 62.5t95 23q59 0 93 -30t41 -86l-21 -15l22 121h98l-47 -272q-7 -39 2.5 -63t43.5 -24q29 0 51 21t36.5 55t22 74t7.5 79q0 83 -35 142.5t-100.5 91.5t-157.5 32q-89 0 -163 -32.5t-129 -90t-85 -134t-30 -165.5
q0 -87 35 -148t99.5 -93.5t153.5 -32.5q45 0 89 9t81 26l20 -78q-47 -21 -99 -30.5t-107 -9.5zM480 82q37 0 67.5 20.5t50 56t22.5 80.5q3 33 -7 58.5t-31 41.5t-54 16q-32 0 -57.5 -15t-43 -39t-27.5 -55t-10 -64q0 -45 23 -72.5t67 -27.5z" />
    <glyph glyph-name="A" unicode="A" horiz-adv-x="695" 
d="M25 0l256 700h134l256 -700h-127l-197 560v0l-197 -560h-125zM139 165l32 95h345l32 -95h-409z" />
    <glyph glyph-name="B" unicode="B" horiz-adv-x="627" 
d="M70 0v700h275q73 0 122.5 -23t75 -63.5t25.5 -93.5t-23.5 -89t-61 -55t-81.5 -23l16 11q47 -1 84.5 -25t59.5 -62.5t22 -85.5q0 -55 -27 -98.5t-78 -68t-125 -24.5h-284zM190 98h146q60 0 93 28t33 78t-34 79.5t-94 29.5h-144v-215zM190 404h138q57 0 87 26.5t30 73.5
q0 46 -30 72.5t-89 26.5h-136v-199z" />
    <glyph glyph-name="C" unicode="C" horiz-adv-x="733" 
d="M383 -12q-105 0 -180.5 45.5t-116 127t-40.5 188.5q0 108 40.5 189.5t116 127.5t180.5 46q125 0 204.5 -61.5t99.5 -173.5h-132q-14 59 -57 93t-116 34q-66 0 -114 -30.5t-74 -88t-26 -136.5t26 -135.5t74 -87t114 -30.5q73 0 116 31.5t57 87.5h132
q-20 -106 -99.5 -166.5t-204.5 -60.5z" />
    <glyph glyph-name="D" unicode="D" horiz-adv-x="704" 
d="M70 0v700h230q122 0 201.5 -43t118 -121.5t38.5 -186.5q0 -106 -38.5 -184.5t-118 -121.5t-201.5 -43h-230zM190 102h104q91 0 143.5 29.5t75 85t22.5 132.5q0 78 -22.5 133.5t-75 86t-143.5 30.5h-104v-497z" />
    <glyph glyph-name="E" unicode="E" horiz-adv-x="577" 
d="M70 0v700h452v-97h-332v-201h302v-95h-302v-210h332v-97h-452z" />
    <glyph glyph-name="F" unicode="F" horiz-adv-x="549" 
d="M70 0v700h447v-97h-327v-205h267v-95h-267v-303h-120z" />
    <glyph glyph-name="G" unicode="G" horiz-adv-x="771" 
d="M375 -12q-99 0 -173 45t-115 125.5t-41 188.5q0 107 42 189.5t120.5 129t185.5 46.5q122 0 203 -58.5t104 -162.5h-135q-15 52 -58.5 81t-113.5 29q-71 0 -122 -30.5t-77.5 -88t-26.5 -136.5t27 -136t76 -86.5t115 -29.5q98 0 148 55t59 143h-181v91h302v-383h-111l-9 96
v0q-23 -34 -53.5 -58.5t-70.5 -37t-95 -12.5z" />
    <glyph glyph-name="H" unicode="H" horiz-adv-x="703" 
d="M513 0v700h120v-700h-120zM70 0v700h120v-700h-120zM172 308v98h363v-98h-363z" />
    <glyph glyph-name="I" unicode="I" horiz-adv-x="260" 
d="M70 0v700h120v-700h-120z" />
    <glyph glyph-name="J" unicode="J" horiz-adv-x="528" 
d="M248 -12q-67 0 -116.5 25.5t-76.5 74t-27 117.5h120q0 -33 10 -58t31.5 -38.5t55.5 -13.5t54.5 13t29.5 36.5t9 54.5v501h120v-501q0 -102 -56.5 -156.5t-153.5 -54.5z" />
    <glyph glyph-name="K" unicode="K" horiz-adv-x="632" 
d="M70 0v700h120v-289l265 289h148l-258 -278l265 -422h-147l-204 330l-69 -75v-255h-120z" />
    <glyph glyph-name="L" unicode="L" horiz-adv-x="548" 
d="M70 0v700h120v-606h313v-94h-433z" />
    <glyph glyph-name="M" unicode="M" horiz-adv-x="874" 
d="M70 0v700h143l225 -452v0l224 452h142v-700h-120v494v0l-200 -395h-94l-200 395v0v-494h-120z" />
    <glyph glyph-name="N" unicode="N" horiz-adv-x="717" 
d="M70 0v700h120l337 -506v0v506h120v-700h-120l-337 505v0v-505h-120z" />
    <glyph glyph-name="O" unicode="O" horiz-adv-x="785" 
d="M392 -12q-102 0 -180 45.5t-122 127t-44 189.5q0 107 44 188.5t122 127.5t180 46q104 0 182 -46t121.5 -127.5t43.5 -188.5q0 -108 -43.5 -189.5t-121.5 -127t-182 -45.5zM392 96q68 0 118.5 30.5t78 87.5t27.5 136t-27.5 136t-78 87.5t-118.5 30.5q-67 0 -117.5 -30.5
t-78.5 -87.5t-28 -136t28 -136t78.5 -87.5t117.5 -30.5z" />
    <glyph glyph-name="P" unicode="P" horiz-adv-x="603" 
d="M70 0v700h253q84 0 139 -28t81.5 -76.5t26.5 -109.5q0 -58 -26 -106.5t-80.5 -77.5t-140.5 -29h-133v-273h-120zM190 370h126q71 0 101.5 31.5t30.5 84.5q0 55 -30.5 85.5t-101.5 30.5h-126v-232z" />
    <glyph glyph-name="Q" unicode="Q" horiz-adv-x="785" 
d="M563 -105l-248 390h138l253 -390h-143zM392 -12q-102 0 -180 45.5t-122 127t-44 189.5q0 107 44 188.5t122 127.5t180 46q104 0 182 -46t121.5 -127.5t43.5 -188.5q0 -108 -43.5 -189.5t-121.5 -127t-182 -45.5zM392 96q68 0 118.5 30.5t78 87.5t27.5 136t-27.5 136
t-78 87.5t-118.5 30.5q-67 0 -117.5 -30.5t-78.5 -87.5t-28 -136t28 -136t78.5 -87.5t117.5 -30.5z" />
    <glyph glyph-name="R" unicode="R" horiz-adv-x="619" 
d="M70 0v700h251q84 0 138 -28.5t80.5 -76t26.5 -107.5q0 -56 -26 -104t-80.5 -77t-140.5 -29h-129v-278h-120zM435 0l-147 309h131l154 -309h-138zM190 367h124q66 0 97.5 32.5t31.5 85.5q0 52 -31 83.5t-99 31.5h-123v-233z" />
    <glyph glyph-name="S" unicode="S" horiz-adv-x="596" 
d="M306 -12q-76 0 -135 27t-92.5 77t-34.5 119h127q1 -35 17 -62.5t45.5 -43.5t71.5 -16q37 0 63.5 11.5t40.5 33t14 50.5q0 33 -15.5 55t-42.5 36.5t-62.5 26t-73.5 24.5q-83 28 -125 71.5t-42 116.5q0 61 29.5 105t82 68.5t121.5 24.5q70 0 122 -25t82.5 -69.5
t31.5 -106.5h-128q0 26 -13.5 48.5t-38 37t-58.5 14.5q-30 1 -54 -9.5t-37.5 -30t-13.5 -48.5q0 -28 13 -46.5t36.5 -31t55.5 -23.5t70 -24q52 -17 94.5 -41.5t67.5 -63.5t25 -101q0 -54 -28 -100.5t-82 -75t-134 -28.5z" />
    <glyph glyph-name="T" unicode="T" horiz-adv-x="586" 
d="M233 0v603h-206v97h532v-97h-206v-603h-120z" />
    <glyph glyph-name="U" unicode="U" horiz-adv-x="676" 
d="M336 -12q-76 0 -137.5 30t-98 92t-36.5 156v434h120v-435q0 -57 19 -94t53.5 -55.5t81.5 -18.5q48 0 82.5 18.5t53 55.5t18.5 94v435h120v-434q0 -94 -37 -156t-100 -92t-139 -30z" />
    <glyph glyph-name="V" unicode="V" horiz-adv-x="694" 
d="M274 0l-257 700h129l201 -577v0l203 577h127l-257 -700h-146z" />
    <glyph glyph-name="W" unicode="W" horiz-adv-x="1003" 
d="M212 0l-186 700h128l130 -563v0l153 563h132l148 -564v0l132 564h129l-191 -700h-142l-144 530v0l-148 -530h-141z" />
    <glyph glyph-name="X" unicode="X" horiz-adv-x="649" 
d="M35 0l218 354l-220 346h138l159 -251v0l147 251h136l-218 -351l222 -349h-138l-161 254v0l-147 -254h-136z" />
    <glyph glyph-name="Y" unicode="Y" horiz-adv-x="618" 
d="M249 0v252l-234 448h136l174 -359h-30l173 359h134l-233 -448v-252h-120z" />
    <glyph glyph-name="Z" unicode="Z" horiz-adv-x="564" 
d="M47 0v92l329 507h-326v101h465v-92l-331 -507h333v-101h-470z" />
    <glyph glyph-name="bracketleft" unicode="[" horiz-adv-x="355" 
d="M70 -167v978h229v-98h-117v-781h117v-99h-229z" />
    <glyph glyph-name="backslash" unicode="\" horiz-adv-x="416" 
d="M391 -108h-117l-250 883h117z" />
    <glyph glyph-name="bracketright" unicode="]" horiz-adv-x="355" 
d="M285 -167h-229v99h117v781h-117v98h229v-978z" />
    <glyph glyph-name="asciicircum" unicode="^" horiz-adv-x="659" 
d="M35 190l238 510h114l237 -510h-121l-173 371v0l-173 -371h-122z" />
    <glyph glyph-name="underscore" unicode="_" horiz-adv-x="710" 
d="M76 -152v114h558v-114h-558z" />
    <glyph glyph-name="grave" unicode="`" horiz-adv-x="226" 
d="M219 544l-219 112l9 95v0l217 -125z" />
    <glyph glyph-name="a" unicode="a" horiz-adv-x="572" 
d="M235 -12q-62 0 -103 20.5t-61 55.5t-20 76q0 48 24.5 82.5t72.5 54t118 19.5h127q0 40 -11 66t-34.5 39t-58.5 13q-42 0 -71.5 -19t-35.5 -56h-118q5 54 36 92.5t80.5 60t108.5 21.5q71 0 121 -24.5t76.5 -70t26.5 -109.5v-309h-102l-12 80v0q-10 -19 -25.5 -36
t-35.5 -29.5t-45.5 -19.5t-57.5 -7zM262 83q29 0 52 10.5t39 29.5t25 43.5t12 50.5v2h-111q-36 0 -58.5 -9t-33 -24.5t-10.5 -36.5t10.5 -36t29.5 -22.5t45 -7.5z" />
    <glyph glyph-name="b" unicode="b" horiz-adv-x="647" 
d="M355 -12q-40 0 -71.5 10t-56 29t-40.5 43v0l-13 -70h-107v720h120v-293q23 36 64 61t104 25q71 0 125.5 -34.5t86 -93.5t31.5 -135t-31.5 -135t-86 -93t-125.5 -34zM330 92q43 0 75.5 20t51.5 55.5t19 82.5t-19 82.5t-51.5 55.5t-75.5 20t-76 -20t-51 -55.5t-18 -82.5
q0 -46 18 -82t51 -56t76 -20z" />
    <glyph glyph-name="c" unicode="c" horiz-adv-x="596" 
d="M306 -12q-74 0 -132.5 33.5t-91.5 92.5t-33 135q0 78 33 137t91.5 93t132.5 34q95 0 159 -49.5t81 -134.5h-126q-9 38 -40.5 59.5t-74.5 21.5q-37 0 -67.5 -18.5t-48 -54.5t-17.5 -87q0 -38 10 -67.5t28.5 -50.5t43 -31.5t51.5 -10.5q29 0 52.5 9.5t40 28t22.5 44.5h126
q-17 -84 -81.5 -134t-158.5 -50z" />
    <glyph glyph-name="d" unicode="d" horiz-adv-x="647" 
d="M292 -12q-71 0 -125.5 34t-86 93.5t-31.5 135.5q0 75 31.5 134.5t87 93.5t126.5 34q56 0 99 -22t67 -61v290h120v-720h-107l-12 73v0q-16 -22 -39 -41.5t-55 -31.5t-75 -12zM317 92q43 0 75.5 20.5t51 56t18.5 81.5q0 47 -18.5 82.5t-51.5 55.5t-76 20q-41 0 -74 -20
t-51.5 -55.5t-18.5 -81.5q0 -47 18.5 -82.5t51.5 -56t75 -20.5z" />
    <glyph glyph-name="e" unicode="e" horiz-adv-x="592" 
d="M303 -12q-74 0 -131.5 32.5t-90 91t-32.5 135.5q0 79 32 138.5t89.5 93.5t133.5 34q74 0 129 -33t85.5 -88t30.5 -123q0 -10 -0.5 -22t-1.5 -26h-411v78h292q-3 53 -37.5 84.5t-86.5 31.5q-37 0 -68.5 -17t-50 -50t-18.5 -83v-29q0 -47 18 -80.5t48.5 -51t68.5 -17.5
q42 0 69.5 18t41.5 48h121q-13 -46 -45.5 -83.5t-79 -59.5t-106.5 -22z" />
    <glyph glyph-name="f" unicode="f" horiz-adv-x="359" 
d="M91 0v559q0 58 19.5 93.5t56.5 51.5t88 16h58v-102h-40q-33 0 -47.5 -13.5t-14.5 -46.5v-558h-120zM20 400v101h303v-101h-303z" />
    <glyph glyph-name="g" unicode="g" horiz-adv-x="584" 
d="M278 -232q-71 0 -124 17.5t-82.5 53t-29.5 88.5q0 31 15.5 60.5t47 54.5t80.5 44l52 -57q-47 -17 -66 -41.5t-19 -48.5q0 -26 16.5 -43.5t45 -26.5t64.5 -9q34 0 60 9.5t40 26.5t14 41q0 29 -20.5 47.5t-81.5 22.5q-54 4 -93.5 11.5t-68 18t-48.5 23t-33 25.5v23l104 110
l89 -30l-117 -114l31 57q10 -7 20.5 -13t27 -10.5t43.5 -8.5t69 -7q67 -6 109 -25t61.5 -50.5t19.5 -76.5q0 -44 -24 -83t-74 -64t-128 -25zM278 151q-63 0 -108 24t-69 65t-24 92q0 50 24 90.5t69 65.5t108 25t108.5 -25t69 -65.5t23.5 -90.5q0 -51 -23.5 -92t-69 -65
t-108.5 -24zM278 244q43 0 69 22t26 65q0 42 -26 64.5t-69 22.5t-69.5 -22.5t-26.5 -64.5q0 -43 26.5 -65t69.5 -22zM360 413l-23 88h207v-75z" />
    <glyph glyph-name="h" unicode="h" horiz-adv-x="604" 
d="M67 0v720h120v-297v0q24 41 67 65.5t98 24.5q61 0 104 -25.5t65.5 -75.5t22.5 -124v-288h-119v277q0 65 -27 99.5t-83 34.5q-36 0 -65.5 -17.5t-46 -50.5t-16.5 -80v-263h-120z" />
    <glyph glyph-name="i" unicode="i" horiz-adv-x="263" 
d="M72 0v501h120v-501h-120zM132 582q-33 0 -54.5 20.5t-21.5 50.5q0 31 21.5 50.5t54.5 19.5t54.5 -19.5t21.5 -50.5q0 -30 -21.5 -50.5t-54.5 -20.5z" />
    <glyph glyph-name="j" unicode="j" horiz-adv-x="264" 
d="M-29 -220v102h40q34 0 48.5 13.5t14.5 46.5v559h120v-560q0 -58 -20 -93.5t-56.5 -51.5t-88.5 -16h-58zM134 582q-33 0 -54 20.5t-21 50.5q0 31 21 50.5t55 19.5q33 0 54 -19.5t21 -50.5q0 -30 -21 -50.5t-55 -20.5z" />
    <glyph glyph-name="k" unicode="k" horiz-adv-x="556" 
d="M392 0l-223 275l199 226h143l-249 -275v93l280 -319h-150zM67 0v720h120v-720h-120z" />
    <glyph glyph-name="l" unicode="l" horiz-adv-x="253" 
d="M67 0v720h120v-720h-120z" />
    <glyph glyph-name="m" unicode="m" horiz-adv-x="927" 
d="M67 0v501h106l9 -69v0q24 38 64 59.5t91 21.5q38 0 68.5 -10t54.5 -30t39 -50v0q28 42 73 66t98 24q64 0 108 -25.5t67 -75.5t23 -123v-289h-119v277q0 65 -26 99.5t-77 34.5q-35 0 -62 -17.5t-42 -50.5t-15 -80v-263h-119v277q0 65 -26 99.5t-79 34.5q-33 0 -59.5 -17.5
t-41.5 -50.5t-15 -80v-263h-120z" />
    <glyph glyph-name="n" unicode="n" horiz-adv-x="603" 
d="M67 0v501h106l8 -85v0q24 44 67.5 70.5t101.5 26.5q61 0 104 -25.5t66.5 -75t23.5 -123.5v-289h-120v278q0 64 -27.5 98.5t-83.5 34.5q-36 0 -65 -17.5t-45 -50t-16 -79.5v-264h-120z" />
    <glyph glyph-name="o" unicode="o" horiz-adv-x="605" 
d="M301 -12q-71 0 -128.5 33t-90.5 92.5t-33 136.5q0 78 33.5 137.5t91 92.5t128.5 33q73 0 130 -33t90 -92t33 -138q0 -78 -33.5 -137t-90.5 -92t-130 -33zM302 91q36 0 65.5 18t47.5 53.5t18 87.5q0 53 -18 88.5t-47.5 53t-64.5 17.5t-65 -17.5t-48 -53t-18 -88.5
q0 -52 18 -87.5t47.5 -53.5t64.5 -18z" />
    <glyph glyph-name="p" unicode="p" horiz-adv-x="647" 
d="M67 -220v721h107l13 -73v0q16 22 38.5 41.5t54.5 31.5t75 12q71 0 125.5 -34.5t86 -94t31.5 -135.5q0 -75 -32 -134t-86.5 -93t-124.5 -34q-57 0 -100 21.5t-68 61.5v-291h-120zM330 92q42 0 75 20t52 55.5t19 82.5t-19 82.5t-52 55.5t-75 20q-43 0 -76 -20t-51 -55.5
t-18 -82.5q0 -46 18 -82t51 -56t76 -20z" />
    <glyph glyph-name="q" unicode="q" horiz-adv-x="647" 
d="M460 -220v293q-23 -35 -64.5 -60t-102.5 -25q-71 0 -126 34t-86.5 94t-31.5 135t31.5 134.5t87 93.5t125.5 34q39 0 70.5 -10t56 -28.5t40.5 -44.5v0l13 71h107v-721h-120zM317 92q43 0 75.5 20.5t51 56t18.5 81.5q0 47 -18.5 82.5t-51.5 55.5t-76 20q-41 0 -74 -20
t-51.5 -55.5t-18.5 -81.5q0 -47 18.5 -82.5t51.5 -56t75 -20.5z" />
    <glyph glyph-name="r" unicode="r" horiz-adv-x="394" 
d="M67 0v501h107l11 -94v0q18 33 44.5 56.5t62 36.5t79.5 13v-127h-38q-31 0 -58 -7.5t-47 -24t-30.5 -45.5t-10.5 -72v-237h-120z" />
    <glyph glyph-name="s" unicode="s" horiz-adv-x="522" 
d="M268 -12q-66 0 -115.5 21.5t-78.5 60t-34 88.5h120q5 -21 18.5 -38.5t35.5 -27.5t53 -10q29 0 48 8.5t28 22.5t9 29q0 24 -12.5 36.5t-37.5 20t-59 14.5q-34 8 -67 18t-60 26t-43 40.5t-16 60.5q0 44 23.5 79t68 55.5t105.5 20.5q88 0 140.5 -40.5t61.5 -113.5h-114
q-5 28 -28 43.5t-60 15.5q-39 0 -59.5 -14.5t-20.5 -37.5q0 -16 13 -28t37 -20.5t58 -15.5q55 -12 97.5 -26.5t68 -43t25.5 -82.5q1 -47 -24.5 -84t-71.5 -57.5t-109 -20.5z" />
    <glyph glyph-name="t" unicode="t" horiz-adv-x="418" 
d="M284 0q-50 0 -88 16t-58.5 53t-20.5 100v231h-86v101h86l14 131h106v-131h137v-101h-137v-231q0 -38 16 -52.5t56 -14.5h61v-102h-86z" />
    <glyph glyph-name="u" unicode="u" horiz-adv-x="603" 
d="M252 -12q-60 0 -103.5 25t-66.5 74.5t-23 123.5v290h120v-278q0 -66 27.5 -100t82.5 -34q37 0 65.5 17.5t45 50.5t16.5 80v264h120v-501h-106l-9 84v0q-23 -44 -66.5 -70t-102.5 -26z" />
    <glyph glyph-name="v" unicode="v" horiz-adv-x="551" 
d="M204 0l-186 501h127l131 -387v0l132 387h125l-185 -501h-144z" />
    <glyph glyph-name="w" unicode="w" horiz-adv-x="799" 
d="M166 0l-147 501h118l104 -417l-25 1l117 416h133l118 -416h-26l103 416h120l-147 -501h-124l-124 430h28l-124 -430h-124z" />
    <glyph glyph-name="x" unicode="x" horiz-adv-x="549" 
d="M19 0l178 250l-178 251h129l127 -182v0l127 182h129l-179 -251l179 -250h-129l-127 183v0l-126 -183h-130z" />
    <glyph glyph-name="y" unicode="y" horiz-adv-x="590" 
d="M128 -220l123 276h-30l-201 445h130l151 -340v0l142 340h127l-316 -721h-126z" />
    <glyph glyph-name="z" unicode="z" horiz-adv-x="478" 
d="M33 0v97l260 304h-256v100h393v-97l-261 -305h266v-99h-402z" />
    <glyph glyph-name="braceleft" unicode="{" horiz-adv-x="457" 
d="M335 -169q-75 0 -121.5 41t-46.5 121q0 34 5.5 62t11 57t5.5 64q0 23 -9.5 43.5t-31.5 34.5t-61 19v96q39 6 61 19.5t31.5 34t9.5 44.5q0 36 -5.5 64l-11 56t-5.5 62q0 80 46.5 121t121.5 41h62v-100h-39q-37 0 -56 -17.5t-19 -56.5q0 -26 5 -52t9.5 -55.5t4.5 -67.5
q0 -52 -25.5 -90t-83.5 -50v-2q58 -12 83.5 -49.5t25.5 -91.5q0 -37 -4.5 -66.5t-9.5 -55.5t-5 -52q0 -39 19 -56.5t56 -17.5h39v-100h-62z" />
    <glyph glyph-name="bar" unicode="|" horiz-adv-x="260" 
d="M70 -100v820h120v-820h-120z" />
    <glyph glyph-name="braceright" unicode="}" horiz-adv-x="457" 
d="M121 -169h-61v100h39q37 0 56 17.5t19 56.5q0 26 -4.5 52t-10 55.5t-5.5 66.5q0 54 26.5 91.5t83.5 49.5v2q-57 12 -83.5 50t-26.5 90q0 38 5.5 67.5t10 55.5t4.5 52q0 39 -19 56.5t-56 17.5h-39v100h61q76 0 122.5 -41t46.5 -121q0 -34 -5.5 -62l-11 -56t-5.5 -64
q0 -24 9.5 -44.5t32 -34t60.5 -19.5v-96q-38 -5 -60.5 -19t-32 -34.5t-9.5 -43.5q0 -35 5.5 -64t11 -57t5.5 -62q0 -80 -46.5 -121t-122.5 -41z" />
    <glyph glyph-name="asciitilde" unicode="~" horiz-adv-x="571" 
d="M371 232q-30 0 -54 10t-44.5 23.5t-39.5 23.5t-42 10q-26 0 -42.5 -17.5t-21.5 -48.5h-89q9 60 31 98t55 56t74 18q31 0 55 -10t44.5 -23t40 -23t40.5 -10q27 0 44 17t20 49h91q-9 -60 -31 -98.5t-55.5 -56.5t-75.5 -18z" />
    <glyph glyph-name="uni00A0" unicode="&#xa0;" horiz-adv-x="244" 
 />
    <glyph glyph-name="exclamdown" unicode="&#xa1;" horiz-adv-x="289" 
d="M94 289h101l14 -481h-129zM145 513q33 0 54 -21t21 -51q0 -31 -21 -51.5t-54 -20.5q-34 0 -55 20.5t-21 51.5q0 30 21 51t55 21z" />
    <glyph glyph-name="cent" unicode="&#xa2;" horiz-adv-x="596" 
d="M250 -104v163h111v-163h-111zM250 441v164h111v-164h-111zM306 -12q-74 0 -132.5 33.5t-91.5 92.5t-33 135q0 78 33 137t91.5 93t132.5 34q95 0 159 -49.5t81 -134.5h-126q-9 38 -40.5 59.5t-74.5 21.5q-37 0 -67.5 -18.5t-48 -54.5t-17.5 -87q0 -38 10 -67.5t28.5 -50.5
t43 -31.5t51.5 -10.5q29 0 52.5 9.5t40 28t22.5 44.5h126q-17 -84 -81.5 -134t-158.5 -50z" />
    <glyph glyph-name="sterling" unicode="&#xa3;" horiz-adv-x="619" 
d="M79 0v72q26 26 44 52.5t27.5 58.5t9.5 75q0 29 -8 57t-19.5 57t-19.5 60.5t-8 68.5q0 65 28.5 112.5t79.5 73t117 25.5q75 0 124.5 -29t75.5 -77.5t28 -107.5h-110q-2 50 -31.5 82.5t-84.5 32.5q-31 0 -56.5 -12.5t-41 -38.5t-15.5 -66q0 -28 8 -56.5t19 -58.5
t19.5 -60.5t8.5 -61.5q0 -43 -16.5 -85t-54.5 -77h358v-97h-482zM42 300v83h392v-83h-392z" />
    <glyph glyph-name="currency" unicode="&#xa4;" horiz-adv-x="551" 
d="M276 119q-55 0 -97 22t-66.5 62t-24.5 94q0 55 25 95t67.5 61.5t96.5 21.5t96.5 -21.5t67 -61.5t24.5 -95q0 -54 -25 -94t-67.5 -62t-96.5 -22zM113 82l-50 51l90 90l58 -43zM438 82l-87 88l52 49l85 -86zM276 198q21 0 41 10.5t33 32.5t13 56q0 35 -13 57t-32.5 32.5
t-41.5 10.5t-41.5 -10.5t-32 -32.5t-12.5 -57q0 -34 12 -56t32 -32.5t42 -10.5zM150 377l-87 87l50 50l92 -92zM394 369l-47 53l91 92l50 -50z" />
    <glyph glyph-name="yen" unicode="&#xa5;" horiz-adv-x="635" 
d="M58 155v83h520v-83h-520zM280 318h-222v83h216zM380 318l6 83h192v-83h-198zM258 0v252l-234 448h136l174 -359h-30l173 359h134l-233 -448v-252h-120z" />
    <glyph glyph-name="brokenbar" unicode="&#xa6;" horiz-adv-x="260" 
d="M70 392v328h120v-328h-120zM70 -100v328h120v-328h-120z" />
    <glyph glyph-name="section" unicode="&#xa7;" horiz-adv-x="607" 
d="M300 -232q-69 0 -122 25t-83 70t-32 106h128q1 -26 14 -48.5t37.5 -36.5t59.5 -15q45 -1 74.5 22.5t29.5 65.5q0 29 -13 46.5t-36.5 29t-55.5 22t-70 22.5q-51 18 -94 43t-68 64.5t-25 98.5q0 39 14 73.5t42 62.5q-13 20 -20 43t-7 52q0 61 29.5 105t82 68.5t120.5 24.5
q70 0 122.5 -25t83 -69.5t31.5 -106.5h-128q0 26 -13 48.5t-37.5 37t-60.5 14.5q-45 1 -74.5 -22.5t-29.5 -65.5q0 -28 13 -46t36.5 -29.5t55.5 -22t70 -22.5q52 -18 94.5 -43t67.5 -64t25 -99q0 -38 -14 -73t-42 -63q14 -19 20.5 -42.5t6.5 -52.5q0 -60 -29.5 -104.5
t-81.5 -69t-121 -24.5zM411 128q12 13 17.5 28t5.5 33q0 30 -13 50.5t-37.5 34.5t-57 26t-70.5 25q-19 7 -34.5 13.5t-27.5 13.5q-12 -12 -17.5 -27.5t-5.5 -33.5q0 -23 8.5 -40.5t24.5 -30.5t38 -24t49 -20.5t58 -20.5q17 -6 32.5 -13t29.5 -14z" />
    <glyph glyph-name="dieresis" unicode="&#xa8;" horiz-adv-x="334" 
d="M256 566q-26 0 -43 17t-17 42t17 42.5t43 17.5q24 0 41.5 -17.5t17.5 -42.5t-17.5 -42t-41.5 -17zM78 566q-24 0 -41.5 17t-17.5 42t17.5 42.5t41.5 17.5q26 0 43 -17.5t17 -42.5t-17 -42t-43 -17z" />
    <glyph glyph-name="copyright" unicode="&#xa9;" horiz-adv-x="788" 
d="M394 -5q-103 0 -182 45.5t-122.5 126t-43.5 184.5q0 105 43.5 185t122.5 125.5t182 45.5q104 0 182 -45.5t122.5 -125.5t44.5 -185q0 -104 -44.5 -184.5t-122.5 -126t-182 -45.5zM394 123q-61 0 -110.5 27.5t-79 78.5t-29.5 123q0 71 29.5 122.5t79 79t110.5 27.5
q77 0 133 -41t74 -117h-106q-11 36 -38.5 55.5t-64.5 19.5q-33 0 -59 -16.5t-41.5 -49t-15.5 -81.5q0 -47 15.5 -80t41.5 -49.5t59 -16.5q39 0 65.5 20t37.5 54h106q-18 -72 -74 -114t-133 -42zM394 40q93 0 160.5 39.5t104 109.5t36.5 162q0 94 -36.5 164t-104 109
t-160.5 39q-92 0 -159.5 -39t-104.5 -108.5t-37 -164.5q0 -92 37 -162t104.5 -109.5t159.5 -39.5z" />
    <glyph glyph-name="ordfeminine" unicode="&#xaa;" horiz-adv-x="496" 
d="M219 348q-48 0 -86 22.5t-60 63.5t-22 95q0 55 22 95.5t59.5 63t83.5 22.5q48 0 80 -18t48 -46l8 58h85v-351h-85l-8 58v0q-15 -28 -47 -45.5t-78 -17.5zM245 421q28 0 50 12.5t35.5 37t13.5 58.5q0 52 -29 80t-70 28q-40 0 -69.5 -28.5t-29.5 -79.5q0 -52 29.5 -80
t69.5 -28z" />
    <glyph glyph-name="guillemotleft" unicode="&#xab;" horiz-adv-x="495" 
d="M331 120l-91 175l91 175h114l-94 -175l94 -175h-114zM134 120l-92 175l92 175h114l-95 -175l95 -175h-114z" />
    <glyph glyph-name="logicalnot" unicode="&#xac;" horiz-adv-x="571" 
d="M460 205v138h-469v93h589v-231h-120z" />
    <glyph glyph-name="registered" unicode="&#xae;" horiz-adv-x="508" 
d="M255 296q-61 0 -108 26.5t-73.5 74t-26.5 107.5q0 61 26.5 107.5t73.5 73.5t108 27q60 0 106.5 -27t73 -73.5t26.5 -107.5q0 -60 -26.5 -107.5t-73 -74t-106.5 -26.5zM289 399l-57 97h61l63 -97h-67zM255 340q48 0 83.5 21t55.5 58t20 85t-20 84.5t-55.5 57.5t-83.5 21
q-49 0 -85 -21t-56 -57.5t-20 -84.5t20 -85t56 -58t85 -21zM170 399v214h102q34 0 54 -18t20 -50q0 -30 -20 -48t-54 -18h-45v-80h-57zM227 521h37q11 0 18 5t7 17q0 11 -7 15.5t-18 4.5h-37v-42z" />
    <glyph glyph-name="macron" unicode="&#xaf;" horiz-adv-x="398" 
d="M14 581v86h370v-86h-370z" />
    <glyph glyph-name="degree" unicode="&#xb0;" horiz-adv-x="357" 
d="M178 429q-38 0 -70 17.5t-51 49t-19 74.5q0 44 19.5 75.5t51.5 49t70 17.5t69.5 -17.5t51 -49t19.5 -75.5q0 -43 -19.5 -74.5t-51.5 -49t-70 -17.5zM178 507q21 0 40 16t19 48q0 31 -18.5 47t-39.5 16q-22 0 -40.5 -16t-18.5 -47q0 -32 18 -48t40 -16z" />
    <glyph glyph-name="plusminus" unicode="&#xb1;" horiz-adv-x="571" 
d="M40 0v92h490v-92h-490zM234 156v360h102v-360h-102zM40 286v100h490v-100h-490z" />
    <glyph glyph-name="uni00B2" unicode="&#xb2;" horiz-adv-x="352" 
d="M37 352v68l116 84q28 22 45.5 44t17.5 50q0 22 -12.5 34t-30.5 12q-20 0 -32 -13t-15 -37h-93q4 50 41.5 84t106.5 34q44 0 73.5 -15.5t44.5 -40t15 -53.5q0 -39 -26 -68t-79 -62l-73 -48h178v-73h-277z" />
    <glyph glyph-name="uni00B3" unicode="&#xb3;" horiz-adv-x="348" 
d="M173 347q-73 0 -110 30t-42 84h95q2 -17 9 -27.5t18.5 -14.5t25.5 -4q23 0 37 12t14 33q0 23 -16 35t-40 12h-41v47h38q24 0 39 11.5t15 34.5q0 20 -13 32t-36 12t-36 -10.5t-16 -30.5h-88q2 30 19 54.5t49.5 39.5t80.5 15q61 0 100 -29.5t39 -74.5q0 -31 -18 -50.5
t-49 -26.5v-3q32 -9 51.5 -29t19.5 -53q0 -42 -39.5 -70.5t-105.5 -28.5z" />
    <glyph glyph-name="acute" unicode="&#xb4;" horiz-adv-x="226" 
d="M7 544l-7 82l218 125v0l8 -95z" />
    <glyph glyph-name="uni00B5" unicode="&#xb5;" horiz-adv-x="612" 
d="M67 -220v716h120v-270q0 -66 27 -101.5t84 -35.5q37 0 65.5 18t45 51.5t16.5 81.5v256h120v-496h-106l-9 84v0q-23 -43 -67 -69.5t-103 -26.5q-21 0 -39.5 4.5t-33.5 14.5v-227h-120z" />
    <glyph glyph-name="paragraph" unicode="&#xb6;" horiz-adv-x="632" 
d="M285 -100v385h-15q-83 0 -135.5 28t-77 75.5t-24.5 103.5q0 57 25 104t77.5 75.5t134.5 28.5h292v-800h-101v708h-74v-708h-102z" />
    <glyph glyph-name="periodcentered" unicode="&#xb7;" horiz-adv-x="234" 
d="M118 259q-34 0 -55 21t-21 50q0 32 21 52.5t55 20.5q33 0 54 -20.5t21 -52.5q0 -29 -21 -50t-54 -21z" />
    <glyph glyph-name="cedilla" unicode="&#xb8;" horiz-adv-x="255" 
d="M0 -262v70h108q29 0 43 9t14 30q0 18 -14 27t-43 9h-58v124h75v-59q35 0 64.5 -10.5t47.5 -34t18 -59.5q0 -35 -17.5 -58.5t-46.5 -35.5t-64 -12h-127z" />
    <glyph glyph-name="uni00B9" unicode="&#xb9;" horiz-adv-x="228" 
d="M94 352v264l-69 -16v57l107 47h54v-352h-92z" />
    <glyph glyph-name="ordmasculine" unicode="&#xba;" horiz-adv-x="479" 
d="M239 349q-56 0 -99 23t-67 64t-24 95t24.5 95t67.5 63.5t99 22.5t99 -22.5t67 -63.5t24 -95t-24.5 -95t-67.5 -64t-99 -23zM239 422q26 0 47.5 12.5t35 36.5t13.5 59q0 37 -13 61t-35 36.5t-48 12.5t-47.5 -12.5t-34.5 -36.5t-13 -61q0 -35 13 -59t34.5 -36.5t47.5 -12.5
z" />
    <glyph glyph-name="guillemotright" unicode="&#xbb;" horiz-adv-x="495" 
d="M164 120h-114l95 175l-95 175h114l92 -175zM361 120h-114l95 175l-95 175h114l92 -175z" />
    <glyph glyph-name="onequarter" unicode="&#xbc;" horiz-adv-x="799" 
d="M94 352v264l-69 -16v57l107 47h54v-352h-92zM118 0l397 700h118l-397 -700h-118zM650 0v62h-167v63l157 223h100v-221h40v-65h-40v-62h-90zM575 127h81v123v0z" />
    <glyph glyph-name="onehalf" unicode="&#xbd;" horiz-adv-x="836" 
d="M94 352v264l-69 -16v57l107 47h54v-352h-92zM118 0l397 700h118l-397 -700h-118zM521 0v68l116 84q28 22 45.5 44t17.5 50q0 22 -12.5 34t-30.5 12q-20 0 -32 -13t-15 -37h-93q4 50 41.5 84t106.5 34q44 0 73.5 -15.5t44.5 -40t15 -53.5q0 -39 -26 -68t-79 -62l-73 -48
h178v-73h-277z" />
    <glyph glyph-name="threequarters" unicode="&#xbe;" horiz-adv-x="891" 
d="M173 347q-73 0 -110 30t-42 84h95q2 -17 9 -27.5t18.5 -14.5t25.5 -4q23 0 37 12t14 33q0 23 -16 35t-40 12h-41v47h38q24 0 39 11.5t15 34.5q0 20 -13 32t-36 12t-36 -10.5t-16 -30.5h-88q2 30 19 54.5t49.5 39.5t80.5 15q61 0 100 -29.5t39 -74.5q0 -31 -18 -50.5
t-49 -26.5v-3q32 -9 51.5 -29t19.5 -53q0 -42 -39.5 -70.5t-105.5 -28.5zM210 0l397 700h118l-397 -700h-118zM742 0v62h-167v63l157 223h100v-221h40v-65h-40v-62h-90zM667 127h81v123v0z" />
    <glyph glyph-name="questiondown" unicode="&#xbf;" horiz-adv-x="530" 
d="M387 291l4 -162h-43q-40 0 -74.5 -5t-60.5 -18t-41 -37.5t-15 -64.5q0 -33 14.5 -58t39.5 -38t59 -13q36 0 61.5 13.5t39.5 37.5t14 56h113q1 -60 -27 -106.5t-79.5 -73t-122.5 -26.5q-66 0 -118 24.5t-81 71.5t-29 112q0 71 30.5 116t84 67t122.5 22l3 82h106zM333 513
q34 0 55 -21t21 -51q0 -31 -21 -51.5t-55 -20.5q-33 0 -54 20.5t-21 51.5q0 30 21 51t54 21z" />
    <glyph glyph-name="Agrave" unicode="&#xc0;" horiz-adv-x="695" 
d="M25 0l256 700h134l256 -700h-127l-197 560v0l-197 -560h-125zM139 165l32 95h345l32 -95h-409zM454 743l-219 112l9 95v0l217 -124z" />
    <glyph glyph-name="Aacute" unicode="&#xc1;" horiz-adv-x="695" 
d="M25 0l256 700h134l256 -700h-127l-197 560v0l-197 -560h-125zM139 165l32 95h345l32 -95h-409zM242 743l-7 83l218 124v0l8 -95z" />
    <glyph glyph-name="Acircumflex" unicode="&#xc2;" horiz-adv-x="695" 
d="M25 0l256 700h134l256 -700h-127l-197 560v0l-197 -560h-125zM139 165l32 95h345l32 -95h-409zM204 748v87l144 81l145 -81v-87l-145 83z" />
    <glyph glyph-name="Atilde" unicode="&#xc3;" horiz-adv-x="695" 
d="M25 0l256 700h134l256 -700h-127l-197 560v0l-197 -560h-125zM139 165l32 95h345l32 -95h-409zM412 752q-28 0 -47.5 11.5t-36.5 23t-37 11.5q-17 0 -28.5 -11t-14.5 -34h-65q9 62 39 91.5t74 29.5q28 0 47.5 -11.5t36.5 -23t37 -11.5q17 0 28.5 11t14.5 34h66
q-9 -62 -39.5 -91.5t-74.5 -29.5z" />
    <glyph glyph-name="Adieresis" unicode="&#xc4;" horiz-adv-x="695" 
d="M25 0l256 700h134l256 -700h-127l-197 560v0l-197 -560h-125zM139 165l32 95h345l32 -95h-409zM261 770q-26 0 -43 17t-17 42t17 42.5t43 17.5q24 0 41.5 -17.5t17.5 -42.5t-17.5 -42t-41.5 -17zM437 770q-25 0 -42 17t-17 42t17 42.5t42 17.5t42 -17.5t17 -42.5t-17 -42
t-42 -17z" />
    <glyph glyph-name="Aring" unicode="&#xc5;" horiz-adv-x="695" 
d="M25 0l256 700h134l256 -700h-127l-197 560v0l-197 -560h-125zM139 165l32 95h345l32 -95h-409zM348 753q-46 0 -79 29.5t-33 80.5q0 52 33 81.5t79 29.5q47 0 79.5 -29.5t32.5 -81.5q0 -51 -32.5 -80.5t-79.5 -29.5zM348 808q22 0 37.5 15t15.5 40q0 26 -15 40.5
t-38 14.5q-21 0 -37 -14.5t-16 -40.5q0 -25 16 -40t37 -15z" />
    <glyph glyph-name="AE" unicode="&#xc6;" horiz-adv-x="935" 
d="M25 0l382 700h473v-95h-274v-204h244v-92h-244v-214h274v-95h-394v607v0l-331 -607h-130zM166 142l50 93h327v-93h-377z" />
    <glyph glyph-name="Ccedilla" unicode="&#xc7;" horiz-adv-x="733" 
d="M383 -12q-105 0 -180.5 45.5t-116 127t-40.5 188.5q0 108 40.5 189.5t116 127.5t180.5 46q125 0 204.5 -61.5t99.5 -173.5h-132q-14 59 -57 93t-116 34q-66 0 -114 -30.5t-74 -88t-26 -136.5t26 -135.5t74 -87t114 -30.5q73 0 116 31.5t57 87.5h132
q-20 -106 -99.5 -166.5t-204.5 -60.5zM284 -264v70h108q29 0 43 9t14 30q0 18 -14 27t-43 9h-58v124h75v-59q35 0 64.5 -10.5t47.5 -34t18 -59.5q0 -35 -17.5 -58.5t-47 -35.5t-64.5 -12h-126z" />
    <glyph glyph-name="Egrave" unicode="&#xc8;" horiz-adv-x="577" 
d="M70 0v700h452v-97h-332v-201h302v-95h-302v-210h332v-97h-452zM402 743l-219 112l9 95v0l217 -124z" />
    <glyph glyph-name="Eacute" unicode="&#xc9;" horiz-adv-x="577" 
d="M70 0v700h452v-97h-332v-201h302v-95h-302v-210h332v-97h-452zM190 743l-7 83l218 124v0l8 -95z" />
    <glyph glyph-name="Ecircumflex" unicode="&#xca;" horiz-adv-x="577" 
d="M70 0v700h452v-97h-332v-201h302v-95h-302v-210h332v-97h-452zM152 748v87l144 81l145 -81v-87l-145 83z" />
    <glyph glyph-name="Edieresis" unicode="&#xcb;" horiz-adv-x="577" 
d="M70 0v700h452v-97h-332v-201h302v-95h-302v-210h332v-97h-452zM209 770q-26 0 -43 17t-17 42t17 42.5t43 17.5q24 0 41.5 -17.5t17.5 -42.5t-17.5 -42t-41.5 -17zM385 770q-25 0 -42 17t-17 42t17 42.5t42 17.5t42 -17.5t17 -42.5t-17 -42t-42 -17z" />
    <glyph glyph-name="Igrave" unicode="&#xcc;" horiz-adv-x="260" 
d="M70 0v700h120v-700h-120zM236 743l-219 112l9 95v0l217 -124z" />
    <glyph glyph-name="Iacute" unicode="&#xcd;" horiz-adv-x="260" 
d="M70 0v700h120v-700h-120zM24 743l-7 83l218 124v0l8 -95z" />
    <glyph glyph-name="Icircumflex" unicode="&#xce;" horiz-adv-x="260" 
d="M70 0v700h120v-700h-120zM-14 748v87l144 81l145 -81v-87l-145 83z" />
    <glyph glyph-name="Idieresis" unicode="&#xcf;" horiz-adv-x="260" 
d="M70 0v700h120v-700h-120zM43 770q-26 0 -43 17t-17 42t17 42.5t43 17.5q24 0 41.5 -17.5t17.5 -42.5t-17.5 -42t-41.5 -17zM219 770q-25 0 -42 17t-17 42t17 42.5t42 17.5t42 -17.5t17 -42.5t-17 -42t-42 -17z" />
    <glyph glyph-name="Eth" unicode="&#xd0;" horiz-adv-x="719" 
d="M6 298v103h379v-103h-379zM84 0v700h230q122 0 202 -43t118.5 -121.5t38.5 -186.5q0 -106 -38.5 -184.5t-118.5 -121.5t-202 -43h-230zM204 102h104q91 0 144 29.5t75.5 85t22.5 132.5q0 78 -22.5 133.5t-75.5 86t-144 30.5h-104v-497z" />
    <glyph glyph-name="Ntilde" unicode="&#xd1;" horiz-adv-x="717" 
d="M70 0v700h120l337 -506v0v506h120v-700h-120l-337 505v0v-505h-120zM422 752q-28 0 -47.5 11.5t-36.5 23t-37 11.5q-17 0 -28.5 -11t-14.5 -34h-65q9 62 39 91.5t74 29.5q28 0 47.5 -11.5t36.5 -23t37 -11.5q17 0 28.5 11t14.5 34h66q-9 -62 -39.5 -91.5t-74.5 -29.5z
" />
    <glyph glyph-name="Ograve" unicode="&#xd2;" horiz-adv-x="785" 
d="M392 -12q-102 0 -180 45.5t-122 127t-44 189.5q0 107 44 188.5t122 127.5t180 46q104 0 182 -46t121.5 -127.5t43.5 -188.5q0 -108 -43.5 -189.5t-121.5 -127t-182 -45.5zM392 96q68 0 118.5 30.5t78 87.5t27.5 136t-27.5 136t-78 87.5t-118.5 30.5q-67 0 -117.5 -30.5
t-78.5 -87.5t-28 -136t28 -136t78.5 -87.5t117.5 -30.5zM498 743l-219 112l9 95v0l217 -124z" />
    <glyph glyph-name="Oacute" unicode="&#xd3;" horiz-adv-x="785" 
d="M392 -12q-102 0 -180 45.5t-122 127t-44 189.5q0 107 44 188.5t122 127.5t180 46q104 0 182 -46t121.5 -127.5t43.5 -188.5q0 -108 -43.5 -189.5t-121.5 -127t-182 -45.5zM392 96q68 0 118.5 30.5t78 87.5t27.5 136t-27.5 136t-78 87.5t-118.5 30.5q-67 0 -117.5 -30.5
t-78.5 -87.5t-28 -136t28 -136t78.5 -87.5t117.5 -30.5zM286 743l-7 83l218 124v0l8 -95z" />
    <glyph glyph-name="Ocircumflex" unicode="&#xd4;" horiz-adv-x="785" 
d="M392 -12q-102 0 -180 45.5t-122 127t-44 189.5q0 107 44 188.5t122 127.5t180 46q104 0 182 -46t121.5 -127.5t43.5 -188.5q0 -108 -43.5 -189.5t-121.5 -127t-182 -45.5zM392 96q68 0 118.5 30.5t78 87.5t27.5 136t-27.5 136t-78 87.5t-118.5 30.5q-67 0 -117.5 -30.5
t-78.5 -87.5t-28 -136t28 -136t78.5 -87.5t117.5 -30.5zM248 748v87l144 81l145 -81v-87l-145 83z" />
    <glyph glyph-name="Otilde" unicode="&#xd5;" horiz-adv-x="785" 
d="M392 -12q-102 0 -180 45.5t-122 127t-44 189.5q0 107 44 188.5t122 127.5t180 46q104 0 182 -46t121.5 -127.5t43.5 -188.5q0 -108 -43.5 -189.5t-121.5 -127t-182 -45.5zM392 96q68 0 118.5 30.5t78 87.5t27.5 136t-27.5 136t-78 87.5t-118.5 30.5q-67 0 -117.5 -30.5
t-78.5 -87.5t-28 -136t28 -136t78.5 -87.5t117.5 -30.5zM456 752q-28 0 -47.5 11.5t-36.5 23t-37 11.5q-17 0 -28.5 -11t-14.5 -34h-65q9 62 39 91.5t74 29.5q28 0 47.5 -11.5t36.5 -23t37 -11.5q17 0 28.5 11t14.5 34h66q-9 -62 -39.5 -91.5t-74.5 -29.5z" />
    <glyph glyph-name="Odieresis" unicode="&#xd6;" horiz-adv-x="785" 
d="M392 -12q-102 0 -180 45.5t-122 127t-44 189.5q0 107 44 188.5t122 127.5t180 46q104 0 182 -46t121.5 -127.5t43.5 -188.5q0 -108 -43.5 -189.5t-121.5 -127t-182 -45.5zM392 96q68 0 118.5 30.5t78 87.5t27.5 136t-27.5 136t-78 87.5t-118.5 30.5q-67 0 -117.5 -30.5
t-78.5 -87.5t-28 -136t28 -136t78.5 -87.5t117.5 -30.5zM305 770q-26 0 -43 17t-17 42t17 42.5t43 17.5q24 0 41.5 -17.5t17.5 -42.5t-17.5 -42t-41.5 -17zM481 770q-25 0 -42 17t-17 42t17 42.5t42 17.5t42 -17.5t17 -42.5t-17 -42t-42 -17z" />
    <glyph glyph-name="multiply" unicode="&#xd7;" horiz-adv-x="571" 
d="M158 92l-70 71l126 127l-123 124l71 70l123 -123l127 127l71 -71l-127 -127l124 -123l-72 -71l-123 123z" />
    <glyph glyph-name="Oslash" unicode="&#xd8;" horiz-adv-x="780" 
d="M30 0l604 700h116l-604 -700h-116zM392 -12q-103 0 -180.5 45.5t-122 127t-44.5 189.5q0 107 44.5 188.5t122 127.5t180.5 46t181.5 -46t121.5 -127.5t43 -188.5q0 -108 -43 -189.5t-121.5 -127t-181.5 -45.5zM392 96q68 0 118.5 30.5t78 87.5t27.5 136t-27.5 136
t-78 87.5t-118.5 30.5t-118 -30.5t-78 -87.5t-28 -136t28 -136t78 -87.5t118 -30.5z" />
    <glyph glyph-name="Ugrave" unicode="&#xd9;" horiz-adv-x="676" 
d="M336 -12q-76 0 -137.5 30t-98 92t-36.5 156v434h120v-435q0 -57 19 -94t53.5 -55.5t81.5 -18.5q48 0 82.5 18.5t53 55.5t18.5 94v435h120v-434q0 -94 -37 -156t-100 -92t-139 -30zM443 743l-219 112l9 95v0l217 -124z" />
    <glyph glyph-name="Uacute" unicode="&#xda;" horiz-adv-x="676" 
d="M336 -12q-76 0 -137.5 30t-98 92t-36.5 156v434h120v-435q0 -57 19 -94t53.5 -55.5t81.5 -18.5q48 0 82.5 18.5t53 55.5t18.5 94v435h120v-434q0 -94 -37 -156t-100 -92t-139 -30zM231 743l-7 83l218 124v0l8 -95z" />
    <glyph glyph-name="Ucircumflex" unicode="&#xdb;" horiz-adv-x="676" 
d="M336 -12q-76 0 -137.5 30t-98 92t-36.5 156v434h120v-435q0 -57 19 -94t53.5 -55.5t81.5 -18.5q48 0 82.5 18.5t53 55.5t18.5 94v435h120v-434q0 -94 -37 -156t-100 -92t-139 -30zM193 748v87l144 81l145 -81v-87l-145 83z" />
    <glyph glyph-name="Udieresis" unicode="&#xdc;" horiz-adv-x="676" 
d="M336 -12q-76 0 -137.5 30t-98 92t-36.5 156v434h120v-435q0 -57 19 -94t53.5 -55.5t81.5 -18.5q48 0 82.5 18.5t53 55.5t18.5 94v435h120v-434q0 -94 -37 -156t-100 -92t-139 -30zM250 770q-26 0 -43 17t-17 42t17 42.5t43 17.5q24 0 41.5 -17.5t17.5 -42.5t-17.5 -42
t-41.5 -17zM426 770q-25 0 -42 17t-17 42t17 42.5t42 17.5t42 -17.5t17 -42.5t-17 -42t-42 -17z" />
    <glyph glyph-name="Yacute" unicode="&#xdd;" horiz-adv-x="618" 
d="M249 0v252l-234 448h136l174 -359h-30l173 359h134l-233 -448v-252h-120zM203 743l-7 83l218 124v0l8 -95z" />
    <glyph glyph-name="Thorn" unicode="&#xde;" horiz-adv-x="603" 
d="M70 0v700h120v-137h134q83 0 138 -28t81.5 -76t26.5 -109q0 -58 -25.5 -106t-80.5 -77t-140 -29h-134v-138h-120zM190 235h127q70 0 100.5 31t30.5 84q0 54 -30.5 84.5t-100.5 30.5h-127v-230z" />
    <glyph glyph-name="germandbls" unicode="&#xdf;" horiz-adv-x="697" 
d="M466 -10q-91 0 -148 48.5t-67 135.5h114q4 -43 30 -68.5t69 -25.5q39 0 60.5 18.5t21.5 51.5q0 31 -20 51t-74 38q-80 28 -115.5 57.5t-35.5 74.5q0 29 13 47.5t32 32.5t38.5 27t32.5 29t13 40q0 39 -31 62t-85 23q-65 0 -96 -35.5t-31 -96.5v-500h-119v510
q0 66 29 115.5t85.5 78t136.5 28.5q73 0 124.5 -23t78.5 -62.5t27 -87.5q0 -32 -12.5 -53.5t-31.5 -37t-38.5 -27t-32.5 -24t-13 -28.5q0 -12 8.5 -23t31 -22t64.5 -25q74 -27 106.5 -65t32.5 -96q0 -50 -24 -88t-68.5 -59t-105.5 -21z" />
    <glyph glyph-name="agrave" unicode="&#xe0;" horiz-adv-x="572" 
d="M235 -12q-62 0 -103 20.5t-61 55.5t-20 76q0 48 24.5 82.5t72.5 54t118 19.5h127q0 40 -11 66t-34.5 39t-58.5 13q-42 0 -71.5 -19t-35.5 -56h-118q5 54 36 92.5t80.5 60t108.5 21.5q71 0 121 -24.5t76.5 -70t26.5 -109.5v-309h-102l-12 80v0q-10 -19 -25.5 -36
t-35.5 -29.5t-45.5 -19.5t-57.5 -7zM262 83q29 0 52 10.5t39 29.5t25 43.5t12 50.5v2h-111q-36 0 -58.5 -9t-33 -24.5t-10.5 -36.5t10.5 -36t29.5 -22.5t45 -7.5zM389 544l-219 112l9 95v0l217 -125z" />
    <glyph glyph-name="aacute" unicode="&#xe1;" horiz-adv-x="572" 
d="M235 -12q-62 0 -103 20.5t-61 55.5t-20 76q0 48 24.5 82.5t72.5 54t118 19.5h127q0 40 -11 66t-34.5 39t-58.5 13q-42 0 -71.5 -19t-35.5 -56h-118q5 54 36 92.5t80.5 60t108.5 21.5q71 0 121 -24.5t76.5 -70t26.5 -109.5v-309h-102l-12 80v0q-10 -19 -25.5 -36
t-35.5 -29.5t-45.5 -19.5t-57.5 -7zM262 83q29 0 52 10.5t39 29.5t25 43.5t12 50.5v2h-111q-36 0 -58.5 -9t-33 -24.5t-10.5 -36.5t10.5 -36t29.5 -22.5t45 -7.5zM177 544l-7 82l218 125v0l8 -95z" />
    <glyph glyph-name="acircumflex" unicode="&#xe2;" horiz-adv-x="572" 
d="M235 -12q-62 0 -103 20.5t-61 55.5t-20 76q0 48 24.5 82.5t72.5 54t118 19.5h127q0 40 -11 66t-34.5 39t-58.5 13q-42 0 -71.5 -19t-35.5 -56h-118q5 54 36 92.5t80.5 60t108.5 21.5q71 0 121 -24.5t76.5 -70t26.5 -109.5v-309h-102l-12 80v0q-10 -19 -25.5 -36
t-35.5 -29.5t-45.5 -19.5t-57.5 -7zM262 83q29 0 52 10.5t39 29.5t25 43.5t12 50.5v2h-111q-36 0 -58.5 -9t-33 -24.5t-10.5 -36.5t10.5 -36t29.5 -22.5t45 -7.5zM138 547v87l144 80l145 -80v-87l-145 83z" />
    <glyph glyph-name="atilde" unicode="&#xe3;" horiz-adv-x="572" 
d="M235 -12q-62 0 -103 20.5t-61 55.5t-20 76q0 48 24.5 82.5t72.5 54t118 19.5h127q0 40 -11 66t-34.5 39t-58.5 13q-42 0 -71.5 -19t-35.5 -56h-118q5 54 36 92.5t80.5 60t108.5 21.5q71 0 121 -24.5t76.5 -70t26.5 -109.5v-309h-102l-12 80v0q-10 -19 -25.5 -36
t-35.5 -29.5t-45.5 -19.5t-57.5 -7zM262 83q29 0 52 10.5t39 29.5t25 43.5t12 50.5v2h-111q-36 0 -58.5 -9t-33 -24.5t-10.5 -36.5t10.5 -36t29.5 -22.5t45 -7.5zM341 567q-28 0 -47.5 11.5t-36.5 23t-37 11.5q-17 0 -28.5 -11t-14.5 -34h-65q9 62 39 91t74 29
q28 0 47.5 -11.5t36.5 -23t37 -11.5q17 0 28.5 11.5t14.5 33.5h66q-9 -61 -39.5 -90.5t-74.5 -29.5z" />
    <glyph glyph-name="adieresis" unicode="&#xe4;" horiz-adv-x="572" 
d="M235 -12q-62 0 -103 20.5t-61 55.5t-20 76q0 48 24.5 82.5t72.5 54t118 19.5h127q0 40 -11 66t-34.5 39t-58.5 13q-42 0 -71.5 -19t-35.5 -56h-118q5 54 36 92.5t80.5 60t108.5 21.5q71 0 121 -24.5t76.5 -70t26.5 -109.5v-309h-102l-12 80v0q-10 -19 -25.5 -36
t-35.5 -29.5t-45.5 -19.5t-57.5 -7zM262 83q29 0 52 10.5t39 29.5t25 43.5t12 50.5v2h-111q-36 0 -58.5 -9t-33 -24.5t-10.5 -36.5t10.5 -36t29.5 -22.5t45 -7.5zM195 567q-26 0 -43 17t-17 42t17 42.5t43 17.5q24 0 41.5 -17.5t17.5 -42.5t-17.5 -42t-41.5 -17zM371 567
q-25 0 -42 17t-17 42t17 42.5t42 17.5t42 -17.5t17 -42.5t-17 -42t-42 -17z" />
    <glyph glyph-name="aring" unicode="&#xe5;" horiz-adv-x="572" 
d="M235 -12q-62 0 -103 20.5t-61 55.5t-20 76q0 48 24.5 82.5t72.5 54t118 19.5h127q0 40 -11 66t-34.5 39t-58.5 13q-42 0 -71.5 -19t-35.5 -56h-118q5 54 36 92.5t80.5 60t108.5 21.5q71 0 121 -24.5t76.5 -70t26.5 -109.5v-309h-102l-12 80v0q-10 -19 -25.5 -36
t-35.5 -29.5t-45.5 -19.5t-57.5 -7zM262 83q29 0 52 10.5t39 29.5t25 43.5t12 50.5v2h-111q-36 0 -58.5 -9t-33 -24.5t-10.5 -36.5t10.5 -36t29.5 -22.5t45 -7.5zM283 567q-46 0 -79 29t-33 81q0 51 33 80.5t79 29.5q47 0 79.5 -29.5t32.5 -80.5q0 -52 -32.5 -81t-79.5 -29z
M283 622q22 0 37.5 15t15.5 40q0 26 -15 40.5t-38 14.5q-21 0 -37 -14.5t-16 -40.5q0 -25 16 -40t37 -15z" />
    <glyph glyph-name="ae" unicode="&#xe6;" horiz-adv-x="936" 
d="M243 -12q-63 0 -106 21t-64.5 55.5t-21.5 76.5q0 48 24 83.5t71 54.5t116 19h134q0 39 -11.5 64.5t-34.5 38.5t-57 13q-38 0 -67 -18.5t-36 -55.5h-118q6 53 36 91.5t78.5 60t106.5 21.5q61 0 106 -20t73 -56q32 36 78 56t99 20q74 0 128.5 -33t84.5 -87.5t30 -124.5
v-21.5t-2 -25.5h-372q3 -43 21 -73t47 -45.5t62 -15.5q45 0 73.5 21.5t41.5 56.5h119q-12 -50 -44.5 -90t-80 -63.5t-108.5 -23.5q-65 0 -118.5 28t-86.5 77q-20 -31 -48.5 -54.5t-66 -37t-86.5 -13.5zM260 83q35 0 63 17.5t45.5 46.5t22.5 64v10h-114q-35 0 -57 -9
t-32.5 -24.5t-10.5 -35.5q0 -21 10.5 -36.5t29 -24t43.5 -8.5zM520 299h251q-3 54 -37.5 85t-83.5 31q-31 0 -59 -13.5t-46.5 -39t-24.5 -63.5z" />
    <glyph glyph-name="ccedilla" unicode="&#xe7;" horiz-adv-x="596" 
d="M306 -12q-74 0 -132.5 33.5t-91.5 92.5t-33 135q0 78 33 137t91.5 93t132.5 34q95 0 159 -49.5t81 -134.5h-126q-9 38 -40.5 59.5t-74.5 21.5q-37 0 -67.5 -18.5t-48 -54.5t-17.5 -87q0 -38 10 -67.5t28.5 -50.5t43 -31.5t51.5 -10.5q29 0 52.5 9.5t40 28t22.5 44.5h126
q-17 -84 -81.5 -134t-158.5 -50zM216 -264v70h108q29 0 43 9t14 30q0 18 -14 27t-43 9h-58v124h75v-59q35 0 64.5 -10.5t47.5 -34t18 -59.5q0 -35 -17.5 -58.5t-47 -35.5t-64.5 -12h-126z" />
    <glyph glyph-name="egrave" unicode="&#xe8;" horiz-adv-x="592" 
d="M303 -12q-74 0 -131.5 32.5t-90 91t-32.5 135.5q0 79 32 138.5t89.5 93.5t133.5 34q74 0 129 -33t85.5 -88t30.5 -123q0 -10 -0.5 -22t-1.5 -26h-411v78h292q-3 53 -37.5 84.5t-86.5 31.5q-37 0 -68.5 -17t-50 -50t-18.5 -83v-29q0 -47 18 -80.5t48.5 -51t68.5 -17.5
q42 0 69.5 18t41.5 48h121q-13 -46 -45.5 -83.5t-79 -59.5t-106.5 -22zM407 544l-219 112l9 95v0l217 -125z" />
    <glyph glyph-name="eacute" unicode="&#xe9;" horiz-adv-x="592" 
d="M303 -12q-74 0 -131.5 32.5t-90 91t-32.5 135.5q0 79 32 138.5t89.5 93.5t133.5 34q74 0 129 -33t85.5 -88t30.5 -123q0 -10 -0.5 -22t-1.5 -26h-411v78h292q-3 53 -37.5 84.5t-86.5 31.5q-37 0 -68.5 -17t-50 -50t-18.5 -83v-29q0 -47 18 -80.5t48.5 -51t68.5 -17.5
q42 0 69.5 18t41.5 48h121q-13 -46 -45.5 -83.5t-79 -59.5t-106.5 -22zM195 544l-7 82l218 125v0l8 -95z" />
    <glyph glyph-name="ecircumflex" unicode="&#xea;" horiz-adv-x="592" 
d="M303 -12q-74 0 -131.5 32.5t-90 91t-32.5 135.5q0 79 32 138.5t89.5 93.5t133.5 34q74 0 129 -33t85.5 -88t30.5 -123q0 -10 -0.5 -22t-1.5 -26h-411v78h292q-3 53 -37.5 84.5t-86.5 31.5q-37 0 -68.5 -17t-50 -50t-18.5 -83v-29q0 -47 18 -80.5t48.5 -51t68.5 -17.5
q42 0 69.5 18t41.5 48h121q-13 -46 -45.5 -83.5t-79 -59.5t-106.5 -22zM157 547v87l144 80l145 -80v-87l-145 83z" />
    <glyph glyph-name="edieresis" unicode="&#xeb;" horiz-adv-x="592" 
d="M303 -12q-74 0 -131.5 32.5t-90 91t-32.5 135.5q0 79 32 138.5t89.5 93.5t133.5 34q74 0 129 -33t85.5 -88t30.5 -123q0 -10 -0.5 -22t-1.5 -26h-411v78h292q-3 53 -37.5 84.5t-86.5 31.5q-37 0 -68.5 -17t-50 -50t-18.5 -83v-29q0 -47 18 -80.5t48.5 -51t68.5 -17.5
q42 0 69.5 18t41.5 48h121q-13 -46 -45.5 -83.5t-79 -59.5t-106.5 -22zM214 567q-26 0 -43 17t-17 42t17 42.5t43 17.5q24 0 41.5 -17.5t17.5 -42.5t-17.5 -42t-41.5 -17zM390 567q-25 0 -42 17t-17 42t17 42.5t42 17.5t42 -17.5t17 -42.5t-17 -42t-42 -17z" />
    <glyph glyph-name="igrave" unicode="&#xec;" horiz-adv-x="253" 
d="M67 0v501h120v-501h-120zM233 544l-219 112l9 95v0l217 -125z" />
    <glyph glyph-name="iacute" unicode="&#xed;" horiz-adv-x="253" 
d="M67 0v501h120v-501h-120zM21 544l-7 82l218 125v0l8 -95z" />
    <glyph glyph-name="icircumflex" unicode="&#xee;" horiz-adv-x="253" 
d="M67 0v501h120v-501h-120zM-18 547v87l144 80l145 -80v-87l-145 83z" />
    <glyph glyph-name="idieresis" unicode="&#xef;" horiz-adv-x="253" 
d="M67 0v501h120v-501h-120zM39 567q-26 0 -43 17t-17 42t17 42.5t43 17.5q24 0 41.5 -17.5t17.5 -42.5t-17.5 -42t-41.5 -17zM215 567q-25 0 -42 17t-17 42t17 42.5t42 17.5t42 -17.5t17 -42.5t-17 -42t-42 -17z" />
    <glyph glyph-name="eth" unicode="&#xf0;" horiz-adv-x="637" 
d="M316 -12q-78 0 -138 34.5t-94.5 93t-34.5 131.5q0 75 34 133.5t92.5 91.5t132.5 33q42 0 79 -12.5t68 -39.5q-13 33 -31 66t-41 64.5t-50 60.5t-59 56h115q51 -44 89 -95t62 -105.5t36 -109t12 -106.5q0 -90 -36 -157t-98 -103t-138 -36zM318 90q40 0 73.5 19t53.5 54.5
t20 84.5q0 48 -20 83t-53.5 54t-72.5 19q-40 0 -73.5 -19t-53.5 -54t-20 -83q0 -49 20 -84.5t53.5 -54.5t72.5 -19zM256 539v74l291 96v-74z" />
    <glyph glyph-name="ntilde" unicode="&#xf1;" horiz-adv-x="603" 
d="M67 0v501h106l8 -85v0q24 44 67.5 70.5t101.5 26.5q61 0 104 -25.5t66.5 -75t23.5 -123.5v-289h-120v278q0 64 -27.5 98.5t-83.5 34.5q-36 0 -65 -17.5t-45 -50t-16 -79.5v-264h-120zM381 567q-28 0 -47.5 11.5t-36.5 23t-37 11.5q-17 0 -28.5 -11t-14.5 -34h-65
q9 62 39 91t74 29q28 0 47.5 -11.5t36.5 -23t37 -11.5q17 0 28.5 11.5t14.5 33.5h66q-9 -61 -39.5 -90.5t-74.5 -29.5z" />
    <glyph glyph-name="ograve" unicode="&#xf2;" horiz-adv-x="605" 
d="M301 -12q-71 0 -128.5 33t-90.5 92.5t-33 136.5q0 78 33.5 137.5t91 92.5t128.5 33q73 0 130 -33t90 -92t33 -138q0 -78 -33.5 -137t-90.5 -92t-130 -33zM302 91q36 0 65.5 18t47.5 53.5t18 87.5q0 53 -18 88.5t-47.5 53t-64.5 17.5t-65 -17.5t-48 -53t-18 -88.5
q0 -52 18 -87.5t47.5 -53.5t64.5 -18zM409 544l-219 112l9 95v0l217 -125z" />
    <glyph glyph-name="oacute" unicode="&#xf3;" horiz-adv-x="605" 
d="M301 -12q-71 0 -128.5 33t-90.5 92.5t-33 136.5q0 78 33.5 137.5t91 92.5t128.5 33q73 0 130 -33t90 -92t33 -138q0 -78 -33.5 -137t-90.5 -92t-130 -33zM302 91q36 0 65.5 18t47.5 53.5t18 87.5q0 53 -18 88.5t-47.5 53t-64.5 17.5t-65 -17.5t-48 -53t-18 -88.5
q0 -52 18 -87.5t47.5 -53.5t64.5 -18zM197 544l-7 82l218 125v0l8 -95z" />
    <glyph glyph-name="ocircumflex" unicode="&#xf4;" horiz-adv-x="605" 
d="M301 -12q-71 0 -128.5 33t-90.5 92.5t-33 136.5q0 78 33.5 137.5t91 92.5t128.5 33q73 0 130 -33t90 -92t33 -138q0 -78 -33.5 -137t-90.5 -92t-130 -33zM302 91q36 0 65.5 18t47.5 53.5t18 87.5q0 53 -18 88.5t-47.5 53t-64.5 17.5t-65 -17.5t-48 -53t-18 -88.5
q0 -52 18 -87.5t47.5 -53.5t64.5 -18zM158 547v87l144 80l145 -80v-87l-145 83z" />
    <glyph glyph-name="otilde" unicode="&#xf5;" horiz-adv-x="605" 
d="M301 -12q-71 0 -128.5 33t-90.5 92.5t-33 136.5q0 78 33.5 137.5t91 92.5t128.5 33q73 0 130 -33t90 -92t33 -138q0 -78 -33.5 -137t-90.5 -92t-130 -33zM302 91q36 0 65.5 18t47.5 53.5t18 87.5q0 53 -18 88.5t-47.5 53t-64.5 17.5t-65 -17.5t-48 -53t-18 -88.5
q0 -52 18 -87.5t47.5 -53.5t64.5 -18zM361 567q-28 0 -47.5 11.5t-36.5 23t-37 11.5q-17 0 -28.5 -11t-14.5 -34h-65q9 62 39 91t74 29q28 0 47.5 -11.5t36.5 -23t37 -11.5q17 0 28.5 11.5t14.5 33.5h66q-9 -61 -39.5 -90.5t-74.5 -29.5z" />
    <glyph glyph-name="odieresis" unicode="&#xf6;" horiz-adv-x="605" 
d="M301 -12q-71 0 -128.5 33t-90.5 92.5t-33 136.5q0 78 33.5 137.5t91 92.5t128.5 33q73 0 130 -33t90 -92t33 -138q0 -78 -33.5 -137t-90.5 -92t-130 -33zM302 91q36 0 65.5 18t47.5 53.5t18 87.5q0 53 -18 88.5t-47.5 53t-64.5 17.5t-65 -17.5t-48 -53t-18 -88.5
q0 -52 18 -87.5t47.5 -53.5t64.5 -18zM215 567q-26 0 -43 17t-17 42t17 42.5t43 17.5q24 0 41.5 -17.5t17.5 -42.5t-17.5 -42t-41.5 -17zM391 567q-25 0 -42 17t-17 42t17 42.5t42 17.5t42 -17.5t17 -42.5t-17 -42t-42 -17z" />
    <glyph glyph-name="divide" unicode="&#xf7;" horiz-adv-x="571" 
d="M74 240v100h423v-100h-423zM286 48q-33 0 -54.5 21t-21.5 51t21.5 51t54.5 21q34 0 54.5 -21t20.5 -51t-20.5 -51t-54.5 -21zM286 391q-33 0 -54.5 21t-21.5 50q0 31 21.5 52t54.5 21q34 0 54.5 -21t20.5 -52q0 -29 -20.5 -50t-54.5 -21z" />
    <glyph glyph-name="oslash" unicode="&#xf8;" horiz-adv-x="593" 
d="M32 0l432 501h97l-432 -501h-97zM295 -12q-71 0 -128 33t-90.5 92.5t-33.5 136.5q0 78 33.5 137.5t91 92.5t128.5 33q73 0 130 -33t90 -92t33 -138q0 -78 -33.5 -137t-90.5 -92t-130 -33zM296 91q36 0 65.5 18t47.5 53.5t18 87.5q0 53 -18 88.5t-47.5 53t-64.5 17.5
t-65 -17.5t-48 -53t-18 -88.5q0 -52 18 -87.5t47.5 -53.5t64.5 -18z" />
    <glyph glyph-name="ugrave" unicode="&#xf9;" horiz-adv-x="603" 
d="M252 -12q-60 0 -103.5 25t-66.5 74.5t-23 123.5v290h120v-278q0 -66 27.5 -100t82.5 -34q37 0 65.5 17.5t45 50.5t16.5 80v264h120v-501h-106l-9 84v0q-23 -44 -66.5 -70t-102.5 -26zM401 544l-219 112l9 95v0l217 -125z" />
    <glyph glyph-name="uacute" unicode="&#xfa;" horiz-adv-x="603" 
d="M252 -12q-60 0 -103.5 25t-66.5 74.5t-23 123.5v290h120v-278q0 -66 27.5 -100t82.5 -34q37 0 65.5 17.5t45 50.5t16.5 80v264h120v-501h-106l-9 84v0q-23 -44 -66.5 -70t-102.5 -26zM189 544l-7 82l218 125v0l8 -95z" />
    <glyph glyph-name="ucircumflex" unicode="&#xfb;" horiz-adv-x="603" 
d="M252 -12q-60 0 -103.5 25t-66.5 74.5t-23 123.5v290h120v-278q0 -66 27.5 -100t82.5 -34q37 0 65.5 17.5t45 50.5t16.5 80v264h120v-501h-106l-9 84v0q-23 -44 -66.5 -70t-102.5 -26zM151 547v87l144 80l145 -80v-87l-145 83z" />
    <glyph glyph-name="udieresis" unicode="&#xfc;" horiz-adv-x="603" 
d="M252 -12q-60 0 -103.5 25t-66.5 74.5t-23 123.5v290h120v-278q0 -66 27.5 -100t82.5 -34q37 0 65.5 17.5t45 50.5t16.5 80v264h120v-501h-106l-9 84v0q-23 -44 -66.5 -70t-102.5 -26zM208 567q-26 0 -43 17t-17 42t17 42.5t43 17.5q24 0 41.5 -17.5t17.5 -42.5t-17.5 -42
t-41.5 -17zM384 567q-25 0 -42 17t-17 42t17 42.5t42 17.5t42 -17.5t17 -42.5t-17 -42t-42 -17z" />
    <glyph glyph-name="yacute" unicode="&#xfd;" horiz-adv-x="590" 
d="M128 -220l123 276h-30l-201 445h130l151 -340v0l142 340h127l-316 -721h-126zM189 544l-7 82l218 125v0l8 -95z" />
    <glyph glyph-name="thorn" unicode="&#xfe;" horiz-adv-x="647" 
d="M67 -220v940h120v-292q16 22 38.5 41.5t54.5 31.5t75 12q71 0 125.5 -34.5t86 -94t31.5 -135.5q0 -75 -31.5 -134t-86.5 -93t-125 -34q-57 0 -100 21.5t-68 61.5v-291h-120zM330 92q43 0 75.5 20t51.5 55.5t19 82.5t-19 82.5t-51.5 55.5t-75.5 20t-76 -20t-51 -55.5
t-18 -82.5q0 -46 18 -82t51 -56t76 -20z" />
    <glyph glyph-name="ydieresis" unicode="&#xff;" horiz-adv-x="590" 
d="M128 -220l123 276h-30l-201 445h130l151 -340v0l142 340h127l-316 -721h-126zM208 567q-26 0 -43 17t-17 42t17 42.5t43 17.5q24 0 41.5 -17.5t17.5 -42.5t-17.5 -42t-41.5 -17zM384 567q-25 0 -42 17t-17 42t17 42.5t42 17.5t42 -17.5t17 -42.5t-17 -42t-42 -17z" />
    <glyph glyph-name="Amacron" unicode="&#x100;" horiz-adv-x="695" 
d="M25 0l256 700h134l256 -700h-127l-197 560v0l-197 -560h-125zM139 165l32 95h345l32 -95h-409zM163 785v86h369v-86h-369z" />
    <glyph glyph-name="amacron" unicode="&#x101;" horiz-adv-x="572" 
d="M235 -12q-62 0 -103 20.5t-61 55.5t-20 76q0 48 24.5 82.5t72.5 54t118 19.5h127q0 40 -11 66t-34.5 39t-58.5 13q-42 0 -71.5 -19t-35.5 -56h-118q5 54 36 92.5t80.5 60t108.5 21.5q71 0 121 -24.5t76.5 -70t26.5 -109.5v-309h-102l-12 80v0q-10 -19 -25.5 -36
t-35.5 -29.5t-45.5 -19.5t-57.5 -7zM262 83q29 0 52 10.5t39 29.5t25 43.5t12 50.5v2h-111q-36 0 -58.5 -9t-33 -24.5t-10.5 -36.5t10.5 -36t29.5 -22.5t45 -7.5zM98 591v85h369v-85h-369z" />
    <glyph glyph-name="Abreve" unicode="&#x102;" horiz-adv-x="695" 
d="M25 0l256 700h134l256 -700h-127l-197 560v0l-197 -560h-125zM139 165l32 95h345l32 -95h-409zM348 750q-47 0 -81 18.5t-52.5 52t-18.5 77.5v16h64q0 -34 20 -53.5t68 -19.5q49 0 68.5 19.5t19.5 53.5h66v-16q0 -45 -19 -78t-53 -51.5t-82 -18.5z" />
    <glyph glyph-name="abreve" unicode="&#x103;" horiz-adv-x="572" 
d="M235 -12q-62 0 -103 20.5t-61 55.5t-20 76q0 48 24.5 82.5t72.5 54t118 19.5h127q0 40 -11 66t-34.5 39t-58.5 13q-42 0 -71.5 -19t-35.5 -56h-118q5 54 36 92.5t80.5 60t108.5 21.5q71 0 121 -24.5t76.5 -70t26.5 -109.5v-309h-102l-12 80v0q-10 -19 -25.5 -36
t-35.5 -29.5t-45.5 -19.5t-57.5 -7zM262 83q29 0 52 10.5t39 29.5t25 43.5t12 50.5v2h-111q-36 0 -58.5 -9t-33 -24.5t-10.5 -36.5t10.5 -36t29.5 -22.5t45 -7.5zM282 560q-47 0 -81 18.5t-52.5 51.5t-18.5 77v16h64q0 -34 20 -53.5t68 -19.5q49 0 68.5 19.5t19.5 53.5h66
v-16q0 -44 -19 -77.5t-53 -51.5t-82 -18z" />
    <glyph glyph-name="Aogonek" unicode="&#x104;" horiz-adv-x="695" 
d="M25 0l256 700h134l256 -700h-127l-197 560v0l-197 -560h-125zM139 165l32 95h345l32 -95h-409zM590 -209q-34 0 -64 11t-48 33.5t-18 58.5q0 27 12.5 50.5t42 47t80.5 45.5l48 20l27 -57l-53 -26q-36 -18 -50.5 -34.5t-14.5 -34.5q0 -20 14.5 -31t38.5 -11q15 0 33.5 4
t36.5 11v-73q-18 -6 -40 -10t-45 -4z" />
    <glyph glyph-name="aogonek" unicode="&#x105;" horiz-adv-x="572" 
d="M235 -12q-62 0 -103 20.5t-61 55.5t-20 76q0 48 24.5 82.5t72.5 54t118 19.5h127q0 40 -11 66t-34.5 39t-58.5 13q-42 0 -71.5 -19t-35.5 -56h-118q5 54 36 92.5t80.5 60t108.5 21.5q71 0 121 -24.5t76.5 -70t26.5 -109.5v-309h-102l-12 80v0q-10 -19 -25.5 -36
t-35.5 -29.5t-45.5 -19.5t-57.5 -7zM262 83q29 0 52 10.5t39 29.5t25 43.5t12 50.5v2h-111q-36 0 -58.5 -9t-33 -24.5t-10.5 -36.5t10.5 -36t29.5 -22.5t45 -7.5zM433 -209q-34 0 -64 11t-48 33.5t-18 58.5q0 27 12.5 50.5t42 47t80.5 45.5l48 20l27 -57l-53 -26
q-36 -18 -50.5 -34.5t-14.5 -34.5q0 -20 14.5 -31t38.5 -11q15 0 33.5 4t36.5 11v-73q-18 -6 -40 -10t-45 -4z" />
    <glyph glyph-name="Cacute" unicode="&#x106;" horiz-adv-x="733" 
d="M383 -12q-105 0 -180.5 45.5t-116 127t-40.5 188.5q0 108 40.5 189.5t116 127.5t180.5 46q125 0 204.5 -61.5t99.5 -173.5h-132q-14 59 -57 93t-116 34q-66 0 -114 -30.5t-74 -88t-26 -136.5t26 -135.5t74 -87t114 -30.5q73 0 116 31.5t57 87.5h132
q-20 -106 -99.5 -166.5t-204.5 -60.5zM260 743l-7 83l218 124v0l8 -95z" />
    <glyph glyph-name="cacute" unicode="&#x107;" horiz-adv-x="596" 
d="M306 -12q-74 0 -132.5 33.5t-91.5 92.5t-33 135q0 78 33 137t91.5 93t132.5 34q95 0 159 -49.5t81 -134.5h-126q-9 38 -40.5 59.5t-74.5 21.5q-37 0 -67.5 -18.5t-48 -54.5t-17.5 -87q0 -38 10 -67.5t28.5 -50.5t43 -31.5t51.5 -10.5q29 0 52.5 9.5t40 28t22.5 44.5h126
q-17 -84 -81.5 -134t-158.5 -50zM192 544l-7 82l218 125v0l8 -95z" />
    <glyph glyph-name="Cdotaccent" unicode="&#x10a;" horiz-adv-x="733" 
d="M383 -12q-105 0 -180.5 45.5t-116 127t-40.5 188.5q0 108 40.5 189.5t116 127.5t180.5 46q125 0 204.5 -61.5t99.5 -173.5h-132q-14 59 -57 93t-116 34q-66 0 -114 -30.5t-74 -88t-26 -136.5t26 -135.5t74 -87t114 -30.5q73 0 116 31.5t57 87.5h132
q-20 -106 -99.5 -166.5t-204.5 -60.5zM366 764q-25 0 -42.5 17.5t-17.5 42.5t17.5 42.5t42.5 17.5q24 0 41.5 -17.5t17.5 -42.5t-17.5 -42.5t-41.5 -17.5z" />
    <glyph glyph-name="cdotaccent" unicode="&#x10b;" horiz-adv-x="596" 
d="M306 -12q-74 0 -132.5 33.5t-91.5 92.5t-33 135q0 78 33 137t91.5 93t132.5 34q95 0 159 -49.5t81 -134.5h-126q-9 38 -40.5 59.5t-74.5 21.5q-37 0 -67.5 -18.5t-48 -54.5t-17.5 -87q0 -38 10 -67.5t28.5 -50.5t43 -31.5t51.5 -10.5q29 0 52.5 9.5t40 28t22.5 44.5h126
q-17 -84 -81.5 -134t-158.5 -50zM298 568q-25 0 -42.5 17t-17.5 42t17.5 42.5t42.5 17.5q24 0 41.5 -17.5t17.5 -42.5t-17.5 -42t-41.5 -17z" />
    <glyph glyph-name="Ccaron" unicode="&#x10c;" horiz-adv-x="733" 
d="M383 -12q-105 0 -180.5 45.5t-116 127t-40.5 188.5q0 108 40.5 189.5t116 127.5t180.5 46q125 0 204.5 -61.5t99.5 -173.5h-132q-14 59 -57 93t-116 34q-66 0 -114 -30.5t-74 -88t-26 -136.5t26 -135.5t74 -87t114 -30.5q73 0 116 31.5t57 87.5h132
q-20 -106 -99.5 -166.5t-204.5 -60.5zM366 747l-144 81v87l144 -85l145 85v-87z" />
    <glyph glyph-name="ccaron" unicode="&#x10d;" horiz-adv-x="596" 
d="M306 -12q-74 0 -132.5 33.5t-91.5 92.5t-33 135q0 78 33 137t91.5 93t132.5 34q95 0 159 -49.5t81 -134.5h-126q-9 38 -40.5 59.5t-74.5 21.5q-37 0 -67.5 -18.5t-48 -54.5t-17.5 -87q0 -38 10 -67.5t28.5 -50.5t43 -31.5t51.5 -10.5q29 0 52.5 9.5t40 28t22.5 44.5h126
q-17 -84 -81.5 -134t-158.5 -50zM298 560l-144 80v87l144 -85l145 85v-87z" />
    <glyph glyph-name="Dcaron" unicode="&#x10e;" horiz-adv-x="704" 
d="M70 0v700h230q122 0 201.5 -43t118 -121.5t38.5 -186.5q0 -106 -38.5 -184.5t-118 -121.5t-201.5 -43h-230zM190 102h104q91 0 143.5 29.5t75 85t22.5 132.5q0 78 -22.5 133.5t-75 86t-143.5 30.5h-104v-497zM287 747l-144 81v87l144 -85l145 85v-87z" />
    <glyph glyph-name="dcaron" unicode="&#x10f;" horiz-adv-x="746" 
d="M292 -12q-71 0 -125.5 34t-86 93.5t-31.5 135.5q0 75 31.5 134.5t87 93.5t126.5 34q56 0 99 -22t67 -61v290h120v-720h-107l-12 73v0q-16 -22 -39 -41.5t-55 -31.5t-75 -12zM317 92q43 0 75.5 20.5t51 56t18.5 81.5q0 47 -18.5 82.5t-51.5 55.5t-76 20q-41 0 -74 -20
t-51.5 -55.5t-18.5 -81.5q0 -47 18.5 -82.5t51.5 -56t75 -20.5zM623 531v50q25 0 36 9.5t11 28.5v18h-47v100h100q6 -28 9 -49.5t3 -44.5q0 -55 -28.5 -83.5t-83.5 -28.5z" />
    <glyph glyph-name="Dcroat" unicode="&#x110;" horiz-adv-x="719" 
d="M6 298v103h379v-103h-379zM84 0v700h230q122 0 202 -43t118.5 -121.5t38.5 -186.5q0 -106 -38.5 -184.5t-118.5 -121.5t-202 -43h-230zM204 102h104q91 0 144 29.5t75.5 85t22.5 132.5q0 78 -22.5 133.5t-75.5 86t-144 30.5h-104v-497z" />
    <glyph glyph-name="dcroat" unicode="&#x111;" horiz-adv-x="682" 
d="M321 566v76h332v-76h-332zM292 -12q-71 0 -125.5 34t-86 93.5t-31.5 135.5q0 75 31.5 134.5t87 93.5t126.5 34q56 0 99 -22t67 -61v290h120v-720h-107l-12 73v0q-16 -22 -39 -41.5t-55 -31.5t-75 -12zM317 92q43 0 75.5 20.5t51 56t18.5 81.5q0 47 -18.5 82.5t-51.5 55.5
t-76 20q-41 0 -74 -20t-51.5 -55.5t-18.5 -81.5q0 -47 18.5 -82.5t51.5 -56t75 -20.5z" />
    <glyph glyph-name="Emacron" unicode="&#x112;" horiz-adv-x="577" 
d="M70 0v700h452v-97h-332v-201h302v-95h-302v-210h332v-97h-452zM112 785v86h369v-86h-369z" />
    <glyph glyph-name="emacron" unicode="&#x113;" horiz-adv-x="592" 
d="M303 -12q-74 0 -131.5 32.5t-90 91t-32.5 135.5q0 79 32 138.5t89.5 93.5t133.5 34q74 0 129 -33t85.5 -88t30.5 -123q0 -10 -0.5 -22t-1.5 -26h-411v78h292q-3 53 -37.5 84.5t-86.5 31.5q-37 0 -68.5 -17t-50 -50t-18.5 -83v-29q0 -47 18 -80.5t48.5 -51t68.5 -17.5
q42 0 69.5 18t41.5 48h121q-13 -46 -45.5 -83.5t-79 -59.5t-106.5 -22zM116 591v85h369v-85h-369z" />
    <glyph glyph-name="Ebreve" unicode="&#x114;" horiz-adv-x="577" 
d="M70 0v700h452v-97h-332v-201h302v-95h-302v-210h332v-97h-452zM296 750q-47 0 -81 18.5t-52.5 52t-18.5 77.5v16h64q0 -34 20 -53.5t68 -19.5q49 0 68.5 19.5t19.5 53.5h66v-16q0 -45 -19 -78t-53 -51.5t-82 -18.5z" />
    <glyph glyph-name="ebreve" unicode="&#x115;" horiz-adv-x="592" 
d="M303 -12q-74 0 -131.5 32.5t-90 91t-32.5 135.5q0 79 32 138.5t89.5 93.5t133.5 34q74 0 129 -33t85.5 -88t30.5 -123q0 -10 -0.5 -22t-1.5 -26h-411v78h292q-3 53 -37.5 84.5t-86.5 31.5q-37 0 -68.5 -17t-50 -50t-18.5 -83v-29q0 -47 18 -80.5t48.5 -51t68.5 -17.5
q42 0 69.5 18t41.5 48h121q-13 -46 -45.5 -83.5t-79 -59.5t-106.5 -22zM301 560q-47 0 -81 18.5t-52.5 51.5t-18.5 77v16h64q0 -34 20 -53.5t68 -19.5q49 0 68.5 19.5t19.5 53.5h66v-16q0 -44 -19 -77.5t-53 -51.5t-82 -18z" />
    <glyph glyph-name="Edotaccent" unicode="&#x116;" horiz-adv-x="577" 
d="M70 0v700h452v-97h-332v-201h302v-95h-302v-210h332v-97h-452zM297 764q-25 0 -42.5 17.5t-17.5 42.5t17.5 42.5t42.5 17.5q24 0 41.5 -17.5t17.5 -42.5t-17.5 -42.5t-41.5 -17.5z" />
    <glyph glyph-name="edotaccent" unicode="&#x117;" horiz-adv-x="592" 
d="M303 -12q-74 0 -131.5 32.5t-90 91t-32.5 135.5q0 79 32 138.5t89.5 93.5t133.5 34q74 0 129 -33t85.5 -88t30.5 -123q0 -10 -0.5 -22t-1.5 -26h-411v78h292q-3 53 -37.5 84.5t-86.5 31.5q-37 0 -68.5 -17t-50 -50t-18.5 -83v-29q0 -47 18 -80.5t48.5 -51t68.5 -17.5
q42 0 69.5 18t41.5 48h121q-13 -46 -45.5 -83.5t-79 -59.5t-106.5 -22zM301 568q-25 0 -42.5 17t-17.5 42t17.5 42.5t42.5 17.5q24 0 41.5 -17.5t17.5 -42.5t-17.5 -42t-41.5 -17z" />
    <glyph glyph-name="Eogonek" unicode="&#x118;" horiz-adv-x="577" 
d="M70 0v700h452v-97h-332v-201h302v-95h-302v-210h332v-97h-452zM442 -209q-34 0 -64 11t-48 33.5t-18 58.5q0 27 12.5 50.5t42 47t80.5 45.5l48 20l27 -57l-53 -26q-36 -18 -50.5 -34.5t-14.5 -34.5q0 -20 14.5 -31t38.5 -11q15 0 33.5 4t36.5 11v-73q-18 -6 -40 -10
t-45 -4z" />
    <glyph glyph-name="eogonek" unicode="&#x119;" horiz-adv-x="592" 
d="M303 -12q-74 0 -131.5 32.5t-90 91t-32.5 135.5q0 79 32 138.5t89.5 93.5t133.5 34q74 0 129 -33t85.5 -88t30.5 -123q0 -10 -0.5 -22t-1.5 -26h-411v78h292q-3 53 -37.5 84.5t-86.5 31.5q-37 0 -68.5 -17t-50 -50t-18.5 -83v-29q0 -47 18 -80.5t48.5 -51t68.5 -17.5
q42 0 69.5 18t41.5 48h121q-13 -46 -45.5 -83.5t-79 -59.5t-106.5 -22zM325 -198q-34 0 -64 11t-48 33.5t-18 58.5q0 27 12.5 50.5t42 47t80.5 45.5l48 20l27 -57l-53 -26q-36 -18 -50.5 -34.5t-14.5 -34.5q0 -20 14.5 -31t38.5 -11q15 0 33.5 4t36.5 11v-73q-18 -6 -40 -10
t-45 -4z" />
    <glyph glyph-name="Ecaron" unicode="&#x11a;" horiz-adv-x="577" 
d="M70 0v700h452v-97h-332v-201h302v-95h-302v-210h332v-97h-452zM296 747l-144 81v87l144 -85l145 85v-87z" />
    <glyph glyph-name="ecaron" unicode="&#x11b;" horiz-adv-x="592" 
d="M303 -12q-74 0 -131.5 32.5t-90 91t-32.5 135.5q0 79 32 138.5t89.5 93.5t133.5 34q74 0 129 -33t85.5 -88t30.5 -123q0 -10 -0.5 -22t-1.5 -26h-411v78h292q-3 53 -37.5 84.5t-86.5 31.5q-37 0 -68.5 -17t-50 -50t-18.5 -83v-29q0 -47 18 -80.5t48.5 -51t68.5 -17.5
q42 0 69.5 18t41.5 48h121q-13 -46 -45.5 -83.5t-79 -59.5t-106.5 -22zM301 560l-144 80v87l144 -85l145 85v-87z" />
    <glyph glyph-name="Gbreve" unicode="&#x11e;" horiz-adv-x="771" 
d="M375 -12q-99 0 -173 45t-115 125.5t-41 188.5q0 107 42 189.5t120.5 129t185.5 46.5q122 0 203 -58.5t104 -162.5h-135q-15 52 -58.5 81t-113.5 29q-71 0 -122 -30.5t-77.5 -88t-26.5 -136.5t27 -136t76 -86.5t115 -29.5q98 0 148 55t59 143h-181v91h302v-383h-111l-9 96
v0q-23 -34 -53.5 -58.5t-70.5 -37t-95 -12.5zM385 750q-47 0 -81 18.5t-52.5 52t-18.5 77.5v16h64q0 -34 20 -53.5t68 -19.5q49 0 68.5 19.5t19.5 53.5h66v-16q0 -45 -19 -78t-53 -51.5t-82 -18.5z" />
    <glyph glyph-name="gbreve" unicode="&#x11f;" horiz-adv-x="584" 
d="M278 -232q-71 0 -124 17.5t-82.5 53t-29.5 88.5q0 31 15.5 60.5t47 54.5t80.5 44l52 -57q-47 -17 -66 -41.5t-19 -48.5q0 -26 16.5 -43.5t45 -26.5t64.5 -9q34 0 60 9.5t40 26.5t14 41q0 29 -20.5 47.5t-81.5 22.5q-54 4 -93.5 11.5t-68 18t-48.5 23t-33 25.5v23l104 110
l89 -30l-117 -114l31 57q10 -7 20.5 -13t27 -10.5t43.5 -8.5t69 -7q67 -6 109 -25t61.5 -50.5t19.5 -76.5q0 -44 -24 -83t-74 -64t-128 -25zM278 151q-63 0 -108 24t-69 65t-24 92q0 50 24 90.5t69 65.5t108 25t108.5 -25t69 -65.5t23.5 -90.5q0 -51 -23.5 -92t-69 -65
t-108.5 -24zM278 244q43 0 69 22t26 65q0 42 -26 64.5t-69 22.5t-69.5 -22.5t-26.5 -64.5q0 -43 26.5 -65t69.5 -22zM360 413l-23 88h207v-75zM278 560q-47 0 -81 18.5t-52.5 51.5t-18.5 77v16h64q0 -34 20 -53.5t68 -19.5q49 0 68.5 19.5t19.5 53.5h66v-16q0 -44 -19 -77.5
t-53 -51.5t-82 -18z" />
    <glyph glyph-name="Gdotaccent" unicode="&#x120;" horiz-adv-x="771" 
d="M375 -12q-99 0 -173 45t-115 125.5t-41 188.5q0 107 42 189.5t120.5 129t185.5 46.5q122 0 203 -58.5t104 -162.5h-135q-15 52 -58.5 81t-113.5 29q-71 0 -122 -30.5t-77.5 -88t-26.5 -136.5t27 -136t76 -86.5t115 -29.5q98 0 148 55t59 143h-181v91h302v-383h-111l-9 96
v0q-23 -34 -53.5 -58.5t-70.5 -37t-95 -12.5zM386 764q-25 0 -42.5 17.5t-17.5 42.5t17.5 42.5t42.5 17.5q24 0 41.5 -17.5t17.5 -42.5t-17.5 -42.5t-41.5 -17.5z" />
    <glyph glyph-name="gdotaccent" unicode="&#x121;" horiz-adv-x="584" 
d="M278 -232q-71 0 -124 17.5t-82.5 53t-29.5 88.5q0 31 15.5 60.5t47 54.5t80.5 44l52 -57q-47 -17 -66 -41.5t-19 -48.5q0 -26 16.5 -43.5t45 -26.5t64.5 -9q34 0 60 9.5t40 26.5t14 41q0 29 -20.5 47.5t-81.5 22.5q-54 4 -93.5 11.5t-68 18t-48.5 23t-33 25.5v23l104 110
l89 -30l-117 -114l31 57q10 -7 20.5 -13t27 -10.5t43.5 -8.5t69 -7q67 -6 109 -25t61.5 -50.5t19.5 -76.5q0 -44 -24 -83t-74 -64t-128 -25zM278 151q-63 0 -108 24t-69 65t-24 92q0 50 24 90.5t69 65.5t108 25t108.5 -25t69 -65.5t23.5 -90.5q0 -51 -23.5 -92t-69 -65
t-108.5 -24zM278 244q43 0 69 22t26 65q0 42 -26 64.5t-69 22.5t-69.5 -22.5t-26.5 -64.5q0 -43 26.5 -65t69.5 -22zM360 413l-23 88h207v-75zM278 568q-25 0 -42.5 17t-17.5 42t17.5 42.5t42.5 17.5q24 0 41.5 -17.5t17.5 -42.5t-17.5 -42t-41.5 -17z" />
    <glyph glyph-name="uni0122" unicode="&#x122;" horiz-adv-x="771" 
d="M375 -12q-99 0 -173 45t-115 125.5t-41 188.5q0 107 42 189.5t120.5 129t185.5 46.5q122 0 203 -58.5t104 -162.5h-135q-15 52 -58.5 81t-113.5 29q-71 0 -122 -30.5t-77.5 -88t-26.5 -136.5t27 -136t76 -86.5t115 -29.5q98 0 148 55t59 143h-181v91h302v-383h-111l-9 96
v0q-23 -34 -53.5 -58.5t-70.5 -37t-95 -12.5zM331 -268v51q25 0 36.5 15t11.5 45v15h-52v96h104q8 -24 11 -48t3 -44q0 -63 -29 -96.5t-85 -33.5z" />
    <glyph glyph-name="uni0123" unicode="&#x123;" horiz-adv-x="584" 
d="M278 -232q-71 0 -124 17.5t-82.5 53t-29.5 88.5q0 31 15.5 60.5t47 54.5t80.5 44l52 -57q-47 -17 -66 -41.5t-19 -48.5q0 -26 16.5 -43.5t45 -26.5t64.5 -9q34 0 60 9.5t40 26.5t14 41q0 29 -20.5 47.5t-81.5 22.5q-54 4 -93.5 11.5t-68 18t-48.5 23t-33 25.5v23l104 110
l89 -30l-117 -114l31 57q10 -7 20.5 -13t27 -10.5t43.5 -8.5t69 -7q67 -6 109 -25t61.5 -50.5t19.5 -76.5q0 -44 -24 -83t-74 -64t-128 -25zM278 151q-63 0 -108 24t-69 65t-24 92q0 50 24 90.5t69 65.5t108 25t108.5 -25t69 -65.5t23.5 -90.5q0 -51 -23.5 -92t-69 -65
t-108.5 -24zM278 244q43 0 69 22t26 65q0 42 -26 64.5t-69 22.5t-69.5 -22.5t-26.5 -64.5q0 -43 26.5 -65t69.5 -22zM360 413l-23 88h207v-75zM334 769v-51q-24 0 -35.5 -9t-11.5 -28v-19h47v-99h-100q-6 28 -9 49.5t-3 43.5q0 56 28.5 84.5t83.5 28.5z" />
    <glyph glyph-name="Hbar" unicode="&#x126;" horiz-adv-x="766" 
d="M32 494v98h702v-98h-702zM544 0v700h120v-700h-120zM102 0v700h120v-700h-120zM204 308v98h363v-98h-363z" />
    <glyph glyph-name="hbar" unicode="&#x127;" horiz-adv-x="638" 
d="M29 566v76h332v-76h-332zM101 0v720h120v-297v0q25 41 68 65.5t98 24.5q60 0 103 -25.5t66 -75.5t23 -124v-288h-119v277q0 65 -27 99.5t-83 34.5q-37 0 -66.5 -17.5t-46 -50.5t-16.5 -80v-263h-120z" />
    <glyph glyph-name="Itilde" unicode="&#x128;" horiz-adv-x="260" 
d="M70 0v700h120v-700h-120zM194 752q-28 0 -47.5 11.5t-36.5 23t-37 11.5q-17 0 -28.5 -11t-14.5 -34h-65q9 62 39 91.5t74 29.5q28 0 47.5 -11.5t36.5 -23t37 -11.5q17 0 28.5 11t14.5 34h66q-9 -62 -39.5 -91.5t-74.5 -29.5z" />
    <glyph glyph-name="itilde" unicode="&#x129;" horiz-adv-x="253" 
d="M67 0v501h120v-501h-120zM185 567q-28 0 -47.5 11.5t-36.5 23t-37 11.5q-17 0 -28.5 -11t-14.5 -34h-65q9 62 39 91t74 29q28 0 47.5 -11.5t36.5 -23t37 -11.5q17 0 28.5 11.5t14.5 33.5h66q-9 -61 -39.5 -90.5t-74.5 -29.5z" />
    <glyph glyph-name="Imacron" unicode="&#x12a;" horiz-adv-x="260" 
d="M70 0v700h120v-700h-120zM-55 785v86h369v-86h-369z" />
    <glyph glyph-name="imacron" unicode="&#x12b;" horiz-adv-x="253" 
d="M67 0v501h120v-501h-120zM-58 591v85h369v-85h-369z" />
    <glyph glyph-name="Ibreve" unicode="&#x12c;" horiz-adv-x="260" 
d="M70 0v700h120v-700h-120zM130 750q-47 0 -81 18.5t-52.5 52t-18.5 77.5v16h64q0 -34 20 -53.5t68 -19.5q49 0 68.5 19.5t19.5 53.5h66v-16q0 -45 -19 -78t-53 -51.5t-82 -18.5z" />
    <glyph glyph-name="ibreve" unicode="&#x12d;" horiz-adv-x="253" 
d="M67 0v501h120v-501h-120zM126 560q-47 0 -81 18.5t-52.5 51.5t-18.5 77v16h64q0 -34 20 -53.5t68 -19.5q49 0 68.5 19.5t19.5 53.5h66v-16q0 -44 -19 -77.5t-53 -51.5t-82 -18z" />
    <glyph glyph-name="Iogonek" unicode="&#x12e;" horiz-adv-x="260" 
d="M70 0v700h120v-700h-120zM110 -208q-34 0 -64 11t-48 33.5t-18 58.5q0 27 12.5 50.5t42 47t80.5 45.5l48 20l27 -57l-53 -26q-36 -18 -50.5 -34.5t-14.5 -34.5q0 -20 14.5 -31t38.5 -11q15 0 33.5 4t36.5 11v-73q-18 -6 -40 -10t-45 -4z" />
    <glyph glyph-name="iogonek" unicode="&#x12f;" horiz-adv-x="253" 
d="M67 0v501h120v-501h-120zM127 568q-25 0 -42.5 17t-17.5 42t17.5 42.5t42.5 17.5q24 0 41.5 -17.5t17.5 -42.5t-17.5 -42t-41.5 -17zM106 -209q-34 0 -64 11t-48 33.5t-18 58.5q0 27 12.5 50.5t42 47t80.5 45.5l48 20l27 -57l-53 -26q-36 -18 -50.5 -34.5t-14.5 -34.5
q0 -20 14.5 -31t38.5 -11q15 0 33.5 4t36.5 11v-73q-18 -6 -40 -10t-45 -4z" />
    <glyph glyph-name="Idotaccent" unicode="&#x130;" horiz-adv-x="260" 
d="M70 0v700h120v-700h-120zM130 764q-25 0 -42.5 17.5t-17.5 42.5t17.5 42.5t42.5 17.5q24 0 41.5 -17.5t17.5 -42.5t-17.5 -42.5t-41.5 -17.5z" />
    <glyph glyph-name="dotlessi" unicode="&#x131;" horiz-adv-x="253" 
d="M67 0v501h120v-501h-120z" />
    <glyph glyph-name="IJ" unicode="&#x132;" horiz-adv-x="751" 
d="M70 0v700h120v-700h-120zM471 -12q-67 0 -116.5 25.5t-76.5 74t-27 117.5h120q0 -33 10 -58t31.5 -38.5t55.5 -13.5t54.5 13t29.5 36.5t9 54.5v501h120v-501q0 -102 -56.5 -156.5t-153.5 -54.5z" />
    <glyph glyph-name="ij" unicode="&#x133;" horiz-adv-x="494" 
d="M72 0v501h120v-501h-120zM132 582q-33 0 -54.5 20.5t-21.5 50.5q0 31 21.5 50.5t54.5 19.5t54.5 -19.5t21.5 -50.5q0 -30 -21.5 -50.5t-54.5 -20.5zM201 -220v102h40q34 0 48.5 13.5t14.5 46.5v559h120v-560q0 -58 -20 -93.5t-56.5 -51.5t-88.5 -16h-58zM364 582
q-33 0 -54 20.5t-21 50.5q0 31 21 50.5t55 19.5q33 0 54 -19.5t21 -50.5q0 -30 -21 -50.5t-55 -20.5z" />
    <glyph glyph-name="uni0136" unicode="&#x136;" horiz-adv-x="632" 
d="M70 0v700h120v-289l265 289h148l-258 -278l265 -422h-147l-204 330l-69 -75v-255h-120zM262 -268v51q25 0 36.5 15t11.5 45v15h-52v96h104q8 -24 11 -48t3 -44q0 -63 -29 -96.5t-85 -33.5z" />
    <glyph glyph-name="uni0137" unicode="&#x137;" horiz-adv-x="556" 
d="M392 0l-223 275l199 226h143l-249 -275v93l280 -319h-150zM67 0v720h120v-720h-120zM224 -268v51q25 0 36.5 15t11.5 45v15h-52v96h104q8 -24 11 -48t3 -44q0 -63 -29 -96.5t-85 -33.5z" />
    <glyph glyph-name="Lacute" unicode="&#x139;" horiz-adv-x="548" 
d="M70 0v700h120v-606h313v-94h-433zM30 743l-7 83l218 124v0l8 -95z" />
    <glyph glyph-name="lacute" unicode="&#x13a;" horiz-adv-x="253" 
d="M67 0v720h120v-720h-120zM21 763l-7 82l218 125v0l8 -95z" />
    <glyph glyph-name="uni013B" unicode="&#x13b;" horiz-adv-x="548" 
d="M70 0v700h120v-606h313v-94h-433zM255 -268v51q25 0 36.5 15t11.5 45v15h-52v96h104q8 -24 11 -48t3 -44q0 -63 -29 -96.5t-85 -33.5z" />
    <glyph glyph-name="uni013C" unicode="&#x13c;" horiz-adv-x="253" 
d="M67 0v720h120v-720h-120zM72 -268v51q25 0 36.5 15t11.5 45v15h-52v96h104q8 -24 11 -48t3 -44q0 -63 -29 -96.5t-85 -33.5z" />
    <glyph glyph-name="Lcaron" unicode="&#x13d;" horiz-adv-x="548" 
d="M70 0v700h120v-606h313v-94h-433zM302 511v50q25 0 36 9.5t11 28.5v18h-47v100h100q6 -28 9 -49.5t3 -44.5q0 -55 -28.5 -83.5t-83.5 -28.5z" />
    <glyph glyph-name="lcaron" unicode="&#x13e;" horiz-adv-x="352" 
d="M67 0v720h120v-720h-120zM230 531v50q25 0 36 9.5t11 28.5v18h-47v100h100q6 -28 9 -49.5t3 -44.5q0 -55 -28.5 -83.5t-83.5 -28.5z" />
    <glyph glyph-name="Ldot" unicode="&#x13f;" horiz-adv-x="548" 
d="M70 0v700h120v-606h313v-94h-433zM375 278q-34 0 -55 21t-21 50q0 32 21 52.5t55 20.5q33 0 54 -20.5t21 -52.5q0 -29 -21 -50t-54 -21z" />
    <glyph glyph-name="ldot" unicode="&#x140;" horiz-adv-x="428" 
d="M67 0v720h120v-720h-120zM323 259q-34 0 -55 21t-21 50q0 32 21 52.5t55 20.5q33 0 54 -20.5t21 -52.5q0 -29 -21 -50t-54 -21z" />
    <glyph glyph-name="Lslash" unicode="&#x141;" horiz-adv-x="573" 
d="M21 271v99l300 103v-99zM95 0v700h120v-606h312v-94h-432z" />
    <glyph glyph-name="lslash" unicode="&#x142;" horiz-adv-x="282" 
d="M10 300v99l262 94v-100zM81 0v720h120v-720h-120z" />
    <glyph glyph-name="Nacute" unicode="&#x143;" horiz-adv-x="717" 
d="M70 0v700h120l337 -506v0v506h120v-700h-120l-337 505v0v-505h-120zM252 743l-7 83l218 124v0l8 -95z" />
    <glyph glyph-name="nacute" unicode="&#x144;" horiz-adv-x="603" 
d="M67 0v501h106l8 -85v0q24 44 67.5 70.5t101.5 26.5q61 0 104 -25.5t66.5 -75t23.5 -123.5v-289h-120v278q0 64 -27.5 98.5t-83.5 34.5q-36 0 -65 -17.5t-45 -50t-16 -79.5v-264h-120zM217 544l-7 82l218 125v0l8 -95z" />
    <glyph glyph-name="uni0145" unicode="&#x145;" horiz-adv-x="717" 
d="M70 0v700h120l337 -506v0v506h120v-700h-120l-337 505v0v-505h-120zM304 -268v51q25 0 36.5 15t11.5 45v15h-52v96h104q8 -24 11 -48t3 -44q0 -63 -29 -96.5t-85 -33.5z" />
    <glyph glyph-name="uni0146" unicode="&#x146;" horiz-adv-x="603" 
d="M67 0v501h106l8 -85v0q24 44 67.5 70.5t101.5 26.5q61 0 104 -25.5t66.5 -75t23.5 -123.5v-289h-120v278q0 64 -27.5 98.5t-83.5 34.5q-36 0 -65 -17.5t-45 -50t-16 -79.5v-264h-120zM249 -268v51q25 0 36.5 15t11.5 45v15h-52v96h104q8 -24 11 -48t3 -44
q0 -63 -29 -96.5t-85 -33.5z" />
    <glyph glyph-name="Ncaron" unicode="&#x147;" horiz-adv-x="717" 
d="M70 0v700h120l337 -506v0v506h120v-700h-120l-337 505v0v-505h-120zM358 747l-144 81v87l144 -85l145 85v-87z" />
    <glyph glyph-name="ncaron" unicode="&#x148;" horiz-adv-x="603" 
d="M67 0v501h106l8 -85v0q24 44 67.5 70.5t101.5 26.5q61 0 104 -25.5t66.5 -75t23.5 -123.5v-289h-120v278q0 64 -27.5 98.5t-83.5 34.5q-36 0 -65 -17.5t-45 -50t-16 -79.5v-264h-120zM323 560l-144 80v87l144 -85l145 85v-87z" />
    <glyph glyph-name="Eng" unicode="&#x14a;" horiz-adv-x="717" 
d="M70 0v700h120l337 -506v0v506h120v-759q0 -58 -20 -93.5t-56.5 -51.5t-87.5 -16h-58v102h40q34 0 48 13.5t14 45.5v59l-337 505v0v-505h-120z" />
    <glyph glyph-name="eng" unicode="&#x14b;" horiz-adv-x="598" 
d="M67 0v501h106l8 -85v0q24 44 67.5 70.5t101.5 26.5q61 0 104 -25.5t66.5 -75t23.5 -123.5v-348q0 -58 -20 -93.5t-56.5 -51.5t-87.5 -16h-59v102h40q35 0 49 13.5t14 46.5v336q0 65 -27.5 99t-83.5 34q-36 0 -65 -17.5t-45 -50t-16 -79.5v-264h-120z" />
    <glyph glyph-name="Omacron" unicode="&#x14c;" horiz-adv-x="785" 
d="M392 -12q-102 0 -180 45.5t-122 127t-44 189.5q0 107 44 188.5t122 127.5t180 46q104 0 182 -46t121.5 -127.5t43.5 -188.5q0 -108 -43.5 -189.5t-121.5 -127t-182 -45.5zM392 96q68 0 118.5 30.5t78 87.5t27.5 136t-27.5 136t-78 87.5t-118.5 30.5q-67 0 -117.5 -30.5
t-78.5 -87.5t-28 -136t28 -136t78.5 -87.5t117.5 -30.5zM208 785v86h369v-86h-369z" />
    <glyph glyph-name="omacron" unicode="&#x14d;" horiz-adv-x="605" 
d="M301 -12q-71 0 -128.5 33t-90.5 92.5t-33 136.5q0 78 33.5 137.5t91 92.5t128.5 33q73 0 130 -33t90 -92t33 -138q0 -78 -33.5 -137t-90.5 -92t-130 -33zM302 91q36 0 65.5 18t47.5 53.5t18 87.5q0 53 -18 88.5t-47.5 53t-64.5 17.5t-65 -17.5t-48 -53t-18 -88.5
q0 -52 18 -87.5t47.5 -53.5t64.5 -18zM118 591v85h369v-85h-369z" />
    <glyph glyph-name="Obreve" unicode="&#x14e;" horiz-adv-x="785" 
d="M392 -12q-102 0 -180 45.5t-122 127t-44 189.5q0 107 44 188.5t122 127.5t180 46q104 0 182 -46t121.5 -127.5t43.5 -188.5q0 -108 -43.5 -189.5t-121.5 -127t-182 -45.5zM392 96q68 0 118.5 30.5t78 87.5t27.5 136t-27.5 136t-78 87.5t-118.5 30.5q-67 0 -117.5 -30.5
t-78.5 -87.5t-28 -136t28 -136t78.5 -87.5t117.5 -30.5zM392 750q-47 0 -81 18.5t-52.5 52t-18.5 77.5v16h64q0 -34 20 -53.5t68 -19.5q49 0 68.5 19.5t19.5 53.5h66v-16q0 -45 -19 -78t-53 -51.5t-82 -18.5z" />
    <glyph glyph-name="obreve" unicode="&#x14f;" horiz-adv-x="605" 
d="M301 -12q-71 0 -128.5 33t-90.5 92.5t-33 136.5q0 78 33.5 137.5t91 92.5t128.5 33q73 0 130 -33t90 -92t33 -138q0 -78 -33.5 -137t-90.5 -92t-130 -33zM302 91q36 0 65.5 18t47.5 53.5t18 87.5q0 53 -18 88.5t-47.5 53t-64.5 17.5t-65 -17.5t-48 -53t-18 -88.5
q0 -52 18 -87.5t47.5 -53.5t64.5 -18zM302 560q-47 0 -81 18.5t-52.5 51.5t-18.5 77v16h64q0 -34 20 -53.5t68 -19.5q49 0 68.5 19.5t19.5 53.5h66v-16q0 -44 -19 -77.5t-53 -51.5t-82 -18z" />
    <glyph glyph-name="Ohungarumlaut" unicode="&#x150;" horiz-adv-x="785" 
d="M392 -12q-102 0 -180 45.5t-122 127t-44 189.5q0 107 44 188.5t122 127.5t180 46q104 0 182 -46t121.5 -127.5t43.5 -188.5q0 -108 -43.5 -189.5t-121.5 -127t-182 -45.5zM392 96q68 0 118.5 30.5t78 87.5t27.5 136t-27.5 136t-78 87.5t-118.5 30.5q-67 0 -117.5 -30.5
t-78.5 -87.5t-28 -136t28 -136t78.5 -87.5t117.5 -30.5zM426 749l80 174h99l-102 -174h-77zM261 749l70 174h98l-91 -174h-77z" />
    <glyph glyph-name="ohungarumlaut" unicode="&#x151;" horiz-adv-x="605" 
d="M301 -12q-71 0 -128.5 33t-90.5 92.5t-33 136.5q0 78 33.5 137.5t91 92.5t128.5 33q73 0 130 -33t90 -92t33 -138q0 -78 -33.5 -137t-90.5 -92t-130 -33zM302 91q36 0 65.5 18t47.5 53.5t18 87.5q0 53 -18 88.5t-47.5 53t-64.5 17.5t-65 -17.5t-48 -53t-18 -88.5
q0 -52 18 -87.5t47.5 -53.5t64.5 -18zM336 550l80 174h99l-102 -174h-77zM171 550l70 174h98l-91 -174h-77z" />
    <glyph glyph-name="OE" unicode="&#x152;" horiz-adv-x="1104" 
d="M388 -12q-73 0 -135.5 26t-109 74.5t-72 114.5t-25.5 147q0 80 25.5 146.5t72 114.5t109 74.5t134.5 26.5q71 0 133.5 -28.5t102.5 -82.5v99h427v-97h-307v-201h277v-95h-277v-210h307v-97h-427v97q-26 -35 -63.5 -59.5t-81.5 -37t-90 -12.5zM395 96q64 0 115.5 30.5
t81.5 87.5t30 136t-30 136t-81.5 87.5t-115.5 30.5q-63 0 -114.5 -30.5t-82 -87.5t-30.5 -136t30.5 -136t82 -87.5t114.5 -30.5z" />
    <glyph glyph-name="oe" unicode="&#x153;" horiz-adv-x="976" 
d="M302 -12q-72 0 -129.5 33t-90.5 92t-33 137t33.5 137.5t91 92.5t129.5 33q61 0 109.5 -24.5t77.5 -70.5q33 45 83.5 70t114.5 25q74 0 129 -33t85.5 -88t30.5 -123q0 -10 -0.5 -22t-1.5 -26h-379q3 -43 21.5 -73t48 -45.5t65.5 -15.5q45 0 74 21.5t43 56.5h119
q-13 -50 -45 -90t-80.5 -63.5t-110.5 -23.5q-63 0 -113.5 24.5t-83.5 68.5q-31 -44 -79 -68.5t-109 -24.5zM302 91q36 0 65.5 18t47.5 53.5t18 87.5q0 53 -18 88.5t-47.5 53t-64.5 17.5t-65 -17.5t-48 -53t-18 -88.5q0 -52 18 -87.5t47.5 -53.5t64.5 -18zM555 299h257
q-3 53 -38 84.5t-87 31.5q-33 0 -61 -13t-46.5 -39t-24.5 -64z" />
    <glyph glyph-name="Racute" unicode="&#x154;" horiz-adv-x="619" 
d="M70 0v700h251q84 0 138 -28.5t80.5 -76t26.5 -107.5q0 -56 -26 -104t-80.5 -77t-140.5 -29h-129v-278h-120zM435 0l-147 309h131l154 -309h-138zM190 367h124q66 0 97.5 32.5t31.5 85.5q0 52 -31 83.5t-99 31.5h-123v-233zM198 743l-7 83l218 124v0l8 -95z" />
    <glyph glyph-name="racute" unicode="&#x155;" horiz-adv-x="394" 
d="M67 0v501h107l11 -94v0q18 33 44.5 56.5t62 36.5t79.5 13v-127h-38q-31 0 -58 -7.5t-47 -24t-30.5 -45.5t-10.5 -72v-237h-120zM130 544l-7 82l218 125v0l8 -95z" />
    <glyph glyph-name="uni0156" unicode="&#x156;" horiz-adv-x="619" 
d="M70 0v700h251q84 0 138 -28.5t80.5 -76t26.5 -107.5q0 -56 -26 -104t-80.5 -77t-140.5 -29h-129v-278h-120zM435 0l-147 309h131l154 -309h-138zM190 367h124q66 0 97.5 32.5t31.5 85.5q0 52 -31 83.5t-99 31.5h-123v-233zM250 -268v51q25 0 36.5 15t11.5 45v15h-52v96
h104q8 -24 11 -48t3 -44q0 -63 -29 -96.5t-85 -33.5z" />
    <glyph glyph-name="uni0157" unicode="&#x157;" horiz-adv-x="394" 
d="M67 0v501h107l11 -94v0q18 33 44.5 56.5t62 36.5t79.5 13v-127h-38q-31 0 -58 -7.5t-47 -24t-30.5 -45.5t-10.5 -72v-237h-120zM71 -268v51q25 0 36.5 15t11.5 45v15h-52v96h104q8 -24 11 -48t3 -44q0 -63 -29 -96.5t-85 -33.5z" />
    <glyph glyph-name="Rcaron" unicode="&#x158;" horiz-adv-x="619" 
d="M70 0v700h251q84 0 138 -28.5t80.5 -76t26.5 -107.5q0 -56 -26 -104t-80.5 -77t-140.5 -29h-129v-278h-120zM435 0l-147 309h131l154 -309h-138zM190 367h124q66 0 97.5 32.5t31.5 85.5q0 52 -31 83.5t-99 31.5h-123v-233zM304 747l-144 81v87l144 -85l145 85v-87z" />
    <glyph glyph-name="rcaron" unicode="&#x159;" horiz-adv-x="394" 
d="M67 0v501h107l11 -94v0q18 33 44.5 56.5t62 36.5t79.5 13v-127h-38q-31 0 -58 -7.5t-47 -24t-30.5 -45.5t-10.5 -72v-237h-120zM236 560l-144 80v87l144 -85l145 85v-87z" />
    <glyph glyph-name="Sacute" unicode="&#x15a;" horiz-adv-x="596" 
d="M306 -12q-76 0 -135 27t-92.5 77t-34.5 119h127q1 -35 17 -62.5t45.5 -43.5t71.5 -16q37 0 63.5 11.5t40.5 33t14 50.5q0 33 -15.5 55t-42.5 36.5t-62.5 26t-73.5 24.5q-83 28 -125 71.5t-42 116.5q0 61 29.5 105t82 68.5t121.5 24.5q70 0 122 -25t82.5 -69.5
t31.5 -106.5h-128q0 26 -13.5 48.5t-38 37t-58.5 14.5q-30 1 -54 -9.5t-37.5 -30t-13.5 -48.5q0 -28 13 -46.5t36.5 -31t55.5 -23.5t70 -24q52 -17 94.5 -41.5t67.5 -63.5t25 -101q0 -54 -28 -100.5t-82 -75t-134 -28.5zM189 743l-7 83l218 124v0l8 -95z" />
    <glyph glyph-name="sacute" unicode="&#x15b;" horiz-adv-x="522" 
d="M268 -12q-66 0 -115.5 21.5t-78.5 60t-34 88.5h120q5 -21 18.5 -38.5t35.5 -27.5t53 -10q29 0 48 8.5t28 22.5t9 29q0 24 -12.5 36.5t-37.5 20t-59 14.5q-34 8 -67 18t-60 26t-43 40.5t-16 60.5q0 44 23.5 79t68 55.5t105.5 20.5q88 0 140.5 -40.5t61.5 -113.5h-114
q-5 28 -28 43.5t-60 15.5q-39 0 -59.5 -14.5t-20.5 -37.5q0 -16 13 -28t37 -20.5t58 -15.5q55 -12 97.5 -26.5t68 -43t25.5 -82.5q1 -47 -24.5 -84t-71.5 -57.5t-109 -20.5zM154 544l-7 82l218 125v0l8 -95z" />
    <glyph glyph-name="Scedilla" unicode="&#x15e;" horiz-adv-x="596" 
d="M306 -12q-76 0 -135 27t-92.5 77t-34.5 119h127q1 -35 17 -62.5t45.5 -43.5t71.5 -16q37 0 63.5 11.5t40.5 33t14 50.5q0 33 -15.5 55t-42.5 36.5t-62.5 26t-73.5 24.5q-83 28 -125 71.5t-42 116.5q0 61 29.5 105t82 68.5t121.5 24.5q70 0 122 -25t82.5 -69.5
t31.5 -106.5h-128q0 26 -13.5 48.5t-38 37t-58.5 14.5q-30 1 -54 -9.5t-37.5 -30t-13.5 -48.5q0 -28 13 -46.5t36.5 -31t55.5 -23.5t70 -24q52 -17 94.5 -41.5t67.5 -63.5t25 -101q0 -54 -28 -100.5t-82 -75t-134 -28.5zM221 -264v70h108q29 0 43 9t14 30q0 18 -14 27t-43 9
h-58v124h75v-59q35 0 64.5 -10.5t47.5 -34t18 -59.5q0 -35 -17.5 -58.5t-47 -35.5t-64.5 -12h-126z" />
    <glyph glyph-name="scedilla" unicode="&#x15f;" horiz-adv-x="522" 
d="M268 -12q-66 0 -115.5 21.5t-78.5 60t-34 88.5h120q5 -21 18.5 -38.5t35.5 -27.5t53 -10q29 0 48 8.5t28 22.5t9 29q0 24 -12.5 36.5t-37.5 20t-59 14.5q-34 8 -67 18t-60 26t-43 40.5t-16 60.5q0 44 23.5 79t68 55.5t105.5 20.5q88 0 140.5 -40.5t61.5 -113.5h-114
q-5 28 -28 43.5t-60 15.5q-39 0 -59.5 -14.5t-20.5 -37.5q0 -16 13 -28t37 -20.5t58 -15.5q55 -12 97.5 -26.5t68 -43t25.5 -82.5q1 -47 -24.5 -84t-71.5 -57.5t-109 -20.5zM178 -264v70h108q29 0 43 9t14 30q0 18 -14 27t-43 9h-58v124h75v-59q35 0 64.5 -10.5t47.5 -34
t18 -59.5q0 -35 -17.5 -58.5t-47 -35.5t-64.5 -12h-126z" />
    <glyph glyph-name="Scaron" unicode="&#x160;" horiz-adv-x="596" 
d="M306 -12q-76 0 -135 27t-92.5 77t-34.5 119h127q1 -35 17 -62.5t45.5 -43.5t71.5 -16q37 0 63.5 11.5t40.5 33t14 50.5q0 33 -15.5 55t-42.5 36.5t-62.5 26t-73.5 24.5q-83 28 -125 71.5t-42 116.5q0 61 29.5 105t82 68.5t121.5 24.5q70 0 122 -25t82.5 -69.5
t31.5 -106.5h-128q0 26 -13.5 48.5t-38 37t-58.5 14.5q-30 1 -54 -9.5t-37.5 -30t-13.5 -48.5q0 -28 13 -46.5t36.5 -31t55.5 -23.5t70 -24q52 -17 94.5 -41.5t67.5 -63.5t25 -101q0 -54 -28 -100.5t-82 -75t-134 -28.5zM295 747l-144 81v87l144 -85l145 85v-87z" />
    <glyph glyph-name="scaron" unicode="&#x161;" horiz-adv-x="522" 
d="M268 -12q-66 0 -115.5 21.5t-78.5 60t-34 88.5h120q5 -21 18.5 -38.5t35.5 -27.5t53 -10q29 0 48 8.5t28 22.5t9 29q0 24 -12.5 36.5t-37.5 20t-59 14.5q-34 8 -67 18t-60 26t-43 40.5t-16 60.5q0 44 23.5 79t68 55.5t105.5 20.5q88 0 140.5 -40.5t61.5 -113.5h-114
q-5 28 -28 43.5t-60 15.5q-39 0 -59.5 -14.5t-20.5 -37.5q0 -16 13 -28t37 -20.5t58 -15.5q55 -12 97.5 -26.5t68 -43t25.5 -82.5q1 -47 -24.5 -84t-71.5 -57.5t-109 -20.5zM260 560l-144 80v87l144 -85l145 85v-87z" />
    <glyph glyph-name="uni0162" unicode="&#x162;" horiz-adv-x="586" 
d="M233 0v603h-206v97h532v-97h-206v-603h-120zM210 -264v70h108q29 0 43 9t14 30q0 18 -14 27t-43 9h-58v124h75v-59q35 0 64.5 -10.5t47.5 -34t18 -59.5q0 -35 -17.5 -58.5t-46.5 -35.5t-64 -12h-127z" />
    <glyph glyph-name="uni0163" unicode="&#x163;" horiz-adv-x="418" 
d="M284 0q-50 0 -88 16t-58.5 53t-20.5 100v231h-86v101h86l14 131h106v-131h137v-101h-137v-231q0 -38 16 -52.5t56 -14.5h61v-102h-86zM187 -264v70h108q29 0 43 9t14 30q0 18 -14 27t-43 9h-58v124h75v-59q35 0 64.5 -10.5t47.5 -34t18 -59.5q0 -35 -17.5 -58.5
t-47 -35.5t-64.5 -12h-126z" />
    <glyph glyph-name="Tcaron" unicode="&#x164;" horiz-adv-x="586" 
d="M233 0v603h-206v97h532v-97h-206v-603h-120zM293 747l-145 81v87l145 -85l144 85v-87z" />
    <glyph glyph-name="tcaron" unicode="&#x165;" horiz-adv-x="418" 
d="M284 0q-50 0 -88 16t-58.5 53t-20.5 100v231h-86v101h86l14 131h106v-131h137v-101h-137v-231q0 -38 16 -52.5t56 -14.5h61v-102h-86zM297 544v50q25 0 36 9.5t11 28.5v18h-47v100h100q6 -28 9 -49.5t3 -44.5q0 -55 -28.5 -83.5t-83.5 -28.5z" />
    <glyph glyph-name="Utilde" unicode="&#x168;" horiz-adv-x="676" 
d="M336 -12q-76 0 -137.5 30t-98 92t-36.5 156v434h120v-435q0 -57 19 -94t53.5 -55.5t81.5 -18.5q48 0 82.5 18.5t53 55.5t18.5 94v435h120v-434q0 -94 -37 -156t-100 -92t-139 -30zM401 752q-28 0 -47.5 11.5t-36.5 23t-37 11.5q-17 0 -28.5 -11t-14.5 -34h-65
q9 62 39 91.5t74 29.5q28 0 47.5 -11.5t36.5 -23t37 -11.5q17 0 28.5 11t14.5 34h66q-9 -62 -39.5 -91.5t-74.5 -29.5z" />
    <glyph glyph-name="utilde" unicode="&#x169;" horiz-adv-x="603" 
d="M252 -12q-60 0 -103.5 25t-66.5 74.5t-23 123.5v290h120v-278q0 -66 27.5 -100t82.5 -34q37 0 65.5 17.5t45 50.5t16.5 80v264h120v-501h-106l-9 84v0q-23 -44 -66.5 -70t-102.5 -26zM353 567q-28 0 -47.5 11.5t-36.5 23t-37 11.5q-17 0 -28.5 -11t-14.5 -34h-65
q9 62 39 91t74 29q28 0 47.5 -11.5t36.5 -23t37 -11.5q17 0 28.5 11.5t14.5 33.5h66q-9 -61 -39.5 -90.5t-74.5 -29.5z" />
    <glyph glyph-name="Umacron" unicode="&#x16a;" horiz-adv-x="676" 
d="M336 -12q-76 0 -137.5 30t-98 92t-36.5 156v434h120v-435q0 -57 19 -94t53.5 -55.5t81.5 -18.5q48 0 82.5 18.5t53 55.5t18.5 94v435h120v-434q0 -94 -37 -156t-100 -92t-139 -30zM153 785v86h369v-86h-369z" />
    <glyph glyph-name="umacron" unicode="&#x16b;" horiz-adv-x="603" 
d="M252 -12q-60 0 -103.5 25t-66.5 74.5t-23 123.5v290h120v-278q0 -66 27.5 -100t82.5 -34q37 0 65.5 17.5t45 50.5t16.5 80v264h120v-501h-106l-9 84v0q-23 -44 -66.5 -70t-102.5 -26zM111 591v85h369v-85h-369z" />
    <glyph glyph-name="Ubreve" unicode="&#x16c;" horiz-adv-x="676" 
d="M336 -12q-76 0 -137.5 30t-98 92t-36.5 156v434h120v-435q0 -57 19 -94t53.5 -55.5t81.5 -18.5q48 0 82.5 18.5t53 55.5t18.5 94v435h120v-434q0 -94 -37 -156t-100 -92t-139 -30zM337 750q-47 0 -81 18.5t-52.5 52t-18.5 77.5v16h64q0 -34 20 -53.5t68 -19.5
q49 0 68.5 19.5t19.5 53.5h66v-16q0 -45 -19 -78t-53 -51.5t-82 -18.5z" />
    <glyph glyph-name="ubreve" unicode="&#x16d;" horiz-adv-x="603" 
d="M252 -12q-60 0 -103.5 25t-66.5 74.5t-23 123.5v290h120v-278q0 -66 27.5 -100t82.5 -34q37 0 65.5 17.5t45 50.5t16.5 80v264h120v-501h-106l-9 84v0q-23 -44 -66.5 -70t-102.5 -26zM295 560q-47 0 -81 18.5t-52.5 51.5t-18.5 77v16h64q0 -34 20 -53.5t68 -19.5
q49 0 68.5 19.5t19.5 53.5h66v-16q0 -44 -19 -77.5t-53 -51.5t-82 -18z" />
    <glyph glyph-name="Uring" unicode="&#x16e;" horiz-adv-x="676" 
d="M336 -12q-76 0 -137.5 30t-98 92t-36.5 156v434h120v-435q0 -57 19 -94t53.5 -55.5t81.5 -18.5q48 0 82.5 18.5t53 55.5t18.5 94v435h120v-434q0 -94 -37 -156t-100 -92t-139 -30zM338 753q-46 0 -79 29.5t-33 80.5q0 52 33 81.5t79 29.5q47 0 79.5 -29.5t32.5 -81.5
q0 -51 -32.5 -80.5t-79.5 -29.5zM338 808q22 0 37.5 15t15.5 40q0 26 -15 40.5t-38 14.5q-21 0 -37 -14.5t-16 -40.5q0 -25 16 -40t37 -15z" />
    <glyph glyph-name="uring" unicode="&#x16f;" horiz-adv-x="603" 
d="M252 -12q-60 0 -103.5 25t-66.5 74.5t-23 123.5v290h120v-278q0 -66 27.5 -100t82.5 -34q37 0 65.5 17.5t45 50.5t16.5 80v264h120v-501h-106l-9 84v0q-23 -44 -66.5 -70t-102.5 -26zM296 567q-46 0 -79 29t-33 81q0 51 33 80.5t79 29.5q47 0 79.5 -29.5t32.5 -80.5
q0 -52 -32.5 -81t-79.5 -29zM296 622q22 0 37.5 15t15.5 40q0 26 -15 40.5t-38 14.5q-21 0 -37 -14.5t-16 -40.5q0 -25 16 -40t37 -15z" />
    <glyph glyph-name="Uhungarumlaut" unicode="&#x170;" horiz-adv-x="676" 
d="M336 -12q-76 0 -137.5 30t-98 92t-36.5 156v434h120v-435q0 -57 19 -94t53.5 -55.5t81.5 -18.5q48 0 82.5 18.5t53 55.5t18.5 94v435h120v-434q0 -94 -37 -156t-100 -92t-139 -30zM371 749l80 174h99l-102 -174h-77zM206 749l70 174h98l-91 -174h-77z" />
    <glyph glyph-name="uhungarumlaut" unicode="&#x171;" horiz-adv-x="603" 
d="M252 -12q-60 0 -103.5 25t-66.5 74.5t-23 123.5v290h120v-278q0 -66 27.5 -100t82.5 -34q37 0 65.5 17.5t45 50.5t16.5 80v264h120v-501h-106l-9 84v0q-23 -44 -66.5 -70t-102.5 -26zM329 550l80 174h99l-102 -174h-77zM164 550l70 174h98l-91 -174h-77z" />
    <glyph glyph-name="Uogonek" unicode="&#x172;" horiz-adv-x="676" 
d="M336 -12q-76 0 -137.5 30t-98 92t-36.5 156v434h120v-435q0 -57 19 -94t53.5 -55.5t81.5 -18.5q48 0 82.5 18.5t53 55.5t18.5 94v435h120v-434q0 -94 -37 -156t-100 -92t-139 -30zM334 -208q-34 0 -64 11t-48 33.5t-18 58.5q0 27 12.5 50.5t42 47t80.5 45.5l48 20l27 -57
l-53 -26q-36 -18 -50.5 -34.5t-14.5 -34.5q0 -20 14.5 -31t38.5 -11q15 0 33.5 4t36.5 11v-73q-18 -6 -40 -10t-45 -4z" />
    <glyph glyph-name="uogonek" unicode="&#x173;" horiz-adv-x="603" 
d="M252 -12q-60 0 -103.5 25t-66.5 74.5t-23 123.5v290h120v-278q0 -66 27.5 -100t82.5 -34q37 0 65.5 17.5t45 50.5t16.5 80v264h120v-501h-106l-9 84v0q-23 -44 -66.5 -70t-102.5 -26zM456 -209q-34 0 -64 11t-48 33.5t-18 58.5q0 27 12.5 50.5t42 47t80.5 45.5l48 20
l27 -57l-53 -26q-36 -18 -50.5 -34.5t-14.5 -34.5q0 -20 14.5 -31t38.5 -11q15 0 33.5 4t36.5 11v-73q-18 -6 -40 -10t-45 -4z" />
    <glyph glyph-name="Wcircumflex" unicode="&#x174;" horiz-adv-x="1003" 
d="M212 0l-186 700h128l130 -563v0l153 563h132l148 -564v0l132 564h129l-191 -700h-142l-144 530v0l-148 -530h-141zM358 748v87l144 81l145 -81v-87l-145 83z" />
    <glyph glyph-name="wcircumflex" unicode="&#x175;" horiz-adv-x="799" 
d="M166 0l-147 501h118l104 -417l-25 1l117 416h133l118 -416h-26l103 416h120l-147 -501h-124l-124 430h28l-124 -430h-124zM255 547v87l144 80l145 -80v-87l-145 83z" />
    <glyph glyph-name="Ycircumflex" unicode="&#x176;" horiz-adv-x="618" 
d="M249 0v252l-234 448h136l174 -359h-30l173 359h134l-233 -448v-252h-120zM165 748v87l144 81l145 -81v-87l-145 83z" />
    <glyph glyph-name="ycircumflex" unicode="&#x177;" horiz-adv-x="590" 
d="M128 -220l123 276h-30l-201 445h130l151 -340v0l142 340h127l-316 -721h-126zM151 547v87l144 80l145 -80v-87l-145 83z" />
    <glyph glyph-name="Ydieresis" unicode="&#x178;" horiz-adv-x="618" 
d="M249 0v252l-234 448h136l174 -359h-30l173 359h134l-233 -448v-252h-120zM222 770q-26 0 -43 17t-17 42t17 42.5t43 17.5q24 0 41.5 -17.5t17.5 -42.5t-17.5 -42t-41.5 -17zM398 770q-25 0 -42 17t-17 42t17 42.5t42 17.5t42 -17.5t17 -42.5t-17 -42t-42 -17z" />
    <glyph glyph-name="Zacute" unicode="&#x179;" horiz-adv-x="564" 
d="M47 0v92l329 507h-326v101h465v-92l-331 -507h333v-101h-470zM176 743l-7 83l218 124v0l8 -95z" />
    <glyph glyph-name="zacute" unicode="&#x17a;" horiz-adv-x="478" 
d="M33 0v97l260 304h-256v100h393v-97l-261 -305h266v-99h-402zM131 544l-7 82l218 125v0l8 -95z" />
    <glyph glyph-name="Zdotaccent" unicode="&#x17b;" horiz-adv-x="564" 
d="M47 0v92l329 507h-326v101h465v-92l-331 -507h333v-101h-470zM282 764q-25 0 -42.5 17.5t-17.5 42.5t17.5 42.5t42.5 17.5q24 0 41.5 -17.5t17.5 -42.5t-17.5 -42.5t-41.5 -17.5z" />
    <glyph glyph-name="zdotaccent" unicode="&#x17c;" horiz-adv-x="478" 
d="M33 0v97l260 304h-256v100h393v-97l-261 -305h266v-99h-402zM238 568q-25 0 -42.5 17t-17.5 42t17.5 42.5t42.5 17.5q24 0 41.5 -17.5t17.5 -42.5t-17.5 -42t-41.5 -17z" />
    <glyph glyph-name="Zcaron" unicode="&#x17d;" horiz-adv-x="564" 
d="M47 0v92l329 507h-326v101h465v-92l-331 -507h333v-101h-470zM282 747l-144 81v87l144 -85l145 85v-87z" />
    <glyph glyph-name="zcaron" unicode="&#x17e;" horiz-adv-x="478" 
d="M33 0v97l260 304h-256v100h393v-97l-261 -305h266v-99h-402zM237 560l-144 80v87l144 -85l145 85v-87z" />
    <glyph glyph-name="uni018F" unicode="&#x18f;" horiz-adv-x="759" 
d="M376 -12q-74 0 -135 23t-104.5 67t-67 106t-23.5 140q0 14 1 29t2 31h558v-90h-433q0 -60 25.5 -104t71 -68t104.5 -24q44 0 82 14t67 42t45 68.5t16 93.5v53q0 74 -27 126t-74 80t-106 28q-68 0 -118 -32.5t-70 -91.5h-135q20 70 65 122t110.5 81.5t146.5 29.5
q101 0 176.5 -45.5t118 -127t42.5 -190.5q0 -108 -42.5 -189.5t-118 -126.5t-177.5 -45z" />
    <glyph glyph-name="florin" unicode="&#x192;" horiz-adv-x="334" 
d="M-52 -222l9 101h25q24 0 37 12.5t16 42.5l69 655q10 96 68 140t167 44l-9 -102q-51 0 -76 -18.5t-30 -63.5l-69 -655q-6 -57 -29 -91.5t-61.5 -49.5t-90.5 -15h-26zM26 452l9 100h289l-9 -100h-289z" />
    <glyph glyph-name="AEacute" unicode="&#x1fc;" horiz-adv-x="935" 
d="M25 0l382 700h473v-95h-274v-204h244v-92h-244v-214h274v-95h-394v607v0l-331 -607h-130zM166 142l50 93h327v-93h-377zM464 743l-7 83l218 124v0l8 -95z" />
    <glyph glyph-name="aeacute" unicode="&#x1fd;" horiz-adv-x="936" 
d="M243 -12q-63 0 -106 21t-64.5 55.5t-21.5 76.5q0 48 24 83.5t71 54.5t116 19h134q0 39 -11.5 64.5t-34.5 38.5t-57 13q-38 0 -67 -18.5t-36 -55.5h-118q6 53 36 91.5t78.5 60t106.5 21.5q61 0 106 -20t73 -56q32 36 78 56t99 20q74 0 128.5 -33t84.5 -87.5t30 -124.5
v-21.5t-2 -25.5h-372q3 -43 21 -73t47 -45.5t62 -15.5q45 0 73.5 21.5t41.5 56.5h119q-12 -50 -44.5 -90t-80 -63.5t-108.5 -23.5q-65 0 -118.5 28t-86.5 77q-20 -31 -48.5 -54.5t-66 -37t-86.5 -13.5zM260 83q35 0 63 17.5t45.5 46.5t22.5 64v10h-114q-35 0 -57 -9
t-32.5 -24.5t-10.5 -35.5q0 -21 10.5 -36.5t29 -24t43.5 -8.5zM520 299h251q-3 54 -37.5 85t-83.5 31q-31 0 -59 -13.5t-46.5 -39t-24.5 -63.5zM362 544l-7 82l218 125v0l8 -95z" />
    <glyph glyph-name="uni0218" unicode="&#x218;" horiz-adv-x="596" 
d="M306 -12q-76 0 -135 27t-92.5 77t-34.5 119h127q1 -35 17 -62.5t45.5 -43.5t71.5 -16q37 0 63.5 11.5t40.5 33t14 50.5q0 33 -15.5 55t-42.5 36.5t-62.5 26t-73.5 24.5q-83 28 -125 71.5t-42 116.5q0 61 29.5 105t82 68.5t121.5 24.5q70 0 122 -25t82.5 -69.5
t31.5 -106.5h-128q0 26 -13.5 48.5t-38 37t-58.5 14.5q-30 1 -54 -9.5t-37.5 -30t-13.5 -48.5q0 -28 13 -46.5t36.5 -31t55.5 -23.5t70 -24q52 -17 94.5 -41.5t67.5 -63.5t25 -101q0 -54 -28 -100.5t-82 -75t-134 -28.5zM249 -268v51q25 0 36.5 15t11.5 45v15h-52v96h104
q8 -24 11 -48t3 -44q0 -63 -29 -96.5t-85 -33.5z" />
    <glyph glyph-name="uni0219" unicode="&#x219;" horiz-adv-x="522" 
d="M268 -12q-66 0 -115.5 21.5t-78.5 60t-34 88.5h120q5 -21 18.5 -38.5t35.5 -27.5t53 -10q29 0 48 8.5t28 22.5t9 29q0 24 -12.5 36.5t-37.5 20t-59 14.5q-34 8 -67 18t-60 26t-43 40.5t-16 60.5q0 44 23.5 79t68 55.5t105.5 20.5q88 0 140.5 -40.5t61.5 -113.5h-114
q-5 28 -28 43.5t-60 15.5q-39 0 -59.5 -14.5t-20.5 -37.5q0 -16 13 -28t37 -20.5t58 -15.5q55 -12 97.5 -26.5t68 -43t25.5 -82.5q1 -47 -24.5 -84t-71.5 -57.5t-109 -20.5zM206 -268v51q25 0 36.5 15t11.5 45v15h-52v96h104q8 -24 11 -48t3 -44q0 -63 -29 -96.5t-85 -33.5z
" />
    <glyph glyph-name="uni021A" unicode="&#x21a;" horiz-adv-x="586" 
d="M233 0v603h-206v97h532v-97h-206v-603h-120zM237 -268v51q25 0 36.5 15t11.5 45v15h-52v96h104q8 -24 11 -48t3 -44q0 -63 -29 -96.5t-85 -33.5z" />
    <glyph glyph-name="uni021B" unicode="&#x21b;" horiz-adv-x="418" 
d="M284 0q-50 0 -88 16t-58.5 53t-20.5 100v231h-86v101h86l14 131h106v-131h137v-101h-137v-231q0 -38 16 -52.5t56 -14.5h61v-102h-86zM214 -268v51q25 0 36.5 15t11.5 45v15h-52v96h104q8 -24 11 -48t3 -44q0 -63 -29 -96.5t-85 -33.5z" />
    <glyph glyph-name="uni0237" unicode="&#x237;" horiz-adv-x="248" 
d="M-29 -220v102h40q34 0 48.5 13.5t14.5 46.5v559h120v-560q0 -58 -20 -93.5t-56.5 -51.5t-88.5 -16h-58z" />
    <glyph glyph-name="uni0259" unicode="&#x259;" horiz-adv-x="592" 
d="M289 513q75 0 132 -33t89.5 -91t32.5 -135q0 -78 -32 -138t-89 -94t-134 -34q-73 0 -128.5 32.5t-85.5 88t-30 123.5v22.5t1 24.5h411v-77h-292q3 -54 38 -85t87 -31q38 0 68.5 16.5t49 50.5t18.5 83v29q0 47 -18 80.5t-48.5 51t-68.5 17.5q-42 0 -69.5 -18.5
t-41.5 -48.5h-121q14 47 46 84.5t79 59.5t106 22z" />
    <glyph glyph-name="circumflex" unicode="&#x2c6;" horiz-adv-x="318" 
d="M14 544v87l145 81l144 -81v-87l-144 83z" />
    <glyph glyph-name="caron" unicode="&#x2c7;" horiz-adv-x="318" 
d="M159 543l-145 81v87l145 -85l144 85v-87z" />
    <glyph glyph-name="breve" unicode="&#x2d8;" horiz-adv-x="335" 
d="M167 546q-48 0 -82 18.5t-52.5 52t-18.5 77.5v16h65q0 -34 19.5 -53.5t68.5 -19.5q48 0 68 19.5t20 53.5h65v-16q0 -45 -18.5 -78t-52.5 -51.5t-82 -18.5z" />
    <glyph glyph-name="dotaccent" unicode="&#x2d9;" horiz-adv-x="152" 
d="M75 560q-24 0 -41.5 17.5t-17.5 42.5t17.5 42.5t41.5 17.5q26 0 43 -17.5t17 -42.5t-17 -42.5t-43 -17.5z" />
    <glyph glyph-name="ring" unicode="&#x2da;" horiz-adv-x="250" 
d="M125 549q-46 0 -79 29.5t-33 80.5q0 52 33 81.5t79 29.5q47 0 80 -29.5t33 -81.5q0 -51 -33 -80.5t-80 -29.5zM125 604q23 0 38 15t15 40q0 26 -15 40.5t-38 14.5q-21 0 -37 -14.5t-16 -40.5q0 -25 16 -40t37 -15z" />
    <glyph glyph-name="ogonek" unicode="&#x2db;" horiz-adv-x="215" 
d="M130 -209q-34 0 -64 11t-48 33.5t-18 58.5q0 27 12.5 50.5t42 47t80.5 45.5l48 20l27 -57l-53 -26q-36 -18 -50.5 -34.5t-14.5 -34.5q0 -20 14.5 -31t38.5 -11q15 0 33.5 4t36.5 11v-73q-18 -6 -40 -10t-45 -4z" />
    <glyph glyph-name="tilde" unicode="&#x2dc;" horiz-adv-x="367" 
d="M241 548q-28 0 -47.5 11.5t-36 23t-37.5 11.5q-16 0 -27.5 -11t-15.5 -34h-65q10 62 40 91.5t73 29.5q28 0 47.5 -11.5t36.5 -23t38 -11.5q17 0 28.5 11t14.5 34h65q-9 -62 -39 -91.5t-75 -29.5z" />
    <glyph glyph-name="hungarumlaut" unicode="&#x2dd;" horiz-adv-x="377" 
d="M180 545l79 174h99l-102 -174h-76zM14 545l70 174h99l-92 -174h-77z" />
    <glyph glyph-name="gravecomb" unicode="&#x300;" 
d="M219 544l-219 112l9 95v0l217 -125z" />
    <glyph glyph-name="acutecomb" unicode="&#x301;" 
d="M7 544l-7 82l218 125v0l8 -95z" />
    <glyph glyph-name="uni0302" unicode="&#x302;" 
d="M0 547v87l144 80l145 -80v-87l-145 83z" />
    <glyph glyph-name="tildecomb" unicode="&#x303;" 
d="M229 567q-28 0 -47.5 11.5t-36.5 23t-37 11.5q-17 0 -28.5 -11t-14.5 -34h-65q9 62 39 91t74 29q28 0 47.5 -11.5t36.5 -23t37 -11.5q17 0 28.5 11.5t14.5 33.5h66q-9 -61 -39.5 -90.5t-74.5 -29.5z" />
    <glyph glyph-name="uni0304" unicode="&#x304;" 
d="M0 591v85h369v-85h-369z" />
    <glyph glyph-name="uni0306" unicode="&#x306;" 
d="M152 560q-47 0 -81 18.5t-52.5 51.5t-18.5 77v16h64q0 -34 20 -53.5t68 -19.5q49 0 68.5 19.5t19.5 53.5h66v-16q0 -44 -19 -77.5t-53 -51.5t-82 -18z" />
    <glyph glyph-name="uni0307" unicode="&#x307;" 
d="M60 568q-25 0 -42.5 17t-17.5 42t17.5 42.5t42.5 17.5q24 0 41.5 -17.5t17.5 -42.5t-17.5 -42t-41.5 -17z" />
    <glyph glyph-name="uni0308" unicode="&#x308;" 
d="M60 567q-26 0 -43 17t-17 42t17 42.5t43 17.5q24 0 41.5 -17.5t17.5 -42.5t-17.5 -42t-41.5 -17zM236 567q-25 0 -42 17t-17 42t17 42.5t42 17.5t42 -17.5t17 -42.5t-17 -42t-42 -17z" />
    <glyph glyph-name="uni030A" unicode="&#x30a;" 
d="M112 567q-46 0 -79 29t-33 81q0 51 33 80.5t79 29.5q47 0 79.5 -29.5t32.5 -80.5q0 -52 -32.5 -81t-79.5 -29zM112 622q22 0 37.5 15t15.5 40q0 26 -15 40.5t-38 14.5q-21 0 -37 -14.5t-16 -40.5q0 -25 16 -40t37 -15z" />
    <glyph glyph-name="uni030B" unicode="&#x30b;" 
d="M165 545l80 174h99l-102 -174h-77zM0 545l70 174h98l-91 -174h-77z" />
    <glyph glyph-name="uni030C" unicode="&#x30c;" 
d="M144 560l-144 80v87l144 -85l145 85v-87z" />
    <glyph glyph-name="uni0312" unicode="&#x312;" 
d="M112 769v-51q-24 0 -35.5 -9t-11.5 -28v-19h47v-99h-100q-6 28 -9 49.5t-3 43.5q0 56 28.5 84.5t83.5 28.5z" />
    <glyph glyph-name="uni0326" unicode="&#x326;" 
d="M5 -268v51q25 0 36.5 15t11.5 45v15h-52v96h104q8 -24 11 -48t3 -44q0 -63 -29 -96.5t-85 -33.5z" />
    <glyph glyph-name="uni0327" unicode="&#x327;" 
d="M0 -262v70h108q29 0 43 9t14 30q0 18 -14 27t-43 9h-58v124h75v-59q35 0 64.5 -10.5t47.5 -34t18 -59.5q0 -35 -17.5 -58.5t-47 -35.5t-64.5 -12h-126z" />
    <glyph glyph-name="uni0328" unicode="&#x328;" 
d="M130 -209q-34 0 -64 11t-48 33.5t-18 58.5q0 27 12.5 50.5t42 47t80.5 45.5l48 20l27 -57l-53 -26q-36 -18 -50.5 -34.5t-14.5 -34.5q0 -20 14.5 -31t38.5 -11q15 0 33.5 4t36.5 11v-73q-18 -6 -40 -10t-45 -4z" />
    <glyph glyph-name="pi" unicode="&#x3c0;" horiz-adv-x="646" 
d="M111 0v408h-76v93h576v-93h-75v-408h-120v408h-185v-408h-120z" />
    <glyph glyph-name="Wgrave" unicode="&#x1e80;" horiz-adv-x="1003" 
d="M212 0l-186 700h128l130 -563v0l153 563h132l148 -564v0l132 564h129l-191 -700h-142l-144 530v0l-148 -530h-141zM608 743l-219 112l9 95v0l217 -124z" />
    <glyph glyph-name="wgrave" unicode="&#x1e81;" horiz-adv-x="799" 
d="M166 0l-147 501h118l104 -417l-25 1l117 416h133l118 -416h-26l103 416h120l-147 -501h-124l-124 430h28l-124 -430h-124zM505 544l-219 112l9 95v0l217 -125z" />
    <glyph glyph-name="Wacute" unicode="&#x1e82;" horiz-adv-x="1003" 
d="M212 0l-186 700h128l130 -563v0l153 563h132l148 -564v0l132 564h129l-191 -700h-142l-144 530v0l-148 -530h-141zM396 743l-7 83l218 124v0l8 -95z" />
    <glyph glyph-name="wacute" unicode="&#x1e83;" horiz-adv-x="799" 
d="M166 0l-147 501h118l104 -417l-25 1l117 416h133l118 -416h-26l103 416h120l-147 -501h-124l-124 430h28l-124 -430h-124zM293 544l-7 82l218 125v0l8 -95z" />
    <glyph glyph-name="Wdieresis" unicode="&#x1e84;" horiz-adv-x="1003" 
d="M212 0l-186 700h128l130 -563v0l153 563h132l148 -564v0l132 564h129l-191 -700h-142l-144 530v0l-148 -530h-141zM414 770q-26 0 -43 17t-17 42t17 42.5t43 17.5q24 0 41.5 -17.5t17.5 -42.5t-17.5 -42t-41.5 -17zM590 770q-25 0 -42 17t-17 42t17 42.5t42 17.5
t42 -17.5t17 -42.5t-17 -42t-42 -17z" />
    <glyph glyph-name="wdieresis" unicode="&#x1e85;" horiz-adv-x="799" 
d="M166 0l-147 501h118l104 -417l-25 1l117 416h133l118 -416h-26l103 416h120l-147 -501h-124l-124 430h28l-124 -430h-124zM312 567q-26 0 -43 17t-17 42t17 42.5t43 17.5q24 0 41.5 -17.5t17.5 -42.5t-17.5 -42t-41.5 -17zM488 567q-25 0 -42 17t-17 42t17 42.5t42 17.5
t42 -17.5t17 -42.5t-17 -42t-42 -17z" />
    <glyph glyph-name="uni1E9E" unicode="&#x1e9e;" horiz-adv-x="716" 
d="M454 -5q-104 0 -160 56t-56 164h118q0 -52 23 -86.5t76 -34.5q38 0 60 16.5t31.5 44.5t9.5 61q-1 68 -35.5 101.5t-99.5 33.5h-109v80l165 167h-224q-34 0 -48.5 -14t-14.5 -47v-537h-120v539q0 58 19.5 93.5t56.5 51.5t88 16h385v-91l-178 -177h16q68 0 115.5 -26.5
t72.5 -74.5t25 -111q0 -71 -25.5 -121.5t-74 -77t-116.5 -26.5z" />
    <glyph glyph-name="uni1EBC" unicode="&#x1ebc;" horiz-adv-x="577" 
d="M70 0v700h452v-97h-332v-201h302v-95h-302v-210h332v-97h-452zM360 752q-28 0 -47.5 11.5t-36.5 23t-37 11.5q-17 0 -28.5 -11t-14.5 -34h-65q9 62 39 91.5t74 29.5q28 0 47.5 -11.5t36.5 -23t37 -11.5q17 0 28.5 11t14.5 34h66q-9 -62 -39.5 -91.5t-74.5 -29.5z" />
    <glyph glyph-name="uni1EBD" unicode="&#x1ebd;" horiz-adv-x="592" 
d="M303 -12q-74 0 -131.5 32.5t-90 91t-32.5 135.5q0 79 32 138.5t89.5 93.5t133.5 34q74 0 129 -33t85.5 -88t30.5 -123q0 -10 -0.5 -22t-1.5 -26h-411v78h292q-3 53 -37.5 84.5t-86.5 31.5q-37 0 -68.5 -17t-50 -50t-18.5 -83v-29q0 -47 18 -80.5t48.5 -51t68.5 -17.5
q42 0 69.5 18t41.5 48h121q-13 -46 -45.5 -83.5t-79 -59.5t-106.5 -22zM359 567q-28 0 -47.5 11.5t-36.5 23t-37 11.5q-17 0 -28.5 -11t-14.5 -34h-65q9 62 39 91t74 29q28 0 47.5 -11.5t36.5 -23t37 -11.5q17 0 28.5 11.5t14.5 33.5h66q-9 -61 -39.5 -90.5t-74.5 -29.5z
" />
    <glyph glyph-name="Ygrave" unicode="&#x1ef2;" horiz-adv-x="618" 
d="M249 0v252l-234 448h136l174 -359h-30l173 359h134l-233 -448v-252h-120zM415 743l-219 112l9 95v0l217 -124z" />
    <glyph glyph-name="ygrave" unicode="&#x1ef3;" horiz-adv-x="590" 
d="M128 -220l123 276h-30l-201 445h130l151 -340v0l142 340h127l-316 -721h-126zM401 544l-219 112l9 95v0l217 -125z" />
    <glyph glyph-name="uni1EF8" unicode="&#x1ef8;" horiz-adv-x="618" 
d="M249 0v252l-234 448h136l174 -359h-30l173 359h134l-233 -448v-252h-120zM373 752q-28 0 -47.5 11.5t-36.5 23t-37 11.5q-17 0 -28.5 -11t-14.5 -34h-65q9 62 39 91.5t74 29.5q28 0 47.5 -11.5t36.5 -23t37 -11.5q17 0 28.5 11t14.5 34h66q-9 -62 -39.5 -91.5
t-74.5 -29.5z" />
    <glyph glyph-name="uni1EF9" unicode="&#x1ef9;" horiz-adv-x="590" 
d="M128 -220l123 276h-30l-201 445h130l151 -340v0l142 340h127l-316 -721h-126zM353 567q-28 0 -47.5 11.5t-36.5 23t-37 11.5q-17 0 -28.5 -11t-14.5 -34h-65q9 62 39 91t74 29q28 0 47.5 -11.5t36.5 -23t37 -11.5q17 0 28.5 11.5t14.5 33.5h66q-9 -61 -39.5 -90.5
t-74.5 -29.5z" />
    <glyph glyph-name="endash" unicode="&#x2013;" horiz-adv-x="688" 
d="M76 243v100h537v-100h-537z" />
    <glyph glyph-name="emdash" unicode="&#x2014;" horiz-adv-x="905" 
d="M76 243v100h753v-100h-753z" />
    <glyph glyph-name="quoteleft" unicode="&#x2018;" horiz-adv-x="242" 
d="M30 454l99 246h83l-54 -246h-128z" />
    <glyph glyph-name="quoteright" unicode="&#x2019;" horiz-adv-x="242" 
d="M212 700l-99 -246h-83l54 246h128z" />
    <glyph glyph-name="quotesinglbase" unicode="&#x201a;" horiz-adv-x="233" 
d="M16 -114l55 244h127l-100 -244h-82z" />
    <glyph glyph-name="quotedblleft" unicode="&#x201c;" horiz-adv-x="428" 
d="M216 454l99 246h83l-55 -246h-127zM30 454l99 246h83l-54 -246h-128z" />
    <glyph glyph-name="quotedblright" unicode="&#x201d;" horiz-adv-x="428" 
d="M212 700l-100 -246h-82l55 246h127zM398 700l-99 -246h-83l54 246h128z" />
    <glyph glyph-name="quotedblbase" unicode="&#x201e;" horiz-adv-x="420" 
d="M16 -114l55 244h127l-100 -244h-82zM204 -114l54 244h127l-99 -244h-82z" />
    <glyph glyph-name="dagger" unicode="&#x2020;" horiz-adv-x="582" 
d="M231 -262l12 731l-198 -10v93l198 -10l-12 242h119l-11 -242l198 10v-93l-198 10l11 -731h-119z" />
    <glyph glyph-name="daggerdbl" unicode="&#x2021;" horiz-adv-x="582" 
d="M231 -262l12 242l-198 -10v93l198 -10v416l-198 -10v93l198 -10l-12 242h119l-11 -242l198 10v-93l-198 10v-416l198 10v-93l-198 10l11 -242h-119z" />
    <glyph glyph-name="bullet" unicode="&#x2022;" horiz-adv-x="378" 
d="M188 201q-36 0 -66 17.5t-48 47.5t-18 67q0 38 18 68t48 47.5t66 17.5q38 0 68 -17.5t48 -47.5t18 -68q0 -37 -18 -67t-48 -47.5t-68 -17.5z" />
    <glyph glyph-name="ellipsis" unicode="&#x2026;" horiz-adv-x="650" 
d="M326 -5q-34 0 -55 21t-21 50q0 31 21 52t55 21q33 0 54 -21t21 -52q0 -29 -21 -50t-54 -21zM533 -5q-34 0 -55 21t-21 50q0 31 21 52t55 21q33 0 54 -21t21 -52q0 -29 -21 -50t-54 -21zM118 -5q-34 0 -55 21t-21 50q0 31 21 52t55 21q33 0 54 -21t21 -52q0 -29 -21 -50
t-54 -21z" />
    <glyph glyph-name="perthousand" unicode="&#x2030;" horiz-adv-x="1232" 
d="M1022 -12q-48 0 -86.5 21.5t-61.5 61t-23 93.5q0 55 23 94t61.5 60.5t86.5 21.5t86 -21.5t60.5 -60.5t22.5 -94q0 -54 -22.5 -93.5t-61 -61t-85.5 -21.5zM1021 71q21 0 38 11t27 31.5t10 50.5q0 31 -9.5 52t-26.5 31t-38 10t-38.5 -10t-27.5 -31t-10 -52q0 -30 10 -50.5
t27.5 -31.5t37.5 -11zM172 0l397 700h117l-397 -700h-117zM652 -12q-47 0 -85.5 21.5t-61.5 61t-23 93.5q0 55 23 94t61.5 60.5t85.5 21.5q49 0 86.5 -21.5t60 -60.5t22.5 -94q0 -54 -22.5 -93.5t-60.5 -61t-86 -21.5zM651 72q21 0 38 10.5t27 31t10 50.5q0 31 -10 51
t-26.5 30.5t-37.5 10.5q-20 0 -37 -10.5t-27 -30.5t-10 -51q0 -30 10 -50.5t26.5 -31t36.5 -10.5zM211 360q-47 0 -85.5 21t-61.5 61t-23 94t23 93.5t61.5 60.5t86.5 21q47 0 85.5 -21t61 -60.5t22.5 -93.5t-22.5 -94t-61 -61t-86.5 -21zM211 444q21 0 37.5 10.5t26.5 31
t10 50.5t-10 51t-26.5 31.5t-37.5 10.5q-20 0 -37 -10.5t-27.5 -31.5t-10.5 -51t10.5 -50.5t27 -31t37.5 -10.5z" />
    <glyph glyph-name="guilsinglleft" unicode="&#x2039;" horiz-adv-x="300" 
d="M135 120l-92 175l92 175h114l-95 -175l95 -175h-114z" />
    <glyph glyph-name="guilsinglright" unicode="&#x203a;" horiz-adv-x="300" 
d="M165 120h-114l95 175l-95 175h114l92 -175z" />
    <glyph glyph-name="fraction" unicode="&#x2044;" horiz-adv-x="489" 
d="M-10 0l397 700h118l-397 -700h-118z" />
    <glyph glyph-name="uni2074" unicode="&#x2074;" horiz-adv-x="341" 
d="M192 352v62h-167v63l157 223h100v-221h40v-65h-40v-62h-90zM117 479h81v123v0z" />
    <glyph glyph-name="uni20A8" unicode="&#x20a8;" horiz-adv-x="1101" 
d="M70 0v700h251q84 0 138 -28.5t80.5 -76t26.5 -107.5q0 -56 -26 -104t-80.5 -77t-140.5 -29h-129v-278h-120zM435 0l-147 309h131l154 -309h-138zM190 367h124q66 0 97.5 32.5t31.5 85.5q0 52 -31 83.5t-99 31.5h-123v-233zM847 -12q-66 0 -115.5 21.5t-78.5 60t-34 88.5
h120q5 -21 18.5 -38.5t35.5 -27.5t53 -10q29 0 48 8.5t28 22.5t9 29q0 24 -12.5 36.5t-37.5 20t-59 14.5q-34 8 -67 18t-60 26t-43 40.5t-16 60.5q0 44 23.5 79t68 55.5t105.5 20.5q88 0 140.5 -40.5t61.5 -113.5h-114q-5 28 -28 43.5t-60 15.5q-39 0 -59.5 -14.5
t-20.5 -37.5q0 -16 13 -28t37 -20.5t58 -15.5q55 -12 97.5 -26.5t68 -43t25.5 -82.5q1 -47 -24.5 -84t-71.5 -57.5t-109 -20.5z" />
    <glyph glyph-name="Euro" unicode="&#x20ac;" horiz-adv-x="785" 
d="M22 238v74h432v-74h-432zM22 388v74h432v-74h-432zM435 -12q-104 0 -179.5 45.5t-116.5 127t-41 188.5q0 108 41 189.5t116.5 127.5t179.5 46q125 0 204.5 -61.5t99.5 -173.5h-132q-13 59 -56.5 93t-116.5 34q-66 0 -114 -30.5t-73.5 -88t-25.5 -136.5t25.5 -135.5
t73.5 -87t114 -30.5q73 0 116 31.5t57 87.5h132q-20 -106 -99.5 -166.5t-204.5 -60.5z" />
    <glyph glyph-name="uni20B9" unicode="&#x20b9;" horiz-adv-x="622" 
d="M294 -12q-104 0 -159 56.5t-55 163.5v139q94 0 150 5t83.5 22.5t36 51.5t8.5 93v136h112v-135q0 -67 -13.5 -115t-45.5 -79t-85.5 -45.5t-132.5 -14.5v-69q0 -52 22 -84.5t78 -32.5q51 0 73.5 30t22.5 84h112q-3 -99 -55.5 -152.5t-151.5 -53.5zM47 447v78h536v-78h-536z
M47 617v83h536v-83h-536z" />
    <glyph glyph-name="uni20BA" unicode="&#x20ba;" horiz-adv-x="823" 
d="M374 -12q-45 0 -95.5 6t-105.5 18v688h123v-592q21 -4 40 -6t38 -2q71 0 118.5 23.5t76 67t40.5 105t12 137.5h122q0 -150 -37.5 -249t-118.5 -147.5t-213 -48.5zM25 213v79l432 94v-79zM23 377v76l435 99v-79z" />
    <glyph glyph-name="uni20BD" unicode="&#x20bd;" horiz-adv-x="644" 
d="M31 108v93h90v84h-90v95h90v320h243q84 0 139 -27.5t81.5 -74t26.5 -106.5q0 -56 -25.5 -103.5t-80 -75.5t-141.5 -28h-123v-84h195v-93h-195v-108h-120v108h-90zM241 380h120q68 0 98 30.5t30 81.5q0 53 -30 84.5t-98 31.5h-120v-228z" />
    <glyph glyph-name="uni2113" unicode="&#x2113;" horiz-adv-x="260" 
d="M70 -100v820h120v-820h-120z" />
    <glyph glyph-name="trademark" unicode="&#x2122;" horiz-adv-x="818" 
d="M27 628v72h263v-72h-86v-280h-91v280h-86zM343 348v352h118l96 -243l103 243h110v-352h-83v240l-102 -240h-63l-99 242v-242h-80z" />
    <glyph glyph-name="uni2126" unicode="&#x2126;" horiz-adv-x="789" 
d="M49 0v92h195l-20 -28q-63 27 -104 72t-60.5 103t-19.5 123q0 79 27 143.5t75.5 111t113 71t138.5 24.5t138.5 -24.5t113.5 -71t76 -111t27 -143.5q0 -65 -19.5 -123t-60.5 -103t-105 -72l-20 28h195v-92h-273v96q47 19 83.5 54.5t57.5 86.5t21 114q0 58 -17.5 105
t-49 79.5t-74 49.5t-93.5 17t-93.5 -17.5t-74 -50.5t-48.5 -79t-17 -104q0 -63 21 -114t57.5 -86.5t82.5 -54.5v-96h-273z" />
    <glyph glyph-name="estimated" unicode="&#x212e;" horiz-adv-x="756" 
d="M387 -7q-98 0 -176.5 39.5t-123 115.5t-44.5 184q0 105 38.5 189t113.5 134t183 50q81 0 143.5 -27.5t105.5 -73t65 -104t22 -122.5v-62h-517v-170q37 -39 82.5 -59t107.5 -20q50 0 92.5 14.5t81 42t77.5 65.5l47 -53q-62 -67 -136.5 -105t-161.5 -38zM197 389h355v173
q-30 34 -74.5 52t-99.5 18q-56 0 -102 -19.5t-79 -60.5v-163z" />
    <glyph glyph-name="arrowleft" unicode="&#x2190;" horiz-adv-x="780" 
d="M738 291h-530l262 -238l-76 -77l-356 335v70l356 335l75 -76l-262 -240h531v-109z" />
    <glyph glyph-name="arrowup" unicode="&#x2191;" horiz-adv-x="872" 
d="M36 344l365 356h70l365 -356l-76 -76l-267 263v-531h-114v532l-267 -263z" />
    <glyph glyph-name="arrowright" unicode="&#x2192;" horiz-adv-x="780" 
d="M42 291v109h531l-262 240l75 76l356 -335v-70l-356 -335l-76 77l262 238h-530z" />
    <glyph glyph-name="arrowdown" unicode="&#x2193;" horiz-adv-x="880" 
d="M40 356l76 75l267 -263v532h114v-531l267 263l76 -76l-365 -356h-70z" />
    <glyph glyph-name="arrowboth" unicode="&#x2194;" horiz-adv-x="966" 
d="M40 310v70l307 326l77 -65l-231 -242h580l-231 242l77 65l307 -326v-70l-307 -326l-77 65l233 244h-584l233 -244l-77 -65z" />
    <glyph glyph-name="arrowupdn" unicode="&#x2195;" horiz-adv-x="824" 
d="M42 224l64 76l251 -165v432l-251 -166l-64 77l335 223h70l335 -223l-63 -77l-252 165v-431l252 165l63 -76l-335 -224h-70z" />
    <glyph glyph-name="uni2196" unicode="&#x2196;" horiz-adv-x="650" 
d="M526 50l-377 376v-375h-105v513l50 49h512v-105h-379l379 -379z" />
    <glyph glyph-name="uni2197" unicode="&#x2197;" horiz-adv-x="646" 
d="M124 62l-80 79l379 379h-379v105h512l50 -49v-513h-106v375z" />
    <glyph glyph-name="uni2198" unicode="&#x2198;" horiz-adv-x="650" 
d="M124 622l376 -376v375h106v-513l-50 -49h-512v105h379l-379 379z" />
    <glyph glyph-name="uni2199" unicode="&#x2199;" horiz-adv-x="650" 
d="M526 622l80 -79l-379 -379h379v-105h-512l-50 49v513h105v-375z" />
    <glyph glyph-name="partialdiff" unicode="&#x2202;" horiz-adv-x="587" 
d="M248 -9q-57 0 -105.5 26t-77 79.5t-28.5 136.5q0 67 20 126t56.5 104t85.5 70.5t107 25.5q28 0 52 -8t43.5 -26t31.5 -50q-4 56 -20.5 100.5t-49.5 69.5t-87 25q-17 0 -35.5 -2.5t-38.5 -8.5v66q28 8 53.5 11.5t50.5 3.5q78 0 132.5 -39t83 -113t28.5 -178
q0 -129 -39 -223t-107 -145t-156 -51zM260 94q35 0 64.5 18t50 49.5t31.5 73t11 87.5q0 69 -28 102.5t-74 33.5q-36 0 -64.5 -17t-49 -48t-32 -71.5t-11.5 -88.5q0 -72 29.5 -105.5t72.5 -33.5z" />
    <glyph glyph-name="uni2206" unicode="&#x2206;" horiz-adv-x="709" 
d="M25 0v92l280 608h98l281 -608v-92h-659zM147 92h415l-208 471z" />
    <glyph glyph-name="product" unicode="&#x220f;" horiz-adv-x="734" 
d="M106 0v608h-76v92h674v-92h-75v-608h-120v608h-283v-608h-120z" />
    <glyph glyph-name="summation" unicode="&#x2211;" horiz-adv-x="486" 
d="M43 -49v138l251 240l-250 232v139h417v-92h-317l262 -234v-88l-259 -244h314v-91h-418z" />
    <glyph glyph-name="minus" unicode="&#x2212;" horiz-adv-x="571" 
d="M78 243v100h414v-100h-414z" />
    <glyph glyph-name="uni2215" unicode="&#x2215;" horiz-adv-x="415" 
d="M24 -108l250 883h117l-250 -883h-117z" />
    <glyph glyph-name="radical" unicode="&#x221a;" horiz-adv-x="769" 
d="M19 211l176 103l121 -216l427 783h78l-504 -924h-58l-134 236l-71 -41z" />
    <glyph glyph-name="infinity" unicode="&#x221e;" horiz-adv-x="729" 
d="M193 130q-68 0 -113.5 41t-45.5 115q0 50 21.5 85.5t58 54.5t81.5 19q46 0 79.5 -17t59 -43.5t47.5 -56t43 -56t45 -43t54 -16.5q35 0 55.5 20t20.5 55t-20 54.5t-52 19.5q-40 0 -74.5 -29t-53.5 -76l-58 30q11 41 37 77t66 58.5t92 22.5q69 0 114 -41t45 -115
q0 -50 -21.5 -85.5t-59 -54.5t-83.5 -19q-44 0 -78.5 17t-62 43.5t-50 56t-44 56t-44.5 43t-52 16.5t-49.5 -20t-20.5 -56q0 -34 20 -53.5t52 -19.5q41 0 75.5 29t52.5 76l59 -30q-11 -40 -37.5 -76t-66 -59t-92.5 -23z" />
    <glyph glyph-name="integral" unicode="&#x222b;" horiz-adv-x="272" 
d="M-43 -222l10 101h19q24 0 34 12.5t13 42.5l91 838q6 58 29 92t61 48t86 14h20l-10 -101h-18q-21 0 -33 -12t-15 -41l-91 -838q-5 -57 -28 -91.5t-60 -49.5t-87 -15h-21z" />
    <glyph glyph-name="approxequal" unicode="&#x2248;" horiz-adv-x="571" 
d="M371 91q-30 0 -54 10t-44.5 23.5t-39.5 23.5t-42 10q-26 0 -42.5 -17.5t-21.5 -48.5h-89q9 60 31 98t55 56t74 18q31 0 55 -10t44.5 -23t40 -23t40.5 -10q27 0 44 17t20 49h91q-9 -60 -31 -98.5t-55.5 -56.5t-75.5 -18zM371 316q-30 0 -54 10t-44.5 23.5t-39.5 23.5
t-42 10q-26 0 -42.5 -17.5t-21.5 -48.5h-89q9 60 31 98t55 56t74 18q31 0 55 -10t44.5 -23t40 -23t40.5 -10q27 0 44 17t20 49h91q-9 -60 -31 -98.5t-55.5 -56.5t-75.5 -18z" />
    <glyph glyph-name="notequal" unicode="&#x2260;" horiz-adv-x="571" 
d="M101 61l241 458h97l-242 -458h-96zM76 347v105h420v-105h-420zM76 128v104h420v-104h-420z" />
    <glyph glyph-name="lessequal" unicode="&#x2264;" horiz-adv-x="571" 
d="M476 156h-153l-228 189v0l228 190h153l-226 -189zM475 0h-369v92h369v-92z" />
    <glyph glyph-name="greaterequal" unicode="&#x2265;" horiz-adv-x="571" 
d="M95 156l226 190l-226 189h153l228 -190v0l-228 -189h-153zM95 0v92h370v-92h-370z" />
    <glyph glyph-name="lozenge" unicode="&#x25ca;" horiz-adv-x="558" 
d="M279 102l-249 249l249 249l249 -249zM279 222l128 129l-128 128l-127 -128z" />
    <glyph glyph-name="Q.ss06" horiz-adv-x="785" 
d="M593 -137l-194 190l115 29l225 -219h-146zM392 -12q-102 0 -180 45.5t-122 127t-44 189.5q0 107 44 188.5t122 127.5t180 46q104 0 182 -46t121.5 -127.5t43.5 -188.5q0 -108 -43.5 -189.5t-121.5 -127t-182 -45.5zM392 96q68 0 118.5 30.5t78 87.5t27.5 136t-27.5 136
t-78 87.5t-118.5 30.5q-67 0 -117.5 -30.5t-78.5 -87.5t-28 -136t28 -136t78.5 -87.5t117.5 -30.5z" />
    <glyph glyph-name="i.loclTRK" horiz-adv-x="253" 
d="M67 0v501h120v-501h-120zM127 568q-25 0 -42.5 17t-17.5 42t17.5 42.5t42.5 17.5q24 0 41.5 -17.5t17.5 -42.5t-17.5 -42t-41.5 -17z" />
    <glyph glyph-name="a.ss02" horiz-adv-x="647" 
d="M292 -12q-71 0 -125.5 34t-86 93.5t-31.5 135.5t31.5 135t87 93t125.5 34q57 0 99.5 -22t67.5 -61l8 71h112v-501h-111l-8 73v0q-24 -34 -65 -59.5t-104 -25.5zM317 92q43 0 75.5 20.5t51 56t18.5 81.5q0 47 -18.5 82.5t-51.5 55.5t-76 20q-41 0 -74 -20t-51.5 -55.5
t-18.5 -81.5q0 -47 18.5 -82.5t51.5 -56t75 -20.5z" />
    <glyph glyph-name="aacute.ss02" horiz-adv-x="647" 
d="M292 -12q-71 0 -125.5 34t-86 93.5t-31.5 135.5t31.5 135t87 93t125.5 34q57 0 99.5 -22t67.5 -61l8 71h112v-501h-111l-8 73v0q-24 -34 -65 -59.5t-104 -25.5zM317 92q43 0 75.5 20.5t51 56t18.5 81.5q0 47 -18.5 82.5t-51.5 55.5t-76 20q-41 0 -74 -20t-51.5 -55.5
t-18.5 -81.5q0 -47 18.5 -82.5t51.5 -56t75 -20.5zM209 543l-7 82l218 125v0l8 -95z" />
    <glyph glyph-name="abreve.ss02" horiz-adv-x="647" 
d="M292 -12q-71 0 -125.5 34t-86 93.5t-31.5 135.5t31.5 135t87 93t125.5 34q57 0 99.5 -22t67.5 -61l8 71h112v-501h-111l-8 73v0q-24 -34 -65 -59.5t-104 -25.5zM317 92q43 0 75.5 20.5t51 56t18.5 81.5q0 47 -18.5 82.5t-51.5 55.5t-76 20q-41 0 -74 -20t-51.5 -55.5
t-18.5 -81.5q0 -47 18.5 -82.5t51.5 -56t75 -20.5zM315 559q-47 0 -81 18.5t-52.5 51.5t-18.5 77v16h64q0 -34 20 -53.5t68 -19.5q49 0 68.5 19.5t19.5 53.5h66v-16q0 -44 -19 -77.5t-53 -51.5t-82 -18z" />
    <glyph glyph-name="acircumflex.ss02" horiz-adv-x="647" 
d="M292 -12q-71 0 -125.5 34t-86 93.5t-31.5 135.5t31.5 135t87 93t125.5 34q57 0 99.5 -22t67.5 -61l8 71h112v-501h-111l-8 73v0q-24 -34 -65 -59.5t-104 -25.5zM317 92q43 0 75.5 20.5t51 56t18.5 81.5q0 47 -18.5 82.5t-51.5 55.5t-76 20q-41 0 -74 -20t-51.5 -55.5
t-18.5 -81.5q0 -47 18.5 -82.5t51.5 -56t75 -20.5zM171 546v87l144 80l145 -80v-87l-145 83z" />
    <glyph glyph-name="adieresis.ss02" horiz-adv-x="647" 
d="M292 -12q-71 0 -125.5 34t-86 93.5t-31.5 135.5t31.5 135t87 93t125.5 34q57 0 99.5 -22t67.5 -61l8 71h112v-501h-111l-8 73v0q-24 -34 -65 -59.5t-104 -25.5zM317 92q43 0 75.5 20.5t51 56t18.5 81.5q0 47 -18.5 82.5t-51.5 55.5t-76 20q-41 0 -74 -20t-51.5 -55.5
t-18.5 -81.5q0 -47 18.5 -82.5t51.5 -56t75 -20.5zM228 566q-26 0 -43 17t-17 42t17 42.5t43 17.5q24 0 41.5 -17.5t17.5 -42.5t-17.5 -42t-41.5 -17zM404 566q-25 0 -42 17t-17 42t17 42.5t42 17.5t42 -17.5t17 -42.5t-17 -42t-42 -17z" />
    <glyph glyph-name="agrave.ss02" horiz-adv-x="647" 
d="M292 -12q-71 0 -125.5 34t-86 93.5t-31.5 135.5t31.5 135t87 93t125.5 34q57 0 99.5 -22t67.5 -61l8 71h112v-501h-111l-8 73v0q-24 -34 -65 -59.5t-104 -25.5zM317 92q43 0 75.5 20.5t51 56t18.5 81.5q0 47 -18.5 82.5t-51.5 55.5t-76 20q-41 0 -74 -20t-51.5 -55.5
t-18.5 -81.5q0 -47 18.5 -82.5t51.5 -56t75 -20.5zM421 543l-219 112l9 95v0l217 -125z" />
    <glyph glyph-name="amacron.ss02" horiz-adv-x="647" 
d="M292 -12q-71 0 -125.5 34t-86 93.5t-31.5 135.5t31.5 135t87 93t125.5 34q57 0 99.5 -22t67.5 -61l8 71h112v-501h-111l-8 73v0q-24 -34 -65 -59.5t-104 -25.5zM317 92q43 0 75.5 20.5t51 56t18.5 81.5q0 47 -18.5 82.5t-51.5 55.5t-76 20q-41 0 -74 -20t-51.5 -55.5
t-18.5 -81.5q0 -47 18.5 -82.5t51.5 -56t75 -20.5zM131 590v85h369v-85h-369z" />
    <glyph glyph-name="aogonek.ss02" horiz-adv-x="647" 
d="M292 -12q-71 0 -125.5 34t-86 93.5t-31.5 135.5t31.5 135t87 93t125.5 34q57 0 99.5 -22t67.5 -61l8 71h112v-501h-111l-8 73v0q-24 -34 -65 -59.5t-104 -25.5zM317 92q43 0 75.5 20.5t51 56t18.5 81.5q0 47 -18.5 82.5t-51.5 55.5t-76 20q-41 0 -74 -20t-51.5 -55.5
t-18.5 -81.5q0 -47 18.5 -82.5t51.5 -56t75 -20.5zM500 -209q-34 0 -64 11t-48 33.5t-18 58.5q0 27 12.5 50.5t42 47t80.5 45.5l48 20l27 -57l-53 -26q-36 -18 -50.5 -34.5t-14.5 -34.5q0 -20 14.5 -31t38.5 -11q15 0 33.5 4t36.5 11v-73q-18 -6 -40 -10t-45 -4z" />
    <glyph glyph-name="aring.ss02" horiz-adv-x="647" 
d="M292 -12q-71 0 -125.5 34t-86 93.5t-31.5 135.5t31.5 135t87 93t125.5 34q57 0 99.5 -22t67.5 -61l8 71h112v-501h-111l-8 73v0q-24 -34 -65 -59.5t-104 -25.5zM317 92q43 0 75.5 20.5t51 56t18.5 81.5q0 47 -18.5 82.5t-51.5 55.5t-76 20q-41 0 -74 -20t-51.5 -55.5
t-18.5 -81.5q0 -47 18.5 -82.5t51.5 -56t75 -20.5zM315 566q-46 0 -79 29t-33 81q0 51 33 80.5t79 29.5q47 0 79.5 -29.5t32.5 -80.5q0 -52 -32.5 -81t-79.5 -29zM315 621q22 0 37.5 15t15.5 40q0 26 -15 40.5t-38 14.5q-21 0 -37 -14.5t-16 -40.5q0 -25 16 -40t37 -15z" />
    <glyph glyph-name="atilde.ss02" horiz-adv-x="647" 
d="M292 -12q-71 0 -125.5 34t-86 93.5t-31.5 135.5t31.5 135t87 93t125.5 34q57 0 99.5 -22t67.5 -61l8 71h112v-501h-111l-8 73v0q-24 -34 -65 -59.5t-104 -25.5zM317 92q43 0 75.5 20.5t51 56t18.5 81.5q0 47 -18.5 82.5t-51.5 55.5t-76 20q-41 0 -74 -20t-51.5 -55.5
t-18.5 -81.5q0 -47 18.5 -82.5t51.5 -56t75 -20.5zM373 566q-28 0 -47.5 11.5t-36.5 23t-37 11.5q-17 0 -28.5 -11t-14.5 -34h-65q9 62 39 91t74 29q28 0 47.5 -11.5t36.5 -23t37 -11.5q17 0 28.5 11.5t14.5 33.5h66q-9 -61 -39.5 -90.5t-74.5 -29.5z" />
    <glyph glyph-name="ae.ss02" horiz-adv-x="1008" 
d="M296 -12q-72 0 -128 34t-87.5 93.5t-31.5 135.5t31.5 135t87 93t125.5 34q55 0 97.5 -20.5t66.5 -57.5l8 66h98v-54q31 33 72.5 49.5t90.5 16.5q72 0 126 -33t83.5 -88t29.5 -123q0 -10 -0.5 -22t-1.5 -26h-379q3 -43 21.5 -73t48 -45.5t64.5 -15.5q46 0 75 21.5t43 56.5
h119q-13 -50 -44.5 -90t-79 -63.5t-108.5 -23.5q-49 0 -89 15.5t-71 42.5v-46h-98l-8 52v0q-22 -23 -47.5 -37.5t-54 -20.5t-59.5 -6zM317 92q42 0 75 20.5t51.5 56t18.5 81.5q0 47 -18.5 82.5t-51.5 55.5t-75 20t-75 -20t-51.5 -55.5t-18.5 -81.5q0 -47 18.5 -82.5
t51.5 -56t75 -20.5zM587 299h257q-3 53 -37.5 84.5t-86.5 31.5q-33 0 -61.5 -13t-47 -39t-24.5 -64z" />
    <glyph glyph-name="aeacute.ss02" horiz-adv-x="1008" 
d="M296 -12q-72 0 -128 34t-87.5 93.5t-31.5 135.5t31.5 135t87 93t125.5 34q55 0 97.5 -20.5t66.5 -57.5l8 66h98v-54q31 33 72.5 49.5t90.5 16.5q72 0 126 -33t83.5 -88t29.5 -123q0 -10 -0.5 -22t-1.5 -26h-379q3 -43 21.5 -73t48 -45.5t64.5 -15.5q46 0 75 21.5t43 56.5
h119q-13 -50 -44.5 -90t-79 -63.5t-108.5 -23.5q-49 0 -89 15.5t-71 42.5v-46h-98l-8 52v0q-22 -23 -47.5 -37.5t-54 -20.5t-59.5 -6zM317 92q42 0 75 20.5t51.5 56t18.5 81.5q0 47 -18.5 82.5t-51.5 55.5t-75 20t-75 -20t-51.5 -55.5t-18.5 -81.5q0 -47 18.5 -82.5
t51.5 -56t75 -20.5zM587 299h257q-3 53 -37.5 84.5t-86.5 31.5q-33 0 -61.5 -13t-47 -39t-24.5 -64zM410 544l-7 82l218 125v0l8 -95z" />
    <glyph glyph-name="g.ss03" horiz-adv-x="658" 
d="M329 -232q-48 0 -92.5 11.5t-80.5 36t-60.5 61.5t-30.5 88h119q7 -28 26.5 -49t49.5 -32.5t66 -11.5q40 0 73 16.5t52.5 50.5t19.5 86v64q-15 -25 -39 -45.5t-57.5 -33.5t-77.5 -13q-70 0 -126.5 34t-89 92.5t-32.5 131.5q0 74 32.5 132t89.5 92t127 34q39 0 72 -11.5
t58.5 -30.5t42.5 -44v0l12 74h108v-471q0 -64 -20.5 -112.5t-56 -82t-83.5 -50.5t-102 -17zM321 101q44 0 77.5 20.5t52 55t18.5 78.5q0 45 -18.5 79.5t-52 54t-77.5 19.5t-78 -19.5t-52.5 -54t-18.5 -79.5q0 -44 18.5 -78.5t52.5 -55t78 -20.5z" />
    <glyph glyph-name="gbreve.ss03" horiz-adv-x="658" 
d="M329 -232q-48 0 -92.5 11.5t-80.5 36t-60.5 61.5t-30.5 88h119q7 -28 26.5 -49t49.5 -32.5t66 -11.5q40 0 73 16.5t52.5 50.5t19.5 86v64q-15 -25 -39 -45.5t-57.5 -33.5t-77.5 -13q-70 0 -126.5 34t-89 92.5t-32.5 131.5q0 74 32.5 132t89.5 92t127 34q39 0 72 -11.5
t58.5 -30.5t42.5 -44v0l12 74h108v-471q0 -64 -20.5 -112.5t-56 -82t-83.5 -50.5t-102 -17zM321 101q44 0 77.5 20.5t52 55t18.5 78.5q0 45 -18.5 79.5t-52 54t-77.5 19.5t-78 -19.5t-52.5 -54t-18.5 -79.5q0 -44 18.5 -78.5t52.5 -55t78 -20.5zM329 560q-47 0 -81 18.5
t-52.5 51.5t-18.5 77v16h64q0 -34 20 -53.5t68 -19.5q49 0 68.5 19.5t19.5 53.5h66v-16q0 -44 -19 -77.5t-53 -51.5t-82 -18z" />
    <glyph glyph-name="uni0123.ss03" horiz-adv-x="658" 
d="M329 -232q-48 0 -92.5 11.5t-80.5 36t-60.5 61.5t-30.5 88h119q7 -28 26.5 -49t49.5 -32.5t66 -11.5q40 0 73 16.5t52.5 50.5t19.5 86v64q-15 -25 -39 -45.5t-57.5 -33.5t-77.5 -13q-70 0 -126.5 34t-89 92.5t-32.5 131.5q0 74 32.5 132t89.5 92t127 34q39 0 72 -11.5
t58.5 -30.5t42.5 -44v0l12 74h108v-471q0 -64 -20.5 -112.5t-56 -82t-83.5 -50.5t-102 -17zM321 101q44 0 77.5 20.5t52 55t18.5 78.5q0 45 -18.5 79.5t-52 54t-77.5 19.5t-78 -19.5t-52.5 -54t-18.5 -79.5q0 -44 18.5 -78.5t52.5 -55t78 -20.5zM385 769v-51q-24 0 -35.5 -9
t-11.5 -28v-19h47v-99h-100q-6 28 -9 49.5t-3 43.5q0 56 28.5 84.5t83.5 28.5z" />
    <glyph glyph-name="gdotaccent.ss03" horiz-adv-x="658" 
d="M329 -232q-48 0 -92.5 11.5t-80.5 36t-60.5 61.5t-30.5 88h119q7 -28 26.5 -49t49.5 -32.5t66 -11.5q40 0 73 16.5t52.5 50.5t19.5 86v64q-15 -25 -39 -45.5t-57.5 -33.5t-77.5 -13q-70 0 -126.5 34t-89 92.5t-32.5 131.5q0 74 32.5 132t89.5 92t127 34q39 0 72 -11.5
t58.5 -30.5t42.5 -44v0l12 74h108v-471q0 -64 -20.5 -112.5t-56 -82t-83.5 -50.5t-102 -17zM321 101q44 0 77.5 20.5t52 55t18.5 78.5q0 45 -18.5 79.5t-52 54t-77.5 19.5t-78 -19.5t-52.5 -54t-18.5 -79.5q0 -44 18.5 -78.5t52.5 -55t78 -20.5zM329 568q-25 0 -42.5 17
t-17.5 42t17.5 42.5t42.5 17.5q24 0 41.5 -17.5t17.5 -42.5t-17.5 -42t-41.5 -17z" />
    <glyph glyph-name="u.ss04" horiz-adv-x="596" 
d="M298 -12q-117 0 -178 60.5t-61 174.5v278h120v-268q0 -50 12.5 -83.5t39 -50.5t67.5 -17t67.5 17t39 50.5t12.5 83.5v268h119v-278q0 -114 -60.5 -174.5t-177.5 -60.5z" />
    <glyph glyph-name="uacute.ss04" horiz-adv-x="596" 
d="M298 -12q-117 0 -178 60.5t-61 174.5v278h120v-268q0 -50 12.5 -83.5t39 -50.5t67.5 -17t67.5 17t39 50.5t12.5 83.5v268h119v-278q0 -114 -60.5 -174.5t-177.5 -60.5zM192 544l-7 82l218 125v0l8 -95z" />
    <glyph glyph-name="ubreve.ss04" horiz-adv-x="596" 
d="M298 -12q-117 0 -178 60.5t-61 174.5v278h120v-268q0 -50 12.5 -83.5t39 -50.5t67.5 -17t67.5 17t39 50.5t12.5 83.5v268h119v-278q0 -114 -60.5 -174.5t-177.5 -60.5zM298 560q-47 0 -81 18.5t-52.5 51.5t-18.5 77v16h64q0 -34 20 -53.5t68 -19.5q49 0 68.5 19.5
t19.5 53.5h66v-16q0 -44 -19 -77.5t-53 -51.5t-82 -18z" />
    <glyph glyph-name="ucircumflex.ss04" horiz-adv-x="596" 
d="M298 -12q-117 0 -178 60.5t-61 174.5v278h120v-268q0 -50 12.5 -83.5t39 -50.5t67.5 -17t67.5 17t39 50.5t12.5 83.5v268h119v-278q0 -114 -60.5 -174.5t-177.5 -60.5zM154 547v87l144 80l145 -80v-87l-145 83z" />
    <glyph glyph-name="udieresis.ss04" horiz-adv-x="596" 
d="M298 -12q-117 0 -178 60.5t-61 174.5v278h120v-268q0 -50 12.5 -83.5t39 -50.5t67.5 -17t67.5 17t39 50.5t12.5 83.5v268h119v-278q0 -114 -60.5 -174.5t-177.5 -60.5zM211 567q-26 0 -43 17t-17 42t17 42.5t43 17.5q24 0 41.5 -17.5t17.5 -42.5t-17.5 -42t-41.5 -17z
M387 567q-25 0 -42 17t-17 42t17 42.5t42 17.5t42 -17.5t17 -42.5t-17 -42t-42 -17z" />
    <glyph glyph-name="ugrave.ss04" horiz-adv-x="596" 
d="M298 -12q-117 0 -178 60.5t-61 174.5v278h120v-268q0 -50 12.5 -83.5t39 -50.5t67.5 -17t67.5 17t39 50.5t12.5 83.5v268h119v-278q0 -114 -60.5 -174.5t-177.5 -60.5zM404 544l-219 112l9 95v0l217 -125z" />
    <glyph glyph-name="uhungarumlaut.ss04" horiz-adv-x="596" 
d="M298 -12q-117 0 -178 60.5t-61 174.5v278h120v-268q0 -50 12.5 -83.5t39 -50.5t67.5 -17t67.5 17t39 50.5t12.5 83.5v268h119v-278q0 -114 -60.5 -174.5t-177.5 -60.5zM332 550l80 174h99l-102 -174h-77zM167 550l70 174h98l-91 -174h-77z" />
    <glyph glyph-name="umacron.ss04" horiz-adv-x="596" 
d="M298 -12q-117 0 -178 60.5t-61 174.5v278h120v-268q0 -50 12.5 -83.5t39 -50.5t67.5 -17t67.5 17t39 50.5t12.5 83.5v268h119v-278q0 -114 -60.5 -174.5t-177.5 -60.5zM114 591v85h369v-85h-369z" />
    <glyph glyph-name="uogonek.ss04" horiz-adv-x="596" 
d="M298 -12q-117 0 -178 60.5t-61 174.5v278h120v-268q0 -50 12.5 -83.5t39 -50.5t67.5 -17t67.5 17t39 50.5t12.5 83.5v268h119v-278q0 -114 -60.5 -174.5t-177.5 -60.5zM338 -199q-34 0 -64 11t-48 33.5t-18 58.5q0 27 12.5 50.5t42 47t80.5 45.5l48 20l27 -57l-53 -26
q-36 -18 -50.5 -34.5t-14.5 -34.5q0 -20 14.5 -31t38.5 -11q15 0 33.5 4t36.5 11v-73q-18 -6 -40 -10t-45 -4z" />
    <glyph glyph-name="uring.ss04" horiz-adv-x="596" 
d="M298 -12q-117 0 -178 60.5t-61 174.5v278h120v-268q0 -50 12.5 -83.5t39 -50.5t67.5 -17t67.5 17t39 50.5t12.5 83.5v268h119v-278q0 -114 -60.5 -174.5t-177.5 -60.5zM298 567q-46 0 -79 29t-33 81q0 51 33 80.5t79 29.5q47 0 79.5 -29.5t32.5 -80.5q0 -52 -32.5 -81
t-79.5 -29zM298 622q22 0 37.5 15t15.5 40q0 26 -15 40.5t-38 14.5q-21 0 -37 -14.5t-16 -40.5q0 -25 16 -40t37 -15z" />
    <glyph glyph-name="utilde.ss04" horiz-adv-x="596" 
d="M298 -12q-117 0 -178 60.5t-61 174.5v278h120v-268q0 -50 12.5 -83.5t39 -50.5t67.5 -17t67.5 17t39 50.5t12.5 83.5v268h119v-278q0 -114 -60.5 -174.5t-177.5 -60.5zM356 567q-28 0 -47.5 11.5t-36.5 23t-37 11.5q-17 0 -28.5 -11t-14.5 -34h-65q9 62 39 91t74 29
q28 0 47.5 -11.5t36.5 -23t37 -11.5q17 0 28.5 11.5t14.5 33.5h66q-9 -61 -39.5 -90.5t-74.5 -29.5z" />
    <glyph glyph-name="y.ss05" horiz-adv-x="607" 
d="M300 -232q-43 0 -83.5 11.5t-73 34t-53.5 57.5t-26 83h119q5 -28 20.5 -48t40 -30.5t55.5 -10.5q39 0 66 17.5t41 53.5t14 91v48v0q-23 -36 -64.5 -58t-101.5 -22t-104 25t-67.5 75.5t-23.5 126.5v279h120v-271q0 -67 28.5 -101.5t84.5 -34.5q40 0 68.5 18t44 51.5
t15.5 80.5v257h120v-475q0 -85 -31 -142t-85 -86.5t-124 -29.5z" />
    <glyph glyph-name="yacute.ss05" horiz-adv-x="607" 
d="M300 -232q-43 0 -83.5 11.5t-73 34t-53.5 57.5t-26 83h119q5 -28 20.5 -48t40 -30.5t55.5 -10.5q39 0 66 17.5t41 53.5t14 91v48v0q-23 -36 -64.5 -58t-101.5 -22t-104 25t-67.5 75.5t-23.5 126.5v279h120v-271q0 -67 28.5 -101.5t84.5 -34.5q40 0 68.5 18t44 51.5
t15.5 80.5v257h120v-475q0 -85 -31 -142t-85 -86.5t-124 -29.5zM198 544l-7 82l218 125v0l8 -95z" />
    <glyph glyph-name="ycircumflex.ss05" horiz-adv-x="607" 
d="M300 -232q-43 0 -83.5 11.5t-73 34t-53.5 57.5t-26 83h119q5 -28 20.5 -48t40 -30.5t55.5 -10.5q39 0 66 17.5t41 53.5t14 91v48v0q-23 -36 -64.5 -58t-101.5 -22t-104 25t-67.5 75.5t-23.5 126.5v279h120v-271q0 -67 28.5 -101.5t84.5 -34.5q40 0 68.5 18t44 51.5
t15.5 80.5v257h120v-475q0 -85 -31 -142t-85 -86.5t-124 -29.5zM160 547v87l144 80l145 -80v-87l-145 83z" />
    <glyph glyph-name="ydieresis.ss05" horiz-adv-x="607" 
d="M300 -232q-43 0 -83.5 11.5t-73 34t-53.5 57.5t-26 83h119q5 -28 20.5 -48t40 -30.5t55.5 -10.5q39 0 66 17.5t41 53.5t14 91v48v0q-23 -36 -64.5 -58t-101.5 -22t-104 25t-67.5 75.5t-23.5 126.5v279h120v-271q0 -67 28.5 -101.5t84.5 -34.5q40 0 68.5 18t44 51.5
t15.5 80.5v257h120v-475q0 -85 -31 -142t-85 -86.5t-124 -29.5zM217 567q-26 0 -43 17t-17 42t17 42.5t43 17.5q24 0 41.5 -17.5t17.5 -42.5t-17.5 -42t-41.5 -17zM393 567q-25 0 -42 17t-17 42t17 42.5t42 17.5t42 -17.5t17 -42.5t-17 -42t-42 -17z" />
    <glyph glyph-name="ygrave.ss05" horiz-adv-x="607" 
d="M300 -232q-43 0 -83.5 11.5t-73 34t-53.5 57.5t-26 83h119q5 -28 20.5 -48t40 -30.5t55.5 -10.5q39 0 66 17.5t41 53.5t14 91v48v0q-23 -36 -64.5 -58t-101.5 -22t-104 25t-67.5 75.5t-23.5 126.5v279h120v-271q0 -67 28.5 -101.5t84.5 -34.5q40 0 68.5 18t44 51.5
t15.5 80.5v257h120v-475q0 -85 -31 -142t-85 -86.5t-124 -29.5zM410 544l-219 112l9 95v0l217 -125z" />
    <glyph glyph-name="uni1EF9.ss05" horiz-adv-x="607" 
d="M300 -232q-43 0 -83.5 11.5t-73 34t-53.5 57.5t-26 83h119q5 -28 20.5 -48t40 -30.5t55.5 -10.5q39 0 66 17.5t41 53.5t14 91v48v0q-23 -36 -64.5 -58t-101.5 -22t-104 25t-67.5 75.5t-23.5 126.5v279h120v-271q0 -67 28.5 -101.5t84.5 -34.5q40 0 68.5 18t44 51.5
t15.5 80.5v257h120v-475q0 -85 -31 -142t-85 -86.5t-124 -29.5zM362 567q-28 0 -47.5 11.5t-36.5 23t-37 11.5q-17 0 -28.5 -11t-14.5 -34h-65q9 62 39 91t74 29q28 0 47.5 -11.5t36.5 -23t37 -11.5q17 0 28.5 11.5t14.5 33.5h66q-9 -61 -39.5 -90.5t-74.5 -29.5z" />
    <glyph glyph-name="one.ss07" horiz-adv-x="404" 
d="M145 0v563l-115 -26v91l164 72h75v-700h-124zM41 96h333v-96h-333v96z" />
    <glyph glyph-name="three.ss07" horiz-adv-x="604" 
d="M300 -5q-69 0 -124 24t-88.5 74t-37.5 125h117q5 -54 38 -89t96 -35q60 0 95 34.5t35 92.5q0 60 -37 95t-100 35h-100v80l207 198l41 -31h-351v102h425v-91l-225 -212l-56 36h72q111 0 175 -56t64 -159q0 -68 -30 -118t-85 -77.5t-131 -27.5z" />
    <glyph glyph-name="four.ss07" horiz-adv-x="643" 
d="M382 0v142h-336v95l290 463h130l-291 -453h214v161l112 26v-187h95v-105h-95v-142h-119z" />
    <glyph glyph-name="six.ss07" horiz-adv-x="604" 
d="M303 -12q-76 0 -133.5 32.5t-89 88t-31.5 125.5q0 55 18 107t59 111l167 248h135l-204 -295l-5 39q27 10 52.5 16.5t54.5 6.5q68 0 119.5 -28.5t80.5 -81t29 -123.5q0 -74 -32.5 -129t-89.5 -86t-130 -31zM303 92q63 0 100 38.5t37 101.5q0 43 -17 74.5t-47.5 49
t-72.5 17.5t-73 -17.5t-47.5 -49t-16.5 -73.5q0 -64 37.5 -102.5t99.5 -38.5z" />
    <glyph glyph-name="nine.ss07" horiz-adv-x="604" 
d="M176 0l205 295l4 -39q-26 -9 -52 -16t-55 -7q-67 0 -119 28.5t-81 81.5t-29 123q0 74 33 129t89.5 86t129.5 31q76 0 133.5 -32t89 -87.5t31.5 -126.5q0 -54 -18 -106.5t-58 -111.5l-167 -248h-136zM301 327q42 0 73 17.5t47.5 49.5t16.5 73q0 64 -37 102.5t-100 38.5
t-99.5 -38.5t-36.5 -101.5q0 -42 16.5 -74t47 -49.5t72.5 -17.5z" />
    <glyph glyph-name="one.dnom" horiz-adv-x="228" 
d="M94 0v264l-69 -16v57l107 47h54v-352h-92z" />
    <glyph glyph-name="two.dnom" horiz-adv-x="352" 
d="M37 0v68l116 84q28 22 45.5 44t17.5 50q0 22 -12.5 34t-30.5 12q-20 0 -32 -13t-15 -37h-93q4 50 41.5 84t106.5 34q44 0 73.5 -15.5t44.5 -40t15 -53.5q0 -39 -26 -68t-79 -62l-73 -48h178v-73h-277z" />
    <glyph glyph-name="three.dnom" horiz-adv-x="348" 
d="M173 -5q-73 0 -110 30t-42 84h95q2 -17 9 -27.5t18.5 -14.5t25.5 -4q23 0 37 12t14 33q0 23 -16 35t-40 12h-41v47h38q24 0 39 11.5t15 34.5q0 20 -13 32t-36 12t-36 -10.5t-16 -30.5h-88q2 30 19 54.5t49.5 39.5t80.5 15q61 0 100 -29.5t39 -74.5q0 -31 -18 -50.5
t-49 -26.5v-3q32 -9 51.5 -29t19.5 -53q0 -42 -39.5 -70.5t-105.5 -28.5z" />
    <glyph glyph-name="four.dnom" horiz-adv-x="341" 
d="M192 0v62h-167v63l157 223h100v-221h40v-65h-40v-62h-90zM117 127h81v123v0z" />
    <glyph glyph-name="one.numr" horiz-adv-x="228" 
d="M94 352v264l-69 -16v57l107 47h54v-352h-92z" />
    <glyph glyph-name="two.numr" horiz-adv-x="352" 
d="M37 352v68l116 84q28 22 45.5 44t17.5 50q0 22 -12.5 34t-30.5 12q-20 0 -32 -13t-15 -37h-93q4 50 41.5 84t106.5 34q44 0 73.5 -15.5t44.5 -40t15 -53.5q0 -39 -26 -68t-79 -62l-73 -48h178v-73h-277z" />
    <glyph glyph-name="three.numr" horiz-adv-x="348" 
d="M173 347q-73 0 -110 30t-42 84h95q2 -17 9 -27.5t18.5 -14.5t25.5 -4q23 0 37 12t14 33q0 23 -16 35t-40 12h-41v47h38q24 0 39 11.5t15 34.5q0 20 -13 32t-36 12t-36 -10.5t-16 -30.5h-88q2 30 19 54.5t49.5 39.5t80.5 15q61 0 100 -29.5t39 -74.5q0 -31 -18 -50.5
t-49 -26.5v-3q32 -9 51.5 -29t19.5 -53q0 -42 -39.5 -70.5t-105.5 -28.5z" />
    <glyph glyph-name="four.numr" horiz-adv-x="341" 
d="M192 352v62h-167v63l157 223h100v-221h40v-65h-40v-62h-90zM117 479h81v123v0z" />
    <glyph glyph-name="comma.ss01" horiz-adv-x="202" 
d="M45 -101v49q26 0 37.5 15t11.5 44v21h-54v99h106q8 -27 11.5 -53t3.5 -49q0 -61 -29.5 -93.5t-86.5 -32.5z" />
    <glyph glyph-name="semicolon.ss01" horiz-adv-x="233" 
d="M114 370q-34 0 -55 21t-21 50q0 31 21 52t55 21q33 0 54 -21t21 -52q0 -29 -21 -50t-54 -21zM58 -101v49q26 0 37.5 15t11.5 44v21h-54v99h106q8 -27 11.5 -53t3.5 -49q0 -61 -29.5 -93.5t-86.5 -32.5z" />
    <glyph glyph-name="quotesinglbase.ss01" horiz-adv-x="202" 
d="M45 -101v50q26 0 38 14.5t12 43.5v21h-55v99h106q8 -27 11.5 -53t3.5 -49q0 -61 -29 -93.5t-87 -32.5z" />
    <glyph glyph-name="quotedblbase.ss01" horiz-adv-x="356" 
d="M200 -101v50q26 0 38 14.5t12 43.5v21h-55v99h106q8 -27 11.5 -53t3.5 -49q0 -61 -29 -93.5t-87 -32.5zM45 -101v50q26 0 38 14.5t12 43.5v21h-55v99h106q8 -27 11.5 -53t3.5 -49q0 -61 -29 -93.5t-87 -32.5z" />
    <glyph glyph-name="quotedblleft.ss01" horiz-adv-x="345" 
d="M150 733v-50q-25 0 -37 -14.5t-12 -43.5v-21h54v-99h-105q-8 28 -11.5 53.5t-3.5 48.5q0 61 29 93.5t86 32.5zM305 733v-50q-25 0 -37 -14.5t-12 -43.5v-21h54v-99h-106q-8 28 -11.5 53.5t-3.5 48.5q0 61 29 93.5t87 32.5z" />
    <glyph glyph-name="quotedblright.ss01" horiz-adv-x="345" 
d="M194 505v50q26 0 38 14.5t12 43.5v21h-55v99h106q8 -27 11.5 -53t3.5 -49q0 -61 -29 -93.5t-87 -32.5zM40 505v50q26 0 38 14.5t12 43.5v21h-55v99h106q8 -27 11.5 -53t3.5 -49q0 -61 -29 -93.5t-87 -32.5z" />
    <glyph glyph-name="quoteleft.ss01" horiz-adv-x="190" 
d="M150 733v-50q-25 0 -37 -14.5t-12 -43.5v-21h54v-99h-105q-8 28 -11.5 53.5t-3.5 48.5q0 61 29 93.5t86 32.5z" />
    <glyph glyph-name="quoteright.ss01" horiz-adv-x="190" 
d="M40 504v50q26 0 38 14.5t12 43.5v21h-55v99h106q8 -27 11.5 -53t3.5 -49q0 -61 -29 -93.5t-87 -32.5z" />
    <glyph glyph-name="quotedblleft.ss08" horiz-adv-x="764" 
d="M382 -12q75 0 140.5 28t115.5 78t78 115.5t28 140.5t-28 140.5t-78 115.5t-115.5 78t-140.5 28t-140.5 -28t-115.5 -78t-78 -115.5t-28 -140.5t28 -140.5t78 -115.5t115.5 -78t140.5 -28zM362 484v-57q-30 0 -44 -17t-14 -52v-24h63v-114h-121q-9 33 -13 62.5t-4 55.5
q0 48 15 80.5t44.5 49t73.5 16.5zM539 484v-57q-30 0 -43.5 -17t-13.5 -52v-24h63v-114h-121q-9 34 -13 63t-4 55q0 48 14.5 80.5t44.5 49t73 16.5z" />
    <glyph glyph-name="quotedblright.ss08" horiz-adv-x="764" 
d="M382 712q-75 0 -140.5 -28t-115.5 -78t-78 -115.5t-28 -140.5t28 -140.5t78 -115.5t115.5 -78t140.5 -28t140.5 28t115.5 78t78 115.5t28 140.5t-28 140.5t-78 115.5t-115.5 78t-140.5 28zM402 216v57q31 0 44.5 17t13.5 51v25h-63v114h121q9 -33 13 -62.5t4 -55.5
q0 -47 -15 -80t-44.5 -49.5t-73.5 -16.5zM225 216v57q30 0 43.5 17t13.5 51v25h-63v114h122q9 -33 12.5 -62.5t3.5 -55.5q0 -47 -14.5 -80t-44 -49.5t-73.5 -16.5z" />
    <glyph glyph-name="arrowup.ss08" horiz-adv-x="764" 
d="M382 -12q-75 0 -140.5 28t-115.5 78t-78 115.5t-28 140.5t28 140.5t78 115.5t115.5 78t140.5 28t140.5 -28t115.5 -77.5t78 -115t28 -141.5q0 -75 -28 -140.5t-78 -115.5t-115.5 -78t-140.5 -28zM340 167h85v245l112 -111l54 54l-183 180h-52l-182 -180l53 -54l113 111
v-245z" />
    <glyph glyph-name="uni2197.ss08" horiz-adv-x="764" 
d="M382 -12q-75 0 -140.5 28t-115.5 78t-78 115.5t-28 140.5t28 140.5t78 115.5t115.5 78t140.5 28t140.5 -28t115.5 -77.5t78 -115.5t28 -141t-28 -140.5t-78 -115.5t-115.5 -78t-140.5 -28zM284 198l176 175v-170h75v263l-37 36h-263v-74h169l-175 -175z" />
    <glyph glyph-name="arrowright.ss08" horiz-adv-x="764" 
d="M382 -12q-75 0 -140.5 28t-115.5 78t-78 115.5t-28 140.5t28 140.5t78 115.5t115.5 78t140.5 28t140.5 -28t115.5 -77.5t78 -115.5t28 -141t-28 -140.5t-78 -115.5t-115.5 -78t-140.5 -28zM386 143l180 181v53l-180 181l-54 -53l116 -115h-250v-80h250l-116 -113z" />
    <glyph glyph-name="uni2198.ss08" horiz-adv-x="764" 
d="M382 712q75 0 140.5 -28t115.5 -78t78 -115.5t28 -140.5t-28 -141t-78 -115.5t-115.5 -77.5t-140.5 -28t-140.5 28t-115.5 78t-78 115.5t-28 140.5t28 140.5t78 115.5t115.5 78t140.5 28zM284 502l-55 -55l175 -175h-169v-74h263l37 36v263h-75v-170z" />
    <glyph glyph-name="arrowdown.ss08" horiz-adv-x="764" 
d="M382 712q75 0 140.5 -28t115.5 -78t78 -115.5t28 -140.5q0 -76 -28 -141.5t-78 -115t-115.5 -77.5t-140.5 -28t-140.5 28t-115.5 78t-78 115.5t-28 140.5t28 140.5t78 115.5t115.5 78t140.5 28zM340 533v-245l-113 111l-53 -54l182 -180h52l183 180l-54 54l-112 -111v245
h-85z" />
    <glyph glyph-name="uni2199.ss08" horiz-adv-x="764" 
d="M382 712q75 0 140.5 -28t115.5 -78t78 -115.5t28 -140.5t-28 -140.5t-78 -115.5t-115.5 -78t-140.5 -28t-140.5 28t-115.5 77.5t-78 115.5t-28 141t28 140.5t78 115.5t115.5 78t140.5 28zM480 502l-176 -175v170h-75v-263l37 -36h263v74h-169l175 175z" />
    <glyph glyph-name="arrowleft.ss08" horiz-adv-x="764" 
d="M382 -12q-75 0 -140.5 28t-115.5 78t-78 115.5t-28 140.5t28 141t78 115.5t115.5 77.5t140.5 28t140.5 -28t115.5 -78t78 -115.5t28 -140.5t-28 -140.5t-78 -115.5t-115.5 -78t-140.5 -28zM378 143l54 54l-116 113h250v80h-250l116 115l-54 53l-180 -181v-53z" />
    <glyph glyph-name="uni2196.ss08" horiz-adv-x="764" 
d="M382 -12q-75 0 -140.5 28t-115.5 78t-78 115.5t-28 140.5t28 141t78 115.5t115.5 77.5t140.5 28t140.5 -28t115.5 -78t78 -115.5t28 -140.5t-28 -140.5t-78 -115.5t-115.5 -78t-140.5 -28zM480 198l55 55l-175 175h169v74h-263l-37 -36v-263h75v170z" />
    <glyph glyph-name="arrowboth.ss08" horiz-adv-x="764" 
d="M382 -12q-75 0 -140.5 28t-115.5 78t-78 115.5t-28 140.5t28 140.5t78 115.5t115.5 78t140.5 28t140.5 -28t115.5 -77.5t78 -115.5t28 -141t-28 -140.5t-78 -115.5t-115.5 -78t-140.5 -28zM291 153l61 46l-91 111h246l-91 -111l61 -46l138 171v53l-139 170l-60 -46
l91 -110h-246l91 110l-60 46l-139 -170v-53z" />
    <glyph glyph-name="arrowupdn.ss08" horiz-adv-x="764" 
d="M382 -12q-75 0 -140.5 28t-115.5 78t-78 115.5t-28 140.5t28 140.5t78 115.5t115.5 78t140.5 28t140.5 -28t115.5 -78t78 -115.5t28 -140.5t-28 -140.5t-77.5 -115.5t-115.5 -78t-141 -28zM357 120h52l171 138l-46 60l-110 -89v242l110 -89l46 60l-171 138h-52l-172 -138
l47 -60l110 89v-242l-110 89l-47 -60z" />
    <glyph glyph-name="uni030C.alt" 
d="M0 519v50q25 0 36 9.5t11 28.5v18h-47v100h100q6 -28 9 -49.5t3 -44.5q0 -55 -28.5 -83.5t-83.5 -28.5z" />
    <glyph glyph-name="uni0308.case" 
d="M60 770q-26 0 -43 17t-17 42t17 42.5t43 17.5q24 0 41.5 -17.5t17.5 -42.5t-17.5 -42t-41.5 -17zM236 770q-25 0 -42 17t-17 42t17 42.5t42 17.5t42 -17.5t17 -42.5t-17 -42t-42 -17z" />
    <glyph glyph-name="uni0307.case" 
d="M60 764q-25 0 -42.5 17.5t-17.5 42.5t17.5 42.5t42.5 17.5q24 0 41.5 -17.5t17.5 -42.5t-17.5 -42.5t-41.5 -17.5z" />
    <glyph glyph-name="gravecomb.case" 
d="M219 743l-219 112l9 95v0l217 -124z" />
    <glyph glyph-name="acutecomb.case" 
d="M7 743l-7 83l218 124v0l8 -95z" />
    <glyph glyph-name="uni030B.case" 
d="M165 749l80 174h99l-102 -174h-77zM0 749l70 174h98l-91 -174h-77z" />
    <glyph glyph-name="uni0302.case" 
d="M0 748v87l144 81l145 -81v-87l-145 83z" />
    <glyph glyph-name="uni030C.case" 
d="M144 747l-144 81v87l144 -85l145 85v-87z" />
    <glyph glyph-name="uni0306.case" 
d="M152 750q-47 0 -81 18.5t-52.5 52t-18.5 77.5v16h64q0 -34 20 -53.5t68 -19.5q49 0 68.5 19.5t19.5 53.5h66v-16q0 -45 -19 -78t-53 -51.5t-82 -18.5z" />
    <glyph glyph-name="uni030A.case" 
d="M112 753q-46 0 -79 29.5t-33 80.5q0 52 33 81.5t79 29.5q47 0 79.5 -29.5t32.5 -81.5q0 -51 -32.5 -80.5t-79.5 -29.5zM112 808q22 0 37.5 15t15.5 40q0 26 -15 40.5t-38 14.5q-21 0 -37 -14.5t-16 -40.5q0 -25 16 -40t37 -15z" />
    <glyph glyph-name="tildecomb.case" 
d="M229 752q-28 0 -47.5 11.5t-36.5 23t-37 11.5q-17 0 -28.5 -11t-14.5 -34h-65q9 62 39 91.5t74 29.5q28 0 47.5 -11.5t36.5 -23t37 -11.5q17 0 28.5 11t14.5 34h66q-9 -62 -39.5 -91.5t-74.5 -29.5z" />
    <glyph glyph-name="uni0304.case" 
d="M0 785v86h369v-86h-369z" />
    <glyph glyph-name="uni0327.case" 
d="M0 -262v70h108q29 0 43 9t14 30q0 18 -14 27t-43 9h-58v124h75v-59q35 0 64.5 -10.5t47.5 -34t18 -59.5q0 -35 -17.5 -58.5t-47 -35.5t-64.5 -12h-126z" />
    <glyph glyph-name="uni0328.case" 
d="M130 -209q-34 0 -64 11t-48 33.5t-18 58.5q0 27 12.5 50.5t42 47t80.5 45.5l48 20l27 -57l-53 -26q-36 -18 -50.5 -34.5t-14.5 -34.5q0 -20 14.5 -31t38.5 -11q15 0 33.5 4t36.5 11v-73q-18 -6 -40 -10t-45 -4z" />
    </font>
</defs>
</svg>
