<?xml version="1.0" standalone="no"?>
<!DOCTYPE svg PUBLIC "-//W3C//DTD SVG 1.1//EN" "http://www.w3.org/Graphics/SVG/1.1/DTD/svg11.dtd" >
<svg xmlns="http://www.w3.org/2000/svg" xmlns:xlink="http://www.w3.org/1999/xlink" version="1.1">
<metadata>
Created by FontForge 20201107 at Wed Aug 16 07:57:36 2023
 By 
Copyright 2023 (c) ID Typeface
</metadata>
<defs>
<font id="IDGrotesk-Bold" horiz-adv-x="592" >
  <font-face 
    font-family="ID Grotesk Bold"
    font-weight="700"
    font-stretch="normal"
    units-per-em="2000"
    panose-1="0 0 0 0 0 0 0 0 0 0"
    ascent="1600"
    descent="-400"
    x-height="1080"
    cap-height="1440"
    bbox="-286 -912 2500 2100"
    underline-thickness="50"
    underline-position="-125"
    unicode-range="U+000D-FB04"
  />
<missing-glyph horiz-adv-x="1480" 
d="M192 1440v-1440h114v1440h-114zM565 1440h-169l783 -722l-783 -718h169l783 718zM396 1256v-1072h114v1072h-114z" />
    <glyph glyph-name="uniE001" unicode="&#x28;c&#x29;" horiz-adv-x="2028" 
d="M1346 -73.5q155 66.5 272 183.5t183.5 272t66.5 332t-66.5 332t-183.5 272t-272 183.5t-332 66.5t-332 -66.5t-272 -183.5t-183.5 -272t-66.5 -332t66.5 -332t183.5 -272t272 -183.5t332 -66.5t332 66.5zM1166.5 304q54.5 18 99.5 52q50 38 86 93t46 141l-208 8
q-5 -25 -14.5 -46t-34.5 -42q-37 -31 -107 -32q-49 -1 -84.5 17t-59.5 51q-25 36 -35.5 79t-10.5 89q0 47 9.5 91.5t36.5 78.5q26 32 60.5 50t79.5 18q29 0 56 -9t51 -27q29 -21 42 -46t15 -52h204q-8 108 -52.5 172t-101.5 98q-51 32 -98 43t-104 11q-109 0 -183.5 -34
t-130.5 -102q-49 -60 -74.5 -133t-25.5 -159q0 -82 24 -155t76 -139q57 -70 129 -102t175 -32q80 0 134.5 18zM781 160.5q-109 46.5 -191.5 129t-129 191.5t-46.5 233q0 125 46.5 233.5t129 191t191.5 129t233 46.5q125 0 233.5 -46.5t191 -129t129 -191t46.5 -233.5
q0 -124 -46.5 -233t-129 -191.5t-191 -129t-233.5 -46.5q-124 0 -233 46.5z" />
    <glyph glyph-name="uniE002" unicode="&#x20;&#x3c;&#x33;&#x20;" horiz-adv-x="2318" 
d="M1312 36l330 350q76 81 101.5 178t8.5 193t-71 176t-138 128.5t-191 48.5q-39 0 -88.5 -10t-105.5 -40q-91 50 -192 50q-106 0 -190 -48t-138 -127.5t-71.5 -175.5t8 -193.5t101.5 -179.5l332 -350q63 -66 150 -66q91 0 154 66zM830 530q-48 48 -57.5 111t12.5 122t69 98
t112 39q95 0 192 -106q50 54 99 80t95 26q63 0 110.5 -38t70.5 -96t14.5 -121.5t-57.5 -114.5l-332 -348z" />
    <glyph glyph-name="ff" unicode="ff" horiz-adv-x="1464" 
d="M502 1140q0 45 31 77.5t95 32.5h124v220h-134q-39 0 -94 -1.5t-113.5 -22t-108.5 -76.5q-39 -43 -53.5 -96t-16.5 -105t-2 -93v-241h115v-32q-54 0 -84.5 -31.5t-30.5 -84.5v-687h272v1140zM752 1080h-692v-250h692v250zM1194 1140q0 45 31 77.5t95 32.5h124v220h-134
q-39 0 -94 -1.5t-113.5 -22t-108.5 -76.5q-39 -43 -53.5 -96t-16.5 -105t-2 -93v-241h115v-32q-54 0 -84.5 -31.5t-30.5 -84.5v-687h272v1140zM1444 1080h-692v-250h692v250z" />
    <glyph glyph-name="fi" unicode="fi" horiz-adv-x="1394" 
d="M502 1140q0 45 31 77.5t95 32.5h124v220h-134q-39 0 -94 -1.5t-113.5 -22t-108.5 -76.5q-39 -43 -53.5 -96t-16.5 -105t-2 -93v-241h115v-32q-54 0 -84.5 -31.5t-30.5 -84.5v-687h272v1140zM1028 1080h-968v-250h968v250zM1234 1470h-272v-240h272v240zM962 0h272v943
q0 62 -37.5 99.5t-99.5 37.5h-135v-1080z" />
    <glyph glyph-name="fl" unicode="fl" horiz-adv-x="1422" 
d="M1000 1080h-260v-250h260v250zM1262 1470h-272v-1470h272v1470zM502 1140q0 45 31 77.5t95 32.5h124v220h-134q-39 0 -94 -1.5t-113.5 -22t-108.5 -76.5q-39 -43 -53.5 -96t-16.5 -105t-2 -93v-241h115v-32q-54 0 -84.5 -31.5t-30.5 -84.5v-687h272v1140zM752 1080h-692
v-250h692v250z" />
    <glyph glyph-name="f_f_i" unicode="ffi" horiz-adv-x="2072" 
d="M502 1140q0 45 31 77.5t95 32.5h124v220h-134q-39 0 -94 -1.5t-113.5 -22t-108.5 -76.5q-39 -43 -53.5 -96t-16.5 -105t-2 -93v-241h115v-32q-54 0 -84.5 -31.5t-30.5 -84.5v-687h272v1140zM752 1080h-692v-250h692v250zM1194 1140q0 45 31 77.5t95 32.5h124v220h-134
q-39 0 -94 -1.5t-113.5 -22t-108.5 -76.5q-39 -43 -53.5 -96t-16.5 -105t-2 -93v-241h115v-32q-54 0 -84.5 -31.5t-30.5 -84.5v-687h272v1140zM1720 1080h-968v-250h968v250zM1926 1470h-272v-240h272v240zM1654 0h272v943q0 62 -37.5 99.5t-99.5 37.5h-135v-1080z" />
    <glyph glyph-name="f_f_l" unicode="ffl" horiz-adv-x="2073" 
d="M502 1140q0 45 31 77.5t95 32.5h124v220h-134q-39 0 -94 -1.5t-113.5 -22t-108.5 -76.5q-39 -43 -53.5 -96t-16.5 -105t-2 -93v-241h115v-32q-54 0 -84.5 -31.5t-30.5 -84.5v-687h272v1140zM752 1080h-692v-250h692v250zM1692 1080h-260v-250h260v250zM1954 1470h-272
v-1470h272v1470zM1194 1140q0 45 31 77.5t95 32.5h124v220h-134q-39 0 -94 -1.5t-113.5 -22t-108.5 -76.5q-39 -43 -53.5 -96t-16.5 -105t-2 -93v-241h115v-32q-54 0 -84.5 -31.5t-30.5 -84.5v-687h272v1140zM1444 1080h-692v-250h692v250z" />
    <glyph glyph-name="hyphen_hyphen.liga" unicode="&#x2d;&#x2d;" horiz-adv-x="1080" 
d="M960 736h-840v-210h840v210z" />
    <glyph glyph-name="less_hyphen.liga" unicode="&#x3c;&#x2d;" horiz-adv-x="2030" 
d="M618.5 762q24.5 3 49.5 15.5t52 40.5l170 170l-126 128l-484 -484l484 -484l126 128l-170 170q-27 27 -52 39.5t-49.5 15t-69.5 2.5v23h1201v210h-1201v23q45 0 69.5 3z" />
    <glyph glyph-name=".notdef" horiz-adv-x="1480" 
d="M192 1440v-1440h114v1440h-114zM565 1440h-169l783 -722l-783 -718h169l783 718zM396 1256v-1072h114v1072h-114z" />
    <glyph glyph-name=".null" horiz-adv-x="600" 
 />
    <glyph glyph-name=".null" horiz-adv-x="600" 
 />
    <glyph glyph-name="nonmarkingreturn" unicode="&#xd;" horiz-adv-x="600" 
 />
    <glyph glyph-name="space" unicode=" " horiz-adv-x="600" 
 />
    <glyph glyph-name="exclam" unicode="!" horiz-adv-x="752" 
d="M512 240h-272v-240h272v240zM512 1440h-272v-1080h272v1080z" />
    <glyph glyph-name="quotedbl" unicode="&#x22;" horiz-adv-x="984" 
d="M392 1440h-272v-360h272v360zM784 1440h-272v-360h272v360z" />
    <glyph glyph-name="numbersign" unicode="#" horiz-adv-x="1870" 
d="M730 378h216l-100 -376h264l66 249q9 41 9 72q0 61 -37 95l16 17q31 -29 63.5 -43t87.5 -14h243l68 256h-348l56 206h348l68 254h-296q-26 -4 -48.5 -16.5t-37.5 -28.5l-15 17q20 12 37 31t25 43l81 300h-264l-94 -346h-216l94 346h-264l-64 -237q-11 -44 -11 -72
q0 -46 24 -68l-17 -16q-56 47 -145 47h-227l-70 -254h348l-54 -206h-348l-68 -256h310q21 0 39.5 9t33 19t18.5 13l11 -20q-27 -13 -49.5 -32t-27.5 -38l-89 -327h264zM1070 840l-56 -206h-214l54 206h216z" />
    <glyph glyph-name="dollar" unicode="$" horiz-adv-x="1282" 
d="M781 3q-7 26 -30 42l16 16q104 -37 174 -6q124 56 192.5 155t68.5 229q0 149 -84.5 240t-275.5 143l-254 69q-96 26 -140 62t-44 86q0 45 31.5 81t85 56.5t119.5 18.5q69 -2 125.5 -28.5t94.5 -73t52 -108.5l273 4q-28 190 -102 272t-185 129q-55 23 -143 -35l-17 15
q25 29 34 63t9 99v106h-272v-107q0 -53 1.5 -77t9 -44.5t25.5 -39.5l-19 -13q-90 60 -152 33q-114 -50 -177 -143.5t-63 -220.5q0 -270 308 -362l356 -106q69 -21 101.5 -54t32.5 -84q0 -75 -74.5 -126t-187.5 -51q-120 0 -206.5 67.5t-113.5 180.5h-283
q29 -179 108.5 -279.5t201.5 -156.5q65 -30 161 7l16 -17q-20 -17 -29 -44t-9 -69v-132h272v129q0 48 -7 74z" />
    <glyph glyph-name="percent" unicode="%" horiz-adv-x="1800" 
d="M928.5 589q19.5 41 19.5 75q0 21 -9 37l16 16q18 -8 37 -8q34 0 73.5 17.5t67.5 43.5l487 488l-180 182l-507 -507q-24 -23 -44 -62t-20 -75q0 -19 7 -34l-17 -17q-12 5 -31 5q-34 0 -73 -19.5t-71 -46.5l-504 -504l180 -180l524 523q25 25 44.5 66zM1501 18.5
q82 48.5 130.5 130t48.5 181.5t-48.5 181.5t-130.5 130t-181 48.5q-96 0 -178 -49t-132 -131t-50 -180q0 -100 49 -181.5t130.5 -130t180.5 -48.5t181 48.5zM1255.5 218q-29.5 18 -47.5 47.5t-18 64.5t18 64.5t47.5 47.5t64.5 18t64.5 -18t47.5 -47.5t18 -64.5t-18 -64.5
t-47.5 -47.5t-64.5 -18t-64.5 18zM660.5 798.5q81.5 48.5 130.5 130t49 181.5t-49 181.5t-130.5 130t-180.5 48.5q-96 0 -178 -49t-132 -131t-50 -180q0 -100 48.5 -181.5t130.5 -130t181 -48.5t180.5 48.5zM415.5 998q-29.5 18 -47.5 47.5t-18 64.5t18 64.5t47.5 47.5
t64.5 18t64.5 -18t47.5 -47.5t18 -64.5t-18 -64.5t-47.5 -47.5t-64.5 -18t-64.5 18z" />
    <glyph glyph-name="ampersand" unicode="&#x26;" horiz-adv-x="1348" 
d="M693 -28q35 2 77 8q66 11 130.5 40t121.5 78l132 -126l174 186l-87 80q-69 66 -92.5 79.5t-98.5 16.5v23q77 19 95.5 58t18.5 85v274h-236v-164v-42v-40l-330 306q-28 26 -53.5 50t-42.5 42q-24 26 -42 53t-18 73q0 51 21.5 85t66.5 55q43 20 100 20q36 0 74 -8.5
t66 -37.5q30 -30 42 -72l270 54q-12 50 -37.5 99t-64.5 89q-63 69 -153 99.5t-189 30.5q-49 0 -101 -6t-103 -24q-123 -43 -197 -146t-69 -234q3 -83 39 -138q34 -52 189 -91v-23q-155 -32 -194 -78q-52 -61 -77 -139.5t-25 -164.5q3 -87 29.5 -162t84.5 -140
q72 -78 180 -114t228 -36q36 0 71 2zM516 246q-63 18 -96 60q-19 26 -32.5 57.5t-13.5 74.5q0 36 9 65t25 51q12 15 28.5 28t37.5 22l352 -324q-21 -15 -47.5 -26.5t-58.5 -17.5q-21 -4 -42 -6t-44 -2q-55 0 -118 18z" />
    <glyph glyph-name="quotesingle" unicode="'" horiz-adv-x="552" 
d="M392 1440h-272v-360h272v360z" />
    <glyph glyph-name="parenleft" unicode="(" horiz-adv-x="924" 
d="M844 -240q-122 147 -191 293.5t-97.5 297t-29.5 309.5q1 159 29.5 309.5t97.5 297t191 293.5l-202 148q-116 -136 -198.5 -308.5t-125 -362.5t-38.5 -377q-4 -187 38.5 -376.5t125 -362.5t198.5 -309z" />
    <glyph glyph-name="parenright" unicode=")" horiz-adv-x="924" 
d="M282 -388q116 136 198.5 309t125 362.5t38.5 376.5q4 187 -38.5 377t-125 362.5t-198.5 308.5l-202 -148q122 -147 191 -293.5t97.5 -297t29.5 -309.5q-1 -159 -29.5 -309.5t-97.5 -297t-191 -293.5z" />
    <glyph glyph-name="asterisk" unicode="*" horiz-adv-x="948" 
d="M432 1005h23l57 -215l50 -80l194 140l-65 74l-187 123l9 21l219 -18l96 24l-74 228l-83 -36l-171 -131l-18 14l73 172l9 119h-240l8 -101l75 -192l-18 -14l-158 127l-97 42l-74 -228l103 -26l216 18l9 -21l-187 -117l-69 -78l194 -140l48 78z" />
    <glyph glyph-name="plus" unicode="+" horiz-adv-x="1140" 
d="M676 472l-65 202l12 13l198 -71h199v210h-199l-198 -61l-12 13l65 183v209h-210v-209l68 -181l-10 -14l-187 60h-217v-210h217l187 71l12 -13l-70 -202v-202h210v202z" />
    <glyph glyph-name="comma" unicode="," horiz-adv-x="632" 
d="M120 -270q138 -22 205 52t67 218v272h-272v-272h114l53 67l19 -13q-50 -80 -56 -127.5t-36 -67t-78 -15.5z" />
    <glyph glyph-name="hyphen" unicode="-" horiz-adv-x="840" 
d="M720 736h-600v-210h600v210z" />
    <glyph glyph-name="period" unicode="." horiz-adv-x="640" 
d="M456 272h-272v-272h272v272z" />
    <glyph glyph-name="slash" unicode="/" horiz-adv-x="896" 
d="M392 0l384 1440h-272l-384 -1440h272z" />
    <glyph glyph-name="zero" unicode="0" horiz-adv-x="1348" 
d="M954 37q120 67 187 216t67 445v46q0 296 -67 444t-187 215t-280 67t-280 -67t-187 -215t-67 -444v-46q0 -296 67 -445t187 -216t280 -67t280 67zM544 262q-58 34 -92 162t-34 272v50q0 144 34 272t92 162t130 34t130 -34t92 -162t34 -272v-50q0 -144 -34 -272t-92 -162
t-130 -34t-130 34z" />
    <glyph glyph-name="one" unicode="1" horiz-adv-x="908" 
d="M668 1440h-278l-270 -162v-300l183 112q87 50 134 142l20 -12q-29 -51 -48 -103.5t-19 -110.5v-1006h278v1440z" />
    <glyph glyph-name="two" unicode="2" horiz-adv-x="1208" 
d="M1108 258h-436q-83 0 -131.5 -8t-139.5 -36l-8 23q92 30 132.5 45t108.5 74l210 184q86 75 145 134.5t89 130t30 177.5q0 145 -64 255t-175.5 171.5t-252.5 61.5q-154 0 -270 -59t-181 -167t-65 -256h280q-2 60 27 111.5t81.5 83t121.5 31.5q66 0 115 -29.5t76 -81
t27 -117.5q0 -46 -28 -99t-96 -113l-604 -536v-236h1008v256z" />
    <glyph glyph-name="three" unicode="3" horiz-adv-x="1182" 
d="M810 37.5q114 63.5 183 172t69 244.5q0 111 -44.5 209.5t-135 170.5t-293.5 41l-2 23q95 9 127.5 10t93.5 59l228 217v256h-900v-256h404q73 0 125 8.5t146 44.5l8 -22q-84 -30 -105.5 -41t-88.5 -64l-299 -248l122 -214q26 15 54 23.5t58 8.5q99 0 162.5 -66.5
t63.5 -159.5q0 -62 -30.5 -113t-82 -81t-113.5 -30q-72 0 -133.5 43.5t-82.5 122.5l-264 -70q31 -107 103.5 -186t170.5 -122.5t206 -43.5q136 0 250 63.5z" />
    <glyph glyph-name="four" unicode="4" horiz-adv-x="1230" 
d="M1002 224h128v254h-61q-30 0 -60 -17t-66 -46l-14 18q36 28 54.5 54.5t18.5 65.5v457h-276v-532h-206q-57 0 -98 -17.5t-97 -61.5l-15 18l16 12q48 35 75 60t42 55l423 896h-312l-454 -962v-254h526q41 0 84.5 19.5t65.5 45.5l16 -17q-26 -26 -46 -67t-20 -87v-118h276
v224z" />
    <glyph glyph-name="five" unicode="5" horiz-adv-x="1178" 
d="M820 34.5q116 64.5 187 174t71 245.5t-58.5 241.5t-162 166t-239.5 60.5q-60 0 -121 -17.5t-143 -108.5l-19 13q44 52 66 75t22 87l9 143q5 43 -10.5 64.5t-48.5 64.5l17 15q41 -39 61.5 -55.5t65.5 -16.5h465v254h-786l-44 -766l230 -70q24 23 72 48.5t124 25.5
q62 0 113.5 -30t82 -81t30.5 -113t-30.5 -113t-82 -81t-113.5 -30q-47 0 -91.5 20.5t-78 57.5t-46.5 88l-262 -70q30 -106 99 -186t164.5 -125t204.5 -45q136 0 252 64.5z" />
    <glyph glyph-name="six" unicode="6" horiz-adv-x="1244" 
d="M892 34.5q114 64.5 183 174t69 245.5t-58.5 242t-162 167t-239.5 61q-87 0 -162 -39.5t-184 -174.5l-18 14q52 67 75 97t23 90v47q0 66 31.5 124.5t89 95t135.5 36.5q94 0 169 -23.5t194 -110.5v257q-78 69 -162 100t-201 31q-162 0 -282 -66.5t-186 -190t-66 -293.5
v-418q0 -157 66 -276.5t179.5 -186.5t256.5 -67q136 0 250 64.5zM529 261q-51 31 -81 82t-30 111q0 62 30.5 113.5t82 82t113.5 30.5t113 -30.5t81 -82t30 -113.5t-30.5 -113t-82 -81t-113.5 -30t-113 31z" />
    <glyph glyph-name="seven" unicode="7" horiz-adv-x="1088" 
d="M988 1184v256h-908v-256h447q87 0 146.5 21.5t108.5 53.5l15 -19q-48 -32 -88.5 -77t-69.5 -122l-427 -1041h294z" />
    <glyph glyph-name="eight" unicode="8" horiz-adv-x="1246" 
d="M882 29.5q114 59.5 179 164t65 214.5q0 138 -92.5 243t-245.5 110v23q138 11 218 92t80 204q0 101 -59.5 194t-164 144.5t-240.5 51.5t-240.5 -51.5t-164 -144.5t-59.5 -194q0 -150 82.5 -223t201.5 -75v-23q-137 4 -229.5 -91t-92.5 -260q0 -110 64.5 -214.5t178 -164
t259.5 -59.5t260 59.5zM467 278q-59 52 -59 154q0 101 59 154.5t155 53.5t156 -53.5t60 -154.5q0 -102 -60 -154t-156 -52t-155 52zM495 936.5q-49 38.5 -49 119.5t49 120.5t127 39.5t127 -39.5t49 -120.5t-49 -119.5t-127 -38.5t-127 38.5z" />
    <glyph glyph-name="nine" unicode="9" horiz-adv-x="1244" 
d="M392 1403.5q-114 -64.5 -183 -174t-69 -245.5t58.5 -242t162 -167t239.5 -61q87 0 162 39.5t184 174.5l18 -14q-52 -67 -75 -97t-23 -90v-47q0 -66 -31.5 -124.5t-89 -95t-135.5 -36.5q-116 0 -171.5 16t-168.5 78v-248q55 -38 139 -69t201 -31q162 0 282 66.5t186 190
t66 293.5v418q0 157 -66 276.5t-179.5 186.5t-256.5 67q-136 0 -250 -64.5zM755 1177q51 -31 81 -82t30 -111q0 -62 -30.5 -113.5t-82 -82t-113.5 -30.5t-113 30.5t-81 82t-30 113.5t30.5 113t82 81t113.5 30t113 -31z" />
    <glyph glyph-name="colon" unicode=":" horiz-adv-x="714" 
d="M492 392h-272v-272h272v272zM494 960h-272v-272h272v272z" />
    <glyph glyph-name="semicolon" unicode=";" horiz-adv-x="712" 
d="M220 -270q138 -22 205 52t67 218v272h-272v-272h114l53 67l19 -13q-50 -80 -56 -127.5t-36 -67t-78 -15.5zM492 1080h-272v-272h272v272z" />
    <glyph glyph-name="less" unicode="&#x3c;" horiz-adv-x="1290" 
d="M620.5 580q-71.5 38 -158.5 38v23q90 0 162 36t140 107l168 162l-168 168l-484 -484l484 -484l168 168l-160 154q-80 74 -151.5 112z" />
    <glyph glyph-name="equal" unicode="=" horiz-adv-x="1500" 
d="M1260 1020h-1020v-210h1020v210zM1260 630h-1020v-210h1020v210z" />
    <glyph glyph-name="greater" unicode="&#x3e;" horiz-adv-x="1290" 
d="M526 1114l-168 -168l168 -162q68 -71 140 -107t162 -36v-23q-87 0 -158.5 -38t-151.5 -112l-160 -154l168 -168l484 484z" />
    <glyph glyph-name="question" unicode="?" horiz-adv-x="1126" 
d="M682 390q0 56 6 85t34 75q15 23 34.5 44.5t44 46t55.5 57.5q72 77 121 166t49 198q0 68 -24 135.5t-68 118.5q-66 81 -167 116.5t-215 35.5q-69 0 -138 -20t-126 -58q-78 -51 -127 -140t-61 -196h288q-1 39 12.5 71t41.5 53q23 18 55.5 26t66.5 8q45 0 84.5 -14.5
t63.5 -47.5q15 -19 20.5 -44t5.5 -52q0 -52 -13.5 -95.5t-54.5 -88.5q-53 -56 -91.5 -87t-68 -60.5t-54.5 -80.5q-31 -54 -46.5 -120t-15.5 -132h288zM682 288h-286v-288h286v288z" />
    <glyph glyph-name="at" unicode="@" horiz-adv-x="1834" 
d="M1060 -199q73 11 140 33l-68 200q-49 -16 -102.5 -25t-107.5 -9q-120 0 -217 33t-167.5 98t-109.5 161t-44 222q-4 133 30 237.5t103.5 178t171 112t231.5 38.5q74 0 164.5 -20.5t173.5 -75t136.5 -153.5t53.5 -257q0 -58 -3.5 -105.5t-23.5 -76t-71 -28.5
q-39 0 -63.5 32t-24.5 110l4 394h-162l23 -145h-23q-18 93 -83 133t-123 40q-107 0 -194 -47.5t-138.5 -134.5t-51.5 -206q0 -116 49 -203.5t134.5 -136t196.5 -48.5q59 0 124 38t89 160h23q0 -122 71 -160t149 -38q179 0 251.5 111.5t72.5 310.5q0 145 -49 274
t-146.5 228.5t-242.5 156.5t-336 57q-145 0 -278 -46.5t-237.5 -142.5t-164.5 -244t-60 -351q0 -155 54 -286t154 -227.5t238 -149.5t306 -53q75 0 148 11zM784 411.5q-44 47.5 -44 128.5q0 80 43.5 128t134.5 48q75 0 112.5 -45t37.5 -131q0 -102 -46.5 -139t-111.5 -37
q-82 0 -126 47.5z" />
    <glyph glyph-name="A" unicode="A" horiz-adv-x="1366" 
d="M411 300h542l93 -300h280l-440 1440h-406l-440 -1440h280zM484 579.5q29 43.5 49 118.5l116 382q11 34 15.5 85.5t3.5 104.5h24l-1 -34q0 -103 21 -156l119 -382q27 -72 55 -112t74 -87l-16 -17q-40 40 -75.5 56t-93.5 16h-187q-37 0 -63 -8t-48.5 -23.5t-58.5 -47.5
l-15 17q52 44 81 87.5z" />
    <glyph glyph-name="B" unicode="B" horiz-adv-x="1274" 
d="M778 0q147 0 244 55.5t144.5 153.5t47.5 227q0 120 -67.5 217t-202.5 125v-50q95 27 149.5 107t54.5 201q0 95 -44 188t-139 154.5t-249 61.5h-576v-1440h638zM401.5 277q14.5 31 14.5 57v223q0 26 -10 50.5t-27 35.5l15 18q13 -13 41.5 -25t48.5 -12h266
q63 0 105.5 -23.5t63.5 -63.5t21 -91q0 -58 -24.5 -100.5t-67.5 -66t-98 -23.5h-266q-21 0 -53 -11t-44 -27l-17 16q17 12 31.5 43zM402.5 902.5q13.5 24.5 13.5 48.5v183q0 21 -11.5 44t-27.5 42l17 16q12 -18 41 -34t49 -16h228q78 0 119 -45t41 -111q0 -53 -21 -86.5
t-57 -50t-82 -15.5l-228 4q-23 0 -53.5 -10.5t-44.5 -22.5l-15 18q18 11 31.5 35.5z" />
    <glyph glyph-name="C" unicode="C" horiz-adv-x="1492" 
d="M1174.5 93q168.5 123 237.5 371h-274q-45 -116 -137.5 -177t-242.5 -61q-137 0 -228.5 61t-137.5 172t-46 261t46 261t137.5 172t228.5 61q150 0 242.5 -60.5t137.5 -177.5h274q-69 261 -237.5 377.5t-416.5 116.5q-216 0 -372.5 -94t-241 -263t-84.5 -393t84.5 -393
t241 -263t372.5 -94q248 0 416.5 123z" />
    <glyph glyph-name="D" unicode="D" horiz-adv-x="1420" 
d="M606 0q17 0 70 1t102 7q174 21 295 121t184 254t63 337t-63 337t-184 254t-295 121q-49 6 -102 7t-70 1h-466v-1440h466zM402 264q14 26 14 68v771q0 35 -16.5 61.5t-52.5 57.5l16 19q39 -31 66.5 -44t64.5 -13h112q27 0 73 -1t83 -9q91 -18 151 -85t89.5 -164t29.5 -205
q0 -103 -28.5 -200t-88 -166t-153.5 -88q-37 -7 -83 -8.5t-73 -1.5h-112q-37 0 -61.5 -15t-67.5 -55l-15 18q38 34 52 60z" />
    <glyph glyph-name="E" unicode="E" horiz-adv-x="1180" 
d="M1080 254h-593q-58 0 -105 -47l-14 17q19 15 31.5 38.5t12.5 48.5v230q0 33 -10.5 55t-34.5 41l16 19q21 -18 44.5 -25t59.5 -7h473v254h-483q-23 0 -49 -11.5t-47 -29.5l-14 18q22 19 33.5 40.5t11.5 52.5v166q0 24 -16 51.5t-37 43.5l13 19q21 -18 50 -30t55 -12h603
v254h-940v-1440h940v254z" />
    <glyph glyph-name="F" unicode="F" horiz-adv-x="1060" 
d="M402.5 573q-9.5 25 -29.5 45l16 16q24 -25 41.5 -37t39.5 -13h430v272h-425q-26 1 -49 -8.5t-39 -25.5l-16 19q21 15 31 32.5t10 45.5v184q0 38 -8.5 58.5t-29.5 38.5l17 16q20 -24 38.5 -36t46.5 -12h544v272h-880v-1440h272v512q0 36 -9.5 61z" />
    <glyph glyph-name="G" unicode="G" horiz-adv-x="1482" 
d="M1057 60.5q109 90.5 148 209.5t79 379q1 5 0.5 36t-0.5 77h-384v-210h228q-22 -114 -74 -187t-127.5 -107t-168.5 -32q-137 2 -228 63t-136.5 171t-45.5 260t45.5 262t136.5 173t228 59q138 -1 237.5 -76.5t116.5 -201.5h286q-11 243 -195.5 388.5t-462.5 145.5
q-188 0 -342.5 -88t-246 -255.5t-91.5 -406.5q0 -183 54.5 -323t149 -235t217.5 -143.5t259 -48.5q208 0 317 90.5zM1212 333l42 -16q-22 -58 -42 -132t-20 -131l4 -54h222v762h-223l-12 -509z" />
    <glyph glyph-name="H" unicode="H" horiz-adv-x="1468" 
d="M400 569q-10 28 -33 45l13 19q28 -22 55 -30.5t68 -8.5h455q43 0 68 9.5t52 34.5l15 -17q-22 -23 -29.5 -51.5t-7.5 -76.5v-493h272v1440h-272v-504q2 -39 10 -62.5t27 -53.5l-15 -17q-32 26 -55 36t-65 9h-446q-46 0 -77 -11.5t-54 -33.5l-17 15q26 25 37 47.5t11 58.5
v516h-272v-1440h272v493q-2 48 -12 76z" />
    <glyph glyph-name="I" unicode="I" 
d="M432 1440h-272v-1440h272v1440z" />
    <glyph glyph-name="J" unicode="J" horiz-adv-x="1026" 
d="M659 18q98 48 159 154q28 48 37.5 92.5t10 95.5t0.5 120v960h-276v-960q0 -55 -2 -97t-14 -71q-19 -46 -62.5 -67t-81.5 -21q-55 0 -104 40.5t-58 95.5h-268q10 -179 140 -284.5t302 -105.5q119 0 217 48z" />
    <glyph glyph-name="K" unicode="K" horiz-adv-x="1330" 
d="M401.5 533q-10.5 24 -26 42t-21.5 25l16 17l540 -617h344l-640 730l602 710h-332l-514 -623l-18 14q28 35 40.5 59.5t16 49t3.5 67.5v433h-272v-1440h272v458q0 51 -10.5 75z" />
    <glyph glyph-name="L" unicode="L" horiz-adv-x="1082" 
d="M1052 254h-494q-68 0 -107.5 -19.5t-74.5 -56.5l-15 17q36 32 53.5 69.5t17.5 107.5v1068h-272v-1440h892v254z" />
    <glyph glyph-name="M" unicode="M" horiz-adv-x="1720" 
d="M385.5 828.5q-8.5 47.5 -29.5 128.5l22 6q22 -82 39 -135t37 -91l358 -737h96l377 776q15 34 21 60.5t16 78.5l8 46l23 -4q-10 -50 -11 -54q-8 -39 -12 -66.5t-4 -66.5v-770h254v1440h-244l-448 -900q-9 -19 -11.5 -49.5t-3 -61.5t-0.5 -41h-23l-1 31q-1 48 -4 75.5
t-12 45.5l-449 900h-244v-1440h254v740q0 41 -8.5 88.5z" />
    <glyph glyph-name="N" unicode="N" horiz-adv-x="1458" 
d="M397.5 944q-18.5 118 -51.5 225l22 7q41 -128 91 -242t120 -224l463 -710h276v1440h-276v-777q0 -64 20 -156.5t58 -224.5l-22 -7q-54 148 -89.5 227t-100.5 184l-492 754h-276v-1440h276v710q0 116 -18.5 234z" />
    <glyph glyph-name="O" unicode="O" horiz-adv-x="1516" 
d="M1130.5 64q156.5 94 241 263t84.5 393t-84.5 393t-241 263t-372.5 94t-372.5 -94t-241 -263t-84.5 -393t84.5 -393t241 -263t372.5 -94t372.5 94zM530 289q-91 61 -136.5 171t-45.5 260t45.5 262t136.5 173t228 59t228 -63t136.5 -171t45.5 -260t-45.5 -262t-136.5 -173
t-228 -59t-228 63z" />
    <glyph glyph-name="P" unicode="P" horiz-adv-x="1300" 
d="M405 463.5q-7 12.5 -43 39.5l13 19q39 -27 54 -30.5t71 -3.5h248q20 0 56 2t64 6q128 20 210.5 85t122 163.5t39.5 219.5t-39 219.5t-121.5 163.5t-211.5 85q-28 5 -63.5 6.5t-56.5 1.5h-608v-1440h272v393q0 58 -7 70.5zM398.5 757q13.5 24 13.5 66v274q0 77 -52 139
l19 13q31 -35 56 -49t67 -14h234q21 0 46 -2t46 -8q55 -15 85 -50.5t41.5 -79t11.5 -82.5t-11.5 -82.5t-41.5 -79t-85 -50.5q-21 -6 -46 -8t-46 -2h-234q-46 0 -75 -12.5t-57 -40.5l-16 16q31 28 44.5 52z" />
    <glyph glyph-name="Q" unicode="Q" horiz-adv-x="1516" 
d="M1320.5 237.5q-19.5 9.5 -70.5 13.5v23q101 10 152 112q55 110 54 334q0 224 -84.5 393t-241 263t-372.5 94t-372.5 -94t-241 -263t-84.5 -393t84.5 -393t241 -263t372.5 -94q217 0 373 94q13 8 25 16l110 -110l166 168l-56 56q-36 34 -55.5 43.5zM530 289
q-91 61 -136.5 171t-45.5 260t45.5 262t136.5 173t228 59t228 -63t136.5 -171t45.5 -260q0 -124 -19 -209q-4 -19 -30 -60l-105 105l-168 -168l51 -51q36 -33 56.5 -47.5t97.5 -15.5v-23q-63 -10 -119 -16q-98 -10 -174 -9q-137 2 -228 63z" />
    <glyph glyph-name="R" unicode="R" horiz-adv-x="1340" 
d="M401.5 466q-10.5 15 -47.5 47l15 17q41 -28 51.5 -33.5t81.5 -5.5h451l-5 143q179 11 235.5 118t56.5 251q0 121 -42 212.5t-121.5 144t-208.5 72.5q-28 5 -63.5 6.5t-56.5 1.5h-608v-1440h272v402q0 49 -10.5 64zM656 491h175t115 -67q17 -31 19.5 -81t2.5 -113v-230
h270v229v150.5t-42 144.5q-52 56 -120 70.5t-188 14.5h-232v-118zM398.5 757q13.5 24 13.5 66v274q0 77 -52 139l19 13q31 -35 56 -49t67 -14h234q21 0 46 -2t46 -8q55 -15 85 -50.5t41.5 -79t11.5 -82.5t-11.5 -82.5t-41.5 -79t-85 -50.5q-21 -6 -46 -8t-46 -2h-234
q-46 0 -75 -12.5t-57 -40.5l-16 16q31 28 44.5 52z" />
    <glyph glyph-name="S" unicode="S" horiz-adv-x="1342" 
d="M897.5 -2q103.5 28 185.5 84.5t130.5 143t48.5 202.5q0 109 -40.5 180t-103 114.5t-130.5 68t-124 39.5l-250 68q-46 12 -90 30t-73 47.5t-29 76.5q0 51 35.5 88t92 56.5t120.5 17.5q65 -2 130.5 -21t107.5 -66t48 -131h292q-10 187 -97 283t-207.5 141.5t-269.5 47.5
q-148 1 -270 -46t-195 -143t-73 -241q0 -103 34.5 -170.5t86.5 -108.5t107.5 -63t97.5 -34l374 -110q42 -13 69.5 -29t42.5 -34t21.5 -38.5t6.5 -42.5q0 -60 -40.5 -101t-103.5 -62t-130 -21q-120 0 -220.5 71t-117.5 187h-293q10 -176 103 -287.5t221.5 -168t288.5 -56.5
q110 0 213.5 28z" />
    <glyph glyph-name="T" unicode="T" horiz-adv-x="1220" 
d="M733.5 1170.5q-12.5 24.5 -38.5 50.5l15 17q55 -52 114 -52h376v254h-1180v-254h376q33 0 56 11.5t58 39.5l17 -16q-28 -30 -41.5 -53.5t-11.5 -52.5v-1115h272v1115q0 31 -12.5 55.5z" />
    <glyph glyph-name="U" unicode="U" horiz-adv-x="1452" 
d="M1032 40.5q132 70.5 206 198.5t74 301v900h-276v-898q0 -70 -23.5 -128t-65.5 -100t-98.5 -65t-122.5 -23q-64 0 -120.5 22.5t-99 64.5t-66.5 100t-24 129v898l-276 -2v-898q0 -173 74 -301t206 -198.5t306 -70.5t306 70.5z" />
    <glyph glyph-name="V" unicode="V" horiz-adv-x="1306" 
d="M1296 1440h-280l-313 -1014q-23 -73 -33 -126t-10 -136h-23q0 90 -8.5 144.5t-30.5 117.5l-308 1014h-280l440 -1440h406z" />
    <glyph glyph-name="W" unicode="W" horiz-adv-x="1978" 
d="M960.5 946q17.5 136 17.5 261h30q0 -285 65 -525l195 -682h268l422 1440h-286l-195 -717q-31 -114 -49.5 -230t-18.5 -243h-23q0 127 -15.5 241t-42.5 232l-196 717l-286 -2l-192 -703q-37 -146 -51.5 -250t-14.5 -250h-23q0 140 -14.5 239t-51.5 258l-193 708h-286
l422 -1440h268l196 682q37 128 54.5 264z" />
    <glyph glyph-name="X" unicode="X" horiz-adv-x="1344" 
d="M624 428.5q8 20.5 8 41.5q0 18 -5.5 39t-18.5 54h23l359 -563h334l-482 728l470 712h-336l-239 -378q-30 -39 -30 -81q0 -27 14 -57h-23l-330 516h-334l470 -712l-484 -728h336l242 378q18 30 26 50.5z" />
    <glyph glyph-name="Y" unicode="Y" horiz-adv-x="1260" 
d="M768 586l492 854h-318l-231 -402q-38 -63 -52 -127.5t-14 -154.5h-23q0 91 -15 155t-57 127l-232 402h-318l492 -854v-586h276v586z" />
    <glyph glyph-name="Z" unicode="Z" horiz-adv-x="1360" 
d="M1240 256h-495q-77 0 -135 -15t-125 -54l-12 20q72 43 111 80t78 105l578 956v92h-1080v-254h477q61 0 123 19.5t141 57.5l13 -19q-74 -41 -119.5 -79.5t-70.5 -84.5l-564 -988v-92h1080v256z" />
    <glyph glyph-name="bracketleft" unicode="[" horiz-adv-x="858" 
d="M738 -180h-111q-49 1 -91.5 -16t-92.5 -49l-16 17q4 5 33 36t44.5 65.5t15.5 68.5v1520q0 55 -15 85.5t-53 66.5l15 17q38 -36 75.5 -53.5t84.5 -17.5h111v240h-458v-2220h458v240z" />
    <glyph glyph-name="backslash" unicode="\" horiz-adv-x="896" 
d="M504 0h272l-384 1440h-272z" />
    <glyph glyph-name="bracketright" unicode="]" horiz-adv-x="858" 
d="M120 1800v-240h111q47 0 84.5 17.5t75.5 53.5l15 -17q-38 -36 -53 -66.5t-15 -85.5v-1520q0 -34 13.5 -63.5t29.5 -49.5t50 -57l-16 -17q-50 32 -92.5 49t-91.5 16h-111v-240h458v2220h-458z" />
    <glyph glyph-name="asciicircum" unicode="^" horiz-adv-x="1368" 
d="M666.5 1154.5q16.5 54.5 16.5 123.5h23q0 -70 16.5 -124t67.5 -106l221 -229l168 168l-485 484l-483 -485l168 -168l220 230q51 52 67.5 106.5z" />
    <glyph glyph-name="underscore" unicode="_" horiz-adv-x="1320" 
d="M1320 -44h-1320v-210h1320v210z" />
    <glyph glyph-name="grave" unicode="`" horiz-adv-x="1110" 
d="M522 1590h-202l166 -390h202z" />
    <glyph glyph-name="a" unicode="a" horiz-adv-x="1166" 
d="M671.5 18.5q91.5 48.5 196.5 181.5l20 -20q-37 -38 -58.5 -68t-21.5 -78v-34h238v660q0 74 -6 134t-38 120q-57 108 -168 152t-254 44q-195 0 -328.5 -86t-133.5 -287h274q-2 67 63 96t125 29q108 0 154 -45t46 -141l103 19q-131 3 -207.5 3t-167.5 -5.5t-202 -46.5
q-87 -32 -137 -88t-69.5 -120.5t-19.5 -139.5q0 -90 41.5 -164.5t122 -119t196.5 -44.5q140 0 231.5 48.5zM417 198q-34 14 -52.5 40.5t-18.5 63.5q0 27 10 53.5t30 48.5t58 42q37 19 85 24.5t126.5 6.5t205.5 -4l-85 55q0 -39 -3.5 -97.5t-24.5 -102.5q-11 -23 -41.5 -57
t-82 -60.5t-126.5 -26.5q-47 0 -81 14z" />
    <glyph glyph-name="b" unicode="b" horiz-adv-x="1248" 
d="M949.5 45q103.5 75 161 204t57.5 291q0 165 -58.5 293.5t-165 202.5t-249.5 74q-142 0 -239 -75t-146.5 -204t-49.5 -291t50 -291t150 -204t248 -75q138 0 241.5 75zM357.5 105q-20.5 44 -47.5 73l29 21l39 -54v595h34v242l-45 -47l-25 17q34 33 52 72t18 71v345h-274
v-1440h240v22q0 39 -20.5 83zM480.5 253q-54.5 41 -78.5 115t-24 172t24 172t76.5 115t137.5 41q91 0 149.5 -44.5t86.5 -119t28 -164.5q0 -91 -27 -165.5t-83 -118.5t-144 -44q-91 0 -145.5 41z" />
    <glyph glyph-name="c" unicode="c" horiz-adv-x="1166" 
d="M941.5 71.5q137.5 101.5 164.5 314.5h-278q-24 -78 -72 -120t-140 -42q-123 0 -185.5 87.5t-62.5 228.5q0 90 26 161.5t81 113t141 41.5q75 0 134.5 -47t83.5 -131h272q-27 217 -161 324.5t-325 107.5q-165 0 -286 -74t-187.5 -203t-66.5 -293q0 -162 64 -291t184 -204
t288 -75q188 0 325.5 101.5z" />
    <glyph glyph-name="d" unicode="d" horiz-adv-x="1250" 
d="M787 45q100 75 150 204t50 291t-49.5 291t-146.5 204t-239 75q-143 0 -249.5 -74t-165 -202.5t-58.5 -293.5q0 -162 57.5 -291t161 -204t241.5 -75q148 0 248 75zM835 1440v-345q0 -32 18 -71t52 -72l-25 -17l-45 47v-242h34v-595l39 54l29 -21q-27 -29 -47.5 -73
t-20.5 -83v-22h240v1440h-274zM477 256q-56 44 -83 118.5t-27 165.5q0 90 28 164.5t86.5 119t149.5 44.5q85 0 137.5 -41t76.5 -115t24 -172t-24 -172t-78.5 -115t-145.5 -41q-88 0 -144 44z" />
    <glyph glyph-name="e" unicode="e" horiz-adv-x="1216" 
d="M946.5 65q148.5 95 188.5 295h-285q-30 -66 -87 -101t-137 -35q-127 0 -192.5 82.5t-65.5 233.5q0 165 65.5 249.5t204.5 84.5q119 0 171.5 -72.5t52.5 -237.5v-100h269q17 196 -40 341t-176 225t-289 80q-160 0 -283 -72.5t-193 -203.5t-70 -308q0 -162 71.5 -287.5
t198 -197t292.5 -71.5q156 0 304.5 95zM1000 666h-480q-56 0 -89 -23.5t-38 -68.5h-32l9 92h-86v-202h716v202z" />
    <glyph glyph-name="f" unicode="f" horiz-adv-x="772" 
d="M502 1140q0 45 31 77.5t95 32.5h124v220h-134q-39 0 -94 -1.5t-113.5 -22t-108.5 -76.5q-39 -43 -53.5 -96t-16.5 -105t-2 -93v-241h115v-32q-54 0 -84.5 -31.5t-30.5 -84.5v-687h272v1140zM752 1080h-692v-250h692v250z" />
    <glyph glyph-name="g" unicode="g" horiz-adv-x="1147" 
d="M284 547q100 -84 286 -84q189 0 288 84t99 236q0 159 -99 252.5t-288 93.5q-186 0 -286 -93.5t-100 -243.5q0 -161 100 -245zM471.5 888.5q36.5 33.5 98.5 33.5q66 0 101 -33.5t35 -103.5q0 -56 -35 -90t-101 -34q-62 0 -98.5 34t-36.5 96q0 64 36.5 97.5zM163.5 -356.5
q141.5 -106.5 406.5 -106.5q268 0 409 106.5t141 298.5q0 201 -141 319t-409 118q-262 1 -341 -74l84 -42l-9 -29q-147 38 -209 -45q-75 -100 -74 -237q1 -202 142.5 -308.5zM366.5 113q73.5 54 203.5 54q137 0 207.5 -54t70.5 -167q0 -86 -70.5 -142.5t-207.5 -56.5
q-130 0 -203.5 56.5t-73.5 152.5q0 103 73.5 157zM570 619h-123q-125 0 -207.5 -44t-82.5 -154q0 -95 84.5 -138t205.5 -43h123v139h-102q-33 0 -58 10t-25 32t24.5 32t58.5 10h102v156zM899 1003q-18 42 0.5 73t82.5 31h124v220h-134q-142 0 -208 -81t58 -155l-24 -50
l126 -97z" />
    <glyph glyph-name="h" unicode="h" horiz-adv-x="1272" 
d="M1152 606q0 27 -4 86t-23 130.5t-63.5 137.5t-124.5 109t-207 43q-159 0 -237.5 -63.5t-119.5 -181t-41 -245.5l82 -74q0 101 22.5 162t57.5 92.5t75 42.5t75 11q87 0 134.5 -39t68.5 -97t25 -115.5t4 -94.5v-510h276v606zM414 811h-88q24 50 39 107.5t15 109.5v412h-242
v-1440h276v811z" />
    <glyph glyph-name="i" unicode="i" 
d="M432 1470h-272v-240h272v240zM432 1080h-272v-1080h272v1080z" />
    <glyph glyph-name="j" unicode="j" horiz-adv-x="602" 
d="M164 -480q137 0 217.5 77.5t80.5 206.5v1276h-272v-1216q0 -43 -19 -66.5t-71 -23.5h-120v-254h184zM462 1470h-272v-240h272v240z" />
    <glyph glyph-name="k" unicode="k" horiz-adv-x="1104" 
d="M416 354l158 163l287 -517h283l-379 714l353 366h-336l-466 -479l-17 16q49 53 74 93t33.5 76.5t9.5 84.5v569h-276l-2 -1440h278v354z" />
    <glyph glyph-name="l" unicode="l" 
d="M432 1470h-272v-1470h272v1470z" />
    <glyph glyph-name="m" unicode="m" horiz-adv-x="1832" 
d="M1712 710q0 177 -94.5 286.5t-279.5 109.5q-108 0 -192 -50.5t-106 -132.5t-22 -193l44 -79q0 65 23.5 112.5t65.5 74t99 26.5q89 0 139.5 -59.5t50.5 -166.5v-638h272v710zM412 886h-90q22 31 39 82t17 90v22h-240v-1080h274v886zM1062 779h-67v33q0 88 -32.5 150.5
t-94.5 103t-174 40.5q-111 0 -193 -49t-130 -133t-48 -190l89 -80q0 93 51.5 151.5t136.5 58.5q89 0 139.5 -59.5t50.5 -166.5v-638h272v779z" />
    <glyph glyph-name="n" unicode="n" horiz-adv-x="1272" 
d="M1152 606q0 27 -4 86t-23 130.5t-63.5 137.5t-124.5 109t-207 43q-159 0 -259.5 -69t-135 -181t-34.5 -240l113 -74q0 101 22.5 162t57.5 92.5t75 42.5t75 11q87 0 134.5 -39t68.5 -97t25 -115.5t4 -94.5v-510h276v606zM412 876h-100q24 35 45 86t21 88v30h-240v-1080
h274v876z" />
    <glyph glyph-name="o" unicode="o" horiz-adv-x="1254" 
d="M911.5 42.5q123.5 72.5 193 201t69.5 296.5q0 167 -69 295.5t-192.5 201.5t-286.5 73q-160 0 -283 -72t-193 -200.5t-70 -297.5q0 -167 68.5 -295.5t191.5 -201.5t286 -73q162 0 285.5 72.5zM433.5 309.5q-65.5 85.5 -65.5 230.5q0 94 27.5 165t84.5 111t146 40
q129 0 194.5 -86t65.5 -230q0 -139 -64.5 -227.5t-195.5 -88.5q-127 0 -192.5 85.5z" />
    <glyph glyph-name="p" unicode="p" horiz-adv-x="1248" 
d="M931 45q112 75 174.5 204t62.5 291q0 165 -63.5 293.5t-178.5 202.5t-270 74q-109 0 -195.5 -75t-136 -204t-49.5 -291t49.5 -291t139 -204t206.5 -75q149 0 261 75zM507 253q-51 41 -73.5 115t-22.5 172t22.5 172t71.5 115t128 41q85 0 140 -44.5t81 -119t26 -164.5
q0 -91 -25 -165.5t-77.5 -118.5t-134.5 -44q-85 0 -136 41zM393 49q-18 46 -46 86h64v741h-100q24 35 45 86t21 88v30h-240v-1560h274v423q0 60 -18 106z" />
    <glyph glyph-name="q" unicode="q" horiz-adv-x="1250" 
d="M783.5 45q89.5 75 139 204t49.5 291t-49.5 291t-136 204t-195.5 75q-155 0 -270 -74t-178.5 -202.5t-63.5 -293.5q0 -162 62.5 -291t174.5 -204t261 -75q117 0 206.5 75zM469.5 256q-52.5 44 -77.5 118.5t-25 165.5q0 90 26 164.5t81 119t140 44.5q79 0 128 -41
t71.5 -115t22.5 -172t-22.5 -172t-73.5 -115t-136 -41q-82 0 -134.5 44zM870 1080v-30q0 -37 21 -88t45 -86h-100v-741h64q-28 -40 -46 -86t-18 -106v-423h274v1560h-240z" />
    <glyph glyph-name="r" unicode="r" horiz-adv-x="824" 
d="M415 626q-4 117 40 164q40 43 141 42l178 1v250h-154q-58 0 -100 -15t-72.5 -58t-83.5 -194h-23q19 71 29 119.5t10 96.5v48h-240v-1080h274z" />
    <glyph glyph-name="s" unicode="s" horiz-adv-x="1094" 
d="M894 65q120 95 120 261q0 84 -34 143.5t-108.5 102t-197.5 74.5q-126 32 -187.5 52t-81 39t-19.5 47q0 47 45.5 72t120.5 20q77 -6 122 -41t52 -95h279q-15 148 -75.5 220t-158.5 111t-225 39q-131 0 -227.5 -41.5t-149.5 -118t-53 -180.5q0 -83 35 -141.5t114 -100.5
t211 -76q117 -31 172.5 -50t71.5 -38.5t16 -51.5q0 -51 -40 -79.5t-114 -28.5q-90 0 -148.5 43t-75.5 119h-283q32 -211 157.5 -303.5t329.5 -92.5q212 0 332 95z" />
    <glyph glyph-name="t" unicode="t" horiz-adv-x="888" 
d="M788 220h-175t-115 60q-18 30 -20 80.5t-2 113.5v199q0 69 -21.5 100t-92.5 31v42h114v534h-272v-922q0 -97 2 -173.5t42 -150.5q44 -79 128.5 -112t192 -33h219.5v231zM788 1080h-768v-250h768v250z" />
    <glyph glyph-name="u" unicode="u" horiz-adv-x="1272" 
d="M790.5 37q89.5 69 141.5 181t52 240l-126 74q0 -100 -22.5 -161.5t-57.5 -93t-75 -42.5t-75 -11q-87 0 -134.5 39t-68.5 97t-25 115.5t-4 94.5v510h-276v-606q0 -27 4 -86t23 -130.5t63.5 -137.5t124.5 -109t207 -43q159 0 248.5 69zM858 204h100q-24 -35 -45 -86
t-21 -88v-30h240v1080h-274v-876z" />
    <glyph glyph-name="v" unicode="v" horiz-adv-x="1136" 
d="M1096 1080h-272l-208 -607q-20 -65 -28 -126.5t-10 -144.5h-20q-1 82 -9 143.5t-28 124.5l-209 610h-272l392 -1080h272z" />
    <glyph glyph-name="w" unicode="w" horiz-adv-x="1628" 
d="M799.5 684q5.5 50 6.5 138h23q0 -86 4.5 -137t21.5 -102l195 -583h208l330 1080h-266l-158 -518q-15 -57 -20 -103.5t-5 -118.5h-23q0 70 -6 117t-23 105l-160 518h-226l-160 -518q-16 -55 -22 -104t-6 -117h-23q0 71 -5.5 119.5t-21.5 102.5l-157 517l-266 2l330 -1082
h208l195 583q21 51 26.5 101z" />
    <glyph glyph-name="x" unicode="x" horiz-adv-x="1126" 
d="M517.5 268.5q7.5 18.5 7.5 37.5q0 31 -25 81l18 14l268 -401h320l-388 546l378 534h-320l-134 -201q-22 -32 -31.5 -53t-9.5 -42q0 -24 15 -60l-19 -13l-249 369h-320l378 -534l-386 -546h320l153 227q17 23 24.5 41.5z" />
    <glyph glyph-name="y" unicode="y" horiz-adv-x="1140" 
d="M1140 1080h-272l-228 -595q-24 -62 -34 -125.5t-10 -136.5h-23q0 79 -8.5 141t-32.5 121l-230 595h-282l436 -1071l-178 -489h252z" />
    <glyph glyph-name="z" unicode="z" horiz-adv-x="1070" 
d="M970 236h-399q-51 0 -89 -13.5t-101 -47.5l-11 20q56 31 89.5 58.5t64.5 70.5l446 632v124h-870v-236h380q79 0 180 46l11 -20q-111 -43 -151 -102l-420 -643v-125h870v236z" />
    <glyph glyph-name="braceleft" unicode="{" horiz-adv-x="918" 
d="M838 -166h-122q-24 0 -41 17.5t-17 42.5v565q0 209 -99 217l-89 7v23l89 7q99 8 99 208v565q0 24 17 41t41 17h122v256h-142q-138 0 -216 -78.5t-78 -215.5v-584q0 -15 -10 -32l-90 -87q-54 -52 -54 -113t54 -113l90 -87q10 -13 10 -32v-584q0 -138 78 -216t216 -78h142
v254z" />
    <glyph glyph-name="bar" unicode="|" horiz-adv-x="632" 
d="M452 1440h-272v-1440h272v1440z" />
    <glyph glyph-name="braceright" unicode="}" horiz-adv-x="918" 
d="M390 -420q138 0 216 78t78 216v584q0 19 10 32l90 87q54 52 54 113t-54 113l-90 87q-10 17 -10 32v584q0 137 -78 215.5t-216 78.5h-142v-256h122q24 0 41 -17t17 -41v-565q0 -200 99 -208l89 -7v-23l-89 -7q-99 -8 -99 -217v-565q0 -25 -17 -42.5t-41 -17.5h-122v-254
h142z" />
    <glyph glyph-name="asciitilde" unicode="~" horiz-adv-x="1468" 
d="M1161.5 449q66.5 59 83.5 158.5t-12 222.5h-237q19 -72 2.5 -119.5t-58.5 -47.5t-91 31.5t-106 73t-120 73t-132 31.5q-118 0 -184.5 -59t-84 -158.5t12.5 -222.5h237q-20 72 -3 119.5t59 47.5q41 0 90.5 -32t106 -73t119.5 -72.5t132 -31.5q119 0 185.5 59z" />
    <glyph glyph-name="uni00A0" unicode="&#xa0;" horiz-adv-x="600" 
 />
    <glyph glyph-name="exclamdown" unicode="&#xa1;" horiz-adv-x="752" 
d="M512 840v240h-272v-240h272zM512 -360v1080h-272v-1080h272z" />
    <glyph glyph-name="cent" unicode="&#xa2;" horiz-adv-x="1166" 
d="M724 112.5q-12 37.5 -37 55.5l12 20q176 -31 272 57.5t135 232.5l-278 58q-24 -78 -72 -120t-140 -42q-123 0 -185.5 87.5t-62.5 228.5q0 90 26 161.5t81 113t141 41.5q75 0 134.5 -47t83.5 -131l272 72q-30 141 -128 232t-274 71l-13 20q25 24 34 51t9 61v105h-210v-105
q0 -31 13 -60t37 -52l-14 -18q-173 26 -272.5 -51.5t-153.5 -197t-54 -266.5t52.5 -267t152 -198t273.5 -41l16 -16q-23 -18 -36.5 -56t-13.5 -78v-92h210v92q2 41 -10 78.5z" />
    <glyph glyph-name="sterling" unicode="&#xa3;" horiz-adv-x="1142" 
d="M1063 254h-448q-66 0 -99 -19t-104 -60q-11 -6 -16.5 -9.5t-17.5 -9.5l-14 18q85 64 114.5 96t29.5 107l1 215h283v256h-198q-62 0 -80.5 -5t-59.5 -45l-15 17q43 43 56.5 64t13.5 79l1 110q0 63 38.5 104.5t101.5 41.5q66 0 104.5 -52.5t53.5 -108.5h254
q-37 153 -92 236.5t-133.5 132t-186.5 48.5q-116 0 -211 -51t-151 -139t-56 -198v-234h-152v-256h77q53 0 69.5 17.5t48.5 51.5l16 -16q-30 -35 -44.5 -54.5t-14.5 -79.5v-105q0 -60 -44 -106t-106 -46h-2v-254h983v254z" />
    <glyph glyph-name="currency" unicode="&#xa4;" horiz-adv-x="1360" 
d="M884 237q34 15 66 104l23 -1q-1 -8 -1 -12v-11q0 -47 6 -63.5t42 -53.5l100 -100l180 180l-107 107q-32 32 -50 39.5t-64 5.5v23q71 27 86 63q41 95 41 204q0 108 -41 203q-14 34 -114 64l4 23q13 -2 19 -3t19 -1q37 0 55 6.5t50 41.5l102 102l-180 182l-108 -108
q-45 -42 -48.5 -61.5t-4.5 -72.5h-22q-18 92 -53 107q-95 41 -204 41q-108 0 -203 -41q-35 -16 -71 -99l-22 7q1 7 1 10v9q0 44 -8 60.5t-35 45.5l-102 102l-180 -182l93 -93q40 -39 61.5 -40.5t82.5 -0.5l5 -21q-91 -44 -105 -78q-41 -95 -41 -203q0 -109 41 -204
q15 -35 100 -60l1 -23q-50 -5 -68 -5t-61 -41l-109 -109l180 -180l115 114q36 44 37.5 57.5t-1.5 64.5l23 2q29 -87 63 -101q95 -41 203 -41q109 0 204 41zM531 464.5q-67 40.5 -107 108t-40 147.5q0 82 40 149t107 107t149 40q80 0 147.5 -40t108 -107t40.5 -149
q0 -80 -40 -147.5t-107 -108t-149 -40.5t-149 40.5z" />
    <glyph glyph-name="yen" unicode="&#xa5;" horiz-adv-x="1260" 
d="M482 522.5q24 12.5 46 35.5l16 -16q-23 -14 -37.5 -34.5t-14.5 -44.5v-9q0 -24 12.5 -45.5t34.5 -47.5l-18 -14q-6 6 -22 20.5t-35.5 22.5t-46.5 8h-207v-210h207q58 0 96 29l14 -15q-20 -19 -27.5 -38t-7.5 -49v-115h276v114q0 33 -8.5 54.5t-28.5 38.5l18 14
q17 -18 35.5 -25.5t45.5 -7.5h220v210h-219q-32 0 -58 -14t-54 -41l-16 16q65 37 65 95v9q0 43 -56 79l15 17q18 -20 47 -34.5t57 -14.5h219v210h-130q-44 0 -76.5 -9t-70.5 -30l-11 20q47 17 72.5 35.5t52.5 56.5l373 647h-318l-243 -423q-35 -54 -47.5 -96t-12.5 -105h-23
q0 63 -11.5 105t-42.5 96l-244 423h-318l374 -648q22 -37 42.5 -58t55.5 -43l-11 -20q-38 27 -69.5 38t-72.5 11h-109v-210h207q41 0 65 12.5z" />
    <glyph glyph-name="brokenbar" unicode="&#xa6;" horiz-adv-x="632" 
d="M452 1440h-272v-840h272v840zM452 400h-272v-840h272v840z" />
    <glyph glyph-name="section" unicode="&#xa7;" horiz-adv-x="1094" 
d="M783 -228.5q98 41.5 154.5 121.5t56.5 197q0 90 -37 148t-112.5 97t-190.5 71q-91 25 -155.5 41.5t-98.5 38.5t-34 64q0 44 36.5 72.5t109.5 53.5l-155 53l-14 -40q-73 24 -120.5 12t-87 -51.5t-39.5 -139.5q0 -76 39.5 -131t119.5 -95.5t201 -71.5q99 -25 156 -42.5
t80.5 -39t23.5 -58.5q0 -38 -20 -62t-51.5 -35t-66.5 -11q-47 0 -96.5 18.5t-79 54.5t-24.5 89h-282q-11 -160 70.5 -240t178.5 -118t215 -38q125 0 223 41.5zM774 387q66 -28 118.5 -22t87 50t34.5 143q0 86 -37.5 142.5t-113 95t-189.5 70.5q-86 24 -151 40t-101 38.5
t-36 65.5q0 30 17 49.5t45.5 29t63.5 9.5q46 0 82 -15.5t54.5 -46t17.5 -76.5l270 -1q10 153 -61 226t-162.5 109t-192.5 36q-99 0 -191.5 -36t-152.5 -111t-60 -193q0 -90 39.5 -149t119.5 -98.5t201 -70.5q99 -25 156 -42.5t80.5 -39t23.5 -58.5q0 -38 -19.5 -67.5
t-50.5 -50t-64 -30.5l148 -42z" />
    <glyph glyph-name="dieresis" unicode="&#xa8;" horiz-adv-x="1144" 
d="M904 1440h-240v-240h240v240zM480 1440h-240v-240h240v240z" />
    <glyph glyph-name="copyright" unicode="&#xa9;" horiz-adv-x="1828" 
d="M1246 -73.5q155 66.5 272 183.5t183.5 272t66.5 332t-66.5 332t-183.5 272t-272 183.5t-332 66.5t-332 -66.5t-272 -183.5t-183.5 -272t-66.5 -332t66.5 -332t183.5 -272t272 -183.5t332 -66.5t332 66.5zM1066.5 304q54.5 18 99.5 52q50 38 86 93t46 141l-208 8
q-5 -25 -14.5 -46t-34.5 -42q-37 -31 -107 -32q-49 -1 -84.5 17t-59.5 51q-25 36 -35.5 79t-10.5 89q0 47 9.5 91.5t36.5 78.5q26 32 60.5 50t79.5 18q29 0 56 -9t51 -27q29 -21 42 -46t15 -52h204q-8 108 -52.5 172t-101.5 98q-51 32 -98 43t-104 11q-109 0 -183.5 -34
t-130.5 -102q-49 -60 -74.5 -133t-25.5 -159q0 -82 24 -155t76 -139q57 -70 129 -102t175 -32q80 0 134.5 18zM681 160.5q-109 46.5 -191.5 129t-129 191.5t-46.5 233q0 125 46.5 233.5t129 191t191.5 129t233 46.5q125 0 233.5 -46.5t191 -129t129 -191t46.5 -233.5
q0 -124 -46.5 -233t-129 -191.5t-191 -129t-233.5 -46.5q-124 0 -233 46.5z" />
    <glyph glyph-name="ordfeminine" unicode="&#xaa;" horiz-adv-x="643" 
d="M375.5 564q45.5 24 85.5 79l-17 23v-111h119v330q0 37 -3 67t-19 60q-28 54 -84 76t-127 22q-97 0 -154 -42t-77 -109l123 -39q13 37 45.5 51.5t62.5 14.5q54 0 77 -22.5t23 -70.5l49 27q-94 -14 -165 -25t-116 -28q-65 -24 -91.5 -65.5t-26.5 -97.5q0 -67 46.5 -115.5
t133.5 -48.5q70 0 115.5 24zM233.5 662.5q-20.5 15.5 -20.5 43.5q0 20 13 35t43 27q26 10 67 18t132 23l-40 10q0 -19 -1.5 -48.5t-12.5 -51.5q-8 -17 -38.5 -44.5t-86.5 -27.5q-35 0 -55.5 15.5z" />
    <glyph glyph-name="guillemotleft" unicode="&#xab;" horiz-adv-x="1206" 
d="M841.5 495q-47.5 35 -102.5 38v22q53 1 99.5 35t98.5 97l149 187l-142 112l-354 -446l354 -446l142 112l-149 187q-48 67 -95.5 102zM436 472.5q-32 29.5 -65.5 42t-80.5 14.5v28q49 0 82 11t64 39t74 83l146 184l-142 112l-354 -446l354 -446l142 112l-145 182
q-43 55 -75 84.5z" />
    <glyph glyph-name="logicalnot" unicode="&#xac;" horiz-adv-x="1200" 
d="M1080 806h-960v-210h629q55 0 93 14t80 51l15 -17q-40 -33 -53.5 -69t-13.5 -82v-127h210v440z" />
    <glyph glyph-name="uni00AD" unicode="&#xad;" horiz-adv-x="840" 
d="M720 736h-600v-210h600v210z" />
    <glyph glyph-name="registered" unicode="&#xae;" horiz-adv-x="1330" 
d="M868 577q95 41 167.5 113.5t113.5 167.5t41 204q0 108 -41 203t-113.5 167t-167.5 113t-204 41q-108 0 -203 -41t-167 -113t-113 -167t-41 -203q0 -109 41 -204t113 -167.5t167 -113.5t203 -41q109 0 204 41zM489.5 760q-79.5 48 -126.5 127.5t-47 174.5q0 97 47 176.5
t126.5 126.5t176.5 47q95 0 174.5 -47t127.5 -126.5t48 -176.5q0 -95 -48 -174.5t-127.5 -127.5t-174.5 -48q-97 0 -176.5 48zM597.5 979q-3.5 5 -16.5 15l5 6q14 -9 17.5 -11t26.5 -2h131v47q59 4 77.5 39t18.5 83q0 40 -13.5 71t-40.5 48t-69 24q-9 2 -21 2h-18h-201v-477
h107v133q0 17 -3.5 22zM646 987h58.5t38.5 -22q6 -11 6 -27.5v-37.5v-76h108v76q0 17 0.5 50.5t-14.5 48.5q-17 19 -39.5 23t-62.5 4h-77zM596.5 1074.5q4.5 8.5 4.5 22.5v91q0 27 -18 45l6 4q11 -11 19.5 -15.5t21.5 -4.5h43q7 0 15 -1t15 -3q18 -4 28.5 -15.5t14 -26.5
t3.5 -28q0 -12 -3.5 -27t-14 -25.5t-28.5 -16.5q-7 -2 -15 -3t-15 -1h-43q-15 0 -24 -4t-19 -14l-6 6q11 8 15.5 16.5z" />
    <glyph glyph-name="macron" unicode="&#xaf;" horiz-adv-x="1024" 
d="M784 1408h-544v-208h544v208z" />
    <glyph glyph-name="degree" unicode="&#xb0;" horiz-adv-x="900" 
d="M600.5 798.5q81.5 48.5 130.5 130t49 181.5t-49 181.5t-130.5 130t-180.5 48.5q-96 0 -178 -49t-132 -131t-50 -180q0 -100 48.5 -181.5t130.5 -130t181 -48.5t180.5 48.5zM355.5 998q-29.5 18 -47.5 47.5t-18 64.5t18 64.5t47.5 47.5t64.5 18t64.5 -18t47.5 -47.5
t18 -64.5t-18 -64.5t-47.5 -47.5t-64.5 -18t-64.5 18z" />
    <glyph glyph-name="plusminus" unicode="&#xb1;" horiz-adv-x="1200" 
d="M694 637q-12 28 -38 59l17 15q29 -22 48 -32.5t45.5 -16.5t67.5 -6h246v210h-246q-60 0 -97 -12t-64 -36l-17 16q26 25 38 52t12 64v130h-210v-130q0 -37 11.5 -64t36.5 -53l-17 -15q-53 48 -179 48h-228v-210h228q64 0 100 11.5t80 43.5l18 -15q-27 -32 -38.5 -59.5
t-11.5 -66.5v-130h210v130q0 39 -12 67zM1080 330h-960v-210h960v210z" />
    <glyph glyph-name="acute" unicode="&#xb4;" horiz-adv-x="1110" 
d="M558 1590l-166 -390h202l166 390h-202z" />
    <glyph glyph-name="uni00B5" unicode="&#xb5;" horiz-adv-x="1290" 
d="M363.5 -22.5q-14.5 16.5 -54.5 51.5l6 10q101 -54 146 -62.5t99 -8.5q117 0 204.5 39t145.5 105v-112h240v1080h-274v-548q0 -100 -22.5 -161.5t-57.5 -93t-75 -42.5t-75 -11q-87 0 -134.5 39t-68.5 97t-25 115.5t-4 94.5v510h-276v-1560h240v383q0 58 -14.5 74.5z" />
    <glyph glyph-name="paragraph" unicode="&#xb6;" horiz-adv-x="1484" 
d="M940 1440h-368q-7 0 -42.5 -1t-77.5 -7q-129 -18 -211 -84t-121.5 -165.5t-39.5 -218.5q0 -121 40.5 -220.5t123 -164.5t208.5 -83q42 -6 78 -7t42 -1h96v-623h272v1575zM1404 1440h-272v-1575h272v1575z" />
    <glyph glyph-name="periodcentered" unicode="&#xb7;" horiz-adv-x="560" 
d="M393.5 515.5q46.5 45.5 46.5 114.5t-46.5 114.5t-109.5 45.5q-69 0 -116.5 -45.5t-47.5 -114.5t47.5 -114.5t116.5 -45.5q63 0 109.5 45.5z" />
    <glyph glyph-name="cedilla" unicode="&#xb8;" horiz-adv-x="838" 
d="M376 -203q39 -18 38 -53q0 -16 -14.5 -31t-41.5 -15q-21 0 -60 12l-58 -156q30 -16 65 -27t77 -11q87 0 151.5 61.5t64.5 160.5q1 64 -31 112q-26 40 -72 68q-13 8 -13 22q0 5 1 8l29 88l-158 -2l-53 -154q-3 -11 -3 -19q0 -16 9.5 -28t26.5 -19q23 -8 42 -17z" />
    <glyph glyph-name="uni00B9" unicode="&#xb9;" horiz-adv-x="703" 
d="M414 1440h-172l-168 -101v-186l114 70q53 30 83 88l12 -8q-41 -71 -41 -132v-624h172v893z" />
    <glyph glyph-name="ordmasculine" unicode="&#xba;" horiz-adv-x="707" 
d="M551 619.5q76 79.5 76 205.5q0 125 -76 205t-198 80q-120 0 -196.5 -79t-76.5 -206q0 -125 75.5 -205t197.5 -80t198 79.5zM256.5 709.5q-32.5 42.5 -32.5 115.5q0 71 31 114.5t98 43.5q65 0 97.5 -43t32.5 -115q0 -70 -32.5 -114t-97.5 -44q-64 0 -96.5 42.5z" />
    <glyph glyph-name="guillemotright" unicode="&#xbb;" horiz-adv-x="1206" 
d="M262 986l-142 -112l266 -334l-266 -334l142 -112l354 446zM692 986l-142 -112l266 -334l-266 -334l142 -112l354 446z" />
    <glyph glyph-name="onequarter" unicode="&#xbc;" horiz-adv-x="1636" 
d="M458 1440h-172l-168 -101v-186l114 70q53 30 83 88l12 -8q-41 -71 -41 -132v-624h172v893zM599 0l483 1440h-173l-483 -1440h173zM1452 139h80v157h-38q-33 0 -78 -39l-9 11q23 18 34 34t11 41v283h-171v-330h-128q-35 0 -60 -10.5t-60 -38.5l-10 12q6 4 27 20t35 30
t21 28l262 556h-194l-281 -597v-157h326q26 0 52.5 12t40.5 28l10 -10q-16 -16 -28.5 -41.5t-12.5 -54.5v-73h171v139z" />
    <glyph glyph-name="onehalf" unicode="&#xbd;" horiz-adv-x="1800" 
d="M471 1440h-172l-168 -101v-186l114 70q53 30 83 88l12 -8q-41 -71 -41 -132v-624h172v893zM644 0l483 1440h-173l-483 -1440h173zM1658 159h-270q-52 0 -82 -5t-86 -22l-5 14q57 19 82 28t67 46l130 114q54 46 90.5 83t55 81t18.5 110q0 90 -39.5 158t-109 106t-156.5 38
q-96 0 -167.5 -36.5t-112 -103.5t-40.5 -158h174q-2 37 16 69t50.5 51.5t75.5 19.5q41 0 71.5 -18.5t47 -50.5t16.5 -73q0 -28 -17 -61t-60 -70l-374 -332v-147h625v159z" />
    <glyph glyph-name="threequarters" unicode="&#xbe;" horiz-adv-x="1864" 
d="M561.5 569.5q70.5 39.5 113 106.5t42.5 151q0 69 -27.5 130t-83.5 106t-182 26l-1 14q59 5 79 6t58 37l141 134v159h-558v-159h251q45 0 77.5 5.5t90.5 27.5l5 -14q-52 -18 -65.5 -25t-54.5 -40l-186 -154l76 -132q16 9 33.5 14.5t35.5 5.5q62 0 101 -41.5t39 -99.5
q0 -38 -18.5 -69.5t-50.5 -50t-71 -18.5q-44 0 -82.5 27t-51.5 76l-163 -44q19 -66 64 -115t105.5 -76t127.5 -27q85 0 155.5 39.5zM760 -1l483 1440h-173l-483 -1440h173zM1617 145h80v157h-38q-33 0 -78 -39l-9 11q23 18 34 34t11 41v283h-171v-330h-128q-35 0 -60 -10.5
t-60 -38.5l-10 12q6 4 27 20t35 30t21 28l262 556h-194l-281 -597v-157h326q26 0 52.5 12t40.5 28l10 -10q-16 -16 -28.5 -41.5t-12.5 -54.5v-73h171v139z" />
    <glyph glyph-name="questiondown" unicode="&#xbf;" horiz-adv-x="1126" 
d="M444 690q0 -55 -5.5 -84t-34.5 -76q-15 -23 -34.5 -44.5t-44 -46t-55.5 -57.5q-72 -76 -121 -165t-49 -199q0 -67 24.5 -135t67.5 -119q66 -81 167 -116.5t215 -35.5q69 0 138 20.5t126 57.5q78 51 127 140.5t61 195.5h-288q2 -39 -11.5 -71t-42.5 -53q-22 -18 -54.5 -26
t-67.5 -8q-45 0 -84.5 14.5t-63.5 47.5q-15 20 -20.5 44.5t-5.5 51.5q0 53 14 96t54 88q53 56 91.5 87t68 60.5t54.5 80.5q32 54 47 120t15 132h-288zM444 792h286v288h-286v-288z" />
    <glyph glyph-name="Agrave" unicode="&#xc0;" horiz-adv-x="1366" 
d="M411 300h542l93 -300h280l-440 1440h-406l-440 -1440h280zM484 579.5q29 43.5 49 118.5l116 382q11 34 15.5 85.5t3.5 104.5h24l-1 -34q0 -103 21 -156l119 -382q27 -72 55 -112t74 -87l-16 -17q-40 40 -75.5 56t-93.5 16h-187q-37 0 -63 -8t-48.5 -23.5t-58.5 -47.5
l-15 17q52 44 81 87.5zM701 1950h-202l166 -390h202z" />
    <glyph glyph-name="Aacute" unicode="&#xc1;" horiz-adv-x="1366" 
d="M411 300h542l93 -300h280l-440 1440h-406l-440 -1440h280zM484 579.5q29 43.5 49 118.5l116 382q11 34 15.5 85.5t3.5 104.5h24l-1 -34q0 -103 21 -156l119 -382q27 -72 55 -112t74 -87l-16 -17q-40 40 -75.5 56t-93.5 16h-187q-37 0 -63 -8t-48.5 -23.5t-58.5 -47.5
l-15 17q52 44 81 87.5zM635 1950l-166 -390h202l166 390h-202z" />
    <glyph glyph-name="Acircumflex" unicode="&#xc2;" horiz-adv-x="1366" 
d="M411 300h542l93 -300h280l-440 1440h-406l-440 -1440h280zM484 579.5q29 43.5 49 118.5l116 382q11 34 15.5 85.5t3.5 104.5h24l-1 -34q0 -103 21 -156l119 -382q27 -72 55 -112t74 -87l-16 -17q-40 40 -75.5 56t-93.5 16h-187q-37 0 -63 -8t-48.5 -23.5t-58.5 -47.5
l-15 17q52 44 81 87.5zM656 1719q10 25 12.5 50.5t3.5 72.5h23q0 -46 2.5 -72t13 -51.5t33.5 -51.5l89 -107h250l-288 330h-224l-288 -330h250l90 108q23 26 33 51z" />
    <glyph glyph-name="Atilde" unicode="&#xc3;" horiz-adv-x="1366" 
d="M411 300h542l93 -300h280l-440 1440h-406l-440 -1440h280zM484 579.5q29 43.5 49 118.5l116 382q11 34 15.5 85.5t3.5 104.5h24l-1 -34q0 -103 21 -156l119 -382q27 -72 55 -112t74 -87l-16 -17q-40 40 -75.5 56t-93.5 16h-187q-37 0 -63 -8t-48.5 -23.5t-58.5 -47.5
l-15 17q52 44 81 87.5zM1025 1651q44 91 12 221h-168q14 -51 2 -84.5t-42 -33.5q-29 0 -64 22.5t-75.5 51.5t-85 51.5t-93.5 22.5q-126 0 -169.5 -90.5t-12.5 -221.5h168q-13 51 -1.5 84.5t41.5 33.5q29 0 64 -22.5t75.5 -51.5t85 -51.5t93.5 -22.5q126 0 170 91z" />
    <glyph glyph-name="Adieresis" unicode="&#xc4;" horiz-adv-x="1366" 
d="M411 300h542l93 -300h280l-440 1440h-406l-440 -1440h280zM484 579.5q29 43.5 49 118.5l116 382q11 34 15.5 85.5t3.5 104.5h24l-1 -34q0 -103 21 -156l119 -382q27 -72 55 -112t74 -87l-16 -17q-40 40 -75.5 56t-93.5 16h-187q-37 0 -63 -8t-48.5 -23.5t-58.5 -47.5
l-15 17q52 44 81 87.5zM1015 1800h-240v-240h240v240zM591 1800h-240v-240h240v240z" />
    <glyph glyph-name="Aring" unicode="&#xc5;" horiz-adv-x="1366" 
d="M411 300h542l93 -300h280l-440 1440h-406l-440 -1440h280zM484 579.5q29 43.5 49 118.5l116 382q11 34 15.5 85.5t3.5 104.5h24l-1 -34q0 -103 21 -156l119 -382q27 -72 55 -112t74 -87l-16 -17q-40 40 -75.5 56t-93.5 16h-187q-37 0 -63 -8t-48.5 -23.5t-58.5 -47.5
l-15 17q52 44 81 87.5zM819 1596.5q61 36.5 97.5 98t36.5 135.5q0 75 -36.5 136t-97.5 97.5t-136 36.5q-74 0 -135.5 -36.5t-98 -97.5t-36.5 -136q0 -74 36.5 -135.5t98 -98t135.5 -36.5q75 0 136 36.5zM605.5 1752.5q-32.5 32.5 -32.5 77.5q0 46 32.5 78t77.5 32
q46 0 78 -32t32 -78q0 -45 -32 -77.5t-78 -32.5q-45 0 -77.5 32.5z" />
    <glyph glyph-name="AE" unicode="&#xc6;" horiz-adv-x="1890" 
d="M411 300h439v-300h940v254h-581q-37 2 -69.5 -5t-52.5 -25l-15 21q23 16 36.5 42t13.5 55v187q0 36 -11.5 68.5t-32.5 53.5l15 15q23 -17 55 -30t61 -12h461v254h-461q-7 1 -20 1q-28 0 -56 -6.5t-47 -18.5l-15 19q27 24 38 42t13 51v165q0 18 -8 37t-20 34l14 18
q44 -34 101 -34h581v254h-1310l-440 -1440h280zM482 604q37 49 56 113l110 363q5 20 5 41q0 24 -5.5 45.5t-14.5 30.5l18 15q25 -26 86 -26h74q33 0 59 28l16 -17q-15 -11 -25.5 -30.5t-10.5 -38.5v-477q0 -36 19.5 -69t51.5 -51l-15 -18q-36 22 -64.5 31.5t-64.5 9.5h-202
q-44 0 -82 -14t-82 -44l-15 17q49 42 86 91z" />
    <glyph glyph-name="Ccedilla" unicode="&#xc7;" horiz-adv-x="1492" 
d="M1174.5 93q168.5 123 237.5 371h-274q-45 -116 -137.5 -177t-242.5 -61q-137 0 -228.5 61t-137.5 172t-46 261t46 261t137.5 172t228.5 61q150 0 242.5 -60.5t137.5 -177.5h274q-69 261 -237.5 377.5t-416.5 116.5q-216 0 -372.5 -94t-241 -263t-84.5 -393t84.5 -393
t241 -263t372.5 -94q248 0 416.5 123zM703 -203q39 -18 38 -53q0 -16 -14.5 -31t-41.5 -15q-21 0 -60 12l-58 -156q30 -16 65 -27t77 -11q87 0 151.5 61.5t64.5 160.5q1 64 -31 112q-26 40 -72 68q-13 8 -13 22q0 5 1 8l29 88l-158 -2l-53 -154q-3 -11 -3 -19q0 -16 9.5 -28
t26.5 -19q23 -8 42 -17z" />
    <glyph glyph-name="Egrave" unicode="&#xc8;" horiz-adv-x="1180" 
d="M1080 254h-593q-58 0 -105 -47l-14 17q19 15 31.5 38.5t12.5 48.5v230q0 33 -10.5 55t-34.5 41l16 19q21 -18 44.5 -25t59.5 -7h473v254h-483q-23 0 -49 -11.5t-47 -29.5l-14 18q22 19 33.5 40.5t11.5 52.5v166q0 24 -16 51.5t-37 43.5l13 19q21 -18 50 -30t55 -12h603
v254h-940v-1440h940v254zM608 1950h-202l166 -390h202z" />
    <glyph glyph-name="Eacute" unicode="&#xc9;" horiz-adv-x="1180" 
d="M1080 254h-593q-58 0 -105 -47l-14 17q19 15 31.5 38.5t12.5 48.5v230q0 33 -10.5 55t-34.5 41l16 19q21 -18 44.5 -25t59.5 -7h473v254h-483q-23 0 -49 -11.5t-47 -29.5l-14 18q22 19 33.5 40.5t11.5 52.5v166q0 24 -16 51.5t-37 43.5l13 19q21 -18 50 -30t55 -12h603
v254h-940v-1440h940v254zM572 1950l-166 -390h202l166 390h-202z" />
    <glyph glyph-name="Ecircumflex" unicode="&#xca;" horiz-adv-x="1180" 
d="M1080 254h-593q-58 0 -105 -47l-14 17q19 15 31.5 38.5t12.5 48.5v230q0 33 -10.5 55t-34.5 41l16 19q21 -18 44.5 -25t59.5 -7h473v254h-483q-23 0 -49 -11.5t-47 -29.5l-14 18q22 19 33.5 40.5t11.5 52.5v166q0 24 -16 51.5t-37 43.5l13 19q21 -18 50 -30t55 -12h603
v254h-940v-1440h940v254zM563 1719q10 25 12.5 50.5t3.5 72.5h23q0 -46 2.5 -72t13 -51.5t33.5 -51.5l89 -107h250l-288 330h-224l-288 -330h250l90 108q23 26 33 51z" />
    <glyph glyph-name="Edieresis" unicode="&#xcb;" horiz-adv-x="1180" 
d="M1080 254h-593q-58 0 -105 -47l-14 17q19 15 31.5 38.5t12.5 48.5v230q0 33 -10.5 55t-34.5 41l16 19q21 -18 44.5 -25t59.5 -7h473v254h-483q-23 0 -49 -11.5t-47 -29.5l-14 18q22 19 33.5 40.5t11.5 52.5v166q0 24 -16 51.5t-37 43.5l13 19q21 -18 50 -30t55 -12h603
v254h-940v-1440h940v254zM922 1800h-240v-240h240v240zM498 1800h-240v-240h240v240z" />
    <glyph glyph-name="Igrave" unicode="&#xcc;" 
d="M432 1440h-272v-1440h272v1440zM314 1950h-202l166 -390h202z" />
    <glyph glyph-name="Iacute" unicode="&#xcd;" 
d="M432 1440h-272v-1440h272v1440zM278 1950l-166 -390h202l166 390h-202z" />
    <glyph glyph-name="Icircumflex" unicode="&#xce;" 
d="M432 1440h-272v-1440h272v1440zM269 1719q10 25 12.5 50.5t3.5 72.5h23q0 -46 2.5 -72t13 -51.5t33.5 -51.5l89 -107h250l-288 330h-224l-288 -330h250l90 108q23 26 33 51z" />
    <glyph glyph-name="Idieresis" unicode="&#xcf;" 
d="M432 1440h-272v-1440h272v1440zM628 1800h-240v-240h240v240zM204 1800h-240v-240h240v240z" />
    <glyph glyph-name="Eth" unicode="&#xd0;" horiz-adv-x="1420" 
d="M606 0q17 0 70 1t102 7q174 21 295 121t184 254t63 337t-63 337t-184 254t-295 121q-49 6 -102 7t-70 1h-466v-1440h466zM402 264q14 26 14 68v771q0 35 -16.5 61.5t-52.5 57.5l16 19q39 -31 66.5 -44t64.5 -13h112q27 0 73 -1t83 -9q91 -18 151 -85t89.5 -164t29.5 -205
q0 -103 -28.5 -200t-88 -166t-153.5 -88q-37 -7 -83 -8.5t-73 -1.5h-112q-37 0 -61.5 -15t-67.5 -55l-15 18q38 34 52 60zM640 826h-600v-210h600v210z" />
    <glyph glyph-name="Ntilde" unicode="&#xd1;" horiz-adv-x="1458" 
d="M397.5 944q-18.5 118 -51.5 225l22 7q41 -128 91 -242t120 -224l463 -710h276v1440h-276v-777q0 -64 20 -156.5t58 -224.5l-22 -7q-54 148 -89.5 227t-100.5 184l-492 754h-276v-1440h276v710q0 116 -18.5 234zM1071 1651q44 91 12 221h-168q14 -51 2 -84.5t-42 -33.5
q-29 0 -64 22.5t-75.5 51.5t-85 51.5t-93.5 22.5q-126 0 -169.5 -90.5t-12.5 -221.5h168q-13 51 -1.5 84.5t41.5 33.5q29 0 64 -22.5t75.5 -51.5t85 -51.5t93.5 -22.5q126 0 170 91z" />
    <glyph glyph-name="Ograve" unicode="&#xd2;" horiz-adv-x="1516" 
d="M1130.5 64q156.5 94 241 263t84.5 393t-84.5 393t-241 263t-372.5 94t-372.5 -94t-241 -263t-84.5 -393t84.5 -393t241 -263t372.5 -94t372.5 94zM530 289q-91 61 -136.5 171t-45.5 260t45.5 262t136.5 173t228 59t228 -63t136.5 -171t45.5 -260t-45.5 -262t-136.5 -173
t-228 -59t-228 63zM776 1950h-202l166 -390h202z" />
    <glyph glyph-name="Oacute" unicode="&#xd3;" horiz-adv-x="1516" 
d="M1130.5 64q156.5 94 241 263t84.5 393t-84.5 393t-241 263t-372.5 94t-372.5 -94t-241 -263t-84.5 -393t84.5 -393t241 -263t372.5 -94t372.5 94zM530 289q-91 61 -136.5 171t-45.5 260t45.5 262t136.5 173t228 59t228 -63t136.5 -171t45.5 -260t-45.5 -262t-136.5 -173
t-228 -59t-228 63zM740 1950l-166 -390h202l166 390h-202z" />
    <glyph glyph-name="Ocircumflex" unicode="&#xd4;" horiz-adv-x="1516" 
d="M1130.5 64q156.5 94 241 263t84.5 393t-84.5 393t-241 263t-372.5 94t-372.5 -94t-241 -263t-84.5 -393t84.5 -393t241 -263t372.5 -94t372.5 94zM530 289q-91 61 -136.5 171t-45.5 260t45.5 262t136.5 173t228 59t228 -63t136.5 -171t45.5 -260t-45.5 -262t-136.5 -173
t-228 -59t-228 63zM731 1719q10 25 12.5 50.5t3.5 72.5h23q0 -46 2.5 -72t13 -51.5t33.5 -51.5l89 -107h250l-288 330h-224l-288 -330h250l90 108q23 26 33 51z" />
    <glyph glyph-name="Otilde" unicode="&#xd5;" horiz-adv-x="1516" 
d="M1130.5 64q156.5 94 241 263t84.5 393t-84.5 393t-241 263t-372.5 94t-372.5 -94t-241 -263t-84.5 -393t84.5 -393t241 -263t372.5 -94t372.5 94zM530 289q-91 61 -136.5 171t-45.5 260t45.5 262t136.5 173t228 59t228 -63t136.5 -171t45.5 -260t-45.5 -262t-136.5 -173
t-228 -59t-228 63zM1100 1651q44 91 12 221h-168q14 -51 2 -84.5t-42 -33.5q-29 0 -64 22.5t-75.5 51.5t-85 51.5t-93.5 22.5q-126 0 -169.5 -90.5t-12.5 -221.5h168q-13 51 -1.5 84.5t41.5 33.5q29 0 64 -22.5t75.5 -51.5t85 -51.5t93.5 -22.5q126 0 170 91z" />
    <glyph glyph-name="Odieresis" unicode="&#xd6;" horiz-adv-x="1516" 
d="M1130.5 64q156.5 94 241 263t84.5 393t-84.5 393t-241 263t-372.5 94t-372.5 -94t-241 -263t-84.5 -393t84.5 -393t241 -263t372.5 -94t372.5 94zM530 289q-91 61 -136.5 171t-45.5 260t45.5 262t136.5 173t228 59t228 -63t136.5 -171t45.5 -260t-45.5 -262t-136.5 -173
t-228 -59t-228 63zM1090 1800h-240v-240h240v240zM666 1800h-240v-240h240v240z" />
    <glyph glyph-name="multiply" unicode="&#xd7;" horiz-adv-x="1026" 
d="M661 722l244 243l-149 148l-243 -243l-243 243l-149 -148l243 -243l-244 -245l148 -149l245 245l245 -245l148 149z" />
    <glyph glyph-name="Oslash" unicode="&#xd8;" horiz-adv-x="1516" 
d="M1130.5 64q156.5 94 241 263t84.5 393t-84.5 393t-241 263t-372.5 94t-372.5 -94t-241 -263t-84.5 -393t84.5 -393t241 -263t372.5 -94t372.5 94zM530 289q-91 61 -136.5 171t-45.5 260t45.5 262t136.5 173t228 59t228 -63t136.5 -171t45.5 -260t-45.5 -262t-136.5 -173
t-228 -59t-228 63zM688 -212l480 1864h-340l-480 -1864h340z" />
    <glyph glyph-name="Ugrave" unicode="&#xd9;" horiz-adv-x="1452" 
d="M1032 40.5q132 70.5 206 198.5t74 301v900h-276v-898q0 -70 -23.5 -128t-65.5 -100t-98.5 -65t-122.5 -23q-64 0 -120.5 22.5t-99 64.5t-66.5 100t-24 129v898l-276 -2v-898q0 -173 74 -301t206 -198.5t306 -70.5t306 70.5zM744 1950h-202l166 -390h202z" />
    <glyph glyph-name="Uacute" unicode="&#xda;" horiz-adv-x="1452" 
d="M1032 40.5q132 70.5 206 198.5t74 301v900h-276v-898q0 -70 -23.5 -128t-65.5 -100t-98.5 -65t-122.5 -23q-64 0 -120.5 22.5t-99 64.5t-66.5 100t-24 129v898l-276 -2v-898q0 -173 74 -301t206 -198.5t306 -70.5t306 70.5zM708 1950l-166 -390h202l166 390h-202z" />
    <glyph glyph-name="Ucircumflex" unicode="&#xdb;" horiz-adv-x="1452" 
d="M1032 40.5q132 70.5 206 198.5t74 301v900h-276v-898q0 -70 -23.5 -128t-65.5 -100t-98.5 -65t-122.5 -23q-64 0 -120.5 22.5t-99 64.5t-66.5 100t-24 129v898l-276 -2v-898q0 -173 74 -301t206 -198.5t306 -70.5t306 70.5zM699 1719q10 25 12.5 50.5t3.5 72.5h23
q0 -46 2.5 -72t13 -51.5t33.5 -51.5l89 -107h250l-288 330h-224l-288 -330h250l90 108q23 26 33 51z" />
    <glyph glyph-name="Udieresis" unicode="&#xdc;" horiz-adv-x="1452" 
d="M1032 40.5q132 70.5 206 198.5t74 301v900h-276v-898q0 -70 -23.5 -128t-65.5 -100t-98.5 -65t-122.5 -23q-64 0 -120.5 22.5t-99 64.5t-66.5 100t-24 129v898l-276 -2v-898q0 -173 74 -301t206 -198.5t306 -70.5t306 70.5zM1058 1800h-240v-240h240v240zM634 1800h-240
v-240h240v240z" />
    <glyph glyph-name="Yacute" unicode="&#xdd;" horiz-adv-x="1260" 
d="M768 586l492 854h-318l-231 -402q-38 -63 -52 -127.5t-14 -154.5h-23q0 91 -15 155t-57 127l-232 402h-318l492 -854v-586h276v586zM612 1950l-166 -390h202l166 390h-202z" />
    <glyph glyph-name="Thorn" unicode="&#xde;" horiz-adv-x="1284" 
d="M416 246h326q119 0 221 52.5t165 139.5q45 60 71.5 133.5t24.5 148.5q-1 75 -26 148.5t-70 133.5q-43 62 -105.5 106t-134.5 66t-146 22h-326v244h-276v-1440h276v246zM740 940q42 0 85 -22.5t71 -55.5q26 -28 38.5 -65.5t13.5 -76.5q2 -36 -10.5 -69.5t-33.5 -62.5
q-31 -42 -77 -65t-87 -23h-324v440h324z" />
    <glyph glyph-name="germandbls" unicode="&#xdf;" horiz-adv-x="1292" 
d="M1053 92q119 122 119 336q0 63 -14.5 120.5t-42 106t-68 85t-93.5 58.5q54 51 79 117.5t25 142.5q0 117 -62 210.5t-167 147.5t-233 54q-97 0 -186.5 -28.5t-157 -90.5t-98.5 -163q-9 -30 -12.5 -60t-3.5 -68v-1060h274v986q0 44 6.5 83t19.5 63q27 48 68.5 66t89.5 18
q72 0 130 -43t58 -121q0 -51 -21 -88t-62.5 -58.5t-102.5 -25.5v-236q134 0 218 -49t84 -163q0 -100 -62.5 -148t-167.5 -48q-46 0 -83 10t-63 20v-266q35 -15 77.5 -22.5t108.5 -7.5q224 0 343 122z" />
    <glyph glyph-name="agrave" unicode="&#xe0;" horiz-adv-x="1166" 
d="M671.5 18.5q91.5 48.5 196.5 181.5l20 -20q-37 -38 -58.5 -68t-21.5 -78v-34h238v660q0 74 -6 134t-38 120q-57 108 -168 152t-254 44q-195 0 -328.5 -86t-133.5 -287h274q-2 67 63 96t125 29q108 0 154 -45t46 -141l103 19q-131 3 -207.5 3t-167.5 -5.5t-202 -46.5
q-87 -32 -137 -88t-69.5 -120.5t-19.5 -139.5q0 -90 41.5 -164.5t122 -119t196.5 -44.5q140 0 231.5 48.5zM417 198q-34 14 -52.5 40.5t-18.5 63.5q0 27 10 53.5t30 48.5t58 42q37 19 85 24.5t126.5 6.5t205.5 -4l-85 55q0 -39 -3.5 -97.5t-24.5 -102.5q-11 -23 -41.5 -57
t-82 -60.5t-126.5 -26.5q-47 0 -81 14zM601 1590h-202l166 -390h202z" />
    <glyph glyph-name="aacute" unicode="&#xe1;" horiz-adv-x="1166" 
d="M671.5 18.5q91.5 48.5 196.5 181.5l20 -20q-37 -38 -58.5 -68t-21.5 -78v-34h238v660q0 74 -6 134t-38 120q-57 108 -168 152t-254 44q-195 0 -328.5 -86t-133.5 -287h274q-2 67 63 96t125 29q108 0 154 -45t46 -141l103 19q-131 3 -207.5 3t-167.5 -5.5t-202 -46.5
q-87 -32 -137 -88t-69.5 -120.5t-19.5 -139.5q0 -90 41.5 -164.5t122 -119t196.5 -44.5q140 0 231.5 48.5zM417 198q-34 14 -52.5 40.5t-18.5 63.5q0 27 10 53.5t30 48.5t58 42q37 19 85 24.5t126.5 6.5t205.5 -4l-85 55q0 -39 -3.5 -97.5t-24.5 -102.5q-11 -23 -41.5 -57
t-82 -60.5t-126.5 -26.5q-47 0 -81 14zM565 1590l-166 -390h202l166 390h-202z" />
    <glyph glyph-name="acircumflex" unicode="&#xe2;" horiz-adv-x="1166" 
d="M671.5 18.5q91.5 48.5 196.5 181.5l20 -20q-37 -38 -58.5 -68t-21.5 -78v-34h238v660q0 74 -6 134t-38 120q-57 108 -168 152t-254 44q-195 0 -328.5 -86t-133.5 -287h274q-2 67 63 96t125 29q108 0 154 -45t46 -141l103 19q-131 3 -207.5 3t-167.5 -5.5t-202 -46.5
q-87 -32 -137 -88t-69.5 -120.5t-19.5 -139.5q0 -90 41.5 -164.5t122 -119t196.5 -44.5q140 0 231.5 48.5zM417 198q-34 14 -52.5 40.5t-18.5 63.5q0 27 10 53.5t30 48.5t58 42q37 19 85 24.5t126.5 6.5t205.5 -4l-85 55q0 -39 -3.5 -97.5t-24.5 -102.5q-11 -23 -41.5 -57
t-82 -60.5t-126.5 -26.5q-47 0 -81 14zM556 1359q10 25 12.5 50.5t3.5 72.5h23q0 -46 2.5 -72t13 -51.5t33.5 -51.5l89 -107h250l-288 330h-224l-288 -330h250l90 108q23 26 33 51z" />
    <glyph glyph-name="atilde" unicode="&#xe3;" horiz-adv-x="1166" 
d="M671.5 18.5q91.5 48.5 196.5 181.5l20 -20q-37 -38 -58.5 -68t-21.5 -78v-34h238v660q0 74 -6 134t-38 120q-57 108 -168 152t-254 44q-195 0 -328.5 -86t-133.5 -287h274q-2 67 63 96t125 29q108 0 154 -45t46 -141l103 19q-131 3 -207.5 3t-167.5 -5.5t-202 -46.5
q-87 -32 -137 -88t-69.5 -120.5t-19.5 -139.5q0 -90 41.5 -164.5t122 -119t196.5 -44.5q140 0 231.5 48.5zM417 198q-34 14 -52.5 40.5t-18.5 63.5q0 27 10 53.5t30 48.5t58 42q37 19 85 24.5t126.5 6.5t205.5 -4l-85 55q0 -39 -3.5 -97.5t-24.5 -102.5q-11 -23 -41.5 -57
t-82 -60.5t-126.5 -26.5q-47 0 -81 14zM925 1291q44 91 12 221h-168q14 -51 2 -84.5t-42 -33.5q-29 0 -64 22.5t-75.5 51.5t-85 51.5t-93.5 22.5q-126 0 -169.5 -90.5t-12.5 -221.5h168q-13 51 -1.5 84.5t41.5 33.5q29 0 64 -22.5t75.5 -51.5t85 -51.5t93.5 -22.5
q126 0 170 91z" />
    <glyph glyph-name="adieresis" unicode="&#xe4;" horiz-adv-x="1166" 
d="M671.5 18.5q91.5 48.5 196.5 181.5l20 -20q-37 -38 -58.5 -68t-21.5 -78v-34h238v660q0 74 -6 134t-38 120q-57 108 -168 152t-254 44q-195 0 -328.5 -86t-133.5 -287h274q-2 67 63 96t125 29q108 0 154 -45t46 -141l103 19q-131 3 -207.5 3t-167.5 -5.5t-202 -46.5
q-87 -32 -137 -88t-69.5 -120.5t-19.5 -139.5q0 -90 41.5 -164.5t122 -119t196.5 -44.5q140 0 231.5 48.5zM417 198q-34 14 -52.5 40.5t-18.5 63.5q0 27 10 53.5t30 48.5t58 42q37 19 85 24.5t126.5 6.5t205.5 -4l-85 55q0 -39 -3.5 -97.5t-24.5 -102.5q-11 -23 -41.5 -57
t-82 -60.5t-126.5 -26.5q-47 0 -81 14zM915 1440h-240v-240h240v240zM491 1440h-240v-240h240v240z" />
    <glyph glyph-name="aring" unicode="&#xe5;" horiz-adv-x="1166" 
d="M671.5 18.5q91.5 48.5 196.5 181.5l20 -20q-37 -38 -58.5 -68t-21.5 -78v-34h238v660q0 74 -6 134t-38 120q-57 108 -168 152t-254 44q-195 0 -328.5 -86t-133.5 -287h274q-2 67 63 96t125 29q108 0 154 -45t46 -141l103 19q-131 3 -207.5 3t-167.5 -5.5t-202 -46.5
q-87 -32 -137 -88t-69.5 -120.5t-19.5 -139.5q0 -90 41.5 -164.5t122 -119t196.5 -44.5q140 0 231.5 48.5zM417 198q-34 14 -52.5 40.5t-18.5 63.5q0 27 10 53.5t30 48.5t58 42q37 19 85 24.5t126.5 6.5t205.5 -4l-85 55q0 -39 -3.5 -97.5t-24.5 -102.5q-11 -23 -41.5 -57
t-82 -60.5t-126.5 -26.5q-47 0 -81 14zM719 1236.5q61 36.5 97.5 98t36.5 135.5q0 75 -36.5 136t-97.5 97.5t-136 36.5q-74 0 -135.5 -36.5t-98 -97.5t-36.5 -136q0 -74 36.5 -135.5t98 -98t135.5 -36.5q75 0 136 36.5zM505.5 1392.5q-32.5 32.5 -32.5 77.5q0 46 32.5 78
t77.5 32q46 0 78 -32t32 -78q0 -45 -32 -77.5t-78 -32.5q-45 0 -77.5 32.5z" />
    <glyph glyph-name="ae" unicode="&#xe6;" horiz-adv-x="1868" 
d="M1506.5 7q89.5 37 160 107t107.5 168l-257 78q-29 -67 -84.5 -101.5t-126.5 -34.5q-121 0 -182.5 85.5t-61.5 230.5q0 96 22.5 171.5t76 119t145.5 43.5q137 0 180 -81.5t43 -228.5v-100h255q14 188 -37 334t-162.5 229t-278.5 83q-155 0 -271 -73t-180.5 -204.5
t-64.5 -306.5q0 -161 66 -286.5t185.5 -197.5t279.5 -72q96 0 185.5 37zM386 215.5q-40 33.5 -40 84.5q0 48 32 79t80 49.5t99.5 28t90.5 13.5l228 28l-98 34q2 -46 -1 -85.5t-12 -73t-25 -61.5q-28 -48 -93.5 -89t-148.5 -41q-72 0 -112 33.5zM636 -5.5q83 24.5 151 78
t121 139.5l138 432q0 29 -3 83.5t-21 112.5q-39 126 -148.5 198t-285.5 72q-120 0 -212.5 -42.5t-157 -112t-100.5 -151.5l244 -74q29 68 88.5 100t129.5 32q57 0 105.5 -21.5t74 -72t14.5 -138.5l64 52l-246 -32q-57 -7 -125.5 -19t-136.5 -35t-124.5 -61.5t-91 -98.5
t-34.5 -146q0 -138 96.5 -229t277.5 -91q99 0 182 24.5zM1659 674h-677v-210h677v210z" />
    <glyph glyph-name="ccedilla" unicode="&#xe7;" horiz-adv-x="1166" 
d="M941.5 71.5q137.5 101.5 164.5 314.5h-278q-24 -78 -72 -120t-140 -42q-123 0 -185.5 87.5t-62.5 228.5q0 90 26 161.5t81 113t141 41.5q75 0 134.5 -47t83.5 -131h272q-27 217 -161 324.5t-325 107.5q-165 0 -286 -74t-187.5 -203t-66.5 -293q0 -162 64 -291t184 -204
t288 -75q188 0 325.5 101.5zM540 -203q39 -18 38 -53q0 -16 -14.5 -31t-41.5 -15q-21 0 -60 12l-58 -156q30 -16 65 -27t77 -11q87 0 151.5 61.5t64.5 160.5q1 64 -31 112q-26 40 -72 68q-13 8 -13 22q0 5 1 8l29 88l-158 -2l-53 -154q-3 -11 -3 -19q0 -16 9.5 -28t26.5 -19
q23 -8 42 -17z" />
    <glyph glyph-name="egrave" unicode="&#xe8;" horiz-adv-x="1216" 
d="M946.5 65q148.5 95 188.5 295h-285q-30 -66 -87 -101t-137 -35q-127 0 -192.5 82.5t-65.5 233.5q0 165 65.5 249.5t204.5 84.5q119 0 171.5 -72.5t52.5 -237.5v-100h269q17 196 -40 341t-176 225t-289 80q-160 0 -283 -72.5t-193 -203.5t-70 -308q0 -162 71.5 -287.5
t198 -197t292.5 -71.5q156 0 304.5 95zM1000 666h-480q-56 0 -89 -23.5t-38 -68.5h-32l9 92h-86v-202h716v202zM626 1590h-202l166 -390h202z" />
    <glyph glyph-name="eacute" unicode="&#xe9;" horiz-adv-x="1216" 
d="M946.5 65q148.5 95 188.5 295h-285q-30 -66 -87 -101t-137 -35q-127 0 -192.5 82.5t-65.5 233.5q0 165 65.5 249.5t204.5 84.5q119 0 171.5 -72.5t52.5 -237.5v-100h269q17 196 -40 341t-176 225t-289 80q-160 0 -283 -72.5t-193 -203.5t-70 -308q0 -162 71.5 -287.5
t198 -197t292.5 -71.5q156 0 304.5 95zM1000 666h-480q-56 0 -89 -23.5t-38 -68.5h-32l9 92h-86v-202h716v202zM590 1590l-166 -390h202l166 390h-202z" />
    <glyph glyph-name="ecircumflex" unicode="&#xea;" horiz-adv-x="1216" 
d="M946.5 65q148.5 95 188.5 295h-285q-30 -66 -87 -101t-137 -35q-127 0 -192.5 82.5t-65.5 233.5q0 165 65.5 249.5t204.5 84.5q119 0 171.5 -72.5t52.5 -237.5v-100h269q17 196 -40 341t-176 225t-289 80q-160 0 -283 -72.5t-193 -203.5t-70 -308q0 -162 71.5 -287.5
t198 -197t292.5 -71.5q156 0 304.5 95zM1000 666h-480q-56 0 -89 -23.5t-38 -68.5h-32l9 92h-86v-202h716v202zM581 1359q10 25 12.5 50.5t3.5 72.5h23q0 -46 2.5 -72t13 -51.5t33.5 -51.5l89 -107h250l-288 330h-224l-288 -330h250l90 108q23 26 33 51z" />
    <glyph glyph-name="edieresis" unicode="&#xeb;" horiz-adv-x="1216" 
d="M946.5 65q148.5 95 188.5 295h-285q-30 -66 -87 -101t-137 -35q-127 0 -192.5 82.5t-65.5 233.5q0 165 65.5 249.5t204.5 84.5q119 0 171.5 -72.5t52.5 -237.5v-100h269q17 196 -40 341t-176 225t-289 80q-160 0 -283 -72.5t-193 -203.5t-70 -308q0 -162 71.5 -287.5
t198 -197t292.5 -71.5q156 0 304.5 95zM1000 666h-480q-56 0 -89 -23.5t-38 -68.5h-32l9 92h-86v-202h716v202zM940 1440h-240v-240h240v240zM516 1440h-240v-240h240v240z" />
    <glyph glyph-name="igrave" unicode="&#xec;" 
d="M432 1080h-272v-1080h272v1080zM314 1590h-202l166 -390h202z" />
    <glyph glyph-name="iacute" unicode="&#xed;" 
d="M432 1080h-272v-1080h272v1080zM278 1590l-166 -390h202l166 390h-202z" />
    <glyph glyph-name="icircumflex" unicode="&#xee;" 
d="M432 1080h-272v-1080h272v1080zM269 1359q10 25 12.5 50.5t3.5 72.5h23q0 -46 2.5 -72t13 -51.5t33.5 -51.5l89 -107h250l-288 330h-224l-288 -330h250l90 108q23 26 33 51z" />
    <glyph glyph-name="idieresis" unicode="&#xef;" 
d="M432 1080h-272v-1080h272v1080zM628 1440h-240v-240h240v240zM204 1440h-240v-240h240v240z" />
    <glyph glyph-name="eth" unicode="&#xf0;" horiz-adv-x="1202" 
d="M878 36q117 66 180.5 187.5t63.5 286.5q0 194 -20.5 339.5t-65 256t-116.5 198.5q-82 102 -202.5 157t-273.5 59l-42 -206q110 -8 296 -121t223 -233t-1 -127q-32 -6 -103.5 98.5t-214.5 104.5q-154 0 -271.5 -67.5t-184 -188t-66.5 -278.5q0 -157 66.5 -277t184 -187.5
t271.5 -67.5q159 0 276 66zM417 286.5q-65 76.5 -65 217.5t64.5 216.5t185.5 75.5q117 0 182.5 -77t65.5 -215q0 -139 -65.5 -216.5t-182.5 -77.5q-120 0 -185 76.5zM822 1566l-330 -376l148 -132l330 376z" />
    <glyph glyph-name="ntilde" unicode="&#xf1;" horiz-adv-x="1272" 
d="M1152 606q0 27 -4 86t-23 130.5t-63.5 137.5t-124.5 109t-207 43q-159 0 -259.5 -69t-135 -181t-34.5 -240l113 -74q0 101 22.5 162t57.5 92.5t75 42.5t75 11q87 0 134.5 -39t68.5 -97t25 -115.5t4 -94.5v-510h276v606zM412 876h-100q24 35 45 86t21 88v30h-240v-1080
h274v876zM978 1291q44 91 12 221h-168q14 -51 2 -84.5t-42 -33.5q-29 0 -64 22.5t-75.5 51.5t-85 51.5t-93.5 22.5q-126 0 -169.5 -90.5t-12.5 -221.5h168q-13 51 -1.5 84.5t41.5 33.5q29 0 64 -22.5t75.5 -51.5t85 -51.5t93.5 -22.5q126 0 170 91z" />
    <glyph glyph-name="ograve" unicode="&#xf2;" horiz-adv-x="1254" 
d="M911.5 42.5q123.5 72.5 193 201t69.5 296.5q0 167 -69 295.5t-192.5 201.5t-286.5 73q-160 0 -283 -72t-193 -200.5t-70 -297.5q0 -167 68.5 -295.5t191.5 -201.5t286 -73q162 0 285.5 72.5zM433.5 309.5q-65.5 85.5 -65.5 230.5q0 94 27.5 165t84.5 111t146 40
q129 0 194.5 -86t65.5 -230q0 -139 -64.5 -227.5t-195.5 -88.5q-127 0 -192.5 85.5zM645 1590h-202l166 -390h202z" />
    <glyph glyph-name="oacute" unicode="&#xf3;" horiz-adv-x="1254" 
d="M911.5 42.5q123.5 72.5 193 201t69.5 296.5q0 167 -69 295.5t-192.5 201.5t-286.5 73q-160 0 -283 -72t-193 -200.5t-70 -297.5q0 -167 68.5 -295.5t191.5 -201.5t286 -73q162 0 285.5 72.5zM433.5 309.5q-65.5 85.5 -65.5 230.5q0 94 27.5 165t84.5 111t146 40
q129 0 194.5 -86t65.5 -230q0 -139 -64.5 -227.5t-195.5 -88.5q-127 0 -192.5 85.5zM609 1590l-166 -390h202l166 390h-202z" />
    <glyph glyph-name="ocircumflex" unicode="&#xf4;" horiz-adv-x="1254" 
d="M911.5 42.5q123.5 72.5 193 201t69.5 296.5q0 167 -69 295.5t-192.5 201.5t-286.5 73q-160 0 -283 -72t-193 -200.5t-70 -297.5q0 -167 68.5 -295.5t191.5 -201.5t286 -73q162 0 285.5 72.5zM433.5 309.5q-65.5 85.5 -65.5 230.5q0 94 27.5 165t84.5 111t146 40
q129 0 194.5 -86t65.5 -230q0 -139 -64.5 -227.5t-195.5 -88.5q-127 0 -192.5 85.5zM600 1359q10 25 12.5 50.5t3.5 72.5h23q0 -46 2.5 -72t13 -51.5t33.5 -51.5l89 -107h250l-288 330h-224l-288 -330h250l90 108q23 26 33 51z" />
    <glyph glyph-name="otilde" unicode="&#xf5;" horiz-adv-x="1254" 
d="M911.5 42.5q123.5 72.5 193 201t69.5 296.5q0 167 -69 295.5t-192.5 201.5t-286.5 73q-160 0 -283 -72t-193 -200.5t-70 -297.5q0 -167 68.5 -295.5t191.5 -201.5t286 -73q162 0 285.5 72.5zM433.5 309.5q-65.5 85.5 -65.5 230.5q0 94 27.5 165t84.5 111t146 40
q129 0 194.5 -86t65.5 -230q0 -139 -64.5 -227.5t-195.5 -88.5q-127 0 -192.5 85.5zM969 1291q44 91 12 221h-168q14 -51 2 -84.5t-42 -33.5q-29 0 -64 22.5t-75.5 51.5t-85 51.5t-93.5 22.5q-126 0 -169.5 -90.5t-12.5 -221.5h168q-13 51 -1.5 84.5t41.5 33.5
q29 0 64 -22.5t75.5 -51.5t85 -51.5t93.5 -22.5q126 0 170 91z" />
    <glyph glyph-name="odieresis" unicode="&#xf6;" horiz-adv-x="1254" 
d="M911.5 42.5q123.5 72.5 193 201t69.5 296.5q0 167 -69 295.5t-192.5 201.5t-286.5 73q-160 0 -283 -72t-193 -200.5t-70 -297.5q0 -167 68.5 -295.5t191.5 -201.5t286 -73q162 0 285.5 72.5zM433.5 309.5q-65.5 85.5 -65.5 230.5q0 94 27.5 165t84.5 111t146 40
q129 0 194.5 -86t65.5 -230q0 -139 -64.5 -227.5t-195.5 -88.5q-127 0 -192.5 85.5zM959 1440h-240v-240h240v240zM535 1440h-240v-240h240v240z" />
    <glyph glyph-name="divide" unicode="&#xf7;" horiz-adv-x="1063" 
d="M962 826h-840v-210h840v210zM678 1174h-272v-272h272v272zM678 526h-272v-272h272v272z" />
    <glyph glyph-name="oslash" unicode="&#xf8;" horiz-adv-x="1254" 
d="M911.5 42.5q123.5 72.5 193 201t69.5 296.5q0 167 -69 295.5t-192.5 201.5t-286.5 73q-160 0 -283 -72t-193 -200.5t-70 -297.5q0 -167 68.5 -295.5t191.5 -201.5t286 -73q162 0 285.5 72.5zM433.5 309.5q-65.5 85.5 -65.5 230.5q0 94 27.5 165t84.5 111t146 40
q129 0 194.5 -86t65.5 -230q0 -139 -64.5 -227.5t-195.5 -88.5q-127 0 -192.5 85.5zM571 -180l384 1440h-272l-384 -1440h272z" />
    <glyph glyph-name="ugrave" unicode="&#xf9;" horiz-adv-x="1272" 
d="M790.5 37q89.5 69 141.5 181t52 240l-126 74q0 -100 -22.5 -161.5t-57.5 -93t-75 -42.5t-75 -11q-87 0 -134.5 39t-68.5 97t-25 115.5t-4 94.5v510h-276v-606q0 -27 4 -86t23 -130.5t63.5 -137.5t124.5 -109t207 -43q159 0 248.5 69zM858 204h100q-24 -35 -45 -86
t-21 -88v-30h240v1080h-274v-876zM654 1590h-202l166 -390h202z" />
    <glyph glyph-name="uacute" unicode="&#xfa;" horiz-adv-x="1272" 
d="M790.5 37q89.5 69 141.5 181t52 240l-126 74q0 -100 -22.5 -161.5t-57.5 -93t-75 -42.5t-75 -11q-87 0 -134.5 39t-68.5 97t-25 115.5t-4 94.5v510h-276v-606q0 -27 4 -86t23 -130.5t63.5 -137.5t124.5 -109t207 -43q159 0 248.5 69zM858 204h100q-24 -35 -45 -86
t-21 -88v-30h240v1080h-274v-876zM618 1590l-166 -390h202l166 390h-202z" />
    <glyph glyph-name="ucircumflex" unicode="&#xfb;" horiz-adv-x="1272" 
d="M790.5 37q89.5 69 141.5 181t52 240l-126 74q0 -100 -22.5 -161.5t-57.5 -93t-75 -42.5t-75 -11q-87 0 -134.5 39t-68.5 97t-25 115.5t-4 94.5v510h-276v-606q0 -27 4 -86t23 -130.5t63.5 -137.5t124.5 -109t207 -43q159 0 248.5 69zM858 204h100q-24 -35 -45 -86
t-21 -88v-30h240v1080h-274v-876zM609 1359q10 25 12.5 50.5t3.5 72.5h23q0 -46 2.5 -72t13 -51.5t33.5 -51.5l89 -107h250l-288 330h-224l-288 -330h250l90 108q23 26 33 51z" />
    <glyph glyph-name="udieresis" unicode="&#xfc;" horiz-adv-x="1272" 
d="M790.5 37q89.5 69 141.5 181t52 240l-126 74q0 -100 -22.5 -161.5t-57.5 -93t-75 -42.5t-75 -11q-87 0 -134.5 39t-68.5 97t-25 115.5t-4 94.5v510h-276v-606q0 -27 4 -86t23 -130.5t63.5 -137.5t124.5 -109t207 -43q159 0 248.5 69zM858 204h100q-24 -35 -45 -86
t-21 -88v-30h240v1080h-274v-876zM968 1440h-240v-240h240v240zM544 1440h-240v-240h240v240z" />
    <glyph glyph-name="yacute" unicode="&#xfd;" horiz-adv-x="1140" 
d="M1140 1080h-272l-228 -595q-24 -62 -34 -125.5t-10 -136.5h-23q0 79 -8.5 141t-32.5 121l-230 595h-282l436 -1071l-178 -489h252zM552 1590l-166 -390h202l166 390h-202z" />
    <glyph glyph-name="thorn" unicode="&#xfe;" horiz-adv-x="1248" 
d="M931 45q112 75 174.5 204t62.5 291q0 165 -63.5 293.5t-178.5 202.5t-270 74q-154 0 -259 -75t-159 -204t-54 -291t54.5 -291t162.5 -204t269 -75q149 0 261 75zM480.5 253q-54.5 41 -78.5 115t-24 172t24 172t76.5 115t137.5 41q91 0 149.5 -44.5t86.5 -119t28 -164.5
q0 -91 -27 -165.5t-83 -118.5t-144 -44q-91 0 -145.5 41zM357.5 30q-20.5 44 -47.5 73l29 21l39 -54v731h34v242l-45 -47l-25 17q34 33 52 72t18 71v284h-274v-1734h240v241q0 39 -20.5 83z" />
    <glyph glyph-name="ydieresis" unicode="&#xff;" horiz-adv-x="1140" 
d="M1140 1080h-272l-228 -595q-24 -62 -34 -125.5t-10 -136.5h-23q0 79 -8.5 141t-32.5 121l-230 595h-282l436 -1071l-178 -489h252zM902 1440h-240v-240h240v240zM478 1440h-240v-240h240v240z" />
    <glyph glyph-name="Amacron" unicode="&#x100;" horiz-adv-x="1366" 
d="M411 300h542l93 -300h280l-440 1440h-406l-440 -1440h280zM484 579.5q29 43.5 49 118.5l116 382q11 34 15.5 85.5t3.5 104.5h24l-1 -34q0 -103 21 -156l119 -382q27 -72 55 -112t74 -87l-16 -17q-40 40 -75.5 56t-93.5 16h-187q-37 0 -63 -8t-48.5 -23.5t-58.5 -47.5
l-15 17q52 44 81 87.5zM955 1768h-544v-208h544v208z" />
    <glyph glyph-name="amacron" unicode="&#x101;" horiz-adv-x="1166" 
d="M671.5 18.5q91.5 48.5 196.5 181.5l20 -20q-37 -38 -58.5 -68t-21.5 -78v-34h238v660q0 74 -6 134t-38 120q-57 108 -168 152t-254 44q-195 0 -328.5 -86t-133.5 -287h274q-2 67 63 96t125 29q108 0 154 -45t46 -141l103 19q-131 3 -207.5 3t-167.5 -5.5t-202 -46.5
q-87 -32 -137 -88t-69.5 -120.5t-19.5 -139.5q0 -90 41.5 -164.5t122 -119t196.5 -44.5q140 0 231.5 48.5zM417 198q-34 14 -52.5 40.5t-18.5 63.5q0 27 10 53.5t30 48.5t58 42q37 19 85 24.5t126.5 6.5t205.5 -4l-85 55q0 -39 -3.5 -97.5t-24.5 -102.5q-11 -23 -41.5 -57
t-82 -60.5t-126.5 -26.5q-47 0 -81 14zM855 1408h-544v-208h544v208z" />
    <glyph glyph-name="Abreve" unicode="&#x102;" horiz-adv-x="1366" 
d="M411 300h542l93 -300h280l-440 1440h-406l-440 -1440h280zM484 579.5q29 43.5 49 118.5l116 382q11 34 15.5 85.5t3.5 104.5h24l-1 -34q0 -103 21 -156l119 -382q27 -72 55 -112t74 -87l-16 -17q-40 40 -75.5 56t-93.5 16h-187q-37 0 -63 -8t-48.5 -23.5t-58.5 -47.5
l-15 17q52 44 81 87.5zM843 1603q72 43 115 115t43 160h-210q0 -45 -31.5 -76.5t-76.5 -31.5t-76.5 31.5t-31.5 76.5h-210q0 -88 43 -160t115 -115t160 -43t160 43z" />
    <glyph glyph-name="abreve" unicode="&#x103;" horiz-adv-x="1166" 
d="M671.5 18.5q91.5 48.5 196.5 181.5l20 -20q-37 -38 -58.5 -68t-21.5 -78v-34h238v660q0 74 -6 134t-38 120q-57 108 -168 152t-254 44q-195 0 -328.5 -86t-133.5 -287h274q-2 67 63 96t125 29q108 0 154 -45t46 -141l103 19q-131 3 -207.5 3t-167.5 -5.5t-202 -46.5
q-87 -32 -137 -88t-69.5 -120.5t-19.5 -139.5q0 -90 41.5 -164.5t122 -119t196.5 -44.5q140 0 231.5 48.5zM417 198q-34 14 -52.5 40.5t-18.5 63.5q0 27 10 53.5t30 48.5t58 42q37 19 85 24.5t126.5 6.5t205.5 -4l-85 55q0 -39 -3.5 -97.5t-24.5 -102.5q-11 -23 -41.5 -57
t-82 -60.5t-126.5 -26.5q-47 0 -81 14zM743 1243q72 43 115 115t43 160h-210q0 -45 -31.5 -76.5t-76.5 -31.5t-76.5 31.5t-31.5 76.5h-210q0 -88 43 -160t115 -115t160 -43t160 43z" />
    <glyph glyph-name="Aogonek" unicode="&#x104;" horiz-adv-x="1366" 
d="M411 300h542l93 -300h280l-440 1440h-406l-440 -1440h280zM484 579.5q29 43.5 49 118.5l116 382q11 34 15.5 85.5t3.5 104.5h24l-1 -34q0 -103 21 -156l119 -382q27 -72 55 -112t74 -87l-16 -17q-40 40 -75.5 56t-93.5 16h-187q-37 0 -63 -8t-48.5 -23.5t-58.5 -47.5
l-15 17q52 44 81 87.5zM1230.5 -450.5q53.5 27.5 89.5 76.5l-94 124q-18 -15 -35.5 -22.5t-32.5 -7.5q-22 0 -37 14.5t-15 35.5q0 31 29.5 73t79.5 84t111 73l-114 132q-89 -38 -160 -100t-112.5 -136t-41.5 -148q0 -59 28 -110.5t78 -83.5t116 -32q57 0 110.5 27.5z" />
    <glyph glyph-name="aogonek" unicode="&#x105;" horiz-adv-x="1166" 
d="M671.5 18.5q91.5 48.5 196.5 181.5l20 -20q-37 -38 -58.5 -68t-21.5 -78v-34h238v660q0 74 -6 134t-38 120q-57 108 -168 152t-254 44q-195 0 -328.5 -86t-133.5 -287h274q-2 67 63 96t125 29q108 0 154 -45t46 -141l103 19q-131 3 -207.5 3t-167.5 -5.5t-202 -46.5
q-87 -32 -137 -88t-69.5 -120.5t-19.5 -139.5q0 -90 41.5 -164.5t122 -119t196.5 -44.5q140 0 231.5 48.5zM417 198q-34 14 -52.5 40.5t-18.5 63.5q0 27 10 53.5t30 48.5t58 42q37 19 85 24.5t126.5 6.5t205.5 -4l-85 55q0 -39 -3.5 -97.5t-24.5 -102.5q-11 -23 -41.5 -57
t-82 -60.5t-126.5 -26.5q-47 0 -81 14zM950.5 -450.5q53.5 27.5 89.5 76.5l-94 124q-18 -15 -35.5 -22.5t-32.5 -7.5q-22 0 -37 14.5t-15 35.5q0 31 29.5 73t79.5 84t111 73l-114 132q-89 -38 -160 -100t-112.5 -136t-41.5 -148q0 -59 28 -110.5t78 -83.5t116 -32
q57 0 110.5 27.5z" />
    <glyph glyph-name="Cacute" unicode="&#x106;" horiz-adv-x="1492" 
d="M1174.5 93q168.5 123 237.5 371h-274q-45 -116 -137.5 -177t-242.5 -61q-137 0 -228.5 61t-137.5 172t-46 261t46 261t137.5 172t228.5 61q150 0 242.5 -60.5t137.5 -177.5h274q-69 261 -237.5 377.5t-416.5 116.5q-216 0 -372.5 -94t-241 -263t-84.5 -393t84.5 -393
t241 -263t372.5 -94q248 0 416.5 123zM728 1950l-166 -390h202l166 390h-202z" />
    <glyph glyph-name="cacute" unicode="&#x107;" horiz-adv-x="1166" 
d="M941.5 71.5q137.5 101.5 164.5 314.5h-278q-24 -78 -72 -120t-140 -42q-123 0 -185.5 87.5t-62.5 228.5q0 90 26 161.5t81 113t141 41.5q75 0 134.5 -47t83.5 -131h272q-27 217 -161 324.5t-325 107.5q-165 0 -286 -74t-187.5 -203t-66.5 -293q0 -162 64 -291t184 -204
t288 -75q188 0 325.5 101.5zM565 1590l-166 -390h202l166 390h-202z" />
    <glyph glyph-name="Ccircumflex" unicode="&#x108;" horiz-adv-x="1492" 
d="M1174.5 93q168.5 123 237.5 371h-274q-45 -116 -137.5 -177t-242.5 -61q-137 0 -228.5 61t-137.5 172t-46 261t46 261t137.5 172t228.5 61q150 0 242.5 -60.5t137.5 -177.5h274q-69 261 -237.5 377.5t-416.5 116.5q-216 0 -372.5 -94t-241 -263t-84.5 -393t84.5 -393
t241 -263t372.5 -94q248 0 416.5 123zM719 1719q10 25 12.5 50.5t3.5 72.5h23q0 -46 2.5 -72t13 -51.5t33.5 -51.5l89 -107h250l-288 330h-224l-288 -330h250l90 108q23 26 33 51z" />
    <glyph glyph-name="ccircumflex" unicode="&#x109;" horiz-adv-x="1166" 
d="M941.5 71.5q137.5 101.5 164.5 314.5h-278q-24 -78 -72 -120t-140 -42q-123 0 -185.5 87.5t-62.5 228.5q0 90 26 161.5t81 113t141 41.5q75 0 134.5 -47t83.5 -131h272q-27 217 -161 324.5t-325 107.5q-165 0 -286 -74t-187.5 -203t-66.5 -293q0 -162 64 -291t184 -204
t288 -75q188 0 325.5 101.5zM556 1359q10 25 12.5 50.5t3.5 72.5h23q0 -46 2.5 -72t13 -51.5t33.5 -51.5l89 -107h250l-288 330h-224l-288 -330h250l90 108q23 26 33 51z" />
    <glyph glyph-name="Cdotaccent" unicode="&#x10a;" horiz-adv-x="1492" 
d="M1174.5 93q168.5 123 237.5 371h-274q-45 -116 -137.5 -177t-242.5 -61q-137 0 -228.5 61t-137.5 172t-46 261t46 261t137.5 172t228.5 61q150 0 242.5 -60.5t137.5 -177.5h274q-69 261 -237.5 377.5t-416.5 116.5q-216 0 -372.5 -94t-241 -263t-84.5 -393t84.5 -393
t241 -263t372.5 -94q248 0 416.5 123zM882 1876h-272v-272h272v272z" />
    <glyph glyph-name="cdotaccent" unicode="&#x10b;" horiz-adv-x="1166" 
d="M941.5 71.5q137.5 101.5 164.5 314.5h-278q-24 -78 -72 -120t-140 -42q-123 0 -185.5 87.5t-62.5 228.5q0 90 26 161.5t81 113t141 41.5q75 0 134.5 -47t83.5 -131h272q-27 217 -161 324.5t-325 107.5q-165 0 -286 -74t-187.5 -203t-66.5 -293q0 -162 64 -291t184 -204
t288 -75q188 0 325.5 101.5zM719 1516h-272v-272h272v272z" />
    <glyph glyph-name="Ccaron" unicode="&#x10c;" horiz-adv-x="1492" 
d="M1174.5 93q168.5 123 237.5 371h-274q-45 -116 -137.5 -177t-242.5 -61q-137 0 -228.5 61t-137.5 172t-46 261t46 261t137.5 172t228.5 61q150 0 242.5 -60.5t137.5 -177.5h274q-69 261 -237.5 377.5t-416.5 116.5q-216 0 -372.5 -94t-241 -263t-84.5 -393t84.5 -393
t241 -263t372.5 -94q248 0 416.5 123zM858 1560l288 330h-250l-89 -107q-23 -26 -33.5 -51.5t-13 -51.5t-2.5 -72h-23q-1 47 -3.5 72.5t-12.5 50.5t-33 51l-90 108h-250l288 -330h224z" />
    <glyph glyph-name="ccaron" unicode="&#x10d;" horiz-adv-x="1166" 
d="M941.5 71.5q137.5 101.5 164.5 314.5h-278q-24 -78 -72 -120t-140 -42q-123 0 -185.5 87.5t-62.5 228.5q0 90 26 161.5t81 113t141 41.5q75 0 134.5 -47t83.5 -131h272q-27 217 -161 324.5t-325 107.5q-165 0 -286 -74t-187.5 -203t-66.5 -293q0 -162 64 -291t184 -204
t288 -75q188 0 325.5 101.5zM695 1200l288 330h-250l-89 -107q-23 -26 -33.5 -51.5t-13 -51.5t-2.5 -72h-23q-1 47 -3.5 72.5t-12.5 50.5t-33 51l-90 108h-250l288 -330h224z" />
    <glyph glyph-name="Dcaron" unicode="&#x10e;" horiz-adv-x="1420" 
d="M606 0q17 0 70 1t102 7q174 21 295 121t184 254t63 337t-63 337t-184 254t-295 121q-49 6 -102 7t-70 1h-466v-1440h466zM402 264q14 26 14 68v771q0 35 -16.5 61.5t-52.5 57.5l16 19q39 -31 66.5 -44t64.5 -13h112q27 0 73 -1t83 -9q91 -18 151 -85t89.5 -164t29.5 -205
q0 -103 -28.5 -200t-88 -166t-153.5 -88q-37 -7 -83 -8.5t-73 -1.5h-112q-37 0 -61.5 -15t-67.5 -55l-15 18q38 34 52 60zM822 1560l288 330h-250l-89 -107q-23 -26 -33.5 -51.5t-13 -51.5t-2.5 -72h-23q-1 47 -3.5 72.5t-12.5 50.5t-33 51l-90 108h-250l288 -330h224z" />
    <glyph glyph-name="dcaron" unicode="&#x10f;" horiz-adv-x="1559" 
d="M787 45q100 75 150 204t50 291t-49.5 291t-146.5 204t-239 75q-143 0 -249.5 -74t-165 -202.5t-58.5 -293.5q0 -162 57.5 -291t161 -204t241.5 -75q148 0 248 75zM835 1440v-345q0 -32 18 -71t52 -72l-25 -17l-45 47v-242h34v-595l39 54l29 -21q-27 -29 -47.5 -73
t-20.5 -83v-22h240v1440h-274zM477 256q-56 44 -83 118.5t-27 165.5q0 90 28 164.5t86.5 119t149.5 44.5q85 0 137.5 -41t76.5 -115t24 -172t-24 -172t-78.5 -115t-145.5 -41q-88 0 -144 44zM1146 898q138 -22 205 52t67 218v272h-272v-272h114l53 67l19 -13
q-50 -80 -56 -127.5t-36 -67t-78 -15.5z" />
    <glyph glyph-name="Dcroat" unicode="&#x110;" horiz-adv-x="1420" 
d="M606 0q17 0 70 1t102 7q174 21 295 121t184 254t63 337t-63 337t-184 254t-295 121q-49 6 -102 7t-70 1h-466v-1440h466zM402 264q14 26 14 68v771q0 35 -16.5 61.5t-52.5 57.5l16 19q39 -31 66.5 -44t64.5 -13h112q27 0 73 -1t83 -9q91 -18 151 -85t89.5 -164t29.5 -205
q0 -103 -28.5 -200t-88 -166t-153.5 -88q-37 -7 -83 -8.5t-73 -1.5h-112q-37 0 -61.5 -15t-67.5 -55l-15 18q38 34 52 60zM640 826h-600v-210h600v210z" />
    <glyph glyph-name="dcroat" unicode="&#x111;" horiz-adv-x="1250" 
d="M787 45q100 75 150 204t50 291t-49.5 291t-146.5 204t-239 75q-143 0 -249.5 -74t-165 -202.5t-58.5 -293.5q0 -162 57.5 -291t161 -204t241.5 -75q148 0 248 75zM835 1440v-345q0 -32 18 -71t52 -72l-25 -17l-45 47v-242h34v-595l39 54l29 -21q-27 -29 -47.5 -73
t-20.5 -83v-22h240v1440h-274zM477 256q-56 44 -83 118.5t-27 165.5q0 90 28 164.5t86.5 119t149.5 44.5q85 0 137.5 -41t76.5 -115t24 -172t-24 -172t-78.5 -115t-145.5 -41q-88 0 -144 44zM1209 1339h-544v-208h544v208z" />
    <glyph glyph-name="Emacron" unicode="&#x112;" horiz-adv-x="1180" 
d="M1080 254h-593q-58 0 -105 -47l-14 17q19 15 31.5 38.5t12.5 48.5v230q0 33 -10.5 55t-34.5 41l16 19q21 -18 44.5 -25t59.5 -7h473v254h-483q-23 0 -49 -11.5t-47 -29.5l-14 18q22 19 33.5 40.5t11.5 52.5v166q0 24 -16 51.5t-37 43.5l13 19q21 -18 50 -30t55 -12h603
v254h-940v-1440h940v254zM862 1768h-544v-208h544v208z" />
    <glyph glyph-name="emacron" unicode="&#x113;" horiz-adv-x="1216" 
d="M946.5 65q148.5 95 188.5 295h-285q-30 -66 -87 -101t-137 -35q-127 0 -192.5 82.5t-65.5 233.5q0 165 65.5 249.5t204.5 84.5q119 0 171.5 -72.5t52.5 -237.5v-100h269q17 196 -40 341t-176 225t-289 80q-160 0 -283 -72.5t-193 -203.5t-70 -308q0 -162 71.5 -287.5
t198 -197t292.5 -71.5q156 0 304.5 95zM1000 666h-480q-56 0 -89 -23.5t-38 -68.5h-32l9 92h-86v-202h716v202zM880 1408h-544v-208h544v208z" />
    <glyph glyph-name="Ebreve" unicode="&#x114;" horiz-adv-x="1180" 
d="M1080 254h-593q-58 0 -105 -47l-14 17q19 15 31.5 38.5t12.5 48.5v230q0 33 -10.5 55t-34.5 41l16 19q21 -18 44.5 -25t59.5 -7h473v254h-483q-23 0 -49 -11.5t-47 -29.5l-14 18q22 19 33.5 40.5t11.5 52.5v166q0 24 -16 51.5t-37 43.5l13 19q21 -18 50 -30t55 -12h603
v254h-940v-1440h940v254zM750 1603q72 43 115 115t43 160h-210q0 -45 -31.5 -76.5t-76.5 -31.5t-76.5 31.5t-31.5 76.5h-210q0 -88 43 -160t115 -115t160 -43t160 43z" />
    <glyph glyph-name="ebreve" unicode="&#x115;" horiz-adv-x="1216" 
d="M946.5 65q148.5 95 188.5 295h-285q-30 -66 -87 -101t-137 -35q-127 0 -192.5 82.5t-65.5 233.5q0 165 65.5 249.5t204.5 84.5q119 0 171.5 -72.5t52.5 -237.5v-100h269q17 196 -40 341t-176 225t-289 80q-160 0 -283 -72.5t-193 -203.5t-70 -308q0 -162 71.5 -287.5
t198 -197t292.5 -71.5q156 0 304.5 95zM1000 666h-480q-56 0 -89 -23.5t-38 -68.5h-32l9 92h-86v-202h716v202zM768 1243q72 43 115 115t43 160h-210q0 -45 -31.5 -76.5t-76.5 -31.5t-76.5 31.5t-31.5 76.5h-210q0 -88 43 -160t115 -115t160 -43t160 43z" />
    <glyph glyph-name="Edotaccent" unicode="&#x116;" horiz-adv-x="1180" 
d="M1080 254h-593q-58 0 -105 -47l-14 17q19 15 31.5 38.5t12.5 48.5v230q0 33 -10.5 55t-34.5 41l16 19q21 -18 44.5 -25t59.5 -7h473v254h-483q-23 0 -49 -11.5t-47 -29.5l-14 18q22 19 33.5 40.5t11.5 52.5v166q0 24 -16 51.5t-37 43.5l13 19q21 -18 50 -30t55 -12h603
v254h-940v-1440h940v254zM726 1876h-272v-272h272v272z" />
    <glyph glyph-name="edotaccent" unicode="&#x117;" horiz-adv-x="1216" 
d="M946.5 65q148.5 95 188.5 295h-285q-30 -66 -87 -101t-137 -35q-127 0 -192.5 82.5t-65.5 233.5q0 165 65.5 249.5t204.5 84.5q119 0 171.5 -72.5t52.5 -237.5v-100h269q17 196 -40 341t-176 225t-289 80q-160 0 -283 -72.5t-193 -203.5t-70 -308q0 -162 71.5 -287.5
t198 -197t292.5 -71.5q156 0 304.5 95zM1000 666h-480q-56 0 -89 -23.5t-38 -68.5h-32l9 92h-86v-202h716v202zM744 1516h-272v-272h272v272z" />
    <glyph glyph-name="Eogonek" unicode="&#x118;" horiz-adv-x="1180" 
d="M1080 254h-593q-58 0 -105 -47l-14 17q19 15 31.5 38.5t12.5 48.5v230q0 33 -10.5 55t-34.5 41l16 19q21 -18 44.5 -25t59.5 -7h473v254h-483q-23 0 -49 -11.5t-47 -29.5l-14 18q22 19 33.5 40.5t11.5 52.5v166q0 24 -16 51.5t-37 43.5l13 19q21 -18 50 -30t55 -12h603
v254h-940v-1440h940v254zM984.5 -450.5q53.5 27.5 89.5 76.5l-94 124q-18 -15 -35.5 -22.5t-32.5 -7.5q-22 0 -37 14.5t-15 35.5q0 31 29.5 73t79.5 84t111 73l-114 132q-89 -38 -160 -100t-112.5 -136t-41.5 -148q0 -59 28 -110.5t78 -83.5t116 -32q57 0 110.5 27.5z" />
    <glyph glyph-name="eogonek" unicode="&#x119;" horiz-adv-x="1216" 
d="M946.5 65q148.5 95 188.5 295h-285q-30 -66 -87 -101t-137 -35q-127 0 -192.5 82.5t-65.5 233.5q0 165 65.5 249.5t204.5 84.5q119 0 171.5 -72.5t52.5 -237.5v-100h269q17 196 -40 341t-176 225t-289 80q-160 0 -283 -72.5t-193 -203.5t-70 -308q0 -162 71.5 -287.5
t198 -197t292.5 -71.5q156 0 304.5 95zM1000 666h-480q-56 0 -89 -23.5t-38 -68.5h-32l9 92h-86v-202h716v202zM715.5 -450.5q53.5 27.5 89.5 76.5l-94 124q-18 -15 -35.5 -22.5t-32.5 -7.5q-22 0 -37 14.5t-15 35.5q0 31 29.5 73t79.5 84t111 73l-114 132
q-89 -38 -160 -100t-112.5 -136t-41.5 -148q0 -59 28 -110.5t78 -83.5t116 -32q57 0 110.5 27.5z" />
    <glyph glyph-name="Ecaron" unicode="&#x11a;" horiz-adv-x="1180" 
d="M1080 254h-593q-58 0 -105 -47l-14 17q19 15 31.5 38.5t12.5 48.5v230q0 33 -10.5 55t-34.5 41l16 19q21 -18 44.5 -25t59.5 -7h473v254h-483q-23 0 -49 -11.5t-47 -29.5l-14 18q22 19 33.5 40.5t11.5 52.5v166q0 24 -16 51.5t-37 43.5l13 19q21 -18 50 -30t55 -12h603
v254h-940v-1440h940v254zM702 1560l288 330h-250l-89 -107q-23 -26 -33.5 -51.5t-13 -51.5t-2.5 -72h-23q-1 47 -3.5 72.5t-12.5 50.5t-33 51l-90 108h-250l288 -330h224z" />
    <glyph glyph-name="ecaron" unicode="&#x11b;" horiz-adv-x="1216" 
d="M946.5 65q148.5 95 188.5 295h-285q-30 -66 -87 -101t-137 -35q-127 0 -192.5 82.5t-65.5 233.5q0 165 65.5 249.5t204.5 84.5q119 0 171.5 -72.5t52.5 -237.5v-100h269q17 196 -40 341t-176 225t-289 80q-160 0 -283 -72.5t-193 -203.5t-70 -308q0 -162 71.5 -287.5
t198 -197t292.5 -71.5q156 0 304.5 95zM1000 666h-480q-56 0 -89 -23.5t-38 -68.5h-32l9 92h-86v-202h716v202zM720 1200l288 330h-250l-89 -107q-23 -26 -33.5 -51.5t-13 -51.5t-2.5 -72h-23q-1 47 -3.5 72.5t-12.5 50.5t-33 51l-90 108h-250l288 -330h224z" />
    <glyph glyph-name="Gcircumflex" unicode="&#x11c;" horiz-adv-x="1482" 
d="M1057 60.5q109 90.5 148 209.5t79 379q1 5 0.5 36t-0.5 77h-384v-210h228q-22 -114 -74 -187t-127.5 -107t-168.5 -32q-137 2 -228 63t-136.5 171t-45.5 260t45.5 262t136.5 173t228 59q138 -1 237.5 -76.5t116.5 -201.5h286q-11 243 -195.5 388.5t-462.5 145.5
q-188 0 -342.5 -88t-246 -255.5t-91.5 -406.5q0 -183 54.5 -323t149 -235t217.5 -143.5t259 -48.5q208 0 317 90.5zM1212 333l42 -16q-22 -58 -42 -132t-20 -131l4 -54h222v762h-223l-12 -509zM714 1719q10 25 12.5 50.5t3.5 72.5h23q0 -46 2.5 -72t13 -51.5t33.5 -51.5
l89 -107h250l-288 330h-224l-288 -330h250l90 108q23 26 33 51z" />
    <glyph glyph-name="gcircumflex" unicode="&#x11d;" horiz-adv-x="1147" 
d="M284 547q100 -84 286 -84q189 0 288 84t99 236q0 159 -99 252.5t-288 93.5q-186 0 -286 -93.5t-100 -243.5q0 -161 100 -245zM471.5 888.5q36.5 33.5 98.5 33.5q66 0 101 -33.5t35 -103.5q0 -56 -35 -90t-101 -34q-62 0 -98.5 34t-36.5 96q0 64 36.5 97.5zM163.5 -356.5
q141.5 -106.5 406.5 -106.5q268 0 409 106.5t141 298.5q0 201 -141 319t-409 118q-262 1 -341 -74l84 -42l-9 -29q-147 38 -209 -45q-75 -100 -74 -237q1 -202 142.5 -308.5zM366.5 113q73.5 54 203.5 54q137 0 207.5 -54t70.5 -167q0 -86 -70.5 -142.5t-207.5 -56.5
q-130 0 -203.5 56.5t-73.5 152.5q0 103 73.5 157zM570 619h-123q-125 0 -207.5 -44t-82.5 -154q0 -95 84.5 -138t205.5 -43h123v139h-102q-33 0 -58 10t-25 32t24.5 32t58.5 10h102v156zM899 1003q-18 42 0.5 73t82.5 31h124v220h-134q-142 0 -208 -81t58 -155l-24 -50
l126 -97zM543 1530q10 25 12.5 50.5t3.5 72.5h23q0 -46 2.5 -72t13 -51.5t33.5 -51.5l89 -107h250l-288 330h-224l-288 -330h250l90 108q23 26 33 51z" />
    <glyph glyph-name="Gbreve" unicode="&#x11e;" horiz-adv-x="1482" 
d="M1057 60.5q109 90.5 148 209.5t79 379q1 5 0.5 36t-0.5 77h-384v-210h228q-22 -114 -74 -187t-127.5 -107t-168.5 -32q-137 2 -228 63t-136.5 171t-45.5 260t45.5 262t136.5 173t228 59q138 -1 237.5 -76.5t116.5 -201.5h286q-11 243 -195.5 388.5t-462.5 145.5
q-188 0 -342.5 -88t-246 -255.5t-91.5 -406.5q0 -183 54.5 -323t149 -235t217.5 -143.5t259 -48.5q208 0 317 90.5zM1212 333l42 -16q-22 -58 -42 -132t-20 -131l4 -54h222v762h-223l-12 -509zM901 1603q72 43 115 115t43 160h-210q0 -45 -31.5 -76.5t-76.5 -31.5
t-76.5 31.5t-31.5 76.5h-210q0 -88 43 -160t115 -115t160 -43t160 43z" />
    <glyph glyph-name="gbreve" unicode="&#x11f;" horiz-adv-x="1147" 
d="M284 547q100 -84 286 -84q189 0 288 84t99 236q0 159 -99 252.5t-288 93.5q-186 0 -286 -93.5t-100 -243.5q0 -161 100 -245zM471.5 888.5q36.5 33.5 98.5 33.5q66 0 101 -33.5t35 -103.5q0 -56 -35 -90t-101 -34q-62 0 -98.5 34t-36.5 96q0 64 36.5 97.5zM163.5 -356.5
q141.5 -106.5 406.5 -106.5q268 0 409 106.5t141 298.5q0 201 -141 319t-409 118q-262 1 -341 -74l84 -42l-9 -29q-147 38 -209 -45q-75 -100 -74 -237q1 -202 142.5 -308.5zM366.5 113q73.5 54 203.5 54q137 0 207.5 -54t70.5 -167q0 -86 -70.5 -142.5t-207.5 -56.5
q-130 0 -203.5 56.5t-73.5 152.5q0 103 73.5 157zM570 619h-123q-125 0 -207.5 -44t-82.5 -154q0 -95 84.5 -138t205.5 -43h123v139h-102q-33 0 -58 10t-25 32t24.5 32t58.5 10h102v156zM899 1003q-18 42 0.5 73t82.5 31h124v220h-134q-142 0 -208 -81t58 -155l-24 -50
l126 -97zM730 1343q72 43 115 115t43 160h-210q0 -45 -31.5 -76.5t-76.5 -31.5t-76.5 31.5t-31.5 76.5h-210q0 -88 43 -160t115 -115t160 -43t160 43z" />
    <glyph glyph-name="Gdotaccent" unicode="&#x120;" horiz-adv-x="1482" 
d="M1057 60.5q109 90.5 148 209.5t79 379q1 5 0.5 36t-0.5 77h-384v-210h228q-22 -114 -74 -187t-127.5 -107t-168.5 -32q-137 2 -228 63t-136.5 171t-45.5 260t45.5 262t136.5 173t228 59q138 -1 237.5 -76.5t116.5 -201.5h286q-11 243 -195.5 388.5t-462.5 145.5
q-188 0 -342.5 -88t-246 -255.5t-91.5 -406.5q0 -183 54.5 -323t149 -235t217.5 -143.5t259 -48.5q208 0 317 90.5zM1212 333l42 -16q-22 -58 -42 -132t-20 -131l4 -54h222v762h-223l-12 -509zM877 1876h-272v-272h272v272z" />
    <glyph glyph-name="gdotaccent" unicode="&#x121;" horiz-adv-x="1147" 
d="M284 547q100 -84 286 -84q189 0 288 84t99 236q0 159 -99 252.5t-288 93.5q-186 0 -286 -93.5t-100 -243.5q0 -161 100 -245zM471.5 888.5q36.5 33.5 98.5 33.5q66 0 101 -33.5t35 -103.5q0 -56 -35 -90t-101 -34q-62 0 -98.5 34t-36.5 96q0 64 36.5 97.5zM163.5 -356.5
q141.5 -106.5 406.5 -106.5q268 0 409 106.5t141 298.5q0 201 -141 319t-409 118q-262 1 -341 -74l84 -42l-9 -29q-147 38 -209 -45q-75 -100 -74 -237q1 -202 142.5 -308.5zM366.5 113q73.5 54 203.5 54q137 0 207.5 -54t70.5 -167q0 -86 -70.5 -142.5t-207.5 -56.5
q-130 0 -203.5 56.5t-73.5 152.5q0 103 73.5 157zM570 619h-123q-125 0 -207.5 -44t-82.5 -154q0 -95 84.5 -138t205.5 -43h123v139h-102q-33 0 -58 10t-25 32t24.5 32t58.5 10h102v156zM899 1003q-18 42 0.5 73t82.5 31h124v220h-134q-142 0 -208 -81t58 -155l-24 -50
l126 -97zM710 1516h-272v-272h272v272z" />
    <glyph glyph-name="uni0122" unicode="&#x122;" horiz-adv-x="1482" 
d="M1057 60.5q109 90.5 148 209.5t79 379q1 5 0.5 36t-0.5 77h-384v-210h228q-22 -114 -74 -187t-127.5 -107t-168.5 -32q-137 2 -228 63t-136.5 171t-45.5 260t45.5 262t136.5 173t228 59q138 -1 237.5 -76.5t116.5 -201.5h286q-11 243 -195.5 388.5t-462.5 145.5
q-188 0 -342.5 -88t-246 -255.5t-91.5 -406.5q0 -183 54.5 -323t149 -235t217.5 -143.5t259 -48.5q208 0 317 90.5zM1212 333l42 -16q-22 -58 -42 -132t-20 -131l4 -54h222v762h-223l-12 -509zM603 -717q138 -22 205 52t67 218v272h-272v-272h114l53 67l19 -13
q-50 -80 -56 -127.5t-36 -67t-78 -15.5z" />
    <glyph glyph-name="uni0123" unicode="&#x123;" horiz-adv-x="1147" 
d="M284 547q100 -84 286 -84q189 0 288 84t99 236q0 159 -99 252.5t-288 93.5q-186 0 -286 -93.5t-100 -243.5q0 -161 100 -245zM471.5 888.5q36.5 33.5 98.5 33.5q66 0 101 -33.5t35 -103.5q0 -56 -35 -90t-101 -34q-62 0 -98.5 34t-36.5 96q0 64 36.5 97.5zM163.5 -356.5
q141.5 -106.5 406.5 -106.5q268 0 409 106.5t141 298.5q0 201 -141 319t-409 118q-262 1 -341 -74l84 -42l-9 -29q-147 38 -209 -45q-75 -100 -74 -237q1 -202 142.5 -308.5zM366.5 113q73.5 54 203.5 54q137 0 207.5 -54t70.5 -167q0 -86 -70.5 -142.5t-207.5 -56.5
q-130 0 -203.5 56.5t-73.5 152.5q0 103 73.5 157zM570 619h-123q-125 0 -207.5 -44t-82.5 -154q0 -95 84.5 -138t205.5 -43h123v139h-102q-33 0 -58 10t-25 32t24.5 32t58.5 10h102v156zM899 1003q-18 42 0.5 73t82.5 31h124v220h-134q-142 0 -208 -81t58 -155l-24 -50
l126 -97zM454 1664q48 4 78 -15.5t36 -67t56 -127.5l-19 -13l-53 67h-114v-272h272v272q0 144 -67 218t-205 52z" />
    <glyph glyph-name="Hcircumflex" unicode="&#x124;" horiz-adv-x="1468" 
d="M400 569q-10 28 -33 45l13 19q28 -22 55 -30.5t68 -8.5h455q43 0 68 9.5t52 34.5l15 -17q-22 -23 -29.5 -51.5t-7.5 -76.5v-493h272v1440h-272v-504q2 -39 10 -62.5t27 -53.5l-15 -17q-32 26 -55 36t-65 9h-446q-46 0 -77 -11.5t-54 -33.5l-17 15q26 25 37 47.5t11 58.5
v516h-272v-1440h272v493q-2 48 -12 76zM707 1719q10 25 12.5 50.5t3.5 72.5h23q0 -46 2.5 -72t13 -51.5t33.5 -51.5l89 -107h250l-288 330h-224l-288 -330h250l90 108q23 26 33 51z" />
    <glyph glyph-name="hcircumflex" unicode="&#x125;" horiz-adv-x="1272" 
d="M1152 606q0 27 -4 86t-23 130.5t-63.5 137.5t-124.5 109t-207 43q-159 0 -237.5 -63.5t-119.5 -181t-41 -245.5l82 -74q0 101 22.5 162t57.5 92.5t75 42.5t75 11q87 0 134.5 -39t68.5 -97t25 -115.5t4 -94.5v-510h276v606zM414 811h-88q24 50 39 107.5t15 109.5v412h-242
v-1440h276v811zM237 1633q10 25 12.5 50.5t3.5 72.5h23q0 -46 2.5 -72t13 -51.5t33.5 -51.5l89 -107h250l-288 330h-224l-288 -330h250l90 108q23 26 33 51z" />
    <glyph glyph-name="Hbar" unicode="&#x126;" horiz-adv-x="1468" 
d="M400 569q-10 28 -33 45l13 19q28 -22 55 -30.5t68 -8.5h455q43 0 68 9.5t52 34.5l15 -17q-22 -23 -29.5 -51.5t-7.5 -76.5v-493h272v1440h-272v-504q2 -39 10 -62.5t27 -53.5l-15 -17q-32 26 -55 36t-65 9h-446q-46 0 -77 -11.5t-54 -33.5l-17 15q26 25 37 47.5t11 58.5
v516h-272v-1440h272v493q-2 48 -12 76zM1423 1288h-1379v-208h1379v208z" />
    <glyph glyph-name="hbar" unicode="&#x127;" horiz-adv-x="1272" 
d="M1152 606q0 27 -4 86t-23 130.5t-63.5 137.5t-124.5 109t-207 43q-159 0 -237.5 -63.5t-119.5 -181t-41 -245.5l82 -74q0 101 22.5 162t57.5 92.5t75 42.5t75 11q87 0 134.5 -39t68.5 -97t25 -115.5t4 -94.5v-510h276v606zM414 811h-88q24 50 39 107.5t15 109.5v412h-242
v-1440h276v811zM609 1351h-544v-208h544v208z" />
    <glyph glyph-name="Itilde" unicode="&#x128;" 
d="M432 1440h-272v-1440h272v1440zM638 1651q44 91 12 221h-168q14 -51 2 -84.5t-42 -33.5q-29 0 -64 22.5t-75.5 51.5t-85 51.5t-93.5 22.5q-126 0 -169.5 -90.5t-12.5 -221.5h168q-13 51 -1.5 84.5t41.5 33.5q29 0 64 -22.5t75.5 -51.5t85 -51.5t93.5 -22.5q126 0 170 91z
" />
    <glyph glyph-name="itilde" unicode="&#x129;" 
d="M432 1080h-272v-1080h272v1080zM638 1291q44 91 12 221h-168q14 -51 2 -84.5t-42 -33.5q-29 0 -64 22.5t-75.5 51.5t-85 51.5t-93.5 22.5q-126 0 -169.5 -90.5t-12.5 -221.5h168q-13 51 -1.5 84.5t41.5 33.5q29 0 64 -22.5t75.5 -51.5t85 -51.5t93.5 -22.5q126 0 170 91z
" />
    <glyph glyph-name="Imacron" unicode="&#x12a;" 
d="M432 1440h-272v-1440h272v1440zM568 1768h-544v-208h544v208z" />
    <glyph glyph-name="imacron" unicode="&#x12b;" 
d="M432 1080h-272v-1080h272v1080zM568 1408h-544v-208h544v208z" />
    <glyph glyph-name="Iogonek" unicode="&#x12e;" 
d="M432 1440h-272v-1440h272v1440zM336.5 -450.5q53.5 27.5 89.5 76.5l-94 124q-18 -15 -35.5 -22.5t-32.5 -7.5q-22 0 -37 14.5t-15 35.5q0 31 29.5 73t79.5 84t111 73l-114 132q-89 -38 -160 -100t-112.5 -136t-41.5 -148q0 -59 28 -110.5t78 -83.5t116 -32
q57 0 110.5 27.5z" />
    <glyph glyph-name="iogonek" unicode="&#x12f;" 
d="M432 1470h-272v-240h272v240zM432 1080h-272v-1080h272v1080zM336.5 -450.5q53.5 27.5 89.5 76.5l-94 124q-18 -15 -35.5 -22.5t-32.5 -7.5q-22 0 -37 14.5t-15 35.5q0 31 29.5 73t79.5 84t111 73l-114 132q-89 -38 -160 -100t-112.5 -136t-41.5 -148q0 -59 28 -110.5
t78 -83.5t116 -32q57 0 110.5 27.5z" />
    <glyph glyph-name="Idotaccent" unicode="&#x130;" 
d="M432 1440h-272v-1440h272v1440zM432 1876h-272v-272h272v272z" />
    <glyph glyph-name="dotlessi" unicode="&#x131;" 
d="M432 1080h-272v-1080h272v1080z" />
    <glyph glyph-name="IJ" unicode="&#x132;" horiz-adv-x="1618" 
d="M432 1440h-272v-1440h272v1440zM1251 18q98 48 159 154q28 48 37.5 92.5t10 95.5t0.5 120v960h-276v-960q0 -55 -2 -97t-14 -71q-19 -46 -62.5 -67t-81.5 -21q-55 0 -104 40.5t-58 95.5h-268q10 -179 140 -284.5t302 -105.5q119 0 217 48z" />
    <glyph glyph-name="ij" unicode="&#x133;" horiz-adv-x="1055" 
d="M432 1470h-272v-240h272v240zM432 1080h-272v-1080h272v1080zM594 -480q137 0 217.5 77.5t80.5 206.5v1276h-272v-1216q0 -43 -19 -66.5t-71 -23.5h-120v-254h184zM892 1470h-272v-240h272v240z" />
    <glyph glyph-name="Jcircumflex" unicode="&#x134;" horiz-adv-x="1026" 
d="M659 18q98 48 159 154q28 48 37.5 92.5t10 95.5t0.5 120v960h-276v-960q0 -55 -2 -97t-14 -71q-19 -46 -62.5 -67t-81.5 -21q-55 0 -104 40.5t-58 95.5h-268q10 -179 140 -284.5t302 -105.5q119 0 217 48zM713 1719q10 25 12.5 50.5t3.5 72.5h23q0 -46 2.5 -72t13 -51.5
t33.5 -51.5l89 -107h250l-288 330h-224l-288 -330h250l90 108q23 26 33 51z" />
    <glyph glyph-name="jcircumflex" unicode="&#x135;" horiz-adv-x="602" 
d="M164 -480q137 0 217.5 77.5t80.5 206.5v1276h-272v-1216q0 -43 -19 -66.5t-71 -23.5h-120v-254h184zM462 1470h-272v-240h272v240zM274 1359q10 25 12.5 50.5t3.5 72.5h23q0 -46 2.5 -72t13 -51.5t33.5 -51.5l89 -107h250l-288 330h-224l-288 -330h250l90 108
q23 26 33 51z" />
    <glyph glyph-name="uni0136" unicode="&#x136;" horiz-adv-x="1330" 
d="M401.5 533q-10.5 24 -26 42t-21.5 25l16 17l540 -617h344l-640 730l602 710h-332l-514 -623l-18 14q28 35 40.5 59.5t16 49t3.5 67.5v433h-272v-1440h272v458q0 51 -10.5 75zM561 -661q138 -22 205 52t67 218v272h-272v-272h114l53 67l19 -13q-50 -80 -56 -127.5t-36 -67
t-78 -15.5z" />
    <glyph glyph-name="uni0137" unicode="&#x137;" horiz-adv-x="1104" 
d="M416 354l158 163l287 -517h283l-379 714l353 366h-336l-466 -479l-17 16q49 53 74 93t33.5 76.5t9.5 84.5v569h-276l-2 -1440h278v354zM493 -687q138 -22 205 52t67 218v272h-272v-272h114l53 67l19 -13q-50 -80 -56 -127.5t-36 -67t-78 -15.5z" />
    <glyph glyph-name="kgreenlandic" unicode="&#x138;" horiz-adv-x="1104" 
d="M416 354l158 163l287 -517h283l-379 714l353 366h-336l-466 -479l-17 16q49 53 74 93t33.5 76.5t9.5 84.5v209h-276l-2 -1080h278v354z" />
    <glyph glyph-name="Lacute" unicode="&#x139;" horiz-adv-x="1082" 
d="M1052 254h-494q-68 0 -107.5 -19.5t-74.5 -56.5l-15 17q36 32 53.5 69.5t17.5 107.5v1068h-272v-1440h892v254zM357 1950l-166 -390h202l166 390h-202z" />
    <glyph glyph-name="lacute" unicode="&#x13a;" 
d="M432 1470h-272v-1470h272v1470zM326 1941l-166 -390h202l166 390h-202z" />
    <glyph glyph-name="uni013B" unicode="&#x13b;" horiz-adv-x="1082" 
d="M1052 254h-494q-68 0 -107.5 -19.5t-74.5 -56.5l-15 17q36 32 53.5 69.5t17.5 107.5v1068h-272v-1440h892v254zM470 -695q138 -22 205 52t67 218v272h-272v-272h114l53 67l19 -13q-50 -80 -56 -127.5t-36 -67t-78 -15.5z" />
    <glyph glyph-name="uni013C" unicode="&#x13c;" 
d="M432 1470h-272v-1470h272v1470zM156 -732q138 -22 205 52t67 218v272h-272v-272h114l53 67l19 -13q-50 -80 -56 -127.5t-36 -67t-78 -15.5z" />
    <glyph glyph-name="Lcaron" unicode="&#x13d;" horiz-adv-x="1082" 
d="M1052 254h-494q-68 0 -107.5 -19.5t-74.5 -56.5l-15 17q36 32 53.5 69.5t17.5 107.5v1068h-272v-1440h892v254zM612 681q138 -22 205 52t67 218v272h-272v-272h114l53 67l19 -13q-50 -80 -56 -127.5t-36 -67t-78 -15.5z" />
    <glyph glyph-name="lcaron" unicode="&#x13e;" horiz-adv-x="906" 
d="M432 1470h-272v-1470h272v1470zM520 928q138 -22 205 52t67 218v272h-272v-272h114l53 67l19 -13q-50 -80 -56 -127.5t-36 -67t-78 -15.5z" />
    <glyph glyph-name="Ldot" unicode="&#x13f;" horiz-adv-x="1082" 
d="M1052 254h-494q-68 0 -107.5 -19.5t-74.5 -56.5l-15 17q36 32 53.5 69.5t17.5 107.5v1068h-272v-1440h892v254zM857.5 471.5q46.5 45.5 46.5 114.5t-46.5 114.5t-109.5 45.5q-69 0 -116.5 -45.5t-47.5 -114.5t47.5 -114.5t116.5 -45.5q63 0 109.5 45.5z" />
    <glyph glyph-name="ldot" unicode="&#x140;" horiz-adv-x="926" 
d="M432 1470h-272v-1470h272v1470zM769.5 641.5q46.5 45.5 46.5 114.5t-46.5 114.5t-109.5 45.5q-69 0 -116.5 -45.5t-47.5 -114.5t47.5 -114.5t116.5 -45.5q63 0 109.5 45.5z" />
    <glyph glyph-name="Lslash" unicode="&#x141;" horiz-adv-x="1082" 
d="M1052 254h-494q-68 0 -107.5 -19.5t-74.5 -56.5l-15 17q36 32 53.5 69.5t17.5 107.5v1068h-272v-1440h892v254zM531 1067l-594 -594l149 -148l594 594z" />
    <glyph glyph-name="lslash" unicode="&#x142;" 
d="M432 1470h-272v-1470h272v1470zM518 1002l-594 -594l149 -148l594 594z" />
    <glyph glyph-name="Nacute" unicode="&#x143;" horiz-adv-x="1458" 
d="M397.5 944q-18.5 118 -51.5 225l22 7q41 -128 91 -242t120 -224l463 -710h276v1440h-276v-777q0 -64 20 -156.5t58 -224.5l-22 -7q-54 148 -89.5 227t-100.5 184l-492 754h-276v-1440h276v710q0 116 -18.5 234zM711 1950l-166 -390h202l166 390h-202z" />
    <glyph glyph-name="nacute" unicode="&#x144;" horiz-adv-x="1272" 
d="M1152 606q0 27 -4 86t-23 130.5t-63.5 137.5t-124.5 109t-207 43q-159 0 -259.5 -69t-135 -181t-34.5 -240l113 -74q0 101 22.5 162t57.5 92.5t75 42.5t75 11q87 0 134.5 -39t68.5 -97t25 -115.5t4 -94.5v-510h276v606zM412 876h-100q24 35 45 86t21 88v30h-240v-1080
h274v876zM618 1590l-166 -390h202l166 390h-202z" />
    <glyph glyph-name="uni0145" unicode="&#x145;" horiz-adv-x="1458" 
d="M397.5 944q-18.5 118 -51.5 225l22 7q41 -128 91 -242t120 -224l463 -710h276v1440h-276v-777q0 -64 20 -156.5t58 -224.5l-22 -7q-54 148 -89.5 227t-100.5 184l-492 754h-276v-1440h276v710q0 116 -18.5 234zM593 -624q138 -22 205 52t67 218v272h-272v-272h114l53 67
l19 -13q-50 -80 -56 -127.5t-36 -67t-78 -15.5z" />
    <glyph glyph-name="uni0146" unicode="&#x146;" horiz-adv-x="1272" 
d="M1152 606q0 27 -4 86t-23 130.5t-63.5 137.5t-124.5 109t-207 43q-159 0 -259.5 -69t-135 -181t-34.5 -240l113 -74q0 101 22.5 162t57.5 92.5t75 42.5t75 11q87 0 134.5 -39t68.5 -97t25 -115.5t4 -94.5v-510h276v606zM412 876h-100q24 35 45 86t21 88v30h-240v-1080
h274v876zM509 -675q138 -22 205 52t67 218v272h-272v-272h114l53 67l19 -13q-50 -80 -56 -127.5t-36 -67t-78 -15.5z" />
    <glyph glyph-name="Ncaron" unicode="&#x147;" horiz-adv-x="1458" 
d="M397.5 944q-18.5 118 -51.5 225l22 7q41 -128 91 -242t120 -224l463 -710h276v1440h-276v-777q0 -64 20 -156.5t58 -224.5l-22 -7q-54 148 -89.5 227t-100.5 184l-492 754h-276v-1440h276v710q0 116 -18.5 234zM841 1560l288 330h-250l-89 -107q-23 -26 -33.5 -51.5
t-13 -51.5t-2.5 -72h-23q-1 47 -3.5 72.5t-12.5 50.5t-33 51l-90 108h-250l288 -330h224z" />
    <glyph glyph-name="ncaron" unicode="&#x148;" horiz-adv-x="1272" 
d="M1152 606q0 27 -4 86t-23 130.5t-63.5 137.5t-124.5 109t-207 43q-159 0 -259.5 -69t-135 -181t-34.5 -240l113 -74q0 101 22.5 162t57.5 92.5t75 42.5t75 11q87 0 134.5 -39t68.5 -97t25 -115.5t4 -94.5v-510h276v606zM412 876h-100q24 35 45 86t21 88v30h-240v-1080
h274v876zM748 1200l288 330h-250l-89 -107q-23 -26 -33.5 -51.5t-13 -51.5t-2.5 -72h-23q-1 47 -3.5 72.5t-12.5 50.5t-33 51l-90 108h-250l288 -330h224z" />
    <glyph glyph-name="napostrophe" unicode="&#x149;" horiz-adv-x="1272" 
d="M1152 606q0 27 -4 86t-23 130.5t-63.5 137.5t-124.5 109t-207 43q-159 0 -259.5 -69t-135 -181t-34.5 -240l113 -74q0 101 22.5 162t57.5 92.5t75 42.5t75 11q87 0 134.5 -39t68.5 -97t25 -115.5t4 -94.5v-510h276v606zM412 876h-100q24 35 45 86t21 88v30h-240v-1080
h274v876zM-212 897q138 -22 205 52t67 218v272h-272v-272h114l53 67l19 -13q-50 -80 -56 -127.5t-36 -67t-78 -15.5z" />
    <glyph glyph-name="Omacron" unicode="&#x14c;" horiz-adv-x="1516" 
d="M1130.5 64q156.5 94 241 263t84.5 393t-84.5 393t-241 263t-372.5 94t-372.5 -94t-241 -263t-84.5 -393t84.5 -393t241 -263t372.5 -94t372.5 94zM530 289q-91 61 -136.5 171t-45.5 260t45.5 262t136.5 173t228 59t228 -63t136.5 -171t45.5 -260t-45.5 -262t-136.5 -173
t-228 -59t-228 63zM1030 1768h-544v-208h544v208z" />
    <glyph glyph-name="omacron" unicode="&#x14d;" horiz-adv-x="1254" 
d="M911.5 42.5q123.5 72.5 193 201t69.5 296.5q0 167 -69 295.5t-192.5 201.5t-286.5 73q-160 0 -283 -72t-193 -200.5t-70 -297.5q0 -167 68.5 -295.5t191.5 -201.5t286 -73q162 0 285.5 72.5zM433.5 309.5q-65.5 85.5 -65.5 230.5q0 94 27.5 165t84.5 111t146 40
q129 0 194.5 -86t65.5 -230q0 -139 -64.5 -227.5t-195.5 -88.5q-127 0 -192.5 85.5zM899 1408h-544v-208h544v208z" />
    <glyph glyph-name="Obreve" unicode="&#x14e;" horiz-adv-x="1516" 
d="M1130.5 64q156.5 94 241 263t84.5 393t-84.5 393t-241 263t-372.5 94t-372.5 -94t-241 -263t-84.5 -393t84.5 -393t241 -263t372.5 -94t372.5 94zM530 289q-91 61 -136.5 171t-45.5 260t45.5 262t136.5 173t228 59t228 -63t136.5 -171t45.5 -260t-45.5 -262t-136.5 -173
t-228 -59t-228 63zM918 1603q72 43 115 115t43 160h-210q0 -45 -31.5 -76.5t-76.5 -31.5t-76.5 31.5t-31.5 76.5h-210q0 -88 43 -160t115 -115t160 -43t160 43z" />
    <glyph glyph-name="obreve" unicode="&#x14f;" horiz-adv-x="1254" 
d="M911.5 42.5q123.5 72.5 193 201t69.5 296.5q0 167 -69 295.5t-192.5 201.5t-286.5 73q-160 0 -283 -72t-193 -200.5t-70 -297.5q0 -167 68.5 -295.5t191.5 -201.5t286 -73q162 0 285.5 72.5zM433.5 309.5q-65.5 85.5 -65.5 230.5q0 94 27.5 165t84.5 111t146 40
q129 0 194.5 -86t65.5 -230q0 -139 -64.5 -227.5t-195.5 -88.5q-127 0 -192.5 85.5zM787 1243q72 43 115 115t43 160h-210q0 -45 -31.5 -76.5t-76.5 -31.5t-76.5 31.5t-31.5 76.5h-210q0 -88 43 -160t115 -115t160 -43t160 43z" />
    <glyph glyph-name="Ohungarumlaut" unicode="&#x150;" horiz-adv-x="1516" 
d="M1130.5 64q156.5 94 241 263t84.5 393t-84.5 393t-241 263t-372.5 94t-372.5 -94t-241 -263t-84.5 -393t84.5 -393t241 -263t372.5 -94t372.5 94zM530 289q-91 61 -136.5 171t-45.5 260t45.5 262t136.5 173t228 59t228 -63t136.5 -171t45.5 -260t-45.5 -262t-136.5 -173
t-228 -59t-228 63zM952 1950l-166 -390h202l166 390h-202zM528 1950l-166 -390h202l166 390h-202z" />
    <glyph glyph-name="ohungarumlaut" unicode="&#x151;" horiz-adv-x="1254" 
d="M911.5 42.5q123.5 72.5 193 201t69.5 296.5q0 167 -69 295.5t-192.5 201.5t-286.5 73q-160 0 -283 -72t-193 -200.5t-70 -297.5q0 -167 68.5 -295.5t191.5 -201.5t286 -73q162 0 285.5 72.5zM433.5 309.5q-65.5 85.5 -65.5 230.5q0 94 27.5 165t84.5 111t146 40
q129 0 194.5 -86t65.5 -230q0 -139 -64.5 -227.5t-195.5 -88.5q-127 0 -192.5 85.5zM821 1590l-166 -390h202l166 390h-202zM397 1590l-166 -390h202l166 390h-202z" />
    <glyph glyph-name="OE" unicode="&#x152;" horiz-adv-x="2222" 
d="M1130.5 64q156.5 94 241 263t84.5 393t-84.5 393t-241 263t-372.5 94t-372.5 -94t-241 -263t-84.5 -393t84.5 -393t241 -263t372.5 -94t372.5 94zM530 289q-91 61 -136.5 171t-45.5 260t45.5 262t136.5 173t228 59t228 -63t136.5 -171t45.5 -260t-45.5 -262t-136.5 -173
t-228 -59t-228 63zM2214 254h-593q-58 0 -105 -47l-14 17q19 15 31.5 38.5t12.5 48.5v230q0 33 -10.5 55t-34.5 41l16 19q21 -18 44.5 -25t59.5 -7h473v254h-483q-23 0 -49 -11.5t-47 -29.5l-14 18q22 19 33.5 40.5t11.5 52.5v166q0 24 -16 51.5t-37 43.5l13 19
q21 -18 50 -30t55 -12h603v254h-940v-1440h940v254z" />
    <glyph glyph-name="oe" unicode="&#x153;" horiz-adv-x="2022" 
d="M1752.5 65q148.5 95 188.5 295h-285q-30 -66 -87 -101t-137 -35q-127 0 -192.5 82.5t-65.5 233.5q0 165 65.5 249.5t204.5 84.5q119 0 171.5 -72.5t52.5 -237.5v-100h269q17 196 -40 341t-176 225t-289 80q-160 0 -283 -72.5t-193 -203.5t-70 -308q0 -162 71.5 -287.5
t198 -197t292.5 -71.5q156 0 304.5 95zM1806 666h-480q-56 0 -89 -23.5t-38 -68.5h-32l9 92h-86v-202h716v202zM911.5 42.5q123.5 72.5 193 201t69.5 296.5q0 167 -69 295.5t-192.5 201.5t-286.5 73q-160 0 -283 -72t-193 -200.5t-70 -297.5q0 -167 68.5 -295.5
t191.5 -201.5t286 -73q162 0 285.5 72.5zM433.5 309.5q-65.5 85.5 -65.5 230.5q0 94 27.5 165t84.5 111t146 40q129 0 194.5 -86t65.5 -230q0 -139 -64.5 -227.5t-195.5 -88.5q-127 0 -192.5 85.5z" />
    <glyph glyph-name="Racute" unicode="&#x154;" horiz-adv-x="1340" 
d="M401.5 466q-10.5 15 -47.5 47l15 17q41 -28 51.5 -33.5t81.5 -5.5h451l-5 143q179 11 235.5 118t56.5 251q0 121 -42 212.5t-121.5 144t-208.5 72.5q-28 5 -63.5 6.5t-56.5 1.5h-608v-1440h272v402q0 49 -10.5 64zM656 491h175t115 -67q17 -31 19.5 -81t2.5 -113v-230
h270v229v150.5t-42 144.5q-52 56 -120 70.5t-188 14.5h-232v-118zM398.5 757q13.5 24 13.5 66v274q0 77 -52 139l19 13q31 -35 56 -49t67 -14h234q21 0 46 -2t46 -8q55 -15 85 -50.5t41.5 -79t11.5 -82.5t-11.5 -82.5t-41.5 -79t-85 -50.5q-21 -6 -46 -8t-46 -2h-234
q-46 0 -75 -12.5t-57 -40.5l-16 16q31 28 44.5 52zM652 1950l-166 -390h202l166 390h-202z" />
    <glyph glyph-name="racute" unicode="&#x155;" horiz-adv-x="824" 
d="M415 626q-4 117 40 164q40 43 141 42l178 1v250h-154q-58 0 -100 -15t-72.5 -58t-83.5 -194h-23q19 71 29 119.5t10 96.5v48h-240v-1080h274zM394 1590l-166 -390h202l166 390h-202z" />
    <glyph glyph-name="uni0156" unicode="&#x156;" horiz-adv-x="1340" 
d="M401.5 466q-10.5 15 -47.5 47l15 17q41 -28 51.5 -33.5t81.5 -5.5h451l-5 143q179 11 235.5 118t56.5 251q0 121 -42 212.5t-121.5 144t-208.5 72.5q-28 5 -63.5 6.5t-56.5 1.5h-608v-1440h272v402q0 49 -10.5 64zM656 491h175t115 -67q17 -31 19.5 -81t2.5 -113v-230
h270v229v150.5t-42 144.5q-52 56 -120 70.5t-188 14.5h-232v-118zM398.5 757q13.5 24 13.5 66v274q0 77 -52 139l19 13q31 -35 56 -49t67 -14h234q21 0 46 -2t46 -8q55 -15 85 -50.5t41.5 -79t11.5 -82.5t-11.5 -82.5t-41.5 -79t-85 -50.5q-21 -6 -46 -8t-46 -2h-234
q-46 0 -75 -12.5t-57 -40.5l-16 16q31 28 44.5 52zM554 -658q138 -22 205 52t67 218v272h-272v-272h114l53 67l19 -13q-50 -80 -56 -127.5t-36 -67t-78 -15.5z" />
    <glyph glyph-name="uni0157" unicode="&#x157;" horiz-adv-x="824" 
d="M415 626q-4 117 40 164q40 43 141 42l178 1v250h-154q-58 0 -100 -15t-72.5 -58t-83.5 -194h-23q19 71 29 119.5t10 96.5v48h-240v-1080h274zM140 -728q138 -22 205 52t67 218v272h-272v-272h114l53 67l19 -13q-50 -80 -56 -127.5t-36 -67t-78 -15.5z" />
    <glyph glyph-name="Rcaron" unicode="&#x158;" horiz-adv-x="1340" 
d="M401.5 466q-10.5 15 -47.5 47l15 17q41 -28 51.5 -33.5t81.5 -5.5h451l-5 143q179 11 235.5 118t56.5 251q0 121 -42 212.5t-121.5 144t-208.5 72.5q-28 5 -63.5 6.5t-56.5 1.5h-608v-1440h272v402q0 49 -10.5 64zM656 491h175t115 -67q17 -31 19.5 -81t2.5 -113v-230
h270v229v150.5t-42 144.5q-52 56 -120 70.5t-188 14.5h-232v-118zM398.5 757q13.5 24 13.5 66v274q0 77 -52 139l19 13q31 -35 56 -49t67 -14h234q21 0 46 -2t46 -8q55 -15 85 -50.5t41.5 -79t11.5 -82.5t-11.5 -82.5t-41.5 -79t-85 -50.5q-21 -6 -46 -8t-46 -2h-234
q-46 0 -75 -12.5t-57 -40.5l-16 16q31 28 44.5 52zM782 1560l288 330h-250l-89 -107q-23 -26 -33.5 -51.5t-13 -51.5t-2.5 -72h-23q-1 47 -3.5 72.5t-12.5 50.5t-33 51l-90 108h-250l288 -330h224z" />
    <glyph glyph-name="rcaron" unicode="&#x159;" horiz-adv-x="824" 
d="M415 626q-4 117 40 164q40 43 141 42l178 1v250h-154q-58 0 -100 -15t-72.5 -58t-83.5 -194h-23q19 71 29 119.5t10 96.5v48h-240v-1080h274zM524 1200l288 330h-250l-89 -107q-23 -26 -33.5 -51.5t-13 -51.5t-2.5 -72h-23q-1 47 -3.5 72.5t-12.5 50.5t-33 51l-90 108
h-250l288 -330h224z" />
    <glyph glyph-name="Sacute" unicode="&#x15a;" horiz-adv-x="1342" 
d="M897.5 -2q103.5 28 185.5 84.5t130.5 143t48.5 202.5q0 109 -40.5 180t-103 114.5t-130.5 68t-124 39.5l-250 68q-46 12 -90 30t-73 47.5t-29 76.5q0 51 35.5 88t92 56.5t120.5 17.5q65 -2 130.5 -21t107.5 -66t48 -131h292q-10 187 -97 283t-207.5 141.5t-269.5 47.5
q-148 1 -270 -46t-195 -143t-73 -241q0 -103 34.5 -170.5t86.5 -108.5t107.5 -63t97.5 -34l374 -110q42 -13 69.5 -29t42.5 -34t21.5 -38.5t6.5 -42.5q0 -60 -40.5 -101t-103.5 -62t-130 -21q-120 0 -220.5 71t-117.5 187h-293q10 -176 103 -287.5t221.5 -168t288.5 -56.5
q110 0 213.5 28zM653 1950l-166 -390h202l166 390h-202z" />
    <glyph glyph-name="sacute" unicode="&#x15b;" horiz-adv-x="1094" 
d="M894 65q120 95 120 261q0 84 -34 143.5t-108.5 102t-197.5 74.5q-126 32 -187.5 52t-81 39t-19.5 47q0 47 45.5 72t120.5 20q77 -6 122 -41t52 -95h279q-15 148 -75.5 220t-158.5 111t-225 39q-131 0 -227.5 -41.5t-149.5 -118t-53 -180.5q0 -83 35 -141.5t114 -100.5
t211 -76q117 -31 172.5 -50t71.5 -38.5t16 -51.5q0 -51 -40 -79.5t-114 -28.5q-90 0 -148.5 43t-75.5 119h-283q32 -211 157.5 -303.5t329.5 -92.5q212 0 332 95zM529 1590l-166 -390h202l166 390h-202z" />
    <glyph glyph-name="Scircumflex" unicode="&#x15c;" horiz-adv-x="1342" 
d="M897.5 -2q103.5 28 185.5 84.5t130.5 143t48.5 202.5q0 109 -40.5 180t-103 114.5t-130.5 68t-124 39.5l-250 68q-46 12 -90 30t-73 47.5t-29 76.5q0 51 35.5 88t92 56.5t120.5 17.5q65 -2 130.5 -21t107.5 -66t48 -131h292q-10 187 -97 283t-207.5 141.5t-269.5 47.5
q-148 1 -270 -46t-195 -143t-73 -241q0 -103 34.5 -170.5t86.5 -108.5t107.5 -63t97.5 -34l374 -110q42 -13 69.5 -29t42.5 -34t21.5 -38.5t6.5 -42.5q0 -60 -40.5 -101t-103.5 -62t-130 -21q-120 0 -220.5 71t-117.5 187h-293q10 -176 103 -287.5t221.5 -168t288.5 -56.5
q110 0 213.5 28zM644 1719q10 25 12.5 50.5t3.5 72.5h23q0 -46 2.5 -72t13 -51.5t33.5 -51.5l89 -107h250l-288 330h-224l-288 -330h250l90 108q23 26 33 51z" />
    <glyph glyph-name="scircumflex" unicode="&#x15d;" horiz-adv-x="1094" 
d="M894 65q120 95 120 261q0 84 -34 143.5t-108.5 102t-197.5 74.5q-126 32 -187.5 52t-81 39t-19.5 47q0 47 45.5 72t120.5 20q77 -6 122 -41t52 -95h279q-15 148 -75.5 220t-158.5 111t-225 39q-131 0 -227.5 -41.5t-149.5 -118t-53 -180.5q0 -83 35 -141.5t114 -100.5
t211 -76q117 -31 172.5 -50t71.5 -38.5t16 -51.5q0 -51 -40 -79.5t-114 -28.5q-90 0 -148.5 43t-75.5 119h-283q32 -211 157.5 -303.5t329.5 -92.5q212 0 332 95zM520 1359q10 25 12.5 50.5t3.5 72.5h23q0 -46 2.5 -72t13 -51.5t33.5 -51.5l89 -107h250l-288 330h-224
l-288 -330h250l90 108q23 26 33 51z" />
    <glyph glyph-name="Scedilla" unicode="&#x15e;" horiz-adv-x="1342" 
d="M897.5 -2q103.5 28 185.5 84.5t130.5 143t48.5 202.5q0 109 -40.5 180t-103 114.5t-130.5 68t-124 39.5l-250 68q-46 12 -90 30t-73 47.5t-29 76.5q0 51 35.5 88t92 56.5t120.5 17.5q65 -2 130.5 -21t107.5 -66t48 -131h292q-10 187 -97 283t-207.5 141.5t-269.5 47.5
q-148 1 -270 -46t-195 -143t-73 -241q0 -103 34.5 -170.5t86.5 -108.5t107.5 -63t97.5 -34l374 -110q42 -13 69.5 -29t42.5 -34t21.5 -38.5t6.5 -42.5q0 -60 -40.5 -101t-103.5 -62t-130 -21q-120 0 -220.5 71t-117.5 187h-293q10 -176 103 -287.5t221.5 -168t288.5 -56.5
q110 0 213.5 28zM628 -203q39 -18 38 -53q0 -16 -14.5 -31t-41.5 -15q-21 0 -60 12l-58 -156q30 -16 65 -27t77 -11q87 0 151.5 61.5t64.5 160.5q1 64 -31 112q-26 40 -72 68q-13 8 -13 22q0 5 1 8l29 88l-158 -2l-53 -154q-3 -11 -3 -19q0 -16 9.5 -28t26.5 -19
q23 -8 42 -17z" />
    <glyph glyph-name="scedilla" unicode="&#x15f;" horiz-adv-x="1094" 
d="M894 65q120 95 120 261q0 84 -34 143.5t-108.5 102t-197.5 74.5q-126 32 -187.5 52t-81 39t-19.5 47q0 47 45.5 72t120.5 20q77 -6 122 -41t52 -95h279q-15 148 -75.5 220t-158.5 111t-225 39q-131 0 -227.5 -41.5t-149.5 -118t-53 -180.5q0 -83 35 -141.5t114 -100.5
t211 -76q117 -31 172.5 -50t71.5 -38.5t16 -51.5q0 -51 -40 -79.5t-114 -28.5q-90 0 -148.5 43t-75.5 119h-283q32 -211 157.5 -303.5t329.5 -92.5q212 0 332 95zM504 -203q39 -18 38 -53q0 -16 -14.5 -31t-41.5 -15q-21 0 -60 12l-58 -156q30 -16 65 -27t77 -11
q87 0 151.5 61.5t64.5 160.5q1 64 -31 112q-26 40 -72 68q-13 8 -13 22q0 5 1 8l29 88l-158 -2l-53 -154q-3 -11 -3 -19q0 -16 9.5 -28t26.5 -19q23 -8 42 -17z" />
    <glyph glyph-name="Scaron" unicode="&#x160;" horiz-adv-x="1342" 
d="M897.5 -2q103.5 28 185.5 84.5t130.5 143t48.5 202.5q0 109 -40.5 180t-103 114.5t-130.5 68t-124 39.5l-250 68q-46 12 -90 30t-73 47.5t-29 76.5q0 51 35.5 88t92 56.5t120.5 17.5q65 -2 130.5 -21t107.5 -66t48 -131h292q-10 187 -97 283t-207.5 141.5t-269.5 47.5
q-148 1 -270 -46t-195 -143t-73 -241q0 -103 34.5 -170.5t86.5 -108.5t107.5 -63t97.5 -34l374 -110q42 -13 69.5 -29t42.5 -34t21.5 -38.5t6.5 -42.5q0 -60 -40.5 -101t-103.5 -62t-130 -21q-120 0 -220.5 71t-117.5 187h-293q10 -176 103 -287.5t221.5 -168t288.5 -56.5
q110 0 213.5 28zM783 1560l288 330h-250l-89 -107q-23 -26 -33.5 -51.5t-13 -51.5t-2.5 -72h-23q-1 47 -3.5 72.5t-12.5 50.5t-33 51l-90 108h-250l288 -330h224z" />
    <glyph glyph-name="scaron" unicode="&#x161;" horiz-adv-x="1094" 
d="M894 65q120 95 120 261q0 84 -34 143.5t-108.5 102t-197.5 74.5q-126 32 -187.5 52t-81 39t-19.5 47q0 47 45.5 72t120.5 20q77 -6 122 -41t52 -95h279q-15 148 -75.5 220t-158.5 111t-225 39q-131 0 -227.5 -41.5t-149.5 -118t-53 -180.5q0 -83 35 -141.5t114 -100.5
t211 -76q117 -31 172.5 -50t71.5 -38.5t16 -51.5q0 -51 -40 -79.5t-114 -28.5q-90 0 -148.5 43t-75.5 119h-283q32 -211 157.5 -303.5t329.5 -92.5q212 0 332 95zM659 1200l288 330h-250l-89 -107q-23 -26 -33.5 -51.5t-13 -51.5t-2.5 -72h-23q-1 47 -3.5 72.5t-12.5 50.5
t-33 51l-90 108h-250l288 -330h224z" />
    <glyph glyph-name="uni0162" unicode="&#x162;" horiz-adv-x="1220" 
d="M733.5 1170.5q-12.5 24.5 -38.5 50.5l15 17q55 -52 114 -52h376v254h-1180v-254h376q33 0 56 11.5t58 39.5l17 -16q-28 -30 -41.5 -53.5t-11.5 -52.5v-1115h272v1115q0 31 -12.5 55.5zM474 -753q138 -22 205 52t67 218v272h-272v-272h114l53 67l19 -13
q-50 -80 -56 -127.5t-36 -67t-78 -15.5z" />
    <glyph glyph-name="uni0163" unicode="&#x163;" horiz-adv-x="888" 
d="M788 220h-175t-115 60q-18 30 -20 80.5t-2 113.5v199q0 69 -21.5 100t-92.5 31v42h114v534h-272v-922q0 -97 2 -173.5t42 -150.5q44 -79 128.5 -112t192 -33h219.5v231zM788 1080h-768v-250h768v250zM566 -210q39 -18 38 -53q0 -16 -14.5 -31t-41.5 -15q-21 0 -60 12
l-58 -156q30 -16 65 -27t77 -11q87 0 151.5 61.5t64.5 160.5q1 64 -31 112q-26 40 -72 68q-13 8 -13 22q0 5 1 8l29 88l-158 -2l-53 -154q-3 -11 -3 -19q0 -16 9.5 -28t26.5 -19q23 -8 42 -17z" />
    <glyph glyph-name="Tcaron" unicode="&#x164;" horiz-adv-x="1220" 
d="M733.5 1170.5q-12.5 24.5 -38.5 50.5l15 17q55 -52 114 -52h376v254h-1180v-254h376q33 0 56 11.5t58 39.5l17 -16q-28 -30 -41.5 -53.5t-11.5 -52.5v-1115h272v1115q0 31 -12.5 55.5zM722 1560l288 330h-250l-89 -107q-23 -26 -33.5 -51.5t-13 -51.5t-2.5 -72h-23
q-1 47 -3.5 72.5t-12.5 50.5t-33 51l-90 108h-250l288 -330h224z" />
    <glyph glyph-name="tcaron" unicode="&#x165;" horiz-adv-x="1001" 
d="M788 220h-175t-115 60q-18 30 -20 80.5t-2 113.5v199q0 69 -21.5 100t-92.5 31v42h114v534h-272v-922q0 -97 2 -173.5t42 -150.5q44 -79 128.5 -112t192 -33h219.5v231zM788 1080h-768v-250h768v250zM599 1225q138 -22 205 52t67 218v272h-272v-272h114l53 67l19 -13
q-50 -80 -56 -127.5t-36 -67t-78 -15.5z" />
    <glyph glyph-name="Tbar" unicode="&#x166;" horiz-adv-x="1220" 
d="M733.5 1170.5q-12.5 24.5 -38.5 50.5l15 17q55 -52 114 -52h376v254h-1180v-254h376q33 0 56 11.5t58 39.5l17 -16q-28 -30 -41.5 -53.5t-11.5 -52.5v-1115h272v1115q0 31 -12.5 55.5zM1005 824h-790v-208h790v208z" />
    <glyph glyph-name="tbar" unicode="&#x167;" horiz-adv-x="888" 
d="M788 220h-175t-115 60q-18 30 -20 80.5t-2 113.5v199q0 69 -21.5 100t-92.5 31v42h114v534h-272v-922q0 -97 2 -173.5t42 -150.5q44 -79 128.5 -112t192 -33h219.5v231zM788 1080h-768v-250h768v250zM622 619h-544v-208h544v208z" />
    <glyph glyph-name="Utilde" unicode="&#x168;" horiz-adv-x="1452" 
d="M1032 40.5q132 70.5 206 198.5t74 301v900h-276v-898q0 -70 -23.5 -128t-65.5 -100t-98.5 -65t-122.5 -23q-64 0 -120.5 22.5t-99 64.5t-66.5 100t-24 129v898l-276 -2v-898q0 -173 74 -301t206 -198.5t306 -70.5t306 70.5zM1068 1651q44 91 12 221h-168q14 -51 2 -84.5
t-42 -33.5q-29 0 -64 22.5t-75.5 51.5t-85 51.5t-93.5 22.5q-126 0 -169.5 -90.5t-12.5 -221.5h168q-13 51 -1.5 84.5t41.5 33.5q29 0 64 -22.5t75.5 -51.5t85 -51.5t93.5 -22.5q126 0 170 91z" />
    <glyph glyph-name="utilde" unicode="&#x169;" horiz-adv-x="1272" 
d="M790.5 37q89.5 69 141.5 181t52 240l-126 74q0 -100 -22.5 -161.5t-57.5 -93t-75 -42.5t-75 -11q-87 0 -134.5 39t-68.5 97t-25 115.5t-4 94.5v510h-276v-606q0 -27 4 -86t23 -130.5t63.5 -137.5t124.5 -109t207 -43q159 0 248.5 69zM858 204h100q-24 -35 -45 -86
t-21 -88v-30h240v1080h-274v-876zM978 1291q44 91 12 221h-168q14 -51 2 -84.5t-42 -33.5q-29 0 -64 22.5t-75.5 51.5t-85 51.5t-93.5 22.5q-126 0 -169.5 -90.5t-12.5 -221.5h168q-13 51 -1.5 84.5t41.5 33.5q29 0 64 -22.5t75.5 -51.5t85 -51.5t93.5 -22.5q126 0 170 91z
" />
    <glyph glyph-name="Umacron" unicode="&#x16a;" horiz-adv-x="1452" 
d="M1032 40.5q132 70.5 206 198.5t74 301v900h-276v-898q0 -70 -23.5 -128t-65.5 -100t-98.5 -65t-122.5 -23q-64 0 -120.5 22.5t-99 64.5t-66.5 100t-24 129v898l-276 -2v-898q0 -173 74 -301t206 -198.5t306 -70.5t306 70.5zM998 1768h-544v-208h544v208z" />
    <glyph glyph-name="umacron" unicode="&#x16b;" horiz-adv-x="1272" 
d="M790.5 37q89.5 69 141.5 181t52 240l-126 74q0 -100 -22.5 -161.5t-57.5 -93t-75 -42.5t-75 -11q-87 0 -134.5 39t-68.5 97t-25 115.5t-4 94.5v510h-276v-606q0 -27 4 -86t23 -130.5t63.5 -137.5t124.5 -109t207 -43q159 0 248.5 69zM858 204h100q-24 -35 -45 -86
t-21 -88v-30h240v1080h-274v-876zM908 1408h-544v-208h544v208z" />
    <glyph glyph-name="Ubreve" unicode="&#x16c;" horiz-adv-x="1452" 
d="M1032 40.5q132 70.5 206 198.5t74 301v900h-276v-898q0 -70 -23.5 -128t-65.5 -100t-98.5 -65t-122.5 -23q-64 0 -120.5 22.5t-99 64.5t-66.5 100t-24 129v898l-276 -2v-898q0 -173 74 -301t206 -198.5t306 -70.5t306 70.5zM886 1603q72 43 115 115t43 160h-210
q0 -45 -31.5 -76.5t-76.5 -31.5t-76.5 31.5t-31.5 76.5h-210q0 -88 43 -160t115 -115t160 -43t160 43z" />
    <glyph glyph-name="ubreve" unicode="&#x16d;" horiz-adv-x="1272" 
d="M790.5 37q89.5 69 141.5 181t52 240l-126 74q0 -100 -22.5 -161.5t-57.5 -93t-75 -42.5t-75 -11q-87 0 -134.5 39t-68.5 97t-25 115.5t-4 94.5v510h-276v-606q0 -27 4 -86t23 -130.5t63.5 -137.5t124.5 -109t207 -43q159 0 248.5 69zM858 204h100q-24 -35 -45 -86
t-21 -88v-30h240v1080h-274v-876zM796 1243q72 43 115 115t43 160h-210q0 -45 -31.5 -76.5t-76.5 -31.5t-76.5 31.5t-31.5 76.5h-210q0 -88 43 -160t115 -115t160 -43t160 43z" />
    <glyph glyph-name="Uring" unicode="&#x16e;" horiz-adv-x="1452" 
d="M1032 40.5q132 70.5 206 198.5t74 301v900h-276v-898q0 -70 -23.5 -128t-65.5 -100t-98.5 -65t-122.5 -23q-64 0 -120.5 22.5t-99 64.5t-66.5 100t-24 129v898l-276 -2v-898q0 -173 74 -301t206 -198.5t306 -70.5t306 70.5zM862 1596.5q61 36.5 97.5 98t36.5 135.5
q0 75 -36.5 136t-97.5 97.5t-136 36.5q-74 0 -135.5 -36.5t-98 -97.5t-36.5 -136q0 -74 36.5 -135.5t98 -98t135.5 -36.5q75 0 136 36.5zM648.5 1752.5q-32.5 32.5 -32.5 77.5q0 46 32.5 78t77.5 32q46 0 78 -32t32 -78q0 -45 -32 -77.5t-78 -32.5q-45 0 -77.5 32.5z" />
    <glyph glyph-name="uring" unicode="&#x16f;" horiz-adv-x="1272" 
d="M790.5 37q89.5 69 141.5 181t52 240l-126 74q0 -100 -22.5 -161.5t-57.5 -93t-75 -42.5t-75 -11q-87 0 -134.5 39t-68.5 97t-25 115.5t-4 94.5v510h-276v-606q0 -27 4 -86t23 -130.5t63.5 -137.5t124.5 -109t207 -43q159 0 248.5 69zM858 204h100q-24 -35 -45 -86
t-21 -88v-30h240v1080h-274v-876zM772 1236.5q61 36.5 97.5 98t36.5 135.5q0 75 -36.5 136t-97.5 97.5t-136 36.5q-74 0 -135.5 -36.5t-98 -97.5t-36.5 -136q0 -74 36.5 -135.5t98 -98t135.5 -36.5q75 0 136 36.5zM558.5 1392.5q-32.5 32.5 -32.5 77.5q0 46 32.5 78t77.5 32
q46 0 78 -32t32 -78q0 -45 -32 -77.5t-78 -32.5q-45 0 -77.5 32.5z" />
    <glyph glyph-name="Uhungarumlaut" unicode="&#x170;" horiz-adv-x="1452" 
d="M1032 40.5q132 70.5 206 198.5t74 301v900h-276v-898q0 -70 -23.5 -128t-65.5 -100t-98.5 -65t-122.5 -23q-64 0 -120.5 22.5t-99 64.5t-66.5 100t-24 129v898l-276 -2v-898q0 -173 74 -301t206 -198.5t306 -70.5t306 70.5zM920 1950l-166 -390h202l166 390h-202z
M496 1950l-166 -390h202l166 390h-202z" />
    <glyph glyph-name="uhungarumlaut" unicode="&#x171;" horiz-adv-x="1272" 
d="M790.5 37q89.5 69 141.5 181t52 240l-126 74q0 -100 -22.5 -161.5t-57.5 -93t-75 -42.5t-75 -11q-87 0 -134.5 39t-68.5 97t-25 115.5t-4 94.5v510h-276v-606q0 -27 4 -86t23 -130.5t63.5 -137.5t124.5 -109t207 -43q159 0 248.5 69zM858 204h100q-24 -35 -45 -86
t-21 -88v-30h240v1080h-274v-876zM830 1590l-166 -390h202l166 390h-202zM406 1590l-166 -390h202l166 390h-202z" />
    <glyph glyph-name="Uogonek" unicode="&#x172;" horiz-adv-x="1452" 
d="M1032 40.5q132 70.5 206 198.5t74 301v900h-276v-898q0 -70 -23.5 -128t-65.5 -100t-98.5 -65t-122.5 -23q-64 0 -120.5 22.5t-99 64.5t-66.5 100t-24 129v898l-276 -2v-898q0 -173 74 -301t206 -198.5t306 -70.5t306 70.5zM976.5 -385.5q53.5 27.5 89.5 76.5l-94 124
q-18 -15 -35.5 -22.5t-32.5 -7.5q-22 0 -37 14.5t-15 35.5q0 31 29.5 73t79.5 84t111 73l-114 132q-89 -38 -160 -100t-112.5 -136t-41.5 -148q0 -59 28 -110.5t78 -83.5t116 -32q57 0 110.5 27.5z" />
    <glyph glyph-name="uogonek" unicode="&#x173;" horiz-adv-x="1272" 
d="M790.5 37q89.5 69 141.5 181t52 240l-126 74q0 -100 -22.5 -161.5t-57.5 -93t-75 -42.5t-75 -11q-87 0 -134.5 39t-68.5 97t-25 115.5t-4 94.5v510h-276v-606q0 -27 4 -86t23 -130.5t63.5 -137.5t124.5 -109t207 -43q159 0 248.5 69zM858 204h100q-24 -35 -45 -86
t-21 -88v-30h240v1080h-274v-876zM1036.5 -450.5q53.5 27.5 89.5 76.5l-94 124q-18 -15 -35.5 -22.5t-32.5 -7.5q-22 0 -37 14.5t-15 35.5q0 31 29.5 73t79.5 84t111 73l-114 132q-89 -38 -160 -100t-112.5 -136t-41.5 -148q0 -59 28 -110.5t78 -83.5t116 -32
q57 0 110.5 27.5z" />
    <glyph glyph-name="Wcircumflex" unicode="&#x174;" horiz-adv-x="1978" 
d="M960.5 946q17.5 136 17.5 261h30q0 -285 65 -525l195 -682h268l422 1440h-286l-195 -717q-31 -114 -49.5 -230t-18.5 -243h-23q0 127 -15.5 241t-42.5 232l-196 717l-286 -2l-192 -703q-37 -146 -51.5 -250t-14.5 -250h-23q0 140 -14.5 239t-51.5 258l-193 708h-286
l422 -1440h268l196 682q37 128 54.5 264zM962 1719q10 25 12.5 50.5t3.5 72.5h23q0 -46 2.5 -72t13 -51.5t33.5 -51.5l89 -107h250l-288 330h-224l-288 -330h250l90 108q23 26 33 51z" />
    <glyph glyph-name="wcircumflex" unicode="&#x175;" horiz-adv-x="1628" 
d="M799.5 684q5.5 50 6.5 138h23q0 -86 4.5 -137t21.5 -102l195 -583h208l330 1080h-266l-158 -518q-15 -57 -20 -103.5t-5 -118.5h-23q0 70 -6 117t-23 105l-160 518h-226l-160 -518q-16 -55 -22 -104t-6 -117h-23q0 71 -5.5 119.5t-21.5 102.5l-157 517l-266 2l330 -1082
h208l195 583q21 51 26.5 101zM787 1359q10 25 12.5 50.5t3.5 72.5h23q0 -46 2.5 -72t13 -51.5t33.5 -51.5l89 -107h250l-288 330h-224l-288 -330h250l90 108q23 26 33 51z" />
    <glyph glyph-name="Ycircumflex" unicode="&#x176;" horiz-adv-x="1260" 
d="M768 586l492 854h-318l-231 -402q-38 -63 -52 -127.5t-14 -154.5h-23q0 91 -15 155t-57 127l-232 402h-318l492 -854v-586h276v586zM603 1719q10 25 12.5 50.5t3.5 72.5h23q0 -46 2.5 -72t13 -51.5t33.5 -51.5l89 -107h250l-288 330h-224l-288 -330h250l90 108
q23 26 33 51z" />
    <glyph glyph-name="ycircumflex" unicode="&#x177;" horiz-adv-x="1140" 
d="M1140 1080h-272l-228 -595q-24 -62 -34 -125.5t-10 -136.5h-23q0 79 -8.5 141t-32.5 121l-230 595h-282l436 -1071l-178 -489h252zM543 1359q10 25 12.5 50.5t3.5 72.5h23q0 -46 2.5 -72t13 -51.5t33.5 -51.5l89 -107h250l-288 330h-224l-288 -330h250l90 108
q23 26 33 51z" />
    <glyph glyph-name="Ydieresis" unicode="&#x178;" horiz-adv-x="1260" 
d="M768 586l492 854h-318l-231 -402q-38 -63 -52 -127.5t-14 -154.5h-23q0 91 -15 155t-57 127l-232 402h-318l492 -854v-586h276v586zM962 1800h-240v-240h240v240zM538 1800h-240v-240h240v240z" />
    <glyph glyph-name="Zacute" unicode="&#x179;" horiz-adv-x="1360" 
d="M1240 256h-495q-77 0 -135 -15t-125 -54l-12 20q72 43 111 80t78 105l578 956v92h-1080v-254h477q61 0 123 19.5t141 57.5l13 -19q-74 -41 -119.5 -79.5t-70.5 -84.5l-564 -988v-92h1080v256zM662 1950l-166 -390h202l166 390h-202z" />
    <glyph glyph-name="zacute" unicode="&#x17a;" horiz-adv-x="1070" 
d="M970 236h-399q-51 0 -89 -13.5t-101 -47.5l-11 20q56 31 89.5 58.5t64.5 70.5l446 632v124h-870v-236h380q79 0 180 46l11 -20q-111 -43 -151 -102l-420 -643v-125h870v236zM517 1590l-166 -390h202l166 390h-202z" />
    <glyph glyph-name="Zdotaccent" unicode="&#x17b;" horiz-adv-x="1360" 
d="M1240 256h-495q-77 0 -135 -15t-125 -54l-12 20q72 43 111 80t78 105l578 956v92h-1080v-254h477q61 0 123 19.5t141 57.5l13 -19q-74 -41 -119.5 -79.5t-70.5 -84.5l-564 -988v-92h1080v256zM816 1876h-272v-272h272v272z" />
    <glyph glyph-name="zdotaccent" unicode="&#x17c;" horiz-adv-x="1070" 
d="M970 236h-399q-51 0 -89 -13.5t-101 -47.5l-11 20q56 31 89.5 58.5t64.5 70.5l446 632v124h-870v-236h380q79 0 180 46l11 -20q-111 -43 -151 -102l-420 -643v-125h870v236zM671 1516h-272v-272h272v272z" />
    <glyph glyph-name="Zcaron" unicode="&#x17d;" horiz-adv-x="1360" 
d="M1240 256h-495q-77 0 -135 -15t-125 -54l-12 20q72 43 111 80t78 105l578 956v92h-1080v-254h477q61 0 123 19.5t141 57.5l13 -19q-74 -41 -119.5 -79.5t-70.5 -84.5l-564 -988v-92h1080v256zM792 1560l288 330h-250l-89 -107q-23 -26 -33.5 -51.5t-13 -51.5t-2.5 -72
h-23q-1 47 -3.5 72.5t-12.5 50.5t-33 51l-90 108h-250l288 -330h224z" />
    <glyph glyph-name="zcaron" unicode="&#x17e;" horiz-adv-x="1070" 
d="M970 236h-399q-51 0 -89 -13.5t-101 -47.5l-11 20q56 31 89.5 58.5t64.5 70.5l446 632v124h-870v-236h380q79 0 180 46l11 -20q-111 -43 -151 -102l-420 -643v-125h870v236zM647 1200l288 330h-250l-89 -107q-23 -26 -33.5 -51.5t-13 -51.5t-2.5 -72h-23q-1 47 -3.5 72.5
t-12.5 50.5t-33 51l-90 108h-250l288 -330h224z" />
    <glyph glyph-name="uni0218" unicode="&#x218;" horiz-adv-x="1342" 
d="M897.5 -2q103.5 28 185.5 84.5t130.5 143t48.5 202.5q0 109 -40.5 180t-103 114.5t-130.5 68t-124 39.5l-250 68q-46 12 -90 30t-73 47.5t-29 76.5q0 51 35.5 88t92 56.5t120.5 17.5q65 -2 130.5 -21t107.5 -66t48 -131h292q-10 187 -97 283t-207.5 141.5t-269.5 47.5
q-148 1 -270 -46t-195 -143t-73 -241q0 -103 34.5 -170.5t86.5 -108.5t107.5 -63t97.5 -34l374 -110q42 -13 69.5 -29t42.5 -34t21.5 -38.5t6.5 -42.5q0 -60 -40.5 -101t-103.5 -62t-130 -21q-120 0 -220.5 71t-117.5 187h-293q10 -176 103 -287.5t221.5 -168t288.5 -56.5
q110 0 213.5 28zM531 -751q138 -22 205 52t67 218v272h-272v-272h114l53 67l19 -13q-50 -80 -56 -127.5t-36 -67t-78 -15.5z" />
    <glyph glyph-name="uni0219" unicode="&#x219;" horiz-adv-x="1094" 
d="M894 65q120 95 120 261q0 84 -34 143.5t-108.5 102t-197.5 74.5q-126 32 -187.5 52t-81 39t-19.5 47q0 47 45.5 72t120.5 20q77 -6 122 -41t52 -95h279q-15 148 -75.5 220t-158.5 111t-225 39q-131 0 -227.5 -41.5t-149.5 -118t-53 -180.5q0 -83 35 -141.5t114 -100.5
t211 -76q117 -31 172.5 -50t71.5 -38.5t16 -51.5q0 -51 -40 -79.5t-114 -28.5q-90 0 -148.5 43t-75.5 119h-283q32 -211 157.5 -303.5t329.5 -92.5q212 0 332 95zM409 -740q138 -22 205 52t67 218v272h-272v-272h114l53 67l19 -13q-50 -80 -56 -127.5t-36 -67t-78 -15.5z
" />
    <glyph glyph-name="uni021A" unicode="&#x21a;" horiz-adv-x="1220" 
d="M733.5 1170.5q-12.5 24.5 -38.5 50.5l15 17q55 -52 114 -52h376v254h-1180v-254h376q33 0 56 11.5t58 39.5l17 -16q-28 -30 -41.5 -53.5t-11.5 -52.5v-1115h272v1115q0 31 -12.5 55.5zM474 -722q138 -22 205 52t67 218v272h-272v-272h114l53 67l19 -13
q-50 -80 -56 -127.5t-36 -67t-78 -15.5z" />
    <glyph glyph-name="uni021B" unicode="&#x21b;" horiz-adv-x="888" 
d="M788 220h-175t-115 60q-18 30 -20 80.5t-2 113.5v199q0 69 -21.5 100t-92.5 31v42h114v534h-272v-922q0 -97 2 -173.5t42 -150.5q44 -79 128.5 -112t192 -33h219.5v231zM788 1080h-768v-250h768v250zM384 -680q138 -22 205 52t67 218v272h-272v-272h114l53 67l19 -13
q-50 -80 -56 -127.5t-36 -67t-78 -15.5z" />
    <glyph glyph-name="circumflex" unicode="&#x2c6;" horiz-adv-x="1200" 
d="M569 1359q10 25 12.5 50.5t3.5 72.5h23q0 -46 2.5 -72t13 -51.5t33.5 -51.5l89 -107h250l-288 330h-224l-288 -330h250l90 108q23 26 33 51z" />
    <glyph glyph-name="caron" unicode="&#x2c7;" horiz-adv-x="1200" 
d="M708 1200l288 330h-250l-89 -107q-23 -26 -33.5 -51.5t-13 -51.5t-2.5 -72h-23q-1 47 -3.5 72.5t-12.5 50.5t-33 51l-90 108h-250l288 -330h224z" />
    <glyph glyph-name="uni02C9" unicode="&#x2c9;" horiz-adv-x="754" 
d="M684 1447h-611v-210h611v210z" />
    <glyph glyph-name="breve" unicode="&#x2d8;" horiz-adv-x="1116" 
d="M718 1243q72 43 115 115t43 160h-210q0 -45 -31.5 -76.5t-76.5 -31.5t-76.5 31.5t-31.5 76.5h-210q0 -88 43 -160t115 -115t160 -43t160 43z" />
    <glyph glyph-name="dotaccent" unicode="&#x2d9;" horiz-adv-x="752" 
d="M512 1516h-272v-272h272v272z" />
    <glyph glyph-name="ring" unicode="&#x2da;" horiz-adv-x="1140" 
d="M706 1236.5q61 36.5 97.5 98t36.5 135.5q0 75 -36.5 136t-97.5 97.5t-136 36.5q-74 0 -135.5 -36.5t-98 -97.5t-36.5 -136q0 -74 36.5 -135.5t98 -98t135.5 -36.5q75 0 136 36.5zM492.5 1392.5q-32.5 32.5 -32.5 77.5q0 46 32.5 78t77.5 32q46 0 78 -32t32 -78
q0 -45 -32 -77.5t-78 -32.5q-45 0 -77.5 32.5z" />
    <glyph glyph-name="ogonek" unicode="&#x2db;" horiz-adv-x="902" 
d="M570.5 -450.5q53.5 27.5 89.5 76.5l-94 124q-18 -15 -35.5 -22.5t-32.5 -7.5q-22 0 -37 14.5t-15 35.5q0 31 29.5 73t79.5 84t111 73l-114 132q-89 -38 -160 -100t-112.5 -136t-41.5 -148q0 -59 28 -110.5t78 -83.5t116 -32q57 0 110.5 27.5z" />
    <glyph glyph-name="tilde" unicode="&#x2dc;" horiz-adv-x="1180" 
d="M932 1291q44 91 12 221h-168q14 -51 2 -84.5t-42 -33.5q-29 0 -64 22.5t-75.5 51.5t-85 51.5t-93.5 22.5q-126 0 -169.5 -90.5t-12.5 -221.5h168q-13 51 -1.5 84.5t41.5 33.5q29 0 64 -22.5t75.5 -51.5t85 -51.5t93.5 -22.5q126 0 170 91z" />
    <glyph glyph-name="hungarumlaut" unicode="&#x2dd;" horiz-adv-x="1196" 
d="M790 1590l-166 -390h202l166 390h-202zM366 1590l-166 -390h202l166 390h-202z" />
    <glyph glyph-name="uni0374" unicode="&#x374;" horiz-adv-x="648" 
d="M256 1050l-166 -390h202l166 390h-202z" />
    <glyph glyph-name="uni0375" unicode="&#x375;" horiz-adv-x="648" 
d="M256 -522l-166 -390h202l166 390h-202z" />
    <glyph glyph-name="uni037E" unicode="&#x37e;" horiz-adv-x="712" 
d="M220 -270q138 -22 205 52t67 218v272h-272v-272h114l53 67l19 -13q-50 -80 -56 -127.5t-36 -67t-78 -15.5zM492 1080h-272v-272h272v272z" />
    <glyph glyph-name="anoteleia" unicode="&#x387;" horiz-adv-x="1200" 
d="M393.5 515.5q46.5 45.5 46.5 114.5t-46.5 114.5t-109.5 45.5q-69 0 -116.5 -45.5t-47.5 -114.5t47.5 -114.5t116.5 -45.5q63 0 109.5 45.5z" />
    <glyph glyph-name="uni0394" unicode="&#x394;" horiz-adv-x="1366" 
d="M1326 0l-440 1440h-406l-440 -1440h1286zM393.5 314.5q42.5 59.5 65.5 142.5l178 588q24 64 30.5 115.5t6.5 134.5h23q0 -25 1 -37q1 -71 5 -115t20 -98l183 -588q27 -84 69.5 -142.5t110.5 -115.5l-15 -22q-60 34 -125 56t-117 21h-291q-52 0 -122 -23t-125 -58l-13 19
q73 63 115.5 122.5z" />
    <glyph glyph-name="uni03A9" unicode="&#x3a9;" horiz-adv-x="1516" 
d="M600 254q-45 23 -89.5 65t-81.5 101.5t-59 136.5t-22 171q0 101 28 189.5t81.5 155t129.5 104t171 37.5t171 -37.5t129.5 -104.5t81.5 -155.5t28 -190.5q0 -120 -35.5 -215t-91.5 -160.5t-117 -96.5v-254h512v254h-70q-58 0 -108.5 -13t-92 -31.5t-111.5 -55.5v23
q294 167 348 299t54 288q0 149 -50 277.5t-142.5 224.5t-220.5 150t-285 54t-285 -54t-220.5 -150t-142.5 -224.5t-50 -277.5q0 -156 54.5 -288t355.5 -299v-23q-40 18 -60 28q-75 36 -129.5 54t-120.5 18h-80v-254h520v254z" />
    <glyph glyph-name="uni03BC" unicode="&#x3bc;" horiz-adv-x="1290" 
d="M363.5 -22.5q-14.5 16.5 -54.5 51.5l6 10q101 -54 146 -62.5t99 -8.5q117 0 204.5 39t145.5 105v-112h240v1080h-274v-548q0 -100 -22.5 -161.5t-57.5 -93t-75 -42.5t-75 -11q-87 0 -134.5 39t-68.5 97t-25 115.5t-4 94.5v510h-276v-1560h240v383q0 58 -14.5 74.5z" />
    <glyph glyph-name="Wgrave" unicode="&#x1e80;" horiz-adv-x="1978" 
d="M960.5 946q17.5 136 17.5 261h30q0 -285 65 -525l195 -682h268l422 1440h-286l-195 -717q-31 -114 -49.5 -230t-18.5 -243h-23q0 127 -15.5 241t-42.5 232l-196 717l-286 -2l-192 -703q-37 -146 -51.5 -250t-14.5 -250h-23q0 140 -14.5 239t-51.5 258l-193 708h-286
l422 -1440h268l196 682q37 128 54.5 264zM1007 1950h-202l166 -390h202z" />
    <glyph glyph-name="wgrave" unicode="&#x1e81;" horiz-adv-x="1628" 
d="M799.5 684q5.5 50 6.5 138h23q0 -86 4.5 -137t21.5 -102l195 -583h208l330 1080h-266l-158 -518q-15 -57 -20 -103.5t-5 -118.5h-23q0 70 -6 117t-23 105l-160 518h-226l-160 -518q-16 -55 -22 -104t-6 -117h-23q0 71 -5.5 119.5t-21.5 102.5l-157 517l-266 2l330 -1082
h208l195 583q21 51 26.5 101zM832 1590h-202l166 -390h202z" />
    <glyph glyph-name="Wacute" unicode="&#x1e82;" horiz-adv-x="1978" 
d="M960.5 946q17.5 136 17.5 261h30q0 -285 65 -525l195 -682h268l422 1440h-286l-195 -717q-31 -114 -49.5 -230t-18.5 -243h-23q0 127 -15.5 241t-42.5 232l-196 717l-286 -2l-192 -703q-37 -146 -51.5 -250t-14.5 -250h-23q0 140 -14.5 239t-51.5 258l-193 708h-286
l422 -1440h268l196 682q37 128 54.5 264zM971 1950l-166 -390h202l166 390h-202z" />
    <glyph glyph-name="wacute" unicode="&#x1e83;" horiz-adv-x="1628" 
d="M799.5 684q5.5 50 6.5 138h23q0 -86 4.5 -137t21.5 -102l195 -583h208l330 1080h-266l-158 -518q-15 -57 -20 -103.5t-5 -118.5h-23q0 70 -6 117t-23 105l-160 518h-226l-160 -518q-16 -55 -22 -104t-6 -117h-23q0 71 -5.5 119.5t-21.5 102.5l-157 517l-266 2l330 -1082
h208l195 583q21 51 26.5 101zM796 1590l-166 -390h202l166 390h-202z" />
    <glyph glyph-name="Wdieresis" unicode="&#x1e84;" horiz-adv-x="1978" 
d="M960.5 946q17.5 136 17.5 261h30q0 -285 65 -525l195 -682h268l422 1440h-286l-195 -717q-31 -114 -49.5 -230t-18.5 -243h-23q0 127 -15.5 241t-42.5 232l-196 717l-286 -2l-192 -703q-37 -146 -51.5 -250t-14.5 -250h-23q0 140 -14.5 239t-51.5 258l-193 708h-286
l422 -1440h268l196 682q37 128 54.5 264zM1321 1800h-240v-240h240v240zM897 1800h-240v-240h240v240z" />
    <glyph glyph-name="wdieresis" unicode="&#x1e85;" horiz-adv-x="1628" 
d="M799.5 684q5.5 50 6.5 138h23q0 -86 4.5 -137t21.5 -102l195 -583h208l330 1080h-266l-158 -518q-15 -57 -20 -103.5t-5 -118.5h-23q0 70 -6 117t-23 105l-160 518h-226l-160 -518q-16 -55 -22 -104t-6 -117h-23q0 71 -5.5 119.5t-21.5 102.5l-157 517l-266 2l330 -1082
h208l195 583q21 51 26.5 101zM1146 1440h-240v-240h240v240zM722 1440h-240v-240h240v240z" />
    <glyph glyph-name="uni2011" unicode="&#x2011;" horiz-adv-x="840" 
d="M720 736h-600v-210h600v210z" />
    <glyph glyph-name="endash" unicode="&#x2013;" horiz-adv-x="1080" 
d="M960 736h-840v-210h840v210z" />
    <glyph glyph-name="emdash" unicode="&#x2014;" horiz-adv-x="1560" 
d="M1440 736h-1320v-210h1320v210z" />
    <glyph glyph-name="quoteleft" unicode="&#x2018;" horiz-adv-x="610" 
d="M414 1012q-48 -4 -78 15.5t-36 67t-56 127.5l19 13l53 -67h114v272h-272v-272q0 -144 67 -218t205 -52z" />
    <glyph glyph-name="quoteright" unicode="&#x2019;" horiz-adv-x="610" 
d="M180 898q138 -22 205 52t67 218v272h-272v-272h114l53 67l19 -13q-50 -80 -56 -127.5t-36 -67t-78 -15.5z" />
    <glyph glyph-name="quotesinglbase" unicode="&#x201a;" horiz-adv-x="632" 
d="M120 -270q138 -22 205 52t67 218v272h-272v-272h114l53 67l19 -13q-50 -80 -56 -127.5t-36 -67t-78 -15.5z" />
    <glyph glyph-name="quotedblleft" unicode="&#x201c;" horiz-adv-x="954" 
d="M432 1440q-138 22 -205 -52t-67 -218v-272h272v272h-114l-53 -67l-19 13q50 80 56 127.5t36 67t78 15.5zM794 1440q-138 22 -205 -52t-67 -218v-272h272v272h-114l-53 -67l-19 13q50 80 56 127.5t36 67t78 15.5z" />
    <glyph glyph-name="quotedblright" unicode="&#x201d;" horiz-adv-x="954" 
d="M160 898q138 -22 205 52t67 218v272h-272v-272h114l53 67l19 -13q-50 -80 -56 -127.5t-36 -67t-78 -15.5zM522 898q138 -22 205 52t67 218v272h-272v-272h114l53 67l19 -13q-50 -80 -56 -127.5t-36 -67t-78 -15.5z" />
    <glyph glyph-name="quotedblbase" unicode="&#x201e;" horiz-adv-x="954" 
d="M160 -270q138 -22 205 52t67 218v272h-272v-272h114l53 67l19 -13q-50 -80 -56 -127.5t-36 -67t-78 -15.5zM522 -270q138 -22 205 52t67 218v272h-272v-272h114l53 67l19 -13q-50 -80 -56 -127.5t-36 -67t-78 -15.5z" />
    <glyph glyph-name="uni201F" unicode="&#x201f;" horiz-adv-x="954" 
d="M416 1034q-48 -4 -78 15.5t-36 67t-56 127.5l19 13l53 -67h114v272h-272v-272q0 -144 67 -218t205 -52zM778 1034q-48 -4 -78 15.5t-36 67t-56 127.5l19 13l53 -67h114v272h-272v-272q0 -144 67 -218t205 -52z" />
    <glyph glyph-name="dagger" unicode="&#x2020;" horiz-adv-x="1080" 
d="M676 870h284v210h-217q-74 0 -103 -23l-16 16q24 20 38 52t14 67v248h-272v-360h-284v-210h205q35 -1 64.5 12.5t60.5 42.5l15 -17q-32 -32 -46.5 -60t-14.5 -68v-780h272v870z" />
    <glyph glyph-name="daggerdbl" unicode="&#x2021;" horiz-adv-x="960" 
d="M616 426h224v210h-174q-29 0 -49.5 -8.5t-53.5 -28.5l-16 16q34 25 51.5 46t17.5 50v159h224v210h-146q-30 0 -50.5 -10t-38.5 -23.5l-26 -19.5l-16 16q26 27 39.5 53t13.5 59v285h-272v-360h-222v-210h151q34 0 58 12t54 36l16 -16q-27 -27 -42 -52.5t-15 -56.5v-157
h-222v-210h135q29 0 51 11t41 26t27 21l16 -16q-26 -31 -37 -54.5t-11 -58.5v-355h272v426z" />
    <glyph glyph-name="bullet" unicode="&#x2022;" horiz-adv-x="1440" 
d="M873 369.5q67 39.5 107 107.5t40 153q0 86 -40 154t-107 107t-147 39q-85 0 -154 -39t-110.5 -107t-41.5 -154q0 -85 41 -153t110.5 -107.5t154.5 -39.5q80 0 147 39.5z" />
    <glyph glyph-name="ellipsis" unicode="&#x2026;" horiz-adv-x="1472" 
d="M432 272h-272v-272h272v272zM872 272h-272v-272h272v272zM1312 272h-272v-272h272v272z" />
    <glyph glyph-name="perthousand" unicode="&#x2030;" horiz-adv-x="2620" 
d="M1501 18.5q82 48.5 130.5 130t48.5 181.5t-48.5 181.5t-130.5 130t-181 48.5q-96 0 -178 -49t-132 -131t-50 -180q0 -100 49 -181.5t130.5 -130t180.5 -48.5t181 48.5zM1255.5 218q-29.5 18 -47.5 47.5t-18 64.5t18 64.5t47.5 47.5t64.5 18t64.5 -18t47.5 -47.5t18 -64.5
t-18 -64.5t-47.5 -47.5t-64.5 -18t-64.5 18zM660.5 798.5q81.5 48.5 130.5 130t49 181.5t-49 181.5t-130.5 130t-180.5 48.5q-96 0 -178 -49t-132 -131t-50 -180q0 -100 48.5 -181.5t130.5 -130t181 -48.5t180.5 48.5zM415.5 998q-29.5 18 -47.5 47.5t-18 64.5t18 64.5
t47.5 47.5t64.5 18t64.5 -18t47.5 -47.5t18 -64.5t-18 -64.5t-47.5 -47.5t-64.5 -18t-64.5 18zM2321 18.5q82 48.5 130.5 130t48.5 181.5t-48.5 181.5t-130.5 130t-181 48.5q-96 0 -178 -49t-132 -131t-50 -180q0 -100 49 -181.5t130.5 -130t180.5 -48.5t181 48.5z
M2075.5 218q-29.5 18 -47.5 47.5t-18 64.5t18 64.5t47.5 47.5t64.5 18t64.5 -18t47.5 -47.5t18 -64.5t-18 -64.5t-47.5 -47.5t-64.5 -18t-64.5 18zM928.5 589q19.5 41 19.5 75q0 21 -9 37l16 16q18 -8 37 -8q34 0 73.5 17.5t67.5 43.5l487 488l-180 182l-507 -507
q-24 -23 -44 -62t-20 -75q0 -19 7 -34l-17 -17q-12 5 -31 5q-34 0 -73 -19.5t-71 -46.5l-504 -504l180 -180l524 523q25 25 44.5 66z" />
    <glyph glyph-name="guilsinglleft" unicode="&#x2039;" horiz-adv-x="1290" 
d="M620.5 580q-71.5 38 -158.5 38v23q90 0 162 36t140 107l168 162l-168 168l-484 -484l484 -484l168 168l-160 154q-80 74 -151.5 112z" />
    <glyph glyph-name="guilsinglright" unicode="&#x203a;" horiz-adv-x="1290" 
d="M280 314l168 -168l484 484l-484 484l-168 -168l168 -162q68 -71 140 -107t162 -36v-23q-87 0 -158.5 -38t-151.5 -112z" />
    <glyph glyph-name="fraction" unicode="&#x2044;" horiz-adv-x="546" 
d="M678 1454l-964 -1340l154 -114l964 1338z" />
    <glyph glyph-name="uni2060" unicode="&#x2060;" horiz-adv-x="600" 
 />
    <glyph glyph-name="uni2070" unicode="&#x2070;" horiz-adv-x="952" 
d="M649 563q75 42 117 135t42 278v29q0 185 -42 277.5t-117 134.5t-175 42t-175 -42t-116.5 -134.5t-41.5 -277.5v-29q0 -185 41.5 -278t116.5 -135t175 -42t175 42zM393 704q-36 21 -57.5 101t-21.5 170v31q0 90 21.5 170t57.5 101.5t81 21.5t81.5 -21.5t57.5 -101.5
t21 -170v-31q0 -90 -21 -170t-57.5 -101t-81.5 -21t-81 21z" />
    <glyph glyph-name="uni2074" unicode="&#x2074;" horiz-adv-x="844" 
d="M659 686h80v157h-38q-33 0 -78 -39l-9 11q23 18 34 34t11 41v283h-171v-330h-128q-35 0 -60 -10.5t-60 -38.5l-10 12q6 4 27 20t35 30t21 28l262 556h-194l-281 -597v-157h326q26 0 52.5 12t40.5 28l10 -10q-16 -16 -28.5 -41.5t-12.5 -54.5v-73h171v139z" />
    <glyph glyph-name="uni2075" unicode="&#x2075;" horiz-adv-x="812" 
d="M567 573q72 40 116 108t44 152q0 85 -36 150.5t-100.5 103t-148.5 37.5q-37 0 -75 -11t-89 -67l-11 8q27 32 40.5 46t13.5 54l6 89q3 26 -6.5 39.5t-30.5 40.5l11 9q25 -24 38 -34.5t41 -10.5h288v158h-487l-28 -475l143 -44q15 15 44.5 30.5t76.5 15.5q39 0 71 -18.5
t50.5 -50t18.5 -70.5q0 -38 -18.5 -69.5t-50.5 -50t-71 -18.5q-29 0 -56.5 12.5t-48 35.5t-29.5 55l-162 -44q19 -66 61.5 -115.5t102 -77.5t126.5 -28q84 0 156 40z" />
    <glyph glyph-name="uni2076" unicode="&#x2076;" horiz-adv-x="874" 
d="M600 552q71 40 113.5 108t42.5 152q0 85 -36 150.5t-100.5 103.5t-148.5 38q-54 0 -100.5 -24.5t-113.5 -108.5l-12 9q33 41 47 60t14 56v29q0 41 19.5 77t55.5 59t84 23q58 0 104.5 -14.5t120.5 -68.5v159q-48 43 -100.5 62t-124.5 19q-101 0 -175 -41t-115 -117.5
t-41 -182.5v-259q0 -97 41 -171.5t111 -116t159 -41.5q84 0 155 40zM375 693q-32 19 -50.5 50.5t-18.5 68.5q0 39 19 71t51 51t70 19q39 0 70.5 -19t50 -51t18.5 -71q0 -38 -19 -69.5t-51 -50t-70 -18.5t-70 19z" />
    <glyph glyph-name="uni2077" unicode="&#x2077;" horiz-adv-x="748" 
d="M662 1277v159h-563v-159h277q90 0 158 47l9 -12q-30 -20 -55 -48t-43 -76l-265 -645h183z" />
    <glyph glyph-name="uni2078" unicode="&#x2078;" horiz-adv-x="874" 
d="M610 550q71 37 111 102t40 133q0 86 -57.5 151t-151.5 68v14q85 7 134.5 57t49.5 127q0 62 -36.5 120t-101.5 89.5t-149 31.5q-85 0 -149.5 -31.5t-101.5 -89.5t-37 -120q0 -93 51 -138.5t125 -46.5v-14q-85 2 -142.5 -57t-57.5 -161q0 -68 40 -133t110.5 -102t161.5 -37
q90 0 161 37zM352.5 704.5q-36.5 32.5 -36.5 95.5q0 62 36.5 95.5t96.5 33.5q59 0 96.5 -33.5t37.5 -95.5q0 -63 -37.5 -95.5t-96.5 -32.5q-60 0 -96.5 32.5zM370 1113q-30 24 -30 74t30 74.5t79 24.5q48 0 78.5 -24.5t30.5 -74.5t-30.5 -74t-78.5 -24q-49 0 -79 24z" />
    <glyph glyph-name="uni2079" unicode="&#x2079;" horiz-adv-x="874" 
d="M291 1411q-71 -40 -113.5 -108t-42.5 -152t36 -150t100.5 -103.5t148.5 -37.5q54 0 100.5 24.5t114.5 107.5l11 -8q-33 -42 -47 -60.5t-14 -55.5v-29q0 -41 -19.5 -77.5t-55 -59t-84.5 -22.5q-72 0 -106.5 10t-104.5 48v-154q35 -23 87 -42.5t124 -19.5q101 0 175 41.5
t115 118t41 181.5v260q0 97 -41 171t-111 115.5t-159 41.5q-84 0 -155 -40zM516 1271q32 -19 50.5 -51t18.5 -69q0 -38 -19 -70t-51 -51t-70 -19q-39 0 -70.5 19t-50 51t-18.5 70q0 39 19 70.5t51 50t70 18.5t70 -19z" />
    <glyph glyph-name="uni2080" unicode="&#x2080;" horiz-adv-x="952" 
d="M649 23q75 42 117 135t42 278v29q0 185 -42 277.5t-117 134.5t-175 42t-175 -42t-116.5 -134.5t-41.5 -277.5v-29q0 -185 41.5 -278t116.5 -135t175 -42t175 42zM393 164q-36 21 -57.5 101t-21.5 170v31q0 90 21.5 170t57.5 101.5t81 21.5t81.5 -21.5t57.5 -101.5
t21 -170v-31q0 -90 -21 -170t-57.5 -101t-81.5 -21t-81 21z" />
    <glyph glyph-name="uni2081" unicode="&#x2081;" horiz-adv-x="703" 
d="M414 900h-172l-168 -101v-186l114 70q53 30 83 88l12 -8q-41 -71 -41 -132v-624h172v893z" />
    <glyph glyph-name="uni2082" unicode="&#x2082;" horiz-adv-x="832" 
d="M725 169h-270q-52 0 -82 -5t-86 -22l-5 14q57 19 82 28t67 46l130 114q54 46 90.5 83t55 81t18.5 110q0 90 -39.5 158t-109 106t-156.5 38q-96 0 -167.5 -36.5t-112 -103.5t-40.5 -158h174q-2 37 16 69t50.5 51.5t75.5 19.5q41 0 71.5 -18.5t47 -50.5t16.5 -73
q0 -28 -17 -61t-60 -70l-374 -332v-147h625v159z" />
    <glyph glyph-name="uni2083" unicode="&#x2083;" horiz-adv-x="818" 
d="M562.5 23.5q70.5 39.5 113 106.5t42.5 151q0 69 -27.5 130t-83.5 106t-182 26l-1 14q59 5 79 6t58 37l141 134v159h-558v-159h251q45 0 77.5 5.5t90.5 27.5l5 -14q-52 -18 -65.5 -25t-54.5 -40l-186 -154l76 -132q16 9 33.5 14.5t35.5 5.5q62 0 101 -41.5t39 -99.5
q0 -38 -18.5 -69.5t-50.5 -50t-71 -18.5q-44 0 -82.5 27t-51.5 76l-163 -44q19 -66 64 -115t105.5 -76t127.5 -27q85 0 155.5 39.5z" />
    <glyph glyph-name="uni2084" unicode="&#x2084;" horiz-adv-x="844" 
d="M659 146h80v157h-38q-33 0 -78 -39l-9 11q23 18 34 34t11 41v283h-171v-330h-128q-35 0 -60 -10.5t-60 -38.5l-10 12q6 4 27 20t35 30t21 28l262 556h-194l-281 -597v-157h326q26 0 52.5 12t40.5 28l10 -10q-16 -16 -28.5 -41.5t-12.5 -54.5v-73h171v139z" />
    <glyph glyph-name="uni2085" unicode="&#x2085;" horiz-adv-x="812" 
d="M567 33q72 40 116 108t44 152q0 85 -36 150.5t-100.5 103t-148.5 37.5q-37 0 -75 -11t-89 -67l-11 8q27 32 40.5 46t13.5 54l6 89q3 26 -6.5 39.5t-30.5 40.5l11 9q25 -24 38 -34.5t41 -10.5h288v158h-487l-28 -475l143 -44q15 15 44.5 30.5t76.5 15.5q39 0 71 -18.5
t50.5 -50t18.5 -70.5q0 -38 -18.5 -69.5t-50.5 -50t-71 -18.5q-29 0 -56.5 12.5t-48 35.5t-29.5 55l-162 -44q19 -66 61.5 -115.5t102 -77.5t126.5 -28q84 0 156 40z" />
    <glyph glyph-name="uni2086" unicode="&#x2086;" horiz-adv-x="874" 
d="M600 12q71 40 113.5 108t42.5 152q0 85 -36 150.5t-100.5 103.5t-148.5 38q-54 0 -100.5 -24.5t-113.5 -108.5l-12 9q33 41 47 60t14 56v29q0 41 19.5 77t55.5 59t84 23q58 0 104.5 -14.5t120.5 -68.5v159q-48 43 -100.5 62t-124.5 19q-101 0 -175 -41t-115 -117.5
t-41 -182.5v-259q0 -97 41 -171.5t111 -116t159 -41.5q84 0 155 40zM375 153q-32 19 -50.5 50.5t-18.5 68.5q0 39 19 71t51 51t70 19q39 0 70.5 -19t50 -51t18.5 -71q0 -38 -19 -69.5t-51 -50t-70 -18.5t-70 19z" />
    <glyph glyph-name="uni2087" unicode="&#x2087;" horiz-adv-x="748" 
d="M662 737v159h-563v-159h277q90 0 158 47l9 -12q-30 -20 -55 -48t-43 -76l-265 -645h183z" />
    <glyph glyph-name="uni2088" unicode="&#x2088;" horiz-adv-x="874" 
d="M610 10q71 37 111 102t40 133q0 86 -57.5 151t-151.5 68v14q85 7 134.5 57t49.5 127q0 62 -36.5 120t-101.5 89.5t-149 31.5q-85 0 -149.5 -31.5t-101.5 -89.5t-37 -120q0 -93 51 -138.5t125 -46.5v-14q-85 2 -142.5 -57t-57.5 -161q0 -68 40 -133t110.5 -102t161.5 -37
q90 0 161 37zM352.5 164.5q-36.5 32.5 -36.5 95.5q0 62 36.5 95.5t96.5 33.5q59 0 96.5 -33.5t37.5 -95.5q0 -63 -37.5 -95.5t-96.5 -32.5q-60 0 -96.5 32.5zM370 573q-30 24 -30 74t30 74.5t79 24.5q48 0 78.5 -24.5t30.5 -74.5t-30.5 -74t-78.5 -24q-49 0 -79 24z" />
    <glyph glyph-name="uni2089" unicode="&#x2089;" horiz-adv-x="874" 
d="M243 870q-71 -40 -113.5 -108t-42.5 -152t36 -150t100.5 -103.5t148.5 -37.5q54 0 100.5 24.5t114.5 107.5l11 -8q-33 -42 -47 -60.5t-14 -55.5v-29q0 -41 -19.5 -77.5t-55 -59t-84.5 -22.5q-72 0 -106.5 10t-104.5 48v-154q35 -23 87 -42.5t124 -19.5q101 0 175 41.5
t115 118t41 181.5v260q0 97 -41 171t-111 115.5t-159 41.5q-84 0 -155 -40zM468 730q32 -19 50.5 -51t18.5 -69q0 -38 -19 -70t-51 -51t-70 -19q-39 0 -70.5 19t-50 51t-18.5 70q0 39 19 70.5t51 50t70 18.5t70 -19z" />
    <glyph glyph-name="uni20A9" unicode="&#x20a9;" horiz-adv-x="2058" 
d="M1998 825h-1938v-210h1938v210zM1000.5 946q17.5 136 17.5 261h30q0 -285 65 -525l195 -682h268l422 1440h-286l-195 -717q-31 -114 -49.5 -230t-18.5 -243h-23q0 127 -15.5 241t-42.5 232l-196 717l-286 -2l-192 -703q-37 -146 -51.5 -250t-14.5 -250h-23
q0 140 -14.5 239t-51.5 258l-193 708h-286l422 -1440h268l196 682q37 128 54.5 264z" />
    <glyph glyph-name="dong" unicode="&#x20ab;" horiz-adv-x="1250" 
d="M1140 202h-960v-202h960v202zM1234 1440h-544v-182h544v182zM788 338.5q100 63.5 150 172.5t50 247q0 137 -49.5 246t-146.5 172.5t-239 63.5q-143 0 -249.5 -62.5t-165 -171.5t-58.5 -248q0 -138 57.5 -247t161 -172.5t241.5 -63.5q148 0 248 63.5zM836 1520v-292
q0 -27 18 -60t52 -61l-25 -15l-45 40v-205h34v-504l39 46l29 -18q-27 -25 -47.5 -62t-20.5 -70v-19h240v1220h-274zM478 517q-56 37 -83 100.5t-27 140.5q0 76 28 139t86.5 100.5t149.5 37.5q85 0 137.5 -34.5t76.5 -97t24 -145.5t-24 -146t-78.5 -97.5t-145.5 -34.5
q-88 0 -144 37z" />
    <glyph glyph-name="Euro" unicode="&#x20ac;" horiz-adv-x="1388" 
d="M1123.5 -2.5q99.5 27.5 184.5 82.5v267q-249 -124 -388 -121q-135 -2 -226 59.5t-137.5 173.5t-48.5 261q2 147 47.5 259t136 174.5t228.5 62.5q86 0 174.5 -19.5t213.5 -81.5v247q-84 54 -182.5 81t-205.5 27q-213 0 -368 -93.5t-241 -262t-91 -394.5q5 -221 91 -390
t241 -264.5t368 -95.5q104 0 203.5 27.5zM1020 656h-960v-210h960v210zM1020 992h-292q-67 0 -114.5 -34t-64.5 -94h-38l40 128h-491v-210h960v210z" />
    <glyph glyph-name="uni20AE" unicode="&#x20ae;" horiz-adv-x="1220" 
d="M970 666l-720 -293v-263l720 292v264zM970 1080l-720 -293v-263l720 292v264zM733.5 1170.5q-12.5 24.5 -38.5 50.5l15 17q55 -52 114 -52h376v254h-1180v-254h376q33 0 56 11.5t58 39.5l17 -16q-28 -30 -41.5 -53.5t-11.5 -52.5v-1115h272v1115q0 31 -12.5 55.5z" />
    <glyph glyph-name="uni20B1" unicode="&#x20b1;" horiz-adv-x="1304" 
d="M1264 1096h-1214v-146h1214v146zM1264 860h-1214v-145h1214v145zM436 347.5q-7 12.5 -43 39.5l13 19q39 -27 54 -30.5t71 -3.5h134q20 0 56 2t64 6q128 20 210.5 85t122 163.5t39.5 335.5q0 121 -39 219.5t-121.5 163t-211.5 85.5q-28 4 -63.5 6t-56.5 2h-494v-1440h272
v277q0 58 -7 70.5zM429.5 641q13.5 24 13.5 66v390q0 77 -52 139l19 13q31 -35 56 -49t67 -14h120q21 0 46 -2t46 -8q55 -15 85 -50.5t41.5 -79t11.5 -82.5q0 -155 -11.5 -198.5t-41.5 -79t-85 -50.5q-21 -6 -46 -8t-46 -2h-120q-46 0 -75 -12.5t-57 -40.5l-16 16
q31 28 44.5 52z" />
    <glyph glyph-name="uni20B4" unicode="&#x20b4;" horiz-adv-x="1280" 
d="M878.5 26q112.5 56 181.5 168q27 44 45 96t21 98h-280q-4 -13 -9 -27t-13 -25q-36 -54 -80 -81t-104 -27q-28 0 -64 8t-72 32q-33 23 -47.5 51.5t-14.5 68.5q0 41 16 65.5t56 52.5q56 39 111 58.5t117.5 42.5t141.5 73h-596l-22.5 -22.5l-5.5 -5.5q-55 -58 -80.5 -124.5
t-25.5 -137.5q0 -109 56 -208t158 -152q53 -27 126.5 -43.5t145.5 -16.5q126 0 238.5 56zM1200 680h-1120v-210h1120v210zM1200 972h-1120l2 -210h1118v210zM990 762q28 28 52 64q33 50 50.5 108.5t17.5 113.5q0 83 -36 166t-96 138q-60 56 -146.5 87t-181.5 31
q-117 0 -219 -49.5t-167 -142.5q-31 -45 -53.5 -104t-28.5 -122h288q3 17 8.5 35t17.5 37q20 32 58.5 60t95.5 28q39 0 74 -15.5t60 -44.5q20 -21 29 -44.5t9 -55.5q0 -13 -2.5 -34.5t-13.5 -39.5q-19 -32 -66 -61.5t-107.5 -56.5t-119.5 -51.5t-101 -46.5h578z" />
    <glyph glyph-name="uni20BA" unicode="&#x20ba;" horiz-adv-x="1354" 
d="M259 0q101 -23 190 -26t175 7q202 23 337.5 124.5t204 256.5t68.5 338h-263q0 -93 -26.5 -171t-76 -136.5t-118.5 -93.5t-155 -43q-10 0 -30.5 0.5t-45.5 -7.5t-67 -38l-13 19q37 26 64.5 76.5t27.5 113.5v466l-104 -43l-14 22q118 65 118 160v274l-102 -41l-10 21
q56 31 84 59t28 65v37h-272v-1440zM800 995l-720 -293v-259l720 292v260zM800 1409l-720 -293v-259l720 292v260z" />
    <glyph glyph-name="uni20BD" unicode="&#x20bd;" horiz-adv-x="1451" 
d="M1020 390h-880v-210h880v210zM556 463.5q-7 12.5 -43 39.5l13 19q39 -27 54 -30.5t71 -3.5h248q20 0 56 2t64 6q128 20 210.5 85t122 163.5t39.5 219.5t-39 219.5t-121.5 163t-211.5 85.5q-28 4 -63.5 6t-56.5 2h-608v-1440h272v393q0 58 -7 70.5zM549.5 757
q13.5 24 13.5 66v274q0 77 -52 139l19 13q31 -35 56 -49t67 -14h234q21 0 46 -2t46 -8q55 -15 85 -50.5t41.5 -79t11.5 -82.5t-11.5 -82.5t-41.5 -79t-85 -50.5q-21 -6 -46 -8t-46 -2h-234q-46 0 -75 -12.5t-57 -40.5l-16 16q31 28 44.5 52zM383 742h-243v-254h243v254z" />
    <glyph glyph-name="uni20BF" unicode="&#x20bf;" horiz-adv-x="1274" 
d="M517 40h-222v-240h222v240zM517 1638h-222v-240h222v240zM889 40h-222v-240h222v240zM889 1638h-222v-240h222v240zM778 0q147 0 244 55.5t144.5 153.5t47.5 227q0 120 -67.5 217t-202.5 125v-50q95 27 149.5 107t54.5 201q0 95 -44 188t-139 154.5t-249 61.5h-576v-1440
h638zM401.5 277q14.5 31 14.5 57v223q0 26 -10 50.5t-27 35.5l15 18q13 -13 41.5 -25t48.5 -12h266q63 0 105.5 -23.5t63.5 -63.5t21 -91q0 -58 -24.5 -100.5t-67.5 -66t-98 -23.5h-266q-21 0 -53 -11t-44 -27l-17 16q17 12 31.5 43zM402.5 902.5q13.5 24.5 13.5 48.5v183
q0 21 -11.5 44t-27.5 42l17 16q12 -18 41 -34t49 -16h228q78 0 119 -45t41 -111q0 -53 -21 -86.5t-57 -50t-82 -15.5l-228 4q-23 0 -53.5 -10.5t-44.5 -22.5l-15 18q18 11 31.5 35.5z" />
    <glyph glyph-name="uni2116" unicode="&#x2116;" horiz-adv-x="2280" 
d="M397.5 944q-18.5 118 -51.5 225l22 7q41 -128 91 -242t120 -224l463 -710h276v1440h-276v-777q0 -64 20 -156.5t58 -224.5l-22 -7q-54 148 -89.5 227t-100.5 184l-492 754h-276v-1440h276v710q0 116 -18.5 234zM2000.5 798.5q81.5 48.5 130.5 130t49 181.5t-49 181.5
t-130.5 130t-180.5 48.5q-96 0 -178 -49t-132 -131t-50 -180q0 -100 48.5 -181.5t130.5 -130t181 -48.5t180.5 48.5zM1755.5 998q-29.5 18 -47.5 47.5t-18 64.5t18 64.5t47.5 47.5t64.5 18t64.5 -18t47.5 -47.5t18 -64.5t-18 -64.5t-47.5 -47.5t-64.5 -18t-64.5 18z
M2120 660h-600v-210h600v210z" />
    <glyph glyph-name="trademark" unicode="&#x2122;" horiz-adv-x="1721" 
d="M542.5 1244.5q-11.5 29.5 -36.5 56.5l16 17q28 -28 63.5 -43.5t74.5 -15.5h140v181h-680v-181h145q35 0 68.5 15t62.5 44l20 -17q-30 -28 -40 -54t-10 -71v-486h188v486q0 39 -11.5 68.5zM1052.5 1023q-4.5 25 -15.5 66l12 4q22 -85 40 -118l143 -285h50l153 305
q9 22 13.5 42.5t5.5 26.5q1 7 5 28l12 -3l-5 -27q-9 -40 -9 -70v-302h175v750h-170l-190 -393q-5 -11 -6.5 -29t-1.5 -50h-12q0 8 -0.5 27t-2.5 32t-6 20l-191 393h-170v-750h175v286q0 22 -4.5 47z" />
    <glyph glyph-name="arrowleft" unicode="&#x2190;" horiz-adv-x="2030" 
d="M622.5 761q24.5 3 49.5 15.5t52 40.5l170 170l-126 128l-484 -484l484 -484l126 128l-170 170q-27 27 -52 39.5t-49.5 15t-69.5 2.5v23h1201v210h-1201v23q45 0 69.5 3z" />
    <glyph glyph-name="arrowup" unicode="&#x2191;" horiz-adv-x="1448" 
d="M620 1201v-1201h210v1201h23q0 -45 2.5 -69.5t15 -49.5t39.5 -52l170 -170l128 126l-484 484l-484 -484l128 -126l170 170q28 27 40.5 52t15.5 49.5t3 69.5h23z" />
    <glyph glyph-name="arrowright" unicode="&#x2192;" horiz-adv-x="2030" 
d="M1409.5 504q-24.5 -3 -49.5 -15.5t-52 -40.5l-170 -170l126 -128l484 484l-484 484l-126 -128l170 -170q27 -27 52 -39.5t49.5 -15t69.5 -2.5v-23h-1201v-210h1201v-23q-45 0 -69.5 -3z" />
    <glyph glyph-name="arrowdown" unicode="&#x2193;" horiz-adv-x="1448" 
d="M594 168.5q-3 24.5 -15.5 49.5t-40.5 52l-170 170l-128 -126l484 -484l484 484l-128 126l-170 -170q-27 -27 -39.5 -52t-15 -49.5t-2.5 -69.5h-23v1201h-210v-1201h-23q0 45 -3 69.5z" />
    <glyph glyph-name="carriagereturn" unicode="&#x21b5;" horiz-adv-x="1648" 
d="M645.5 483q-55.5 18 -111.5 18v23h994v916h-210v-704h-784v23q54 0 110 18.5t86 48.5l160 160l-126 128l-484 -484l484 -484l126 128l-160 160q-29 31 -84.5 49z" />
    <glyph glyph-name="partialdiff" unicode="&#x2202;" horiz-adv-x="1202" 
d="M881.5 38q116.5 68 178.5 189.5t62 282.5q0 153 -14 294t-57.5 267t-130.5 233q-91 113 -214.5 162.5t-339.5 53.5v-257q153 -6 234 -32t157 -80q82 -58 116.5 -132t45.5 -173l-24 -7q-27 84 -76 120.5t-104.5 56.5t-112.5 20q-152 0 -270 -67t-185 -187t-67 -280
q0 -156 66 -276t183.5 -188t272.5 -68q163 0 279.5 68zM415.5 288q-63.5 78 -63.5 216q0 135 62 213.5t188 78.5q120 0 184 -78.5t64 -213.5q0 -132 -62.5 -213t-185.5 -81t-186.5 78z" />
    <glyph glyph-name="emptyset" unicode="&#x2205;" horiz-adv-x="1200" 
d="M1022 1094l-962 -960l100 -100l962 958zM794 79q95 41 167.5 113.5t113.5 167.5t41 204q0 108 -41 203t-113.5 167t-167.5 113t-204 41q-108 0 -203 -41t-167 -113t-113 -167t-41 -203q0 -109 41 -204t113 -167.5t167 -113.5t203 -41q109 0 204 41zM413.5 262
q-79.5 48 -126.5 127.5t-47 174.5q0 97 47 176.5t126.5 126.5t176.5 47q95 0 174.5 -47t127.5 -126.5t48 -176.5q0 -95 -48 -174.5t-127.5 -127.5t-174.5 -48q-97 0 -176.5 48z" />
    <glyph glyph-name="product" unicode="&#x220f;" horiz-adv-x="1244" 
d="M370.5 1212.5q-21.5 44.5 -58.5 77.5l15 18q56 -42 90.5 -60t78.5 -18h266q49 0 90 18.5t86 59.5l16 -16q-47 -42 -74.5 -84.5t-27.5 -80.5v-1127h272v1440h-1004v-1440h272v1127q0 41 -21.5 85.5z" />
    <glyph glyph-name="summation" unicode="&#x2211;" horiz-adv-x="1138" 
d="M1018 104h-379q-41 1 -105 -12t-150 -36l-11 20l30 10q43 15 67 25.5t49 30.5l499 390v96l-439 344q-55 42 -98.5 67t-111.5 54l11 20q122 -57 259 -57h379v244h-898v-244l497 -397q35 -29 70 -43t70.5 -18.5t98.5 -6.5v-23q-65 -4 -99.5 -8.5t-69.5 -17.5t-70 -41
l-497 -397v-244h898v244z" />
    <glyph glyph-name="minus" unicode="&#x2212;" horiz-adv-x="1080" 
d="M960 826h-840v-210h840v210z" />
    <glyph glyph-name="uni2215" unicode="&#x2215;" horiz-adv-x="896" 
d="M293 0l483 1440h-173l-483 -1440h173z" />
    <glyph glyph-name="radical" unicode="&#x221a;" horiz-adv-x="1194" 
d="M742 0l502 1596h-232l-456 -1432l-22 7q21 68 30.5 114.5t9.5 90.5q0 55 -18 125l-43 135q-23 73 -84 117.5t-137 44.5h-268v-200h133q62 0 110.5 -36t67.5 -95l147 -467h260z" />
    <glyph glyph-name="infinity" unicode="&#x221e;" horiz-adv-x="1502" 
d="M570 171.5q70 27.5 111 88t60 192.5h22q19 -98 56 -175.5t105 -105t138 -27.5q109 0 192.5 57.5t130.5 157t47 225.5q0 133 -51 228t-135 145.5t-184 50.5q-68 0 -136 -30t-106 -110t-57 -168h-22q-19 157 -102.5 232.5t-196.5 75.5q-111 0 -193.5 -59t-129 -157
t-49.5 -216q-3 -127 42.5 -224.5t128 -152.5t191.5 -55q68 0 138 27.5zM362.5 411q-36.5 23 -58.5 65t-22 100t22 100t58.5 65t81.5 23q124 0 201.5 -49.5t76.5 -138.5q1 -88 -76.5 -138t-201.5 -50q-45 0 -81.5 23zM858.5 438q-77.5 50 -76.5 138q-1 89 76.5 138.5
t201.5 49.5q45 0 82 -23t58.5 -65t21.5 -100t-21.5 -100t-58.5 -65t-82 -23q-124 0 -201.5 50z" />
    <glyph glyph-name="approxequal" unicode="&#x2248;" horiz-adv-x="1466" 
d="M1072 814q58 46 82 124.5t4 175.5h-196q18 -66 4.5 -114t-52.5 -48q-33 0 -70.5 30t-83 70t-101.5 70t-127 30q-78 0 -136 -43.5t-83 -121.5t-5 -181h196q-14 53 -11.5 89t18.5 54.5t41 18.5q35 0 73 -30t82.5 -70t99.5 -70t125 -30q82 0 140 46zM1072 352.5
q58 46.5 82 125t4 174.5h-196q12 -46 10 -82.5t-17 -58t-41 -21.5q-33 0 -70.5 30t-83 70t-101.5 70t-127 30q-78 0 -136 -43.5t-83 -121.5t-5 -181h196q-14 54 -11.5 90t18.5 54t41 18q35 0 72.5 -30t82 -70t100 -70t125.5 -30q82 0 140 46.5z" />
    <glyph glyph-name="notequal" unicode="&#x2260;" horiz-adv-x="1500" 
d="M1002 1260l-672 -960l172 -120l670 960zM1260 1020h-33q-40 0 -96 -32t-90 -76l-19 13l65 95h-847v-210h1020v210zM472 538l21 -14l-74 -104h841v210h-1020v-210h37q108 0 195 118z" />
    <glyph glyph-name="lessequal" unicode="&#x2264;" horiz-adv-x="1500" 
d="M638.5 696.5q-95.5 10.5 -209.5 14.5v23q118 5 212 15t182 31l437 120v210l-1020 -308v-160l1020 -308v210l-437 120q-89 22 -184.5 32.5zM1260 210h-1020v-210h1020v210z" />
    <glyph glyph-name="greaterequal" unicode="&#x2265;" horiz-adv-x="1500" 
d="M240 544v-210l1020 308v160l-1020 308v-210l437 -120q88 -21 182 -31t212 -15v-23q-114 -4 -209.5 -14.5t-184.5 -32.5zM1260 0v210h-1020v-210h1020z" />
    <glyph glyph-name="lozenge" unicode="&#x25ca;" horiz-adv-x="1114" 
d="M1014 674l-290 694h-334l-290 -694l290 -694h334zM535.5 226.5q-8.5 58.5 -37.5 132.5l-130 315l130 316q22 52 31.5 96t11.5 86t2 117h27v-49q0 -81 8 -133.5t36 -116.5l132 -316l-131 -315q-29 -75 -38.5 -134t-9.5 -151h-23q0 94 -8.5 152.5z" />
    <glyph glyph-name="zero.tf" horiz-adv-x="1240" 
d="M900 37q120 67 187 213t67 408v125q0 262 -67 407.5t-187 212.5t-280 67t-280 -67t-187 -212.5t-67 -407.5v-125q0 -262 67 -408t187 -213t280 -67t280 67zM490 262q-58 34 -92 144t-34 246v138q0 137 34 246.5t92 143.5t130 34t130 -34t92 -143.5t34 -246.5v-138
q0 -136 -34 -246t-92 -144t-130 -34t-130 34z" />
    <glyph glyph-name="one.tf" horiz-adv-x="1240" 
d="M844 1440h-278l-270 -162v-300l183 112q87 50 134 142l20 -12q-29 -51 -48 -103.5t-19 -110.5v-1006h278v1440z" />
    <glyph glyph-name="two.tf" horiz-adv-x="1240" 
d="M1122 258h-436q-83 0 -131.5 -8t-139.5 -36l-8 23q92 30 132.5 45t108.5 74l210 184q86 75 145 134.5t89 130t30 177.5q0 145 -64 255t-175.5 171.5t-252.5 61.5q-154 0 -270 -59t-181 -167t-65 -256h280q-2 60 27 111.5t81.5 83t121.5 31.5q66 0 115 -29.5t76 -81
t27 -117.5q0 -46 -28 -99t-96 -113l-604 -536v-236h1008v256z" />
    <glyph glyph-name="three.tf" horiz-adv-x="1240" 
d="M840 37.5q114 63.5 183 172t69 244.5q0 111 -44.5 209.5t-135 170.5t-293.5 41l-2 23q95 9 127.5 10t93.5 59l228 217v256h-900v-256h404q73 0 125 8.5t146 44.5l8 -22q-84 -30 -105.5 -41t-88.5 -64l-299 -248l122 -214q26 15 54 23.5t58 8.5q99 0 162.5 -66.5
t63.5 -159.5q0 -62 -30.5 -113t-82 -81t-113.5 -30q-72 0 -133.5 43.5t-82.5 122.5l-264 -70q31 -107 103.5 -186t170.5 -122.5t206 -43.5q136 0 250 63.5z" />
    <glyph glyph-name="four.tf" horiz-adv-x="1240" 
d="M1020 224h128v254h-61q-30 0 -60 -17t-66 -46l-14 18q36 28 54.5 54.5t18.5 65.5v457h-276v-532h-206q-57 0 -98 -17.5t-97 -61.5l-15 18l16 12q48 35 75 60t42 55l423 896h-312l-454 -962v-254h526q41 0 84.5 19.5t65.5 45.5l16 -17q-26 -26 -46 -67t-20 -87v-118h276
v224z" />
    <glyph glyph-name="five.tf" horiz-adv-x="1240" 
d="M852 34.5q116 64.5 187 174t71 245.5t-58.5 241.5t-162 166t-239.5 60.5q-60 0 -121 -17.5t-143 -108.5l-19 13q44 52 66 75t22 87l9 143q5 43 -10.5 64.5t-48.5 64.5l17 15q41 -39 61.5 -55.5t65.5 -16.5h465v254h-786l-44 -766l230 -70q24 23 72 48.5t124 25.5
q62 0 113.5 -30t82 -81t30.5 -113t-30.5 -113t-82 -81t-113.5 -30q-47 0 -91.5 20.5t-78 57.5t-46.5 88l-262 -70q30 -106 99 -186t164.5 -125t204.5 -45q136 0 252 64.5z" />
    <glyph glyph-name="six.tf" horiz-adv-x="1240" 
d="M870 34.5q114 64.5 183 174t69 245.5t-58.5 242t-162 167t-239.5 61q-87 0 -162 -39.5t-184 -174.5l-18 14q52 67 75 97t23 90v47q0 66 31.5 124.5t89 95t135.5 36.5q94 0 169 -23.5t194 -110.5v257q-78 69 -162 100t-201 31q-162 0 -282 -66.5t-186 -190t-66 -293.5
v-418q0 -157 66 -276.5t179.5 -186.5t256.5 -67q136 0 250 64.5zM507 261q-51 31 -81 82t-30 111q0 62 30.5 113.5t82 82t113.5 30.5t113 -30.5t81 -82t30 -113.5t-30.5 -113t-82 -81t-113.5 -30t-113 31z" />
    <glyph glyph-name="seven.tf" horiz-adv-x="1240" 
d="M1076 1184v256h-908v-256h447q87 0 146.5 21.5t108.5 53.5l15 -19q-48 -32 -88.5 -77t-69.5 -122l-427 -1041h294z" />
    <glyph glyph-name="eight.tf" horiz-adv-x="1240" 
d="M878 29.5q114 59.5 179 164t65 214.5q0 138 -92.5 243t-245.5 110v23q138 11 218 92t80 204q0 101 -59.5 194t-164 144.5t-240.5 51.5t-240.5 -51.5t-164 -144.5t-59.5 -194q0 -150 82.5 -223t201.5 -75v-23q-137 4 -229.5 -91t-92.5 -260q0 -110 64.5 -214.5t178 -164
t259.5 -59.5t260 59.5zM463 278q-59 52 -59 154q0 101 59 154.5t155 53.5t156 -53.5t60 -154.5q0 -102 -60 -154t-156 -52t-155 52zM491 936.5q-49 38.5 -49 119.5t49 120.5t127 39.5t127 -39.5t49 -120.5t-49 -119.5t-127 -38.5t-127 38.5z" />
    <glyph glyph-name="nine.tf" horiz-adv-x="1240" 
d="M392 1403.5q-114 -64.5 -183 -174t-69 -245.5t58.5 -242t162 -167t239.5 -61q87 0 162 39.5t184 174.5l18 -14q-52 -67 -75 -97t-23 -90v-47q0 -66 -31.5 -124.5t-89 -95t-135.5 -36.5q-116 0 -171.5 16t-168.5 78v-248q55 -38 139 -69t201 -31q162 0 282 66.5t186 190
t66 293.5v418q0 157 -66 276.5t-179.5 186.5t-256.5 67q-136 0 -250 -64.5zM755 1177q51 -31 81 -82t30 -111q0 -62 -30.5 -113.5t-82 -82t-113.5 -30.5t-113 30.5t-81 82t-30 113.5t30.5 113t82 81t113.5 30t113 -31z" />
    <glyph glyph-name="colon.case" horiz-adv-x="714" 
d="M492 512h-272v-272h272v272zM494 1200h-272v-272h272v272z" />
    <glyph glyph-name="exclamdown.case" horiz-adv-x="752" 
d="M512 1200v240h-272v-240h272zM512 0v1080h-272v-1080h272z" />
    <glyph glyph-name="questiondown.case" horiz-adv-x="1126" 
d="M444 1050q0 -55 -5.5 -84t-34.5 -76q-15 -23 -34.5 -44.5t-44 -46t-55.5 -57.5q-72 -76 -121 -165t-49 -199q0 -67 24.5 -135t67.5 -119q66 -81 167 -116.5t215 -35.5q69 0 138 20.5t126 57.5q78 51 127 140.5t61 195.5h-288q2 -39 -11.5 -71t-42.5 -53
q-22 -18 -54.5 -26t-67.5 -8q-45 0 -84.5 14.5t-63.5 47.5q-15 20 -20.5 44.5t-5.5 51.5q0 53 14 96t54 88q53 56 91.5 87t68 60.5t54.5 80.5q32 54 47 120t15 132h-288zM444 1152h286v288h-286v-288z" />
    <glyph glyph-name="periodcentered.case" horiz-adv-x="560" 
d="M393.5 605.5q46.5 45.5 46.5 114.5t-46.5 114.5t-109.5 45.5q-69 0 -116.5 -45.5t-47.5 -114.5t47.5 -114.5t116.5 -45.5q63 0 109.5 45.5z" />
    <glyph glyph-name="parenleft.case" horiz-adv-x="924" 
d="M844 -180q-122 147 -191 293.5t-97.5 297t-29.5 309.5q1 159 29.5 309.5t97.5 297t191 293.5l-202 148q-116 -136 -198.5 -308.5t-125 -362.5t-38.5 -377q-4 -187 38.5 -376.5t125 -362.5t198.5 -309z" />
    <glyph glyph-name="parenright.case" horiz-adv-x="924" 
d="M282 -328q116 136 198.5 309t125 362.5t38.5 376.5q4 187 -38.5 377t-125 362.5t-198.5 308.5l-202 -148q122 -147 191 -293.5t97.5 -297t29.5 -309.5q-1 -159 -29.5 -309.5t-97.5 -297t-191 -293.5z" />
    <glyph glyph-name="braceleft.case" horiz-adv-x="918" 
d="M838 -136h-122q-24 0 -41 17.5t-17 42.5v565q0 209 -99 217l-89 7v23l89 7q99 8 99 208v565q0 24 17 41t41 17h122v256h-142q-138 0 -216 -78.5t-78 -215.5v-584q0 -15 -10 -32l-90 -87q-54 -52 -54 -113t54 -113l90 -87q10 -13 10 -32v-584q0 -138 78 -216t216 -78h142
v254z" />
    <glyph glyph-name="braceright.case" horiz-adv-x="918" 
d="M224 -373q138 0 216 78t78 216v584q0 19 10 32l90 87q54 52 54 113t-54 113l-90 87q-10 17 -10 32v584q0 137 -78 215.5t-216 78.5h-142v-256h122q24 0 41 -17t17 -41v-565q0 -200 99 -208l89 -7v-23l-89 -7q-99 -8 -99 -217v-565q0 -25 -17 -42.5t-41 -17.5h-122v-254
h142z" />
    <glyph glyph-name="bracketleft.case" horiz-adv-x="858" 
d="M738 -150h-111q-49 1 -91.5 -16t-92.5 -49l-16 17q4 5 33 36t44.5 65.5t15.5 68.5v1520q0 55 -15 85.5t-53 66.5l15 17q38 -36 75.5 -53.5t84.5 -17.5h111v240h-458v-2220h458v240z" />
    <glyph glyph-name="bracketright.case" horiz-adv-x="858" 
d="M120 1830v-240h111q47 0 84.5 17.5t75.5 53.5l15 -17q-38 -36 -53 -66.5t-15 -85.5v-1520q0 -34 13.5 -63.5t29.5 -49.5t50 -57l-16 -17q-50 32 -92.5 49t-91.5 16h-111v-240h458v2220h-458z" />
    <glyph glyph-name="hyphen.case" horiz-adv-x="840" 
d="M720 826h-600v-210h600v210z" />
    <glyph glyph-name="endash.case" horiz-adv-x="1080" 
d="M960 826h-840v-210h840v210z" />
    <glyph glyph-name="emdash.case" horiz-adv-x="1560" 
d="M1440 826h-1320v-210h1320v210z" />
    <glyph glyph-name="guillemotleft.case" horiz-adv-x="1206" 
d="M841.5 675q-47.5 35 -102.5 38v22q53 1 99.5 35t98.5 97l149 187l-142 112l-354 -446l354 -446l142 112l-149 187q-48 67 -95.5 102zM436 652.5q-32 29.5 -65.5 42t-80.5 14.5v28q49 0 82 11t64 39t74 83l146 184l-142 112l-354 -446l354 -446l142 112l-145 182
q-43 55 -75 84.5z" />
    <glyph glyph-name="guillemotright.case" horiz-adv-x="1206" 
d="M160 206l142 -112l354 446l-354 446l-142 -112l149 -187q52 -63 98.5 -97t99.5 -35v-22q-55 -3 -102.5 -38t-95.5 -102zM590 206l142 -112l354 446l-354 446l-142 -112l146 -184q43 -55 74 -83t64 -39t82 -11v-28q-47 -2 -80.5 -14.5t-65.5 -42t-75 -84.5z" />
    <glyph glyph-name="greater.case" horiz-adv-x="1290" 
d="M526 1204l-168 -168l168 -162q68 -71 140 -107t162 -36v-23q-87 0 -158.5 -38t-151.5 -112l-160 -154l168 -168l484 484z" />
    <glyph glyph-name="less.case" horiz-adv-x="1290" 
d="M620.5 670q-71.5 38 -158.5 38v23q90 0 162 36t140 107l168 162l-168 168l-484 -484l484 -484l168 168l-160 154q-80 74 -151.5 112z" />
    <glyph glyph-name="arrowright.case" horiz-adv-x="2030" 
d="M1409.5 500q-24.5 -3 -49.5 -15.5t-52 -40.5l-170 -170l126 -128l484 484l-484 484l-126 -128l170 -170q27 -27 52 -39.5t49.5 -15t69.5 -2.5v-23h-1201v-210h1201v-23q-45 0 -69.5 -3z" />
    <glyph glyph-name="arrowleft.case" horiz-adv-x="2030" 
d="M618.5 760q24.5 3 49.5 15.5t52 40.5l170 170l-126 128l-484 -484l484 -484l126 128l-170 170q-27 27 -52 39.5t-49.5 15t-69.5 2.5v23h1201v210h-1201v23q45 0 69.5 3z" />
    <glyph glyph-name="at.case" horiz-adv-x="1834" 
d="M1060 -19q73 11 140 33l-68 200q-49 -16 -102.5 -25t-107.5 -9q-120 0 -217 33t-167.5 98t-109.5 161t-44 222q-4 133 30 237.5t103.5 178t171 112t231.5 38.5q74 0 164.5 -20.5t173.5 -75t136.5 -153.5t53.5 -257q0 -58 -3.5 -105.5t-23.5 -76t-71 -28.5q-39 0 -63.5 32
t-24.5 110l4 394h-162l23 -145h-23q-18 93 -83 133t-123 40q-107 0 -194 -47.5t-138.5 -134.5t-51.5 -206q0 -116 49 -203.5t134.5 -136t196.5 -48.5q59 0 124 38t89 160h23q0 -122 71 -160t149 -38q179 0 251.5 111.5t72.5 310.5q0 145 -49 274t-146.5 228.5t-242.5 156.5
t-336 57q-145 0 -278 -46.5t-237.5 -142.5t-164.5 -244t-60 -351q0 -155 54 -286t154 -227.5t238 -149.5t306 -53q75 0 148 11zM784 591.5q-44 47.5 -44 128.5q0 80 43.5 128t134.5 48q75 0 112.5 -45t37.5 -131q0 -102 -46.5 -139t-111.5 -37q-82 0 -126 47.5z" />
    </font>
</defs>
</svg>
