<svg width="237" height="32" viewBox="0 0 237 32" fill="none" xmlns="http://www.w3.org/2000/svg">
<path d="M236.356 25.6332V30.9875H216.54V0.632385H236.356V5.98669H223.644C223.279 5.98669 222.893 5.90237 222.485 5.73373C222.077 5.56509 221.726 5.3543 221.431 5.10134L221.157 5.50185C221.452 5.72671 221.712 6.03588 221.937 6.42937C222.162 6.80881 222.274 7.16717 222.274 7.50445V11.0037C222.274 11.4394 222.19 11.8118 222.021 12.121C221.867 12.4161 221.635 12.6971 221.326 12.9642L221.621 13.3436C221.916 13.0906 222.246 12.8869 222.611 12.7323C222.977 12.5636 223.321 12.4793 223.644 12.4793H233.826V17.8336H223.855C223.349 17.8336 222.928 17.7844 222.59 17.6861C222.267 17.5877 221.958 17.412 221.663 17.1591L221.326 17.5596C221.663 17.8266 221.902 18.1147 222.042 18.4239C222.197 18.733 222.274 19.1195 222.274 19.5833V24.4317C222.274 24.783 222.183 25.1273 222 25.4646C221.831 25.7878 221.614 26.0548 221.347 26.2656L221.642 26.624C222.302 25.9635 223.04 25.6332 223.855 25.6332H236.356Z" fill="white"/>
<path d="M196.432 30.9875H186.609V0.632385H196.432C196.671 0.632385 197.163 0.639413 197.907 0.653467C198.652 0.667519 199.369 0.716706 200.058 0.801026C202.503 1.09615 204.576 1.94637 206.276 3.3517C207.977 4.75703 209.269 6.5418 210.155 8.70601C211.04 10.8702 211.483 13.2382 211.483 15.81C211.483 18.3817 211.04 20.7497 210.155 22.9139C209.269 25.0781 207.977 26.8629 206.276 28.2682C204.576 29.6735 202.503 30.5238 200.058 30.8189C199.369 30.9032 198.652 30.9524 197.907 30.9664C197.163 30.9805 196.671 30.9875 196.432 30.9875ZM192.131 25.4224C191.935 25.7878 191.569 26.2094 191.035 26.6872L191.352 27.0666C191.956 26.5045 192.427 26.1181 192.764 25.9073C193.115 25.6965 193.551 25.5911 194.071 25.5911H196.432C196.811 25.5911 197.324 25.584 197.971 25.57C198.617 25.5419 199.2 25.4786 199.72 25.3803C201.041 25.1132 202.116 24.4949 202.945 23.5252C203.789 22.5555 204.407 21.3891 204.801 20.0259C205.208 18.6628 205.412 17.2574 205.412 15.81C205.412 14.2922 205.201 12.8517 204.779 11.4886C204.372 10.1254 203.747 8.97302 202.903 8.03145C202.06 7.08988 200.999 6.49261 199.72 6.23965C199.2 6.12723 198.617 6.06399 197.971 6.04993C197.324 6.03588 196.811 6.02885 196.432 6.02885H194.071C193.551 6.02885 193.094 5.93751 192.701 5.75481C192.321 5.57212 191.857 5.26295 191.309 4.8273L190.972 5.22782C191.478 5.66347 191.843 6.07101 192.068 6.45045C192.307 6.81584 192.427 7.24447 192.427 7.73633V23.989C192.427 24.5792 192.328 25.057 192.131 25.4224Z" fill="white"/>
<path d="M180.289 0.632385V30.9875H174.555V0.632385H180.289Z" fill="white"/>
<path d="M151.392 21.1643C151.546 21.3751 151.623 21.8248 151.623 22.5134V30.9875H145.89V0.632385H158.706C159.001 0.632385 159.395 0.646439 159.887 0.674545C160.393 0.688599 160.842 0.73076 161.236 0.801026C163.049 1.08209 164.51 1.59504 165.62 2.33986C166.745 3.07063 167.602 4.08247 168.192 5.37538C168.782 6.65423 169.078 8.14388 169.078 9.84433C169.078 11.868 168.677 13.6317 167.876 15.1354C167.089 16.6391 165.438 17.4682 162.922 17.6228L163.028 20.6373H153.521C152.523 20.6373 151.947 20.6021 151.792 20.5319C151.652 20.4475 151.293 20.2086 150.717 19.8151L150.401 20.1735C150.921 20.6232 151.251 20.9535 151.392 21.1643ZM156.767 20.6373V18.1498C158.341 18.1498 159.971 18.1498 161.657 18.1498C163.344 18.1498 164.665 18.2552 165.62 18.466C166.576 18.6628 167.419 19.1546 168.15 19.9416C168.74 20.574 169.035 21.5929 169.035 22.9982C169.035 24.3895 169.035 25.4435 169.035 26.1602V30.9875H163.344V26.1391C163.344 25.2538 163.323 24.4598 163.281 23.7571C163.253 23.0544 163.119 22.4853 162.88 22.0496C162.374 21.108 161.566 20.6373 160.456 20.6373C159.346 20.6373 158.116 20.6373 156.767 20.6373ZM151.328 15.03C151.146 15.3673 150.836 15.7327 150.401 16.1262L150.738 16.4634C151.132 16.0699 151.532 15.7889 151.94 15.6202C152.347 15.4375 152.874 15.3462 153.521 15.3462H158.453C158.748 15.3462 159.072 15.3321 159.423 15.304C159.774 15.2759 160.098 15.2197 160.393 15.1354C161.166 14.9246 161.763 14.5733 162.184 14.0814C162.606 13.5755 162.894 13.0204 163.049 12.4161C163.217 11.7977 163.302 11.2145 163.302 10.6664C163.302 10.1184 163.217 9.54218 163.049 8.93789C162.894 8.31954 162.606 7.76444 162.184 7.27257C161.763 6.76665 161.166 6.40829 160.393 6.19749C160.098 6.11317 159.774 6.05696 159.423 6.02885C159.072 6.00075 158.748 5.98669 158.453 5.98669H153.521C152.93 5.98669 152.46 5.88832 152.108 5.69157C151.757 5.49483 151.363 5.15052 150.928 4.65866L150.527 4.9327C151.258 5.804 151.623 6.78071 151.623 7.86281V13.6387C151.623 14.229 151.525 14.6927 151.328 15.03Z" fill="white"/>
<path d="M134.81 29.6384C132.617 30.9594 130.003 31.6199 126.968 31.6199C123.932 31.6199 121.311 30.9594 119.105 29.6384C116.913 28.3174 115.219 26.4694 114.025 24.0944C112.844 21.7194 112.254 18.9579 112.254 15.81C112.254 12.662 112.844 9.90055 114.025 7.52554C115.219 5.15053 116.913 3.30252 119.105 1.98151C121.311 0.660504 123.932 0 126.968 0C130.003 0 132.617 0.660504 134.81 1.98151C137.016 3.30252 138.709 5.15053 139.89 7.52554C141.084 9.90055 141.682 12.662 141.682 15.81C141.682 18.9579 141.084 21.7194 139.89 24.0944C138.709 26.4694 137.016 28.3174 134.81 29.6384ZM122.162 24.8954C123.44 25.7527 125.043 26.1954 126.968 26.2235C128.893 26.2516 130.495 25.837 131.774 24.9797C133.053 24.1225 134.009 22.9069 134.641 21.3329C135.287 19.7589 135.611 17.918 135.611 15.81C135.611 13.702 135.287 11.875 134.641 10.3292C134.009 8.78331 133.053 7.58176 131.774 6.72451C130.495 5.86725 128.893 5.42458 126.968 5.39647C125.043 5.36836 123.44 5.78293 122.162 6.64018C120.883 7.49744 119.92 8.71305 119.274 10.287C118.641 11.861 118.325 13.702 118.325 15.81C118.325 17.918 118.641 19.7449 119.274 21.2908C119.92 22.8366 120.883 24.0382 122.162 24.8954Z" fill="#FF3600"/>
<path d="M100.545 30.9875H87.0963V0.632385H99.2384C101.403 0.632385 103.152 1.06804 104.487 1.93934C105.822 2.79659 106.799 3.8787 107.417 5.18565C108.036 6.49261 108.345 7.81362 108.345 9.14869C108.345 10.8491 107.958 12.2615 107.186 13.3858C106.427 14.51 105.38 15.2619 104.045 15.6413V14.5873C105.942 14.9808 107.361 15.8591 108.303 17.2223C109.258 18.5855 109.736 20.1103 109.736 21.7967C109.736 23.6095 109.399 25.2046 108.724 26.5818C108.064 27.959 107.052 29.0411 105.689 29.8281C104.326 30.6011 102.611 30.9875 100.545 30.9875ZM92.5982 25.1484C92.4014 25.584 92.1836 25.8862 91.9447 26.0548L92.3031 26.3921C92.4717 26.1672 92.7809 25.9775 93.2306 25.8229C93.6803 25.6683 94.0527 25.5911 94.3478 25.5911H99.9551C100.728 25.5911 101.417 25.4294 102.021 25.1062C102.625 24.7689 103.096 24.3052 103.433 23.7149C103.785 23.1106 103.96 22.401 103.96 21.5859C103.96 20.8691 103.813 20.2297 103.518 19.6676C103.222 19.1055 102.773 18.6628 102.168 18.3395C101.578 18.0023 100.84 17.8336 99.9551 17.8336H94.3478C94.0667 17.8336 93.7224 17.7493 93.3149 17.5807C92.9214 17.412 92.6333 17.2364 92.4506 17.0537L92.1344 17.4331C92.3733 17.5877 92.5631 17.8407 92.7036 18.192C92.8441 18.5293 92.9144 18.8806 92.9144 19.246V23.9468C92.9144 24.3122 92.809 24.7127 92.5982 25.1484ZM92.6193 11.9734C92.4366 12.3107 92.2187 12.5566 91.9658 12.7112L92.282 13.0906C92.4787 12.922 92.7879 12.7674 93.2095 12.6269C93.6452 12.4723 94.0246 12.395 94.3478 12.395L99.154 12.4793C99.8005 12.4934 100.377 12.388 100.883 12.1631C101.389 11.9242 101.789 11.5729 102.084 11.1091C102.379 10.6313 102.527 10.02 102.527 9.27517C102.527 8.34765 102.239 7.56769 101.663 6.93529C101.086 6.30289 100.25 5.98669 99.154 5.98669H94.3478C94.0667 5.98669 93.7224 5.87427 93.3149 5.64942C92.9074 5.42456 92.6193 5.18566 92.4506 4.9327L92.0923 5.26998C92.3171 5.53699 92.5068 5.83211 92.6614 6.15533C92.8301 6.47856 92.9144 6.78773 92.9144 7.08285V10.9405C92.9144 11.2778 92.816 11.6221 92.6193 11.9734Z" fill="#FF3600"/>
<path d="M64.3544 21.1643C64.509 21.3751 64.5863 21.8248 64.5863 22.5134V30.9875H58.8525V0.632385H71.6692C71.9643 0.632385 72.3578 0.646439 72.8496 0.674545C73.3555 0.688599 73.8053 0.73076 74.1987 0.801026C76.0116 1.08209 77.4732 1.59504 78.5834 2.33986C79.7076 3.07063 80.5649 4.08247 81.1551 5.37538C81.7454 6.65423 82.0405 8.14388 82.0405 9.84433C82.0405 11.868 81.64 13.6317 80.8389 15.1354C80.0519 16.6391 78.4007 17.4682 75.8851 17.6228L75.9905 20.6373H66.4835C65.4857 20.6373 64.9095 20.6021 64.7549 20.5319C64.6144 20.4475 64.256 20.2086 63.6799 19.8151L63.3637 20.1735C63.8836 20.6232 64.2139 20.9535 64.3544 21.1643ZM69.7298 20.6373V18.1498C71.3038 18.1498 72.934 18.1498 74.6203 18.1498C76.3067 18.1498 77.6278 18.2552 78.5834 18.466C79.539 18.6628 80.3822 19.1546 81.113 19.9416C81.7032 20.574 81.9983 21.5929 81.9983 22.9982C81.9983 24.3895 81.9983 25.4435 81.9983 26.1602V30.9875H76.3067V26.1391C76.3067 25.2538 76.2857 24.4598 76.2435 23.7571C76.2154 23.0544 76.0819 22.4853 75.843 22.0496C75.3371 21.108 74.529 20.6373 73.4188 20.6373C72.3086 20.6373 71.0789 20.6373 69.7298 20.6373ZM64.2912 15.03C64.1085 15.3673 63.7993 15.7327 63.3637 16.1262L63.7009 16.4634C64.0944 16.0699 64.4949 15.7889 64.9025 15.6202C65.31 15.4375 65.837 15.3462 66.4835 15.3462H71.4162C71.7113 15.3462 72.0345 15.3321 72.3859 15.304C72.7372 15.2759 73.0604 15.2197 73.3555 15.1354C74.1285 14.9246 74.7257 14.5733 75.1473 14.0814C75.5689 13.5755 75.857 13.0204 76.0116 12.4161C76.1803 11.7977 76.2646 11.2145 76.2646 10.6664C76.2646 10.1184 76.1803 9.54218 76.0116 8.93789C75.857 8.31954 75.5689 7.76444 75.1473 7.27257C74.7257 6.76665 74.1285 6.40829 73.3555 6.19749C73.0604 6.11317 72.7372 6.05696 72.3859 6.02885C72.0345 6.00075 71.7113 5.98669 71.4162 5.98669H66.4835C65.8932 5.98669 65.4225 5.88832 65.0711 5.69157C64.7198 5.49483 64.3263 5.15052 63.8906 4.65866L63.4901 4.9327C64.2209 5.804 64.5863 6.78071 64.5863 7.86281V13.6387C64.5863 14.229 64.4879 14.6927 64.2912 15.03Z" fill="#FF3600"/>
<path d="M47.0652 30.1443C45.2101 31.1281 43.06 31.6199 40.6147 31.6199C38.1694 31.6199 36.0193 31.1281 34.1642 30.1443C32.3092 29.1465 30.8617 27.7482 29.8218 25.9494C28.7818 24.1506 28.2618 22.0356 28.2618 19.6043V0.674545L34.0799 0.632385V19.5622C34.0799 20.56 34.2485 21.4664 34.5858 22.2815C34.9231 23.0966 35.3869 23.7993 35.9771 24.3895C36.5814 24.9797 37.277 25.4365 38.064 25.7597C38.8651 26.0689 39.7153 26.2234 40.6147 26.2234C41.5422 26.2234 42.3995 26.0618 43.1864 25.7386C43.9875 25.4154 44.6831 24.9587 45.2734 24.3684C45.8636 23.7782 46.3203 23.0755 46.6436 22.2604C46.9808 21.4453 47.1495 20.5459 47.1495 19.5622V0.632385H52.9675V19.6043C52.9675 22.0356 52.4476 24.1506 51.4076 25.9494C50.3677 27.7482 48.9202 29.1465 47.0652 30.1443Z" fill="#FF3600"/>
<path d="M15.03 6.32397C15.2127 6.66125 15.304 7.04772 15.304 7.48337V30.9875H9.5703V7.48337C9.54219 7.07582 9.61949 6.71044 9.80218 6.38721C9.99893 6.04993 10.294 5.67049 10.6875 5.2489L10.3292 4.91161C9.83731 5.30511 9.42977 5.58617 9.10654 5.75481C8.78331 5.9094 8.38982 5.98669 7.92606 5.98669H0V0.632385H24.8743V5.98669H16.9483C16.1191 5.98669 15.3181 5.62131 14.5452 4.89054L14.229 5.2489C14.5944 5.61428 14.8614 5.97264 15.03 6.32397Z" fill="#FF3600"/>
</svg>
