<svg xmlns="http://www.w3.org/2000/svg" width="209" height="31" viewBox="0 0 209 31" fill="none"><path d="M187.406 1.39648H208.847V6.71569H193.921C193.921 10.5917 198.319 12.5297 207.116 12.5297V17.8489C201.288 17.8489 196.89 16.8318 193.921 14.7976V24.8175H208.847V30.1367H187.406V1.39648Z" fill="white"></path><path d="M168.318 1.39648C172.799 1.39648 176.496 2.75721 179.41 5.47866C182.324 8.17263 183.781 11.6088 183.781 15.7872C183.781 19.9381 182.324 23.3743 179.41 26.0957C176.496 28.7897 172.799 30.1367 168.318 30.1367H158.01V1.39648H168.318ZM164.525 24.8175H168.318C170.902 24.8175 173.019 23.9653 174.668 22.261C176.345 20.5566 177.184 18.3987 177.184 15.7872C177.184 13.1482 176.345 10.9765 174.668 9.2722C173.019 7.56786 170.902 6.71569 168.318 6.71569H164.525V24.8175Z" fill="white"></path><path d="M146.534 1.39648H153.049V30.1367H146.534V1.39648Z" fill="white"></path><path d="M142.433 10.7979C142.433 13.107 141.691 15.1 140.206 16.7768C138.75 18.4537 136.812 19.512 134.392 19.9518L135.258 21.0239C137.128 23.443 138.901 24.6525 140.578 24.6525C140.852 24.6525 141.141 24.5151 141.443 24.2402H142.186V30.1367C140.921 30.1367 139.89 30.1092 139.093 30.0542C138.296 29.9992 137.444 29.8618 136.537 29.6419C135.657 29.4219 134.874 29.1058 134.186 28.6935C133.499 28.2811 132.771 27.7313 132.001 27.0441C131.259 26.3569 130.489 25.491 129.692 24.4464L124.62 17.8901V30.1367H118.105V1.39648H131.3C134.516 1.39648 137.169 2.28989 139.258 4.0767C141.375 5.83602 142.433 8.07641 142.433 10.7979ZM124.62 7.16926C124.62 8.3788 124.909 9.57459 125.486 10.7566C126.063 11.9112 126.902 12.8871 128.001 13.6843C129.128 14.454 130.365 14.8388 131.712 14.8388C132.949 14.8388 133.953 14.4677 134.722 13.7255C135.52 12.9558 135.918 11.9799 135.918 10.7979C135.918 9.61582 135.478 8.63995 134.599 7.87024C133.746 7.10054 132.647 6.71569 131.3 6.71569H124.62V7.16926Z" fill="white"></path><path d="M96.0706 1.39648H101.555L115.492 30.1367H108.317C107.932 29.4219 107.396 28.7897 106.709 28.2399C106.022 27.6626 105.211 27.374 104.276 27.374C103.534 27.374 102.668 27.5527 101.678 27.91C100.716 28.2674 99.8091 28.666 98.9569 29.1058C98.1048 29.5182 97.0602 29.903 95.8232 30.2604C94.5861 30.6177 93.3903 30.7964 92.2358 30.7964C91.1637 30.7964 90.2016 30.5902 89.3494 30.1779C88.4972 29.7656 87.7962 29.1333 87.2465 28.2811C86.6967 27.429 86.3531 26.4118 86.2156 25.2298C86.0782 24.0203 86.2156 22.5771 86.6279 20.9002C87.0403 19.2234 87.755 17.4091 88.7721 15.4573L96.0706 1.39648ZM104.235 21.6424L98.792 10.5917L95.617 16.9005C95.2596 17.5877 94.9572 18.1788 94.7098 18.6736C94.4899 19.1409 94.2288 19.7319 93.9264 20.4466C93.6515 21.1614 93.4591 21.7661 93.3491 22.2609C93.2392 22.7283 93.1704 23.1956 93.1429 23.6629C93.1429 24.1302 93.2666 24.4876 93.514 24.735C93.7614 24.9549 94.1326 25.0649 94.6274 25.0649C95.3146 25.0649 96.208 24.8175 97.3076 24.3227C98.4072 23.8004 99.5892 23.2506 100.854 22.6733C102.118 22.096 103.245 21.7524 104.235 21.6424Z" fill="#FF3600"></path><path d="M71.0214 30.1367L58.7749 1.39648H65.9496L73.6192 19.9931L81.2063 1.39648H88.381L76.1345 30.1367H71.0214Z" fill="#FF3600"></path><path d="M54.6329 26.5489C51.719 29.3803 48.0217 30.796 43.5409 30.796C39.0601 30.796 35.3628 29.3803 32.4489 26.5489C29.5351 23.7175 28.0781 20.1301 28.0781 15.7868C28.0781 12.9004 28.7379 10.3164 30.0574 8.03477C31.3769 5.75315 33.2186 3.96634 35.5827 2.67433C37.9468 1.38233 40.5996 0.736328 43.5409 0.736328C46.4823 0.736328 49.135 1.38233 51.4991 2.67433C53.8632 3.96634 55.705 5.75315 57.0245 8.03477C58.344 10.3164 59.0037 12.9004 59.0037 15.7868C59.0037 20.1301 57.5468 23.7175 54.6329 26.5489ZM34.6756 15.7868C34.6756 18.5907 35.5003 20.9136 37.1496 22.7553C38.8265 24.5697 40.9569 25.4768 43.5409 25.4768C46.1249 25.4768 48.2416 24.5697 49.891 22.7553C51.5678 20.9136 52.4063 18.5907 52.4063 15.7868C52.4063 12.9554 51.5678 10.6325 49.891 8.81822C48.2416 6.97643 46.1249 6.05553 43.5409 6.05553C41.8366 6.05553 40.3109 6.48162 38.9639 7.33379C37.617 8.15847 36.5586 9.31303 35.7889 10.7975C35.0467 12.2544 34.6756 13.9175 34.6756 15.7868Z" fill="#FF3600"></path><path d="M6.5145 1.39648C6.76191 1.69887 7.17425 2.15244 7.75153 2.75721C8.35629 3.36198 8.93357 3.953 9.48336 4.53028C10.0331 5.08007 10.6791 5.78105 11.4214 6.63322C12.1911 7.4579 12.9058 8.28258 13.5655 9.10726C14.2528 9.90446 14.9675 10.8116 15.7097 11.8287C16.4794 12.8458 17.1804 13.8492 17.8127 14.8388V1.39648H24.3276V30.1367H17.8127C17.8127 28.3499 17.4965 26.5081 16.8643 24.6113C16.2595 22.687 15.3798 20.804 14.2253 18.9622C13.0707 17.1204 11.8887 15.4298 10.6791 13.8904C9.46961 12.3235 8.0814 10.7017 6.5145 9.0248V30.1367H-0.000488281V1.39648H6.5145Z" fill="#FF3600"></path></svg>