<svg width="182" height="26" viewBox="0 0 182 26" fill="none" xmlns="http://www.w3.org/2000/svg">
<path d="M173.687 5.04933C173.833 5.31863 173.906 5.6272 173.906 5.97504V24.7416H169.328V5.97504C169.306 5.64964 169.367 5.3579 169.513 5.09982C169.67 4.83053 169.906 4.52757 170.22 4.19095L169.934 3.92165C169.541 4.23583 169.216 4.46025 168.958 4.59489C168.7 4.71832 168.386 4.78003 168.015 4.78003H161.687V0.504959H181.547V4.78003H175.219C174.557 4.78003 173.917 4.4883 173.3 3.90482L173.048 4.19095C173.34 4.48269 173.553 4.76881 173.687 5.04933Z" fill="white"/>
<path d="M153.864 24.7753C152.708 25.0895 151.513 25.2465 150.279 25.2465C148.484 25.2465 146.862 24.9324 145.415 24.304C143.979 23.6644 142.739 22.7219 141.695 21.4764C140.652 20.2197 140.074 18.6039 139.962 16.6291H144.893C145.084 17.9307 145.74 18.9798 146.862 19.7765C147.996 20.5731 149.235 20.9715 150.582 20.9715C151.334 20.9715 152.063 20.8537 152.77 20.618C153.477 20.3824 154.055 20.0345 154.504 19.5745C154.964 19.1144 155.194 18.5478 155.194 17.8746C155.194 17.6277 155.154 17.3921 155.076 17.1677C155.008 16.932 154.891 16.7132 154.722 16.5113C154.554 16.3093 154.313 16.1185 153.999 15.939C153.696 15.7595 153.309 15.5968 152.837 15.4509L146.542 13.5995C146.071 13.4648 145.521 13.2741 144.893 13.0272C144.276 12.7804 143.676 12.4269 143.092 11.9669C142.509 11.5068 142.021 10.9009 141.628 10.1491C141.246 9.38612 141.056 8.42675 141.056 7.27103C141.056 5.64403 141.465 4.29194 142.284 3.21475C143.103 2.13757 144.197 1.33529 145.566 0.807918C146.935 0.280545 148.45 0.0224699 150.111 0.0336911C151.783 0.0561322 153.292 0.325429 154.638 0.84158C155.996 1.34651 157.163 2.13757 158.139 3.21475C159.115 4.29194 159.659 5.87966 159.772 7.97793H154.857C154.79 7.03539 154.52 6.30044 154.049 5.77307C153.578 5.24569 152.972 4.87541 152.231 4.66222C151.502 4.44903 150.773 4.33121 150.043 4.30877C149.325 4.28633 148.646 4.38731 148.007 4.61173C147.378 4.82492 146.862 5.1391 146.458 5.55426C146.066 5.96943 145.869 6.46314 145.869 7.03539C145.869 7.56276 146.032 7.99476 146.357 8.33138C146.683 8.65678 147.092 8.92046 147.586 9.12244C148.08 9.32441 148.585 9.49272 149.101 9.62737L153.309 10.7719C153.937 10.9402 154.633 11.1646 155.396 11.4451C156.159 11.7144 156.888 12.0959 157.584 12.5896C158.291 13.0721 158.868 13.7117 159.317 14.5084C159.777 15.305 160.007 16.3149 160.007 17.5379C160.007 18.8395 159.732 19.9784 159.183 20.9546C158.644 21.9196 157.915 22.7219 156.995 23.3615C156.074 23.9898 155.031 24.4611 153.864 24.7753Z" fill="white"/>
<path d="M137.088 20.4665V24.7416H121.267V0.504959H137.088V4.78003H126.939C126.648 4.78003 126.339 4.71271 126.014 4.57806C125.688 4.44341 125.408 4.27511 125.172 4.07313L124.953 4.39292C125.189 4.57245 125.397 4.81931 125.576 5.13349C125.756 5.43644 125.845 5.72257 125.845 5.99187V8.78581C125.845 9.13366 125.778 9.431 125.643 9.67786C125.52 9.91349 125.335 10.1379 125.088 10.3511L125.324 10.6541C125.559 10.4521 125.823 10.2894 126.115 10.166C126.406 10.0313 126.681 9.96399 126.939 9.96399H135.069V14.2391H127.108C126.704 14.2391 126.367 14.1998 126.098 14.1212C125.84 14.0427 125.593 13.9024 125.357 13.7005L125.088 14.0203C125.357 14.2335 125.548 14.4635 125.66 14.7103C125.784 14.9572 125.845 15.2658 125.845 15.636V19.5072C125.845 19.7877 125.772 20.0626 125.627 20.3319C125.492 20.59 125.318 20.8032 125.105 20.9715L125.34 21.2576C125.868 20.7302 126.457 20.4665 127.108 20.4665H137.088Z" fill="white"/>
<path d="M111.856 24.0684C110.375 24.8538 108.658 25.2465 106.706 25.2465C104.753 25.2465 103.036 24.8538 101.555 24.0684C100.074 23.2717 98.9185 22.1552 98.0881 20.719C97.2578 19.2828 96.8427 17.594 96.8427 15.6529V0.538621L101.488 0.504959V15.6192C101.488 16.4159 101.623 17.1396 101.892 17.7904C102.161 18.4412 102.532 19.0022 103.003 19.4735C103.485 19.9448 104.041 20.3094 104.669 20.5675C105.309 20.8144 105.987 20.9378 106.706 20.9378C107.446 20.9378 108.131 20.8088 108.759 20.5507C109.399 20.2926 109.954 19.9279 110.425 19.4567C110.897 18.9854 111.261 18.4244 111.519 17.7736C111.789 17.1228 111.923 16.4047 111.923 15.6192V0.504959H116.569V15.6529C116.569 17.594 116.153 19.2828 115.323 20.719C114.493 22.1552 113.337 23.2717 111.856 24.0684Z" fill="white"/>
<path d="M91.1939 20.7526C91.4183 20.8536 91.7325 21.0949 92.1364 21.4764L93.079 22.4189L90.285 25.2465L88.4336 23.3951C88.299 23.4849 88.1587 23.5746 88.0128 23.6644C86.2624 24.7191 84.1697 25.2465 81.7349 25.2465C79.3112 25.2465 77.2185 24.7191 75.4569 23.6644C73.7065 22.6097 72.3544 21.1341 71.4006 19.2378C70.4581 17.3416 69.9868 15.1367 69.9868 12.6233C69.9868 10.1098 70.4581 7.90496 71.4006 6.00867C72.3544 4.11238 73.7065 2.63686 75.4569 1.58211C77.2185 0.527371 79.3112 0 81.7349 0C84.1585 0 86.2456 0.527371 87.996 1.58211C89.7576 2.63686 91.1097 4.11238 92.0523 6.00867C93.006 7.90496 93.4829 10.1098 93.4829 12.6233C93.4941 15.1367 93.1912 17.0105 92.574 18.2448C92.0018 19.3893 91.149 20.0177 90.0157 20.1299V20.517C90.588 20.5619 90.9807 20.6404 91.1939 20.7526ZM77.8974 19.8774C78.9185 20.5619 80.1976 20.9153 81.7349 20.9378C82.5876 20.949 83.5638 20.8985 84.6635 20.7863C85.2918 20.719 85.9594 20.6292 86.6663 20.517V20.1299C85.8024 20.1187 85.2525 20.0345 85.0169 19.8774C84.7925 19.7091 84.4783 19.4398 84.0744 19.0695L83.216 18.2112L86.0436 15.3835L87.8109 17.1508C88.1026 16.6908 88.2709 16.3541 88.3158 16.1409C88.529 15.1872 88.6356 14.0146 88.6356 12.6233C88.6356 10.9402 88.3775 9.48147 87.8613 8.24719C87.3564 7.01292 86.5934 6.05355 85.5723 5.36909C84.5512 4.68463 83.2721 4.33118 81.7349 4.30874C80.1976 4.2863 78.9185 4.61731 77.8974 5.30177C76.8763 5.98623 76.1077 6.95682 75.5915 8.21353C75.0866 9.47025 74.8341 10.9402 74.8341 12.6233C74.8341 14.3064 75.0866 15.765 75.5915 16.9993C76.1077 18.2336 76.8763 19.193 77.8974 19.8774Z" fill="white"/>
<path d="M53.1751 16.8984C53.2985 17.0667 53.3603 17.4257 53.3603 17.9755V24.7416H48.7822V0.504959H59.0155C59.2511 0.504959 59.5653 0.51618 59.958 0.538621C60.362 0.549843 60.721 0.583505 61.0352 0.639608C62.4827 0.864021 63.6496 1.27358 64.5361 1.86827C65.4337 2.45175 66.1182 3.25964 66.5894 4.29194C67.0607 5.31302 67.2963 6.50241 67.2963 7.86011C67.2963 9.47589 66.9765 10.8841 66.337 12.0847C65.7086 13.2853 64.3902 13.9473 62.3817 14.0708L62.4658 16.4776H54.8751C54.0784 16.4776 53.6183 16.4495 53.4949 16.3934C53.3827 16.3261 53.0966 16.1354 52.6365 15.8212L52.3841 16.1073C52.7992 16.4664 53.0629 16.7301 53.1751 16.8984ZM57.467 16.4776V14.4915C58.7237 14.4915 60.0253 14.4915 61.3718 14.4915C62.7183 14.4915 63.773 14.5757 64.5361 14.744C65.2991 14.9011 65.9723 15.2938 66.5558 15.9222C67.027 16.4271 67.2627 17.2406 67.2627 18.3627C67.2627 19.4735 67.2627 20.3151 67.2627 20.8873V24.7416H62.7183V20.8705C62.7183 20.1636 62.7015 19.5296 62.6678 18.9686C62.6454 18.4075 62.5388 17.9531 62.348 17.6053C61.9441 16.8535 61.2989 16.4776 60.4125 16.4776C59.526 16.4776 58.5442 16.4776 57.467 16.4776ZM53.1246 12.0005C52.9788 12.2698 52.7319 12.5616 52.3841 12.8758L52.6534 13.145C52.9675 12.8309 53.2873 12.6065 53.6127 12.4718C53.9381 12.3259 54.3589 12.253 54.8751 12.253H58.8135C59.0491 12.253 59.3072 12.2418 59.5877 12.2193C59.8683 12.1969 60.1263 12.152 60.362 12.0847C60.9791 11.9164 61.456 11.6359 61.7926 11.2431C62.1292 10.8392 62.3592 10.396 62.4827 9.91349C62.6173 9.41978 62.6846 8.95413 62.6846 8.51652C62.6846 8.07891 62.6173 7.61887 62.4827 7.13638C62.3592 6.64267 62.1292 6.19945 61.7926 5.80673C61.456 5.40278 60.9791 5.11666 60.362 4.94835C60.1263 4.88102 59.8683 4.83614 59.5877 4.8137C59.3072 4.79126 59.0491 4.78003 58.8135 4.78003H54.8751C54.4038 4.78003 54.0279 4.70149 53.7474 4.5444C53.4669 4.38731 53.1527 4.1124 52.8048 3.71968L52.485 3.93848C53.0685 4.63417 53.3603 5.414 53.3603 6.278V10.8897C53.3603 11.361 53.2817 11.7312 53.1246 12.0005Z" fill="#FF3600"/>
<path d="M30.3653 19.6923L28.8337 24.7416H24.121L31.5266 0.504959H38.36L45.7657 24.7416H41.053L39.4877 19.6923H30.3653ZM31.5939 14.9965C31.2685 15.4789 30.8141 15.967 30.2306 16.4608L30.4831 16.7469C30.887 16.3878 31.2124 16.1241 31.4593 15.9558C31.7174 15.7763 31.9923 15.6416 32.284 15.5519C32.5758 15.4621 32.9292 15.4172 33.3444 15.4172H36.4918C37.1426 15.4172 37.6643 15.507 38.057 15.6865C38.461 15.8661 38.8874 16.1802 39.3362 16.6291L39.6055 16.3429C39.0893 15.8156 38.6742 15.3275 38.36 14.8786C38.0458 14.4298 37.7373 13.8015 37.4343 12.9936L35.4314 6.56412C35.1958 5.96943 35.078 5.09421 35.078 3.93848L35.0948 3.36623H34.6908C34.7021 3.96093 34.6796 4.55001 34.6235 5.13349C34.5786 5.70574 34.4945 6.18262 34.3711 6.56412L32.4187 12.9936C32.1942 13.8351 31.9193 14.5027 31.5939 14.9965Z" fill="#FF3600"/>
<path d="M18.7497 23.1763C16.8647 24.5564 14.5308 25.2465 11.748 25.2465C9.32438 25.2465 7.23172 24.7191 5.47008 23.6644C3.71965 22.6097 2.36756 21.1341 1.4138 19.2378C0.471268 17.3416 0 15.1367 0 12.6233C0 10.1098 0.471268 7.90496 1.4138 6.00867C2.36756 4.11238 3.71965 2.63686 5.47008 1.58211C7.23172 0.527371 9.32438 0 11.748 0C14.5308 0 16.8647 0.65641 18.7497 1.96923C20.646 3.27083 21.9813 5.38592 22.7555 8.31452H18.1438C17.6389 7.0017 16.8647 6.00867 15.8211 5.33543C14.7888 4.65097 13.4311 4.30874 11.748 4.30874C10.2108 4.30874 8.92605 4.65097 7.89374 5.33543C6.87266 6.01989 6.10405 6.98487 5.5879 8.23036C5.07174 9.47586 4.81367 10.9402 4.81367 12.6233C4.81367 14.3064 5.07174 15.7707 5.5879 17.0162C6.10405 18.2616 6.87266 19.2266 7.89374 19.9111C8.92605 20.5955 10.2108 20.9378 11.748 20.9378C13.4311 20.9378 14.7888 20.5955 15.8211 19.9111C16.8647 19.2266 17.6389 18.2336 18.1438 16.932H22.7555C21.9813 19.7147 20.646 21.7962 18.7497 23.1763Z" fill="#FF3600"/>
</svg>
