<svg xmlns="http://www.w3.org/2000/svg" width="180" height="51" viewBox="0 0 180 51" fill="none"><path fill-rule="evenodd" clip-rule="evenodd" d="M151.954 34.4946H157.255L159.022 31.7095H170.553L168.366 27.9206H161.223L165.341 21.0321L173.667 34.4946H178.968L167.947 16.4946H162.646L151.954 34.4946ZM54.1516 34.4946H59.4528L61.2198 31.7095H72.7506L70.5643 27.9206H63.4062L67.5393 21.0321L75.8654 34.4946H81.1666L70.145 16.4946H64.8438L54.1516 34.4946ZM128.503 34.4048H133.13V20.5379H143.957C145.544 20.5379 146.398 21.2866 146.398 22.5445C146.398 23.8474 145.26 24.4164 143.957 24.4164H134.223L134.987 28.3399H142.475C146.009 28.3399 146.099 29.1787 146.518 34.4946H150.98L150.726 30.1069C150.636 28.2652 149.632 27.5015 148.869 26.9919L148.614 26.8274C149.962 26.0637 151.055 24.9855 151.055 22.1252C151.055 18.5161 148.359 16.4946 144.406 16.4946H128.502L128.503 34.4048ZM101.488 16.4946H87.5909C83.892 16.4946 80.8671 18.5163 80.8671 22.3798V29.1787C80.8671 32.5479 83.9819 34.4946 87.0967 34.4946H101.488V30.7808L87.7706 30.7658C86.2431 30.7658 85.4944 29.5227 85.4944 28.0851V23.2184C85.4944 21.0321 86.7523 20.2833 88.7739 20.2833H101.488V16.4946ZM104.153 16.4946V28.265C104.153 31.4547 105.86 34.4944 110.053 34.4944H119.997C124.28 34.4944 125.733 31.3798 125.733 28.3397V16.4946H121.015V28.759C121.015 30.2717 119.907 30.9453 118.2 30.9453H111.521C109.2 30.9453 108.856 29.4331 108.856 27.5911V16.4946H104.153Z" fill="white"></path><path fill-rule="evenodd" clip-rule="evenodd" d="M21.8159 45.4927C7.19 45.4927 0.51416 36.9609 0.51416 25.4925C0.51416 12.1685 8.13182 5.49268 21.8159 5.49268C36.2202 5.49268 43.1176 12.6117 43.1176 25.4925C43.1176 38.4563 35.2507 45.4927 21.8159 45.4927ZM11.539 40.9771L13.8935 24.5507L19.8215 7.51482C11.1512 8.09653 3.83823 12.4178 3.83823 25.4371C3.83823 33.0551 6.66369 38.2067 11.539 40.9771ZM21.2065 7.45942V21.2543H22.5638V7.45942H21.2065ZM24.0042 7.51482L29.9322 24.5507L32.2867 41.0052C37.162 38.2624 39.9321 33.1101 39.9321 25.4375C39.9321 12.0023 32.3975 8.04113 24.0042 7.51482ZM31.1233 41.5865L23.0347 24.2183H20.6802L12.647 41.5588C15.2509 42.7499 18.3533 43.3594 21.8713 43.3594C25.4447 43.3594 28.5471 42.7776 31.1233 41.5865Z" fill="white"></path></svg>