<svg xmlns="http://www.w3.org/2000/svg" width="81" height="51" viewBox="0 0 81 51" fill="none"><path fill-rule="evenodd" clip-rule="evenodd" d="M68.1095 50.096V39.3648H63.6808V50.096H68.1095ZM44.6634 45.6402V39.5272H40.3708V44.2001C40.3708 45.5583 40.3165 45.9391 40.2351 46.2924C39.9362 47.2706 38.9036 47.7044 37.8444 47.7044C36.3776 47.7044 35.6983 47.134 35.4265 46.2376C35.3451 45.9396 35.318 45.6135 35.2908 45.2874C35.2637 44.9342 35.2908 44.5533 35.2908 44.1468V39.5276H30.944V45.6678C30.944 47.054 31.4062 48.0861 32.1665 48.7921C33.4704 50.0693 35.6712 50.4497 37.7087 50.4497C40.1808 50.4497 42.0827 50.0965 43.4409 48.7654C44.1478 48.0856 44.6634 47.1892 44.6634 45.6402ZM23.5813 44.8794C23.3661 44.842 23.148 44.824 22.9296 44.8256H18.0396C17.7949 44.8256 17.5231 44.8528 17.3874 44.8794C17.4688 44.7976 17.6321 44.6352 17.7949 44.4177L19.9952 40.7768C20.2942 40.2884 20.4299 39.9623 20.4841 39.8266C20.5384 39.9623 20.6741 40.2884 20.973 40.8049L23.2281 44.4729C23.3371 44.6352 23.4999 44.7976 23.5813 44.8794ZM31.7861 50.096L22.0056 35.4259H16.5181L17.9577 37.1374C17.9848 37.1645 18.0396 37.1912 18.0934 37.2192C18.0391 37.2464 17.9848 37.273 17.9577 37.3002L9.42729 50.096H14.3716L15.7031 47.8952C15.7574 47.7867 15.7845 47.6777 15.7845 47.6239C15.8388 47.6239 15.9749 47.6777 16.1106 47.6777H24.94C25.0757 47.6777 25.1842 47.6505 25.2385 47.6239C25.2335 47.7003 25.2525 47.7763 25.2927 47.8414L26.6785 50.096H31.7861ZM62.4858 44.5814C62.4858 43.3856 61.9965 41.9998 60.4755 40.0708L56.8075 35.4255H51.6999L54.6067 38.6855C55.0961 39.2291 55.7207 39.7176 55.7207 39.7176C55.0147 39.3096 54.1183 39.1473 53.4118 39.1473C51.7275 39.1473 50.0152 39.5005 48.4946 40.3431C46.8642 41.2386 45.7773 42.7334 45.7773 44.7171C45.7773 46.2381 46.4567 47.4068 47.3259 48.3032C49.2825 50.2588 52.8406 50.4492 54.1449 50.4492C56.0734 50.4492 59.0892 50.0146 60.8016 48.466C61.807 47.542 62.4858 46.2657 62.4858 44.5814ZM58.2476 44.7171C58.2476 45.831 57.5135 46.6727 56.59 47.1345C55.8292 47.5425 54.9323 47.651 54.1449 47.651C53.3575 47.651 52.4335 47.4877 51.6728 47.1074C50.7492 46.6456 50.0423 45.7492 50.0423 44.7709C50.0423 43.6031 50.9387 42.6786 51.9989 42.2169C52.6511 41.9188 53.4389 41.8098 54.0631 41.8098C54.6614 41.8098 55.5307 41.8908 56.21 42.1631C57.433 42.6786 58.2476 43.6569 58.2476 44.7171ZM66.7025 0.449727C63.5216 0.444592 60.4328 1.51774 57.9403 3.49404C55.4479 1.51761 52.3591 0.444447 49.1781 0.449727C45.9973 0.444805 42.9088 1.51793 40.4163 3.49404C37.9241 1.51751 34.8354 0.444333 31.6546 0.449727C28.4738 0.444805 25.3853 1.51793 22.8928 3.49404C20.4004 1.51787 17.3118 0.444732 14.131 0.449727C6.32549 0.449727 0 6.77475 0 14.5808C0 22.3859 6.32503 28.7118 14.131 28.7118C17.3118 28.7167 20.4003 27.6436 22.8928 25.6675C25.3852 27.6437 28.4738 28.7168 31.6546 28.7118C34.8354 28.7171 37.9241 27.644 40.4163 25.6675C42.9088 27.6436 45.9973 28.7167 49.1781 28.7118C52.3591 28.7171 55.4478 27.6439 57.9403 25.6675C60.4328 27.6439 63.5216 28.7171 66.7025 28.7118C74.5081 28.7118 80.8331 22.3863 80.8331 14.5808C80.8331 6.77521 74.5081 0.449727 66.7025 0.449727ZM20.5807 23.3591C18.7801 24.6727 16.5305 25.4743 14.131 25.4743C8.10958 25.4743 3.23702 20.6022 3.23702 14.5808C3.23702 8.5593 8.10958 3.68675 14.131 3.68675C16.5305 3.68675 18.7787 4.48888 20.5807 5.80291C18.5953 8.29724 17.5173 11.3927 17.524 14.5808C17.5255 17.7676 18.6025 20.8606 20.5807 23.3591ZM22.8933 21.0534C21.5046 19.1815 20.7569 16.9115 20.7615 14.5808C20.7556 12.2498 21.5034 9.97938 22.8933 8.1081C24.2829 9.97952 25.0306 12.2498 25.0251 14.5808C25.0294 16.9115 24.2818 19.1815 22.8933 21.0534ZM38.1047 23.3591C36.2339 24.7364 33.9703 25.4767 31.6472 25.4711C29.3289 25.4758 27.0704 24.7354 25.2049 23.3591C27.1833 20.8609 28.2604 17.7679 28.2616 14.5812C28.2683 11.3932 27.1903 8.2977 25.2049 5.80337C27.0703 4.42664 29.3288 3.68605 31.6472 3.69089C34.0642 3.69089 36.2972 4.47278 38.1047 5.80337C36.1193 8.2977 35.0413 11.3932 35.048 14.5812C35.0493 17.7679 36.1264 20.8608 38.1047 23.3591ZM40.4163 21.0534C39.0276 19.1815 38.28 16.9115 38.2845 14.5808C38.2789 12.2498 39.0267 9.97949 40.4163 8.1081C41.8063 9.97937 42.5542 12.2498 42.5486 14.5808C42.553 16.9116 41.8052 19.1816 40.4163 21.0534ZM55.6282 23.3591C53.8207 24.6901 51.5877 25.4711 49.1712 25.4711C46.7547 25.4711 44.536 24.6888 42.7284 23.3591C44.707 20.861 45.7841 17.768 45.7852 14.5812C45.7918 11.3932 44.7139 8.2977 42.7284 5.80337C44.536 4.47324 46.7547 3.69089 49.1712 3.69089C51.5877 3.69089 53.8207 4.47278 55.6282 5.80337C53.643 8.29783 52.5651 11.3932 52.5715 14.5812C52.5731 17.7679 53.6501 20.8607 55.6282 23.3591ZM57.9408 21.0534C56.5521 19.1815 55.8044 16.9115 55.809 14.5808C55.8029 12.2498 56.5507 9.97929 57.9408 8.1081C59.3304 9.97952 60.0781 12.2498 60.0726 14.5808C60.0767 16.9115 59.3292 19.1814 57.9408 21.0534ZM66.7025 25.4743C64.3021 25.4743 62.0531 24.6727 60.2529 23.3591C62.2311 20.8608 63.3081 17.7679 63.3096 14.5812C63.316 11.3932 62.2381 8.29783 60.2529 5.80337C62.0549 4.48979 64.3026 3.68721 66.7025 3.68721C72.7231 3.68721 77.5966 8.55976 77.5966 14.5812C77.5966 20.6018 72.7231 25.4743 66.7025 25.4743Z" fill="white"></path></svg>