<svg xmlns="http://www.w3.org/2000/svg" width="195" height="51" viewBox="0 0 195 51" fill="none"><path fill-rule="evenodd" clip-rule="evenodd" d="M20.4164 25.3416L21.3113 24.8393L32.5112 32.3674L20.4164 25.3416ZM19.773 24.9401L18.9405 24.4704L19.8687 10.1021L19.773 24.9401ZM18.7701 24.8912L15.0586 27.9023L19.5059 25.3304L18.7701 24.8912Z" fill="white"></path><path fill-rule="evenodd" clip-rule="evenodd" d="M19.9995 5.8418C8.95446 5.8418 -0.000488281 14.6201 -0.000488281 25.4496C-0.000488281 36.2791 8.95446 45.0575 19.9995 45.0575C31.0456 45.0575 40.0005 36.2791 40.0005 25.4496C40.0005 14.6201 31.0456 5.8418 19.9995 5.8418ZM20.0016 44.012C15.4316 44.012 11.1547 42.5182 7.96812 39.7762C4.86777 37.1065 2.45963 32.8646 1.86513 28.3557C3.27447 36.9303 10.8585 43.4801 20.0016 43.4801C30.1476 43.4801 38.3729 35.4161 38.3729 25.469C38.3729 21.3422 36.8004 17.301 34.4183 14.2645C36.8316 16.0895 38.9155 21.2872 38.9155 25.469C38.9155 35.7095 30.4469 44.012 20.0016 44.012ZM18.2649 24.0526L19.8821 7.79514L19.9995 7.79412H20.0411L20.2001 24.9025L22.9835 23.2711L20.1835 7.79616C30.0447 7.89296 38.0102 15.7583 38.0102 25.4496C38.0102 28.5636 37.1871 31.488 35.7445 34.0272L23.2443 23.7735L22.0605 24.4317L35.6592 34.174L35.5553 34.3492L20.2625 25.7237V28.7664L35.4503 34.5214C32.3022 39.6631 26.5609 43.1052 19.9985 43.1052C13.4434 43.1052 7.70621 39.6702 4.55701 34.5367L19.7355 28.7348V25.6932L4.42502 34.3187L4.3242 34.1475L17.8751 24.4317L16.6913 23.7735L4.22546 33.9732C2.7552 31.3639 1.98622 28.4307 1.99089 25.4496C1.99089 15.8347 9.83062 8.01524 19.5848 7.7982L17.1455 23.3944L18.2649 24.0526ZM19.9995 6.8954C9.55312 6.8954 1.08562 15.1979 1.08562 25.4384C1.08562 29.5978 2.62488 33.532 4.97275 36.9303C5.76888 38.3904 6.63049 39.2942 7.78 40.4874C3.27551 36.9598 0.361202 31.5298 0.361202 25.4374C0.361202 14.8046 9.15297 6.18417 19.9995 6.18417C30.8461 6.18417 39.8052 15.1795 39.483 25.4374C39.2107 15.4292 30.2734 6.8954 19.9995 6.8954ZM107.854 26.7478C107.854 23.3088 106.303 20.5209 102.898 20.5209C99.7376 20.5209 97.9406 23.3088 97.9406 26.7478C97.9406 30.1868 99.4424 32.9747 102.898 32.9747C106.254 32.9747 107.241 31.3443 107.756 28.7368L106.599 28.7327C106.502 29.6997 105.858 31.8783 103.392 31.9261C100.578 31.9822 100.382 28.4423 100.43 26.7488L100.479 25.7808C100.479 24.717 100.381 21.5715 102.996 21.5715C105.068 21.5715 105.365 24.1851 105.365 25.7808H100.479L100.43 26.7488L107.854 26.7478ZM49.47 16.2362L49.4201 17.0106H50.1601C50.7026 17.0106 51.3948 17.0585 51.3948 17.7361L51.1485 30.8501C51.1485 31.3341 50.9011 31.866 49.9138 31.866H49.1738L49.1239 32.6404H54.1085V31.866H53.2698C52.6275 31.866 52.1837 31.6724 52.1837 30.8501L52.43 18.269L57.7608 31.8171H58.3033L63.6829 18.1233L63.9303 30.8501C63.9303 31.2852 63.4855 31.866 62.7943 31.866H61.7581V32.6404H68.0263V31.866H67.2863C66.7438 31.866 66.1015 31.5756 66.1015 30.898L65.8541 17.9297C65.8541 17.4936 66.3478 17.0106 66.8415 17.0106H67.779V16.2362H63.2869L58.6473 28.1397L54.0077 16.2362H49.47ZM84.1901 32.6506V32.0219H83.6964C83.2526 32.0219 82.4627 31.8762 82.4627 31.005V24.6661C82.4627 22.6821 83.499 21.9566 84.5352 21.9566C84.9301 21.9566 85.1775 22.1502 85.0777 22.8757C84.979 23.6012 85.6203 24.0852 86.1638 24.0374C86.7074 23.9895 87.3986 23.8916 87.2988 22.5374C87.199 21.1832 86.4112 20.5535 85.0289 20.5535C83.9428 20.5535 83.0541 21.2311 82.8078 21.5705C82.521 21.9648 82.1655 21.8119 82.1166 21.3769C82.0678 20.9418 81.8703 20.5067 81.3766 20.6514C80.4324 20.9473 79.454 21.126 78.4644 21.1833V21.6673C80.5368 21.5705 80.3404 22.5864 80.3404 23.0704V31.006C80.3404 31.8772 79.5505 32.0229 79.1057 32.0229H78.4145V32.6516L84.1901 32.6506ZM95.1853 21.2902C94.4578 20.7696 93.5431 20.471 92.43 20.471C89.2715 20.471 87.4734 23.2589 87.4734 26.6989C87.4734 30.1379 88.9742 32.9094 92.43 32.9257C95.4898 32.941 96.2309 31.2475 96.7453 28.639L95.5886 28.6339C95.4898 29.6009 95.1448 31.8273 92.9237 31.8762C90.1112 31.9384 89.9138 28.3914 89.9626 26.6989C89.9626 25.6341 90.1112 21.3748 92.4799 21.3748C94.5024 21.3748 95.7372 22.7789 95.7372 24.3757H96.3785V20.311H95.8359L95.1853 21.2902ZM166.589 31.9251C163.775 31.9812 163.579 28.4413 163.627 26.7478H171.051C171.051 23.3088 169.502 20.5209 166.095 20.5209C162.937 20.5209 161.14 23.3088 161.14 26.7478C161.14 30.1868 162.639 32.9747 166.095 32.9747C169.451 32.9747 170.44 31.3443 170.953 28.7368L169.798 28.7317C169.699 29.6997 169.057 31.8783 166.589 31.9251ZM166.195 21.5705C168.267 21.5705 168.564 24.1841 168.564 25.7798H163.678C163.678 24.716 163.579 21.5705 166.195 21.5705ZM126.012 31.9251C123.199 31.9812 123.002 28.4413 123.05 26.7478H130.474C130.474 23.3088 128.923 20.5209 125.518 20.5209C122.36 20.5209 120.561 23.3088 120.561 26.7478C120.561 30.1868 122.063 32.9747 125.518 32.9747C128.874 32.9747 129.861 31.3443 130.376 28.7368L129.219 28.7317C129.122 29.6997 128.481 31.8783 126.012 31.9251ZM125.616 21.5705C127.691 21.5705 127.985 24.1841 127.985 25.7798H123.099C123.099 24.716 123.002 21.5705 125.616 21.5705ZM73.6284 31.9251C70.8159 31.9812 70.6184 28.4413 70.6673 26.7478H78.0913C78.0913 23.3088 76.5406 20.5209 73.1357 20.5209C69.9761 20.5209 68.1791 23.3088 68.1791 26.7478C68.1791 30.1868 69.6799 32.9747 73.1357 32.9747C76.4917 32.9747 77.4791 31.3443 77.9936 28.7368L76.8368 28.7327C76.7381 29.6997 76.0968 31.8783 73.6284 31.9251ZM73.2334 21.5705C75.3069 21.5705 75.6021 24.1841 75.6021 25.7798H70.7161C70.7161 24.716 70.6184 21.5705 73.2334 21.5705ZM118.603 30.1236V16.6224C118.603 16.066 118.309 15.6055 117.813 15.7512C116.869 16.0474 115.891 16.2261 114.902 16.2831V16.7671C116.333 16.6703 116.481 17.1064 116.481 17.5904V21.7518C115.84 21.171 115.099 20.5902 113.768 20.5902C112.089 20.5902 108.979 21.8965 108.979 26.4931C108.979 32.5426 112.583 32.9288 113.669 32.9288C114.755 32.9288 116.186 32.0586 116.482 31.598C116.506 31.5012 116.655 31.38 116.704 31.598C116.755 32.0342 117.075 32.6863 117.568 32.5416C118.512 32.2458 119.49 32.0671 120.48 32.0097V31.5257C118.406 31.6235 118.603 30.6066 118.603 30.1236ZM116.481 28.6716C116.432 31.3321 115.001 32.1554 113.816 32.1554C111.152 32.1075 111.348 28.1397 111.348 26.4452C111.348 24.7506 111.448 21.4125 113.865 21.7029C116.285 21.9933 116.482 24.5091 116.482 26.009L116.481 28.6716ZM147.576 25.7237V24.611H141.063V25.7237H147.576ZM132.088 28.5371V32.6496H132.63L133.123 31.5848C133.617 32.0209 134.654 32.7464 135.986 32.7464C137.319 32.7464 139.195 32.0209 139.936 30.6667C140.675 29.3115 140.33 27.0851 138.651 26.4075C137.182 25.8144 135.893 25.1042 134.901 24.6171C134.592 24.4729 134.339 24.2349 134.179 23.9385C134.019 23.642 133.961 23.3029 134.013 22.9715C134.162 22.1971 134.852 21.3748 136.43 21.3259C138.01 21.278 138.799 22.5843 138.999 24.0842H139.54V20.2142H139.046L138.503 21.1333C137.468 20.4557 137.023 20.3589 136.085 20.3589C135.148 20.3589 133.568 20.8429 132.679 22.1981C131.792 23.5534 132.038 25.6809 134.162 26.5532C136.283 27.4234 137.271 27.9563 137.863 28.2467C138.455 28.5371 138.8 29.6987 138.406 30.3763C138.01 31.0529 137.271 31.8283 136.086 31.8283C134.902 31.8283 133.028 31.005 132.583 28.5381L132.088 28.5371ZM156.853 23.7847C158.039 23.4943 159.224 21.4135 159.224 20.0104C159.224 18.6073 158.681 16.2362 155.225 16.2362H147.822V16.8649C148.563 16.8649 149.845 17.0106 149.845 18.2201V30.1725C149.845 30.8501 149.796 31.9628 147.822 31.9628V32.6404H153.893C155.718 32.6404 159.914 32.4947 160.014 27.7535C160.014 26.1558 159.224 24.2687 156.853 23.7847ZM151.967 17.0106H154.436C156.263 17.0106 157.002 18.3159 157.002 20.0104C157.002 22.0911 156.361 23.6879 154.436 23.6879H151.967V17.0106ZM154.485 31.866H151.967V24.4623H154.781C156.411 24.4623 157.842 25.575 157.842 27.994C157.842 30.414 156.36 31.866 154.485 31.866ZM180.172 23.8438V31.005C180.172 31.8762 179.382 32.0219 178.937 32.0219H178.641V32.6506H184.021V32.0219H183.527C183.082 32.0219 182.292 31.8762 182.292 31.005V23.8927C182.243 20.6503 179.282 20.5535 178.246 20.5535C177.16 20.5535 175.974 21.2311 175.729 21.5705C175.441 21.9648 175.085 21.8119 175.037 21.3769C174.988 20.9418 174.791 20.5067 174.296 20.6514C173.352 20.9473 172.374 21.126 171.384 21.1833V21.6673C173.457 21.5705 173.26 22.5864 173.26 23.0704V31.006C173.26 31.8772 172.471 32.0229 172.026 32.0229H171.336V32.6516H177.109V32.0229H176.615C176.171 32.0229 175.381 31.8772 175.381 31.006V24.6671C175.381 23.6033 175.777 21.9088 177.8 21.763C179.826 21.6184 180.172 22.9247 180.172 23.8438ZM185.165 24.0863L186.054 20.796H194.445L187.238 31.974H191.087C191.976 31.974 192.667 31.6347 193.604 29.4083H194L193.211 32.6506H184.621L191.779 21.4737H188.57C187.78 21.4737 186.893 21.4737 185.659 24.0863H185.165Z" fill="white"></path></svg>