<svg xmlns="http://www.w3.org/2000/svg" width="99" height="51" viewBox="0 0 99 51" fill="none"><g clip-path="url(#clip0_82_471)"><path d="M62.9135 44.242C62.3253 46.6815 60.4852 47.709 57.4047 47.709C55.3141 47.709 53.475 47.2892 52.529 46.3406C51.5032 45.3345 51.3486 43.9465 51.3486 42.4632V35.1891H53.6894V42.3388C53.6894 43.954 53.8222 44.9173 54.4533 45.6268C55.1699 46.4586 56.4078 46.702 57.4518 46.702C59.6599 46.702 61.1309 45.9868 61.5303 44.0438C61.6225 43.5962 61.6943 43.0478 61.6943 42.2012V35.189H63.1351V41.7112C63.1352 42.9291 63.0648 43.6169 62.9135 44.242Z" fill="white"></path><path d="M62.9135 44.242C62.3253 46.6815 60.4852 47.709 57.4047 47.709C55.3141 47.709 53.475 47.2892 52.529 46.3406C51.5032 45.3345 51.3486 43.9465 51.3486 42.4632V35.1891H53.6894V42.3388C53.6894 43.954 53.8222 44.9173 54.4533 45.6268C55.1699 46.4586 56.4078 46.702 57.4518 46.702C59.6599 46.702 61.1309 45.9868 61.5303 44.0438C61.6225 43.5962 61.6943 43.0478 61.6943 42.2012V35.189H63.1351V41.7112C63.1352 42.9291 63.0648 43.6169 62.9135 44.242Z" stroke="white" stroke-width="0.575339"></path><path d="M74.7738 37.5111L72.0626 43.1644H77.3512L74.7738 37.5111ZM79.2814 47.4374L77.7379 43.9972H71.6624L70.0091 47.4374H68.5234L74.6335 35.1885H76.0894L82.068 47.4374H79.2814Z" fill="white"></path><path d="M74.7738 37.5111L72.0626 43.1644H77.3512L74.7738 37.5111ZM79.2814 47.4374L77.7379 43.9972H71.6624L70.0091 47.4374H68.5234L74.6335 35.1885H76.0894L82.068 47.4374H79.2814Z" stroke="white" stroke-width="0.575339"></path><path d="M19.0113 37.5111L16.3023 43.1644H21.5922L19.0113 37.5111ZM23.5211 47.4374L21.9799 43.9972H15.9031L14.2476 47.4374H12.7627L18.8729 35.1885H20.3277L26.3087 47.4374H23.5211Z" fill="white"></path><path d="M19.0113 37.5111L16.3023 43.1644H21.5922L19.0113 37.5111ZM23.5211 47.4374L21.9799 43.9972H15.9031L14.2476 47.4374H12.7627L18.8729 35.1885H20.3277L26.3087 47.4374H23.5211Z" stroke="white" stroke-width="0.575339"></path><path d="M39.0597 47.7079C35.0147 47.7079 31.1704 46.3164 31.1704 41.6126C31.1704 40.0839 31.8488 38.5171 32.8734 37.3956C34.4795 35.6523 36.9182 34.957 39.2212 34.957C40.6137 34.957 42.2268 35.2729 43.4819 35.911V37.3658C42.3444 36.5175 40.8468 35.9325 39.3864 35.9325C36.0589 35.9325 33.7641 38.0141 33.7641 41.4579C33.7641 44.5751 35.7891 46.7086 38.9041 46.7086C39.6968 46.7086 40.7939 46.5676 41.5485 46.2783V41.8065H43.8892V46.7998C42.5161 47.4181 40.5674 47.7079 39.0597 47.7079Z" fill="white"></path><path d="M39.0597 47.7079C35.0147 47.7079 31.1704 46.3164 31.1704 41.6126C31.1704 40.0839 31.8488 38.5171 32.8734 37.3956C34.4795 35.6523 36.9182 34.957 39.2212 34.957C40.6137 34.957 42.2268 35.2729 43.4819 35.911V37.3658C42.3444 36.5175 40.8468 35.9325 39.3864 35.9325C36.0589 35.9325 33.7641 38.0141 33.7641 41.4579C33.7641 44.5751 35.7891 46.7086 38.9041 46.7086C39.6968 46.7086 40.7939 46.5676 41.5485 46.2783V41.8065H43.8892V46.7998C42.5161 47.4181 40.5674 47.7079 39.0597 47.7079Z" stroke="white" stroke-width="0.575339"></path><path d="M92.0903 36.0392H90.3689V41.899H91.8744C93.1367 41.899 93.8915 41.6634 94.4797 41.1894C95.1006 40.6908 95.4721 39.9261 95.4721 38.8925C95.4718 36.8225 93.9674 36.0392 92.0903 36.0392ZM96.0685 47.4377L92.8228 42.7341H90.3689V47.4377H88.0269V35.189H92.4571C94.2545 35.189 96.0534 35.4496 97.0548 36.5561C97.5786 37.1343 97.8635 37.9384 97.8635 38.9732C97.8635 40.8663 96.4362 42.013 95.165 42.4642L98.7646 47.4378L96.0685 47.4377Z" fill="white"></path><path d="M92.0903 36.0392H90.3689V41.899H91.8744C93.1367 41.899 93.8915 41.6634 94.4797 41.1894C95.1006 40.6908 95.4721 39.9261 95.4721 38.8925C95.4718 36.8225 93.9674 36.0392 92.0903 36.0392ZM96.0685 47.4377L92.8228 42.7341H90.3689V47.4377H88.0269V35.189H92.4571C94.2545 35.189 96.0534 35.4496 97.0548 36.5561C97.5786 37.1343 97.8635 37.9384 97.8635 38.9732C97.8635 40.8663 96.4362 42.013 95.165 42.4642L98.7646 47.4378L96.0685 47.4377Z" stroke="white" stroke-width="0.575339"></path><path d="M2.86941 49.9555C2.2512 50.2461 1.57389 50.4386 0.876953 50.4386C2.48177 49.2783 3.16018 48.0979 3.39208 46.1435C3.5282 45.059 3.5282 43.9744 3.5282 42.8911V35.189H5.87029V44.4591C5.87053 46.7226 4.99933 48.9112 2.86941 49.9555Z" fill="white"></path><path d="M2.86941 49.9555C2.2512 50.2461 1.57389 50.4386 0.876953 50.4386C2.48177 49.2783 3.16018 48.0979 3.39208 46.1435C3.5282 45.059 3.5282 43.9744 3.5282 42.8911V35.189H5.87029V44.4591C5.87053 46.7226 4.99933 48.9112 2.86941 49.9555Z" stroke="white" stroke-width="0.575339"></path><path d="M17.5931 2.49017C18.4341 2.51552 19.1564 2.20172 19.1588 2.15675C19.1611 2.11179 18.2277 2.02295 18.2277 2.02295C17.3728 2.05866 17.0243 2.37586 17.0196 2.41291C17.0139 2.44849 17.2424 2.47847 17.5931 2.49017Z" fill="white"></path><path d="M11.8763 3.93785C11.8763 3.93785 11.9271 3.75896 11.949 3.71984C11.971 3.67938 12.0933 3.26639 12.6839 3.22142C12.6839 3.22142 12.9815 3.19486 13.3243 3.301C13.3243 3.301 13.127 3.80978 12.3195 3.89398C12.3194 3.89398 12.0019 3.94139 11.8763 3.93785ZM90.9445 26.8751C90.7439 27.3709 89.8843 28.0024 88.8748 28.34C87.8089 28.6964 85.583 28.7056 84.4446 28.3274C84.4446 28.3274 84.2047 28.0665 83.4038 27.8313C81.5417 27.2835 80.9396 26.9016 79.9945 26.0212C79.3267 25.3995 78.5914 24.6196 77.8787 23.8845C77.5614 23.5569 76.7895 22.7838 75.4328 22.5485C74.0174 22.3039 70.5433 22.0385 69.264 21.5863C68.4033 21.2807 67.3832 20.7003 66.1029 18.7851C65.4891 17.8657 65.024 17.598 64.138 17.0326C64.138 17.0326 64.8142 17.5668 65.1697 18.2152C65.6829 19.1567 65.9287 19.834 66.209 20.3345C66.4914 20.8388 66.8182 21.2877 67.3281 21.6972C67.9603 22.2049 68.3688 22.3167 69.0829 22.4609C69.7658 22.5995 72.0976 22.7022 74.0982 22.7805C76.0652 22.8567 76.9063 23.4659 77.5212 23.9817C78.0865 24.4592 78.9876 25.8232 79.6199 26.3813C80.4654 27.1245 80.4875 27.1348 81.4693 27.7508C81.9653 28.0622 82.4027 28.2662 82.8054 28.4109C83.7065 28.9402 83.3338 29.8644 83.3338 29.8644C83.0755 30.6007 82.1457 30.8646 81.06 30.711C79.4192 30.566 78.0071 29.1975 76.8141 28.2156C76.1577 27.6744 75.9256 27.4044 74.66 26.5251C72.7344 25.1894 68.2096 25.3001 68.2096 25.3001L64.8938 25.2792C58.4351 25.3739 56.0721 20.1775 55.4273 19.0871C55.2047 18.7076 54.9982 18.4019 54.8019 18.1515C54.5008 17.7453 52.88 15.6295 51.1435 14.8738C51.1435 14.8738 52.8106 16.316 52.6434 17.1051C52.2857 17.1005 51.8795 17.1235 51.3949 17.1374C44.888 17.3279 43.5358 16.9678 42.5079 16.7625C41.4786 16.5559 39.7539 16.0437 38.0777 15.2718C38.0777 15.2718 38.2646 13.6682 37.5989 12.3357C37.5989 12.3357 42.9696 14.2323 47.2428 13.6948C47.2428 13.6948 40.3459 13.3579 36.0438 9.92924C36.0438 9.92924 37.1053 13.5531 36.2664 15.0748C36.2664 15.0748 35.1359 17.8379 29.3383 15.9942C29.3383 15.9942 26.6719 14.9571 24.5987 14.9571C24.5987 14.9571 23.0377 15.0217 22.851 15.8351C22.851 15.8351 22.7493 16.2238 23.1567 16.4085C23.1567 16.4085 23.6089 16.5377 23.3954 16.8734C23.0436 17.4283 22.5553 17.8575 22.0709 18.0997C20.4534 18.0201 20.5733 16.6921 20.5733 16.6921C20.6022 16.2214 20.7545 15.8926 20.8987 15.5685C21.915 13.2945 25.4869 12.9645 25.4869 12.9645C29.2873 12.585 33.2712 13.4975 33.2712 13.4975C30.4214 12.8179 29.4523 12.3195 28.6377 11.64C27.5404 10.7239 26.515 7.6459 26.515 7.6459C26.0777 9.15493 26.6189 10.6802 26.9846 11.4635C26.4445 10.6017 25.6751 9.8738 24.9886 9.32334C23.2338 7.9168 20.6863 7.46237 20.6863 7.46237C19.9501 7.33649 19.6582 6.57399 19.6582 6.57399C18.7144 4.83647 17.6461 4.75458 17.6461 4.75458C18.1721 5.47564 18.1168 6.46212 18.1168 6.46212C18.1168 8.28044 15.7783 8.8839 15.7783 8.8839C14.0291 10.6225 13.7258 10.5855 13.3842 10.6109C13.0426 10.6352 12.7901 10.2809 12.7901 10.2809C12.6792 10.1147 12.8639 9.96593 12.8639 9.96593C13.1591 9.7813 13.4385 9.54026 13.4385 9.54026C15.1437 8.17076 15.3836 7.47054 15.2452 6.51513C14.9671 4.60676 13.4281 4.74763 13.4281 4.74763C12.7046 4.74763 12.347 5.29906 12.347 5.29906C12.0679 5.63138 11.4574 6.67075 11.4574 6.67075C10.9198 7.55925 10.4388 7.42874 10.4388 7.42874C9.84581 7.46688 9.41661 6.94068 9.41661 6.94068C9.39345 6.92008 9.37615 6.89571 9.35665 6.87499C8.91721 6.40302 9.29548 5.83319 9.29548 5.83319C10.0191 4.55485 11.2672 4.4292 11.4369 4.41872C11.6075 4.40837 12.1833 4.36559 12.1833 4.36559C13.5929 4.26298 14.5136 2.91542 14.5136 2.91542C13.9196 2.62819 12.8583 2.78052 12.8583 2.78052C11.8245 2.84974 11.5521 3.94687 11.5499 3.94687C10.6546 4.07848 10.6996 3.39081 10.8912 3.20972C11.0423 3.03205 11.5752 2.16901 15.0029 1.65451C15.0029 1.65451 16.8212 1.29453 20.0505 1.64878C20.1693 1.66145 20.2846 1.7654 20.1324 1.94527C19.7262 2.42188 18.456 3.47855 16.4185 2.96746C16.4185 2.96746 16.3817 3.78199 18.6037 4.18926C18.6037 4.18926 20.6078 4.61602 23.8797 7.24424C23.8797 7.24424 22.2934 4.31039 19.551 3.41616C19.551 3.41616 19.3478 3.28698 19.5325 3.10126C19.5325 3.10126 20.8303 1.93821 23.1205 2.06056C23.1205 2.06056 30.6935 2.44942 34.9508 6.8923C34.9508 6.8923 34.8032 6.15162 34.1548 5.07752C34.1548 5.07752 34.0244 4.94944 34.0993 4.85609C34.0993 4.85609 34.1548 4.67025 34.8955 4.81904C34.8955 4.81904 37.5986 5.26336 43.8736 7.55913C43.8736 7.55913 48.5774 9.20782 51.1422 10.2716C54.998 11.8694 64.6578 15.7876 70.759 19.1645C71.8482 19.7668 76.3858 22.0084 76.3858 22.0084C79.7777 24.1138 82.8986 25.638 82.8986 25.638C85.9722 27.0583 88.2069 26.4075 88.2069 26.4075C88.9209 26.1386 90.2849 25.3982 90.8166 25.924C91.0875 26.1932 91.1036 26.5437 90.9445 26.8751ZM91.7093 25.6832C91.3076 24.7477 90.0143 24.9771 90.0143 24.9771C89.4228 25.0129 88.6764 25.6323 87.639 25.8456C85.4077 26.306 83.7014 25.5471 83.7014 25.5471C80.4135 24.075 78.1878 22.4713 76.7398 21.6428C75.2921 20.8145 69.933 17.9994 64.5728 15.3055C64.5728 15.3055 58.4326 12.1581 49.3481 8.40267C49.3481 8.40267 31.8206 0.450015 19.214 0.450015C19.214 0.450015 12.684 0.368001 10.4724 2.88094C10.4724 2.88094 10.0825 3.204 10.2727 3.602C10.2727 3.602 10.2993 3.71168 10.2174 3.78199C10.2174 3.78199 9.24478 4.42116 8.45316 5.3383C8.45316 5.3383 8.02883 5.77213 8.37005 6.41935C8.37005 6.41935 8.7923 7.1554 9.05894 7.47163C9.32777 7.78653 9.86531 8.33808 10.6867 8.25619C11.0501 8.21926 11.0604 8.12823 11.0604 8.12823C11.4377 8.50893 12.0965 8.53196 12.0965 8.53196C12.0307 8.29787 11.7792 7.83393 11.7572 7.56401C11.733 7.26179 11.8506 6.98138 11.8506 6.98138C11.9879 6.64906 12.2453 6.23716 12.5073 6.03182C12.7403 5.84952 13.3182 5.66039 13.7497 5.96261C14.096 6.20499 14.4638 6.98138 14.0486 8.00357C14.0486 8.00357 13.5814 8.81115 13.1499 8.90109L13.0301 8.90681C12.7831 8.90218 12.2329 8.59887 12.2329 8.59887C12.2329 8.59887 12.2098 8.66467 12.2709 8.94276C12.3066 9.1007 12.3574 9.27618 12.4002 9.41108L12.2859 9.50333C12.2859 9.50333 11.9386 9.78264 12.0921 10.1853C12.0921 10.1853 12.4302 11.4567 13.3739 11.4567C14.2081 11.4845 14.9025 10.693 14.9025 10.693C16.6921 8.76277 19.214 8.5032 19.214 8.5032C22.0093 8.31273 26.0039 11.1752 27.0917 12.0013C22.9522 11.9563 21.2816 13.5449 21.2816 13.5449C18.95 15.3598 19.8577 17.5496 19.8577 17.5496C20.0275 18.0259 20.505 18.3732 20.8097 18.5071C21.249 18.6985 21.6103 18.7065 21.9507 18.6685C22.1965 18.642 22.4662 18.5508 22.6035 18.4562C22.9209 18.2692 23.4873 17.899 23.7607 17.5055C23.9432 17.3082 24.1264 16.8249 24.0053 16.3645C24.0053 16.3645 23.9317 15.9941 24.265 15.9191C24.265 15.9191 25.362 15.6411 27.5774 16.6195C27.5774 16.6195 29.984 18.0224 33.1059 18.3005C33.1059 18.3005 36.656 18.6605 37.5133 16.7383C37.5133 16.7383 39.553 17.5725 42.5377 17.9141C42.5377 17.9141 45.4461 18.2151 50.1639 17.8598C51.0924 17.7894 52.1827 17.8668 52.1827 17.8668C53.693 18.0479 54.6529 18.8336 55.0313 19.4486C56.5775 21.9589 58.4221 26.8843 65.9757 26.6894L69.3942 26.5956C71.4722 26.5956 73.1643 26.613 74.8258 27.5013C75.5514 27.8901 77.4681 29.7924 78.6481 30.435C82.1427 32.79 84.1616 31.6952 84.1616 31.6952C85.3511 31.0019 85.2577 29.7683 84.968 29.0776C84.6103 28.9641 89.2979 29.7649 91.2965 27.1404C91.7693 26.5554 91.8522 26.019 91.7093 25.6832Z" fill="white"></path></g><defs><clipPath id="clip0_82_471"><rect width="97.9624" height="50" fill="white" transform="translate(0.833008 0.449707)"></rect></clipPath></defs></svg>