<svg xmlns="http://www.w3.org/2000/svg" width="356" height="185" viewBox="0 0 356 185" fill="none"><path d="M15.7188 62.9447C15.9266 62.9447 16.1345 62.8907 16.3203 62.7836L41.9967 47.9464L66.7985 38.7107C67.24 38.5466 67.5453 38.1398 67.5796 37.6694C67.6127 37.2001 67.3694 36.7536 66.9572 36.5272L1.87246 0.901531C1.45552 0.67196 0.942445 0.711438 0.563605 1.00179C0.184766 1.29088 0.0126567 1.77606 0.12445 2.23929L14.5477 62.0234C14.6374 62.3925 14.8947 62.6983 15.2439 62.8476C15.3967 62.9128 15.5575 62.9447 15.7188 62.9447ZM63.4907 37.3741L41.0618 45.7261C40.9991 45.7494 40.9374 45.7779 40.8797 45.8116L16.511 59.8934L3.10258 4.31882L63.4907 37.3741Z" fill="#FF3600"></path><path d="M40.9107 47.9091C41.1948 47.9091 41.4792 47.8097 41.7091 47.6065C42.206 47.1663 42.253 46.4056 41.8124 45.9077L3.16678 2.25858C2.72528 1.76039 1.96617 1.71406 1.46798 2.15525C0.97105 2.59487 0.924089 3.35588 1.36465 3.85344L40.0103 47.5032C40.2477 47.7718 40.5785 47.9091 40.9107 47.9091Z" fill="#FF3600"></path><path d="M33.0976 63.7467C33.1442 63.7467 33.1924 63.7441 33.239 63.7381C33.645 63.6909 33.9994 63.4404 34.1789 63.0732L41.5694 47.9962C41.8623 47.3991 41.616 46.6785 41.0196 46.386C40.4231 46.0934 39.7019 46.34 39.4081 46.9364L32.838 60.3399L28.0073 54.4925C27.5841 53.9801 26.8252 53.9078 26.3134 54.3313C25.8004 54.7546 25.7281 55.5129 26.1523 56.0252L32.1701 63.31C32.4003 63.5881 32.742 63.7467 33.0976 63.7467Z" fill="#FF3600"></path><path d="M38.1091 70.7516L38.4091 71.7212C51.9964 120.802 94.2515 143.873 113.681 149.274C152.035 162.637 198.794 144.706 222.256 135.582C296.173 110.554 340.37 156.645 353.393 181.785L353.635 182.277" stroke="#040401" stroke-opacity="0.2" stroke-width="4" stroke-linecap="round" stroke-dasharray="16 16"></path></svg>