<svg xmlns="http://www.w3.org/2000/svg" width="1491" height="450" viewBox="0 0 1491 450" fill="none"><mask id="mask0_96_34908" style="mask-type:luminance" maskUnits="userSpaceOnUse" x="-1" y="-253" width="1492" height="759"><path d="M1490.6 -252.226H-1V505.455H1490.6V-252.226Z" fill="white"></path></mask><g mask="url(#mask0_96_34908)"><path d="M1492.07 604.776H0.236328V-351.546H1492.07L1492.07 604.776ZM2.16459 602.803H1490.14V-349.573H2.16459V602.803Z" fill="white" fill-opacity="0.04"></path><path d="M1491.1 411.932H1.2002V413.905H1491.1V411.932Z" fill="white" fill-opacity="0.04"></path><path d="M1491.1 364.215H1.2002V366.188H1491.1V364.215Z" fill="white" fill-opacity="0.04"></path><path d="M1491.1 316.498H1.2002V318.471H1491.1V316.498Z" fill="white" fill-opacity="0.04"></path><path d="M1491.1 268.78H1.2002V270.753H1491.1V268.78Z" fill="white" fill-opacity="0.04"></path><path d="M1491.1 221.063H1.2002V223.036H1491.1V221.063Z" fill="white" fill-opacity="0.04"></path><path d="M1491.1 173.345H1.2002V175.318H1491.1V173.345Z" fill="white" fill-opacity="0.04"></path><path d="M1491.1 125.628H1.2002V127.601H1491.1V125.628Z" fill="white" fill-opacity="0.04"></path><path d="M1491.1 77.9111H1.2002V79.8843H1491.1V77.9111Z" fill="white" fill-opacity="0.04"></path><path d="M1491.1 30.1924H1.2002V32.1655H1491.1V30.1924Z" fill="white" fill-opacity="0.04"></path><path d="M1447.69 0.336914H1445.47V448.11H1447.69V0.336914Z" fill="white" fill-opacity="0.04"></path><path d="M1395.71 0.336914H1393.49V448.11H1395.71V0.336914Z" fill="white" fill-opacity="0.04"></path><path d="M1343.72 0.336914H1341.5V448.11H1343.72V0.336914Z" fill="white" fill-opacity="0.04"></path><path d="M1291.74 0.336914H1289.52V448.11H1291.74V0.336914Z" fill="white" fill-opacity="0.04"></path><path d="M1239.76 0.336914H1237.54V448.11H1239.76V0.336914Z" fill="white" fill-opacity="0.04"></path><path d="M1187.77 0.336914H1185.55V448.11H1187.77V0.336914Z" fill="white" fill-opacity="0.04"></path><path d="M1135.79 0.336914H1133.57V448.11H1135.79V0.336914Z" fill="white" fill-opacity="0.04"></path><path d="M1083.8 0.336914H1081.58V448.11H1083.8V0.336914Z" fill="white" fill-opacity="0.04"></path><path d="M1031.82 0.336914H1029.6V448.11H1031.82V0.336914Z" fill="white" fill-opacity="0.04"></path><path d="M979.836 0.336914H977.616V448.11H979.836V0.336914Z" fill="white" fill-opacity="0.04"></path><path d="M927.852 0.336914H925.633V448.11H927.852V0.336914Z" fill="white" fill-opacity="0.04"></path><path d="M875.868 0.336914H873.648V448.11H875.868V0.336914Z" fill="white" fill-opacity="0.04"></path><path d="M823.884 0.336914H821.665V448.11H823.884V0.336914Z" fill="white" fill-opacity="0.04"></path><path d="M771.901 0.336426H769.681V448.109H771.901V0.336426Z" fill="white" fill-opacity="0.04"></path><path d="M719.917 0.336914H717.697V448.11H719.917V0.336914Z" fill="white" fill-opacity="0.04"></path><path d="M667.933 0.336914H665.714V448.11H667.933V0.336914Z" fill="white" fill-opacity="0.04"></path><path d="M615.949 0.336914H613.729V448.11H615.949V0.336914Z" fill="white" fill-opacity="0.04"></path><path d="M563.965 0.336914H561.746V448.11H563.965V0.336914Z" fill="white" fill-opacity="0.04"></path><path d="M511.98 0.336914H509.761V448.11H511.98V0.336914Z" fill="white" fill-opacity="0.04"></path><path d="M459.996 0.336914H457.776V448.11H459.996V0.336914Z" fill="white" fill-opacity="0.04"></path><path d="M408.013 0.336914H405.793V448.11H408.013V0.336914Z" fill="white" fill-opacity="0.04"></path><path d="M356.029 0.336914H353.81V448.11H356.029V0.336914Z" fill="white" fill-opacity="0.04"></path><path d="M304.045 0.336914H301.826V448.11H304.045V0.336914Z" fill="white" fill-opacity="0.04"></path><path d="M252.061 0.336914H249.842V448.11H252.061V0.336914Z" fill="white" fill-opacity="0.04"></path><path d="M200.077 0.336914H197.857V448.11H200.077V0.336914Z" fill="white" fill-opacity="0.04"></path><path d="M148.094 0.336914H145.874V448.11H148.094V0.336914Z" fill="white" fill-opacity="0.04"></path><path d="M96.1103 0.336914H93.8906V448.11H96.1103V0.336914Z" fill="white" fill-opacity="0.04"></path><path d="M44.1249 0.336914H41.9053V448.11H44.1249V0.336914Z" fill="white" fill-opacity="0.04"></path></g></svg>