<svg xmlns="http://www.w3.org/2000/svg" width="1819" height="417" viewBox="0 0 1819 417" fill="none"><g clip-path="url(#clip0_749_104)"><path fill-rule="evenodd" clip-rule="evenodd" d="M1649.42 268.693C1649.5 268.431 1649.74 268.25 1650.01 268.25C1650.29 268.25 1650.53 268.431 1650.6 268.693C1650.6 268.693 1651.69 272.331 1652.85 276.234C1654.71 282.452 1659.57 287.316 1665.79 289.17C1669.69 290.333 1673.33 291.419 1673.33 291.419C1673.59 291.497 1673.77 291.738 1673.77 292.012C1673.77 292.286 1673.59 292.527 1673.33 292.605C1673.33 292.605 1669.69 293.691 1665.79 294.854C1659.57 296.708 1654.71 301.572 1652.85 307.79C1651.69 311.692 1650.6 315.331 1650.6 315.331C1650.53 315.593 1650.29 315.774 1650.01 315.774C1649.74 315.774 1649.5 315.593 1649.42 315.331C1649.42 315.331 1648.33 311.692 1647.17 307.79C1645.32 301.572 1640.45 296.708 1634.23 294.854C1630.33 293.691 1626.69 292.605 1626.69 292.605C1626.43 292.527 1626.25 292.286 1626.25 292.012C1626.25 291.738 1626.43 291.497 1626.69 291.419C1626.69 291.419 1630.33 290.333 1634.23 289.17C1640.45 287.316 1645.32 282.452 1647.17 276.234C1648.33 272.331 1649.42 268.693 1649.42 268.693Z" fill="#616161" fill-opacity="0.2"></path><path fill-rule="evenodd" clip-rule="evenodd" d="M1205.42 47.6927C1205.5 47.4308 1205.74 47.25 1206.01 47.25C1206.29 47.25 1206.53 47.4308 1206.6 47.6927C1206.6 47.6927 1207.69 51.3313 1208.85 55.2341C1210.71 61.4519 1215.57 66.3158 1221.79 68.1698C1225.69 69.3332 1229.33 70.4188 1229.33 70.4188C1229.59 70.4967 1229.77 70.7381 1229.77 71.0119C1229.77 71.2857 1229.59 71.5271 1229.33 71.605C1229.33 71.605 1225.69 72.6905 1221.79 73.854C1215.57 75.708 1210.71 80.5718 1208.85 86.7896C1207.69 90.6924 1206.6 94.3311 1206.6 94.3311C1206.53 94.593 1206.29 94.7737 1206.01 94.7737C1205.74 94.7737 1205.5 94.593 1205.42 94.3311C1205.42 94.3311 1204.33 90.6924 1203.17 86.7896C1201.32 80.5718 1196.45 75.708 1190.23 73.854C1186.33 72.6905 1182.69 71.605 1182.69 71.605C1182.43 71.5271 1182.25 71.2857 1182.25 71.0119C1182.25 70.7381 1182.43 70.4967 1182.69 70.4188C1182.69 70.4188 1186.33 69.3332 1190.23 68.1698C1196.45 66.3158 1201.32 61.4519 1203.17 55.2341C1204.33 51.3313 1205.42 47.6927 1205.42 47.6927Z" fill="#616161" fill-opacity="0.2"></path><path fill-rule="evenodd" clip-rule="evenodd" d="M808.419 332.693C808.497 332.431 808.738 332.25 809.012 332.25C809.286 332.25 809.527 332.431 809.605 332.693C809.605 332.693 810.691 336.331 811.854 340.234C813.708 346.452 818.572 351.316 824.79 353.17C828.692 354.333 832.331 355.419 832.331 355.419C832.593 355.497 832.774 355.738 832.774 356.012C832.774 356.286 832.593 356.527 832.331 356.605C832.331 356.605 828.692 357.691 824.79 358.854C818.572 360.708 813.708 365.572 811.854 371.79C810.691 375.692 809.605 379.331 809.605 379.331C809.527 379.593 809.286 379.774 809.012 379.774C808.738 379.774 808.497 379.593 808.419 379.331C808.419 379.331 807.333 375.692 806.17 371.79C804.316 365.572 799.452 360.708 793.234 358.854C789.331 357.691 785.693 356.605 785.693 356.605C785.431 356.527 785.25 356.286 785.25 356.012C785.25 355.738 785.431 355.497 785.693 355.419C785.693 355.419 789.331 354.333 793.234 353.17C799.452 351.316 804.316 346.452 806.17 340.234C807.333 336.331 808.419 332.693 808.419 332.693Z" fill="#616161" fill-opacity="0.2"></path><path fill-rule="evenodd" clip-rule="evenodd" d="M615.419 -20.3073C615.497 -20.5692 615.738 -20.75 616.012 -20.75C616.286 -20.75 616.527 -20.5692 616.605 -20.3073C616.605 -20.3073 617.691 -16.6687 618.854 -12.7659C620.708 -6.54806 625.572 -1.68421 631.79 0.169751C635.692 1.33324 639.331 2.41877 639.331 2.41877C639.593 2.49669 639.774 2.73806 639.774 3.01188C639.774 3.28569 639.593 3.52706 639.331 3.60498C639.331 3.60498 635.692 4.69052 631.79 5.854C625.572 7.70796 620.708 12.5718 618.854 18.7896C617.691 22.6924 616.605 26.3311 616.605 26.3311C616.527 26.593 616.286 26.7737 616.012 26.7737C615.738 26.7737 615.497 26.593 615.419 26.3311C615.419 26.3311 614.333 22.6924 613.17 18.7896C611.316 12.5718 606.452 7.70796 600.234 5.854C596.331 4.69052 592.693 3.60498 592.693 3.60498C592.431 3.52706 592.25 3.28569 592.25 3.01188C592.25 2.73806 592.431 2.49669 592.693 2.41877C592.693 2.41877 596.331 1.33324 600.234 0.169751C606.452 -1.68421 611.316 -6.54806 613.17 -12.7659C614.333 -16.6687 615.419 -20.3073 615.419 -20.3073Z" fill="white" fill-opacity="0.04"></path><path fill-rule="evenodd" clip-rule="evenodd" d="M64.4188 309.693C64.4967 309.431 64.738 309.25 65.0119 309.25C65.2857 309.25 65.5271 309.431 65.605 309.693C65.605 309.693 66.6905 313.331 67.854 317.234C69.7079 323.452 74.5718 328.316 80.7896 330.17C84.6924 331.333 88.3311 332.419 88.3311 332.419C88.593 332.497 88.7737 332.738 88.7737 333.012C88.7737 333.286 88.593 333.527 88.3311 333.605C88.3311 333.605 84.6924 334.691 80.7896 335.854C74.5718 337.708 69.7079 342.572 67.854 348.79C66.6905 352.692 65.605 356.331 65.605 356.331C65.5271 356.593 65.2857 356.774 65.0119 356.774C64.738 356.774 64.4967 356.593 64.4188 356.331C64.4188 356.331 63.3332 352.692 62.1697 348.79C60.3158 342.572 55.4519 337.708 49.2341 335.854C45.3313 334.691 41.6927 333.605 41.6927 333.605C41.4307 333.527 41.25 333.286 41.25 333.012C41.25 332.738 41.4307 332.497 41.6927 332.419C41.6927 332.419 45.3313 331.333 49.2341 330.17C55.4519 328.316 60.3158 323.452 62.1697 317.234C63.3332 313.331 64.4188 309.693 64.4188 309.693Z" fill="#616161" fill-opacity="0.2"></path><path fill-rule="evenodd" clip-rule="evenodd" d="M168.419 77.6927C168.497 77.4308 168.738 77.25 169.012 77.25C169.286 77.25 169.527 77.4308 169.605 77.6927C169.605 77.6927 170.691 81.3313 171.854 85.2341C173.708 91.4519 178.572 96.3158 184.79 98.1698C188.692 99.3332 192.331 100.419 192.331 100.419C192.593 100.497 192.774 100.738 192.774 101.012C192.774 101.286 192.593 101.527 192.331 101.605C192.331 101.605 188.692 102.691 184.79 103.854C178.572 105.708 173.708 110.572 171.854 116.79C170.691 120.692 169.605 124.331 169.605 124.331C169.527 124.593 169.286 124.774 169.012 124.774C168.738 124.774 168.497 124.593 168.419 124.331C168.419 124.331 167.333 120.692 166.17 116.79C164.316 110.572 159.452 105.708 153.234 103.854C149.331 102.691 145.693 101.605 145.693 101.605C145.431 101.527 145.25 101.286 145.25 101.012C145.25 100.738 145.431 100.497 145.693 100.419C145.693 100.419 149.331 99.3332 153.234 98.1698C159.452 96.3158 164.316 91.4519 166.17 85.2341C167.333 81.3313 168.419 77.6927 168.419 77.6927Z" fill="#616161" fill-opacity="0.2"></path><g clip-path="url(#clip1_749_104)"><path fill-rule="evenodd" clip-rule="evenodd" d="M24.0387 24L32.7308 29.0183L28.7106 35.9816L20.0185 30.9633V41H11.978V30.9633L3.28586 35.9817L-0.734375 29.0183L7.95767 24L-0.734375 18.9816L3.28586 12.0183L11.978 17.0367V7H20.0185V17.0367L28.7106 12.0184L32.7308 18.9817L24.0387 24Z" fill="#616161" fill-opacity="0.2"></path></g></g><g clip-path="url(#clip2_749_104)"><path fill-rule="evenodd" clip-rule="evenodd" d="M1747.04 60L1755.73 65.0183L1751.71 71.9816L1743.02 66.9633V77H1734.98V66.9633L1726.29 71.9817L1722.27 65.0183L1730.96 60L1722.27 54.9816L1726.29 48.0183L1734.98 53.0367V43H1743.02V53.0367L1751.71 48.0184L1755.73 54.9817L1747.04 60Z" fill="#616161" fill-opacity="0.2"></path></g><g clip-path="url(#clip3_749_104)"><path fill-rule="evenodd" clip-rule="evenodd" d="M552.039 247L560.731 252.018L556.711 258.982L548.019 253.963V264H539.978V253.963L531.286 258.982L527.266 252.018L535.958 247L527.266 241.982L531.286 235.018L539.978 240.037V230H548.019V240.037L556.711 235.018L560.731 241.982L552.039 247Z" fill="#616161" fill-opacity="0.2"></path></g><defs><clipPath id="clip0_749_104"><rect width="1819" height="417" rx="46" fill="white"></rect></clipPath><clipPath id="clip1_749_104"><rect width="34" height="34" fill="white" transform="translate(-1 7)"></rect></clipPath><clipPath id="clip2_749_104"><rect width="34" height="34" fill="white" transform="translate(1722 43)"></rect></clipPath><clipPath id="clip3_749_104"><rect width="34" height="34" fill="white" transform="translate(527 230)"></rect></clipPath></defs></svg>