<svg width="30" height="30" viewBox="0 0 30 30" fill="none" xmlns="http://www.w3.org/2000/svg">
<mask id="mask0_167_91" style="mask-type:luminance" maskUnits="userSpaceOnUse" x="0" y="0" width="29" height="29">
<path d="M28.8442 0.323242H0.344238V28.8232H28.8442V0.323242Z" fill="white"/>
</mask>
<g mask="url(#mask0_167_91)">
<path d="M26.2488 11.7812L16.878 2.41042C15.5447 1.06955 13.7301 0.317927 11.8391 0.32327H4.61915C3.30815 0.324874 2.24575 1.38727 2.24414 2.69827V28.3482C2.24414 28.6106 2.45683 28.8233 2.71915 28.8233H16.7022C17.9189 28.8233 19.0385 28.1586 19.6211 27.0905C20.9082 24.7284 22.8492 22.7874 25.2114 21.5001C26.2796 20.9175 26.9441 19.7981 26.9442 18.5813V13.4603C26.9459 12.8303 26.6955 12.2256 26.2488 11.7812ZM25.9941 18.5813C25.9943 19.4505 25.5195 20.2505 24.7563 20.6666C22.2339 22.0406 20.1614 24.113 18.7875 26.6354C18.3713 27.3986 17.5715 27.8733 16.7022 27.8733H3.19415V2.69827C3.19415 1.91125 3.83213 1.27327 4.61915 1.27327H11.8391C13.4778 1.26882 15.0503 1.92016 16.2059 3.08208L25.5771 12.4529C25.8432 12.7207 25.9932 13.0827 25.9941 13.4603V18.5813Z" fill="#616161"/>
<path d="M23.9548 12.3373L15.3711 3.75361C14.3935 2.77048 13.0631 2.21943 11.6766 2.22316H5.56904C4.78202 2.22316 4.14404 2.86114 4.14404 3.64816V12.6732C4.14404 12.9355 4.35671 13.1482 4.61903 13.1482H23.619C23.8111 13.1482 23.9844 13.0326 24.0579 12.8551C24.1315 12.6776 24.0907 12.4732 23.9548 12.3373ZM16.494 12.1982H5.09404V3.64816C5.09404 3.38584 5.30672 3.17316 5.56904 3.17316H11.6766C12.811 3.17008 13.8995 3.62091 14.6995 4.42527L16.494 6.21981V12.1982ZM17.4441 12.1982V7.16982L22.4724 12.1982H17.4441Z" fill="#616161"/>
<path d="M22.669 14.5732H19.819C19.032 14.5732 18.394 15.2112 18.394 15.9983C18.394 16.7853 19.032 17.4233 19.819 17.4233H22.669C23.4561 17.4233 24.094 16.7853 24.094 15.9983C24.094 15.2112 23.4561 14.5732 22.669 14.5732ZM22.669 16.4732H19.819C19.5567 16.4732 19.344 16.2606 19.344 15.9983C19.344 15.7359 19.5567 15.5232 19.819 15.5232H22.669C22.9314 15.5232 23.1441 15.7359 23.1441 15.9983C23.1441 16.2606 22.9314 16.4732 22.669 16.4732Z" fill="#616161"/>
</g>
</svg>
