<svg width="30" height="30" viewBox="0 0 30 30" fill="none" xmlns="http://www.w3.org/2000/svg">
<path fill-rule="evenodd" clip-rule="evenodd" d="M11.2454 1.24976C13.2329 1.24976 14.9954 2.35101 14.9954 4.37476C15.1304 5.76101 13.7041 8.52976 13.7454 10.0023C13.7454 10.406 13.7929 10.8335 13.8866 11.286C14.1004 11.2523 14.3329 11.2435 14.5516 11.2548C15.8991 7.13976 17.9116 4.99976 20.6204 4.99976C23.9691 4.99976 27.4954 8.29101 27.4954 11.2498C27.4954 13.2373 26.3941 14.9998 24.3704 14.9998C22.8779 15.1135 20.2404 13.7085 18.7429 13.7498C18.3391 13.7498 17.9116 13.7973 17.4591 13.891C17.4929 14.1048 17.5004 14.3373 17.4904 14.5573C21.6041 15.9035 23.7454 17.916 23.7454 20.6248C23.7454 23.9735 20.4541 27.4998 17.4954 27.4998C15.5079 27.4998 13.7454 26.3985 13.7454 24.3748C13.6479 22.8035 15.0366 20.266 14.9954 18.7473C14.9954 18.3435 14.9479 17.916 14.8541 17.4635C14.6404 17.4973 14.4066 17.506 14.1879 17.4948C12.8416 21.6098 10.8291 23.7498 8.12036 23.7498C4.77161 23.7498 1.24536 20.4585 1.24536 17.4998C1.24536 15.5123 2.34661 13.7498 4.37036 13.7498C5.94161 13.6523 8.47911 15.041 9.99786 14.9998C10.4016 14.9998 10.8291 14.9523 11.2816 14.8585C11.2479 14.6448 11.2391 14.4123 11.2504 14.1923C7.13661 12.846 4.99536 10.8335 4.99536 8.12476C4.99536 4.77601 8.28661 1.24976 11.2454 1.24976ZM17.1679 15.766C16.9141 16.2798 16.5179 16.7148 16.0354 17.0198C16.1754 17.6223 16.2454 18.1973 16.2454 18.7473C16.3804 20.1348 14.9541 22.9023 14.9954 24.3748C14.9954 25.5535 16.1104 26.2498 17.4954 26.2498C19.7441 26.2498 22.4954 23.3023 22.4954 20.6248C22.4954 18.5873 20.7741 16.9573 17.1679 15.766ZM4.37036 14.9998C3.19161 14.9998 2.49536 16.1148 2.49536 17.4998C2.49536 19.7485 5.44286 22.4998 8.12036 22.4998C10.1579 22.4998 11.7879 20.7785 12.9791 17.1723C12.4629 16.9173 12.0291 16.5223 11.7241 16.0385C11.1229 16.1798 10.5479 16.2498 9.99786 16.2498C8.61036 16.3848 5.84286 14.9585 4.37036 14.9998ZM14.3704 12.4998C13.3354 12.4998 12.4954 13.3398 12.4954 14.3748C12.4954 15.4098 13.3354 16.2498 14.3704 16.2498C15.4054 16.2498 16.2454 15.4098 16.2454 14.3748C16.2454 13.3398 15.4054 12.4998 14.3704 12.4998ZM20.6204 6.24976C18.5829 6.24976 16.9529 7.97101 15.7616 11.5748C16.2766 11.8323 16.7116 12.2273 17.0166 12.711C17.6166 12.5698 18.1929 12.4998 18.7429 12.4998C20.1304 12.3648 22.8979 13.791 24.3704 13.7498C25.5479 13.7498 26.2454 12.6348 26.2454 11.2498C26.2454 9.00101 23.2979 6.24976 20.6204 6.24976ZM11.2454 2.49976C8.99661 2.49976 6.24536 5.44726 6.24536 8.12476C6.24536 10.1623 7.96661 11.7923 11.5716 12.9835C11.8279 12.4673 12.2229 12.0335 12.7066 11.7285C12.5654 11.1273 12.4954 10.5523 12.4954 10.0023C12.3604 8.61476 13.7866 5.84726 13.7454 4.37476C13.7454 3.19601 12.6304 2.49976 11.2454 2.49976Z" fill="#616161"/>
</svg>
