<svg width="30" height="30" viewBox="0 0 30 30" fill="none" xmlns="http://www.w3.org/2000/svg">
<path d="M24.7828 9.62791C25.3125 9.10291 25.7813 8.76073 25.7813 7.96854C25.7846 7.64117 25.6896 7.32034 25.5086 7.04754C25.3276 6.77474 25.0689 6.56252 24.766 6.43833C24.4631 6.31414 24.1299 6.28368 23.8095 6.35091C23.4891 6.41813 23.1962 6.57994 22.9688 6.81541L22.5 7.28416C20.7389 5.90303 18.6297 5.03664 16.4063 4.78104V4.21854C16.8414 4.18746 17.2464 3.9848 17.5321 3.65515C17.8178 3.32549 17.9608 2.89585 17.9297 2.46073C17.8986 2.02561 17.696 1.62065 17.3663 1.33495C17.0367 1.04925 16.607 0.906209 16.1719 0.937289H13.8282C13.393 0.906209 12.9634 1.04925 12.6337 1.33495C12.3041 1.62065 12.1014 2.02561 12.0703 2.46073C12.0393 2.89585 12.1823 3.32549 12.468 3.65515C12.7537 3.9848 13.1587 4.18746 13.5938 4.21854V4.78104C11.3694 5.03937 9.2601 5.90904 7.50004 7.29354L7.03129 6.82479C6.7267 6.51399 6.31113 6.33691 5.87598 6.33252C5.44084 6.32812 5.02177 6.49677 4.71097 6.80135C4.40017 7.10594 4.2231 7.52151 4.2187 7.95665C4.21431 8.3918 4.38295 8.81086 4.68754 9.12166L5.19847 9.62791C-0.731214 17.6154 4.98754 29.0623 15 29.0623C25.0125 29.0623 30.7219 17.5967 24.7828 9.62791ZM23.6532 7.49979C23.7485 7.40185 23.8707 7.33427 24.0043 7.30553C24.138 7.27679 24.2771 7.28817 24.4043 7.33825C24.5315 7.38832 24.6411 7.47486 24.7193 7.587C24.7975 7.69914 24.8408 7.83187 24.8438 7.96854C24.8437 8.05669 24.8253 8.14385 24.7898 8.22454C24.7543 8.30522 24.7025 8.37766 24.6375 8.43729C24.1688 8.90604 24.2297 8.90604 24.1688 8.84041C23.8741 8.50175 23.5611 8.17939 23.2313 7.87479L23.6532 7.49979ZM13.8282 1.87479H16.1719C16.3584 1.87479 16.5372 1.94887 16.6691 2.08073C16.801 2.21259 16.875 2.39143 16.875 2.57791C16.875 2.76439 16.801 2.94324 16.6691 3.0751C16.5372 3.20696 16.3584 3.28104 16.1719 3.28104H13.8282C13.6417 3.28104 13.4628 3.20696 13.331 3.0751C13.1991 2.94324 13.125 2.76439 13.125 2.57791C13.125 2.39143 13.1991 2.21259 13.331 2.08073C13.4628 1.94887 13.6417 1.87479 13.8282 1.87479ZM14.5313 4.68729V4.21854H15.4688V4.68729H14.5313ZM6.34691 7.49979C6.81566 7.96854 6.77816 7.90291 6.73129 7.9451C6.40167 8.24 6.08869 8.55298 5.79379 8.8826L5.37191 8.43729C5.28525 8.30298 5.24797 8.14272 5.26647 7.98395C5.28497 7.82518 5.35809 7.67778 5.47331 7.56699C5.58853 7.4562 5.73868 7.38892 5.89805 7.37666C6.05742 7.3644 6.2161 7.40793 6.34691 7.49979ZM23.5969 24.1451C22.5409 25.397 21.2242 26.4033 19.7389 27.0935C18.2536 27.7838 16.6355 28.1414 14.9977 28.1414C13.3598 28.1414 11.7418 27.7838 10.2565 27.0935C8.77117 26.4033 7.45451 25.397 6.39847 24.1451C0.210973 16.8092 5.48441 5.62479 15 5.62479C24.5157 5.62479 29.7891 16.8045 23.5969 24.1264V24.1451Z" fill="#616161"/>
<path d="M22.7015 10.7482C21.7796 9.59006 20.6084 8.65474 19.2749 8.01188C17.9415 7.36901 16.4803 7.03516 15 7.03516C13.5197 7.03516 12.0584 7.36901 10.725 8.01188C9.39161 8.65474 8.22035 9.59006 7.29842 10.7482C2.17967 17.1607 6.75936 26.7185 15 26.7185C23.2406 26.7185 27.8297 17.1654 22.7015 10.7482ZM21.8062 22.617C20.9702 23.6043 19.929 24.3977 18.7552 24.9419C17.5814 25.486 16.3032 25.7679 15.0094 25.7679C13.7156 25.7679 12.4373 25.486 11.2635 24.9419C10.0897 24.3977 9.04855 23.6043 8.21248 22.617C3.28123 16.8232 7.46717 7.96853 15 7.96853C22.5328 7.96853 26.7187 16.8185 21.8062 22.617Z" fill="#616161"/>
<path d="M15 9.84375C15.1243 9.84375 15.2435 9.79436 15.3315 9.70646C15.4194 9.61855 15.4688 9.49932 15.4688 9.375C15.4688 9.25068 15.4194 9.13145 15.3315 9.04354C15.2435 8.95564 15.1243 8.90625 15 8.90625C14.8757 8.90625 14.7565 8.95564 14.6685 9.04354C14.5806 9.13145 14.5312 9.25068 14.5312 9.375C14.5312 9.49932 14.5806 9.61855 14.6685 9.70646C14.7565 9.79436 14.8757 9.84375 15 9.84375Z" fill="#616161"/>
<path d="M15 23.9062C14.8757 23.9062 14.7565 23.9556 14.6685 24.0435C14.5806 24.1315 14.5312 24.2507 14.5312 24.375C14.5312 24.4993 14.5806 24.6185 14.6685 24.7065C14.7565 24.7944 14.8757 24.8438 15 24.8438C15.1243 24.8438 15.2435 24.7944 15.3315 24.7065C15.4194 24.6185 15.4688 24.4993 15.4688 24.375C15.4688 24.2507 15.4194 24.1315 15.3315 24.0435C15.2435 23.9556 15.1243 23.9062 15 23.9062Z" fill="#616161"/>
<path d="M22.5 16.4062C22.3757 16.4062 22.2565 16.4556 22.1685 16.5435C22.0806 16.6315 22.0312 16.7507 22.0312 16.875C22.0312 16.9993 22.0806 17.1185 22.1685 17.2065C22.2565 17.2944 22.3757 17.3438 22.5 17.3438C22.6243 17.3438 22.7435 17.2944 22.8315 17.2065C22.9194 17.1185 22.9688 16.9993 22.9688 16.875C22.9688 16.7507 22.9194 16.6315 22.8315 16.5435C22.7435 16.4556 22.6243 16.4062 22.5 16.4062Z" fill="#616161"/>
<path d="M7.5 16.4062C7.37568 16.4062 7.25645 16.4556 7.16854 16.5435C7.08064 16.6315 7.03125 16.7507 7.03125 16.875C7.03125 16.9993 7.08064 17.1185 7.16854 17.2065C7.25645 17.2944 7.37568 17.3438 7.5 17.3438C7.62432 17.3438 7.74355 17.2944 7.83146 17.2065C7.91936 17.1185 7.96875 16.9993 7.96875 16.875C7.96875 16.7507 7.91936 16.6315 7.83146 16.5435C7.74355 16.4556 7.62432 16.4062 7.5 16.4062Z" fill="#616161"/>
<path d="M9.37504 11.2499C9.29825 11.3396 9.25812 11.4549 9.26268 11.5729C9.26724 11.6909 9.31614 11.8028 9.39962 11.8863C9.48311 11.9698 9.59501 12.0187 9.71299 12.0232C9.83096 12.0278 9.94631 11.9877 10.036 11.9109C10.1128 11.8212 10.1529 11.7058 10.1483 11.5879C10.1438 11.4699 10.0949 11.358 10.0114 11.2745C9.92792 11.191 9.81601 11.1421 9.69804 11.1376C9.58006 11.133 9.46472 11.1731 9.37504 11.2499Z" fill="#616161"/>
<path d="M19.9735 21.848C19.9118 21.9382 19.8835 22.0472 19.8936 22.1561C19.9037 22.265 19.9516 22.3669 20.0289 22.4442C20.1062 22.5215 20.2081 22.5693 20.317 22.5795C20.4258 22.5896 20.5348 22.5613 20.6251 22.4996C20.6868 22.4093 20.7151 22.3004 20.7049 22.1915C20.6948 22.0826 20.647 21.9807 20.5697 21.9034C20.4923 21.8261 20.3904 21.7782 20.2816 21.7681C20.1727 21.758 20.0637 21.7863 19.9735 21.848Z" fill="#616161"/>
<path d="M19.9735 11.2499C19.9118 11.3401 19.8835 11.4491 19.8936 11.5579C19.9037 11.6668 19.9516 11.7687 20.0289 11.846C20.1062 11.9233 20.2081 11.9712 20.317 11.9813C20.4258 11.9914 20.5348 11.9632 20.6251 11.9014C20.6868 11.8112 20.7151 11.7022 20.7049 11.5933C20.6948 11.4845 20.647 11.3826 20.5697 11.3053C20.4923 11.228 20.3904 11.1801 20.2816 11.17C20.1727 11.1599 20.0637 11.1881 19.9735 11.2499Z" fill="#616161"/>
<path d="M9.37499 21.848C9.31324 21.9382 9.28499 22.0472 9.2951 22.1561C9.30522 22.265 9.35307 22.3669 9.43038 22.4442C9.5077 22.5215 9.6096 22.5693 9.71847 22.5795C9.82734 22.5896 9.93632 22.5613 10.0265 22.4996C10.0883 22.4093 10.1166 22.3004 10.1064 22.1915C10.0963 22.0826 10.0485 21.9807 9.97115 21.9034C9.89384 21.8261 9.79193 21.7782 9.68307 21.7681C9.5742 21.758 9.46522 21.7863 9.37499 21.848Z" fill="#616161"/>
<path d="M15.4688 15.5531V11.7188C15.4688 11.5944 15.4194 11.4752 15.3315 11.3873C15.2436 11.2994 15.1243 11.25 15 11.25C14.8757 11.25 14.7565 11.2994 14.6685 11.3873C14.5806 11.4752 14.5313 11.5944 14.5313 11.7188V15.5531C14.2185 15.6637 13.9549 15.8813 13.7871 16.1674C13.6192 16.4535 13.5579 16.7898 13.614 17.1167C13.6701 17.4437 13.84 17.7403 14.0936 17.9541C14.3472 18.1679 14.6683 18.2852 15 18.2852C15.3317 18.2852 15.6528 18.1679 15.9064 17.9541C16.16 17.7403 16.3299 17.4437 16.386 17.1167C16.4421 16.7898 16.3808 16.4535 16.213 16.1674C16.0451 15.8813 15.7815 15.6637 15.4688 15.5531ZM15 17.3438C14.8757 17.3438 14.7565 17.2944 14.6685 17.2065C14.5806 17.1185 14.5313 16.9993 14.5313 16.875C14.5313 16.7507 14.5806 16.6315 14.6685 16.5435C14.7565 16.4556 14.8757 16.4062 15 16.4062C15.1243 16.4062 15.2436 16.4556 15.3315 16.5435C15.4194 16.6315 15.4688 16.7507 15.4688 16.875C15.4688 16.9993 15.4194 17.1185 15.3315 17.2065C15.2436 17.2944 15.1243 17.3438 15 17.3438Z" fill="#616161"/>
</svg>
