<svg width="30" height="30" viewBox="0 0 30 30" fill="none" xmlns="http://www.w3.org/2000/svg">
<mask id="mask0_167_99" style="mask-type:luminance" maskUnits="userSpaceOnUse" x="0" y="1" width="29" height="29">
<path d="M28.6273 1.07397H0.0559082V29.6454H28.6273V1.07397Z" fill="white"/>
</mask>
<g mask="url(#mask0_167_99)">
<path d="M20.0561 8.69302H17.1989V3.45493H18.1514C18.4144 3.45493 18.6275 3.2417 18.6275 2.97873V1.55016C18.6275 1.28719 18.4144 1.07397 18.1514 1.07397H10.5323C10.2693 1.07397 10.0561 1.28719 10.0561 1.55016V2.97873C10.0561 3.2417 10.2693 3.45493 10.5323 3.45493H11.4847V8.69302H8.62754C7.31312 8.69465 6.24821 9.75956 6.24658 11.074V25.8358C6.24821 27.1502 7.31312 28.2152 8.62754 28.2168V29.1692C8.62754 29.4322 8.84075 29.6454 9.10372 29.6454H11.0085C11.2715 29.6454 11.4847 29.4322 11.4847 29.1692V28.2168H17.1989V29.1692C17.1989 29.4322 17.4122 29.6454 17.6752 29.6454H19.5799C19.8429 29.6454 20.0561 29.4322 20.0561 29.1692V28.2168C21.3705 28.2152 22.4355 27.1502 22.4371 25.8358V11.074C22.4355 9.75956 21.3705 8.69465 20.0561 8.69302ZM11.0085 2.02636H17.6752V2.50255H11.0085V2.02636ZM12.4371 3.45493H16.2466V8.69302H12.4371V3.45493ZM10.5323 28.693H9.57991V28.2168H10.5323V28.693ZM19.1038 28.693H18.1514V28.2168H19.1038V28.693ZM21.4846 25.8358C21.4846 26.6248 20.8451 27.2644 20.0561 27.2644H8.62754C7.83861 27.2644 7.19897 26.6248 7.19897 25.8358V11.074C7.19897 10.285 7.83861 9.6454 8.62754 9.6454H20.0561C20.8451 9.6454 21.4846 10.285 21.4846 11.074V25.8358Z" fill="#616161"/>
<path d="M14.3414 10.5979C14.0784 10.5979 13.8652 10.8111 13.8652 11.0741V25.836C13.8652 26.099 14.0784 26.3122 14.3414 26.3122C14.6044 26.3122 14.8176 26.099 14.8176 25.836V11.0741C14.8176 10.8111 14.6044 10.5979 14.3414 10.5979Z" fill="#616161"/>
<path d="M18.1514 11.55C17.8884 11.55 17.6753 11.7633 17.6753 12.0262V24.8834C17.6753 25.1464 17.8884 25.3595 18.1514 25.3595C18.4144 25.3595 18.6276 25.1464 18.6276 24.8834V12.0262C18.6276 11.7633 18.4144 11.55 18.1514 11.55Z" fill="#616161"/>
<path d="M10.5321 11.55C10.2691 11.55 10.0559 11.7633 10.0559 12.0262V24.8834C10.0559 25.1464 10.2691 25.3595 10.5321 25.3595C10.7951 25.3595 11.0083 25.1464 11.0083 24.8834V12.0262C11.0083 11.7633 10.7951 11.55 10.5321 11.55Z" fill="#616161"/>
</g>
</svg>
