<svg width="30" height="30" viewBox="0 0 30 30" fill="none" xmlns="http://www.w3.org/2000/svg">
<mask id="mask0_167_108" style="mask-type:luminance" maskUnits="userSpaceOnUse" x="0" y="0" width="29" height="29">
<path d="M28.8442 0.323242H0.344238V28.8232H28.8442V0.323242Z" fill="white"/>
</mask>
<g mask="url(#mask0_167_108)">
<path fill-rule="evenodd" clip-rule="evenodd" d="M7.8671 8.95204C7.68273 8.95204 7.53044 8.80375 7.53044 8.61939V5.54935C7.08956 5.93812 6.65672 6.11446 6.63267 6.12649C6.46032 6.19462 6.26795 6.11046 6.19581 5.94213C6.12767 5.76979 6.21185 5.5734 6.38018 5.50527C6.39219 5.50126 7.1577 5.18064 7.57853 4.47525C7.75086 4.18668 8.19975 4.30692 8.19975 4.64358V8.61939C8.19975 8.80375 8.05145 8.95204 7.8671 8.95204Z" fill="#616161"/>
<path fill-rule="evenodd" clip-rule="evenodd" d="M14.3398 8.81575C13.5943 8.81575 12.9851 8.20656 12.9851 7.46109C12.9851 7.27672 13.1374 7.12843 13.3218 7.12843C13.5061 7.12843 13.6544 7.27672 13.6544 7.46109C13.6544 7.83783 13.963 8.14644 14.3398 8.14644C14.7165 8.14644 15.025 7.83783 15.025 7.46109C15.025 7.08435 14.7165 6.77574 14.3398 6.77574C14.1554 6.77574 14.0071 6.62745 14.0071 6.44308C14.0071 6.25872 14.1554 6.11043 14.3398 6.11043C14.6123 6.11043 14.8367 5.886 14.8367 5.61346C14.8367 5.34091 14.6123 5.11648 14.3398 5.11648C14.0672 5.11648 13.8428 5.34091 13.8428 5.61346C13.8428 5.79781 13.6945 5.9461 13.5101 5.9461C13.3258 5.9461 13.1775 5.79781 13.1775 5.61346C13.1775 4.9722 13.6985 4.45117 14.3398 4.45117C15.3537 4.45117 15.8827 5.66956 15.1894 6.40701C15.498 6.6555 15.6945 7.03626 15.6945 7.46109C15.6945 8.20656 15.0852 8.81575 14.3398 8.81575Z" fill="#616161"/>
<path fill-rule="evenodd" clip-rule="evenodd" d="M20.8525 8.81592C20.1071 8.81592 19.4978 8.20671 19.4978 7.46126C19.4978 7.27689 19.6462 7.1286 19.8305 7.1286C20.0149 7.1286 20.1671 7.27689 20.1671 7.46126C20.1671 7.838 20.4718 8.14661 20.8525 8.14661C21.2293 8.14661 21.5378 7.838 21.5378 7.46126C21.5378 7.08452 21.2293 6.77591 20.8486 6.77591L19.8986 6.7719C19.7143 6.7719 19.562 6.62361 19.562 6.43925V5.10863C19.562 4.76396 19.8466 4.4834 20.1913 4.4834H21.8506C22.0349 4.4834 22.1872 4.63169 22.1872 4.81605C22.1872 5.00042 22.0349 5.14871 21.8506 5.14871H20.2313V6.10659H20.8525C21.598 6.1106 22.2032 6.71579 22.2032 7.46126C22.2032 8.20671 21.598 8.81592 20.8525 8.81592Z" fill="#616161"/>
<path fill-rule="evenodd" clip-rule="evenodd" d="M9.30955 24.6231H6.56817C6.27159 24.6231 6.1233 24.2624 6.33171 24.0539C6.45595 23.9297 6.67637 23.7252 6.96094 23.4608C7.48597 22.9758 8.20738 22.3106 8.5681 21.9057C8.71639 21.7454 8.74845 21.5891 8.67231 21.4127C8.54404 21.1281 8.15929 20.8917 7.83064 20.8917C7.32966 20.8917 6.92487 21.2966 6.92487 21.7935C6.92487 21.9779 6.77658 22.1261 6.59221 22.1261C6.40785 22.1261 6.25956 21.9779 6.25956 21.7935C6.25956 20.9277 6.96094 20.2224 7.82664 20.2224C8.88472 20.2224 9.91474 21.4127 9.06506 22.3545C8.68031 22.7795 7.95088 23.4567 7.41382 23.9537C7.41382 23.9537 7.41382 23.9537 7.40982 23.9537H9.30955C9.49392 23.9537 9.64621 24.1061 9.64621 24.2904C9.64621 24.4707 9.49392 24.6231 9.30955 24.6231Z" fill="#616161"/>
<path fill-rule="evenodd" clip-rule="evenodd" d="M14.9608 24.7111C14.7765 24.7111 14.6282 24.5588 14.6282 24.3745V23.4847H13.037C12.7645 23.4847 12.6082 23.1761 12.7645 22.9556L14.6923 20.2744C14.8807 20.0098 15.2974 20.1461 15.2974 20.4707V22.8154H15.8505C16.035 22.8154 16.1832 22.9636 16.1832 23.1481C16.1832 23.3324 16.035 23.4847 15.8505 23.4847H15.2974V24.3745C15.2974 24.5588 15.1452 24.7111 14.9608 24.7111ZM13.6863 22.8154H14.6282V21.5048L13.6863 22.8154Z" fill="#616161"/>
<path fill-rule="evenodd" clip-rule="evenodd" d="M19.9466 24.8355C19.7623 24.8355 19.6099 24.6871 19.6099 24.5028V20.6311C19.6099 20.4468 19.7623 20.2986 19.9466 20.2986C20.131 20.2986 20.2793 20.4468 20.2793 20.6311V24.5028C20.2793 24.6871 20.131 24.8355 19.9466 24.8355Z" fill="#616161"/>
<path fill-rule="evenodd" clip-rule="evenodd" d="M21.5858 23.04H19.9466C19.7623 23.04 19.6099 22.8916 19.6099 22.7073V20.6311C19.6099 20.4468 19.7623 20.2986 19.9466 20.2986H21.5858C22.3433 20.2986 22.9606 20.9118 22.9606 21.6693C22.9606 22.4268 22.3433 23.04 21.5858 23.04ZM20.2793 22.3746H21.5858C21.9746 22.3746 22.2913 22.0579 22.2913 21.6693C22.2913 21.2805 21.9746 20.9638 21.5858 20.9638H20.2793V22.3746Z" fill="#616161"/>
<path fill-rule="evenodd" clip-rule="evenodd" d="M22.68 24.7591C22.5719 24.7591 22.4636 24.703 22.3995 24.6028L21.3053 22.8876C21.2051 22.7313 21.2532 22.5268 21.4055 22.4266C21.5618 22.3264 21.7703 22.3746 21.8664 22.5268L22.9605 24.2461C23.1048 24.4707 22.9406 24.7591 22.68 24.7591Z" fill="#616161"/>
<path fill-rule="evenodd" clip-rule="evenodd" d="M7.73451 19.4168C7.55015 19.4168 7.40186 19.2684 7.40186 19.0841V10.0624C7.40186 9.87803 7.55015 9.72974 7.73451 9.72974C7.91888 9.72974 8.06717 9.87803 8.06717 10.0624V19.0841C8.06717 19.2684 7.91888 19.4168 7.73451 19.4168Z" fill="#616161"/>
<path fill-rule="evenodd" clip-rule="evenodd" d="M14.4157 19.4168C14.2313 19.4168 14.083 19.2684 14.083 19.0841V10.0624C14.083 9.87803 14.2313 9.72974 14.4157 9.72974C14.6 9.72974 14.7483 9.87803 14.7483 10.0624V19.0841C14.7483 19.2684 14.6 19.4168 14.4157 19.4168Z" fill="#616161"/>
<path fill-rule="evenodd" clip-rule="evenodd" d="M21.0972 19.4168C20.9129 19.4168 20.7605 19.2684 20.7605 19.0841V15.9981C20.7605 15.8136 20.9129 15.6654 21.0972 15.6654C21.2816 15.6654 21.4298 15.8136 21.4298 15.9981V19.0841C21.4298 19.2684 21.2816 19.4168 21.0972 19.4168ZM21.0972 13.4811C20.9129 13.4811 20.7605 13.3328 20.7605 13.1485V10.0624C20.7605 9.87803 20.9129 9.72974 21.0972 9.72974C21.2816 9.72974 21.4298 9.87803 21.4298 10.0624V13.1485C21.4298 13.3328 21.2816 13.4811 21.0972 13.4811Z" fill="#616161"/>
<path fill-rule="evenodd" clip-rule="evenodd" d="M21.0968 14.9078H7.73451C7.55015 14.9078 7.40186 14.7596 7.40186 14.5752C7.40186 14.3908 7.55015 14.2385 7.73451 14.2385H21.0968C21.2811 14.2385 21.4295 14.3908 21.4295 14.5752C21.4295 14.7596 21.2811 14.9078 21.0968 14.9078Z" fill="#616161"/>
<path fill-rule="evenodd" clip-rule="evenodd" d="M23.6901 28.0416H5.50238C2.65679 28.0416 0.344238 25.7291 0.344238 22.8875V6.25887C0.344238 3.41728 2.65679 1.10474 5.50238 1.10474H23.6901C26.5317 1.10474 28.8442 3.41728 28.8442 6.25887V22.8875C28.8442 25.7291 26.5317 28.0416 23.6901 28.0416ZM5.50238 1.77004C3.0255 1.77004 1.01355 3.786 1.01355 6.25887V22.8875C1.01355 25.3604 3.0255 27.3764 5.50238 27.3764H23.6901C26.163 27.3764 28.175 25.3604 28.175 22.8875V6.25887C28.175 3.786 26.163 1.77004 23.6901 1.77004H5.50238Z" fill="#616161"/>
<path fill-rule="evenodd" clip-rule="evenodd" d="M23.6898 26.5989H5.50206C3.45403 26.5989 1.79077 24.9356 1.79077 22.8876V6.25889C1.79077 4.21087 3.45403 2.54761 5.50206 2.54761H23.6898C25.7338 2.54761 27.4011 4.21087 27.4011 6.25889V22.8876C27.4011 24.9356 25.7338 26.5989 23.6898 26.5989ZM5.50206 3.21692C3.82276 3.21692 2.45608 4.5796 2.45608 6.25889V22.8876C2.45608 24.5669 3.82276 25.9295 5.50206 25.9295H23.6898C25.3651 25.9295 26.7318 24.5669 26.7318 22.8876V6.25889C26.7318 4.5796 25.3651 3.21692 23.6898 3.21692H5.50206Z" fill="#616161"/>
</g>
</svg>
