<svg width="30" height="30" viewBox="0 0 30 30" fill="none" xmlns="http://www.w3.org/2000/svg">
<path d="M22.5108 19.7434L21.4915 18.9107L20.2661 14.9058C20.2085 14.7198 20.1041 14.5517 19.963 14.4174C19.8218 14.2832 19.6487 14.1873 19.46 14.1391C17.7833 13.7402 16.0645 13.5457 14.3411 13.5601C12.6178 13.5457 10.899 13.7402 9.22241 14.1391C9.03341 14.1872 8.85995 14.2831 8.71867 14.4175C8.57737 14.552 8.47297 14.7204 8.41548 14.9067L7.19004 18.9117L6.17151 19.7434C5.95583 19.9191 5.78207 20.1407 5.6629 20.3921C5.54373 20.6434 5.48215 20.9183 5.48267 21.1964V24.2087C5.48333 24.4765 5.57883 24.7354 5.75221 24.9394C5.92558 25.1434 6.16564 25.2794 6.42977 25.3233V26.8255C6.43001 27.0868 6.53391 27.3373 6.71868 27.5221C6.90344 27.7068 7.15397 27.8107 7.41527 27.811H9.1608C9.4221 27.8107 9.67263 27.7068 9.85738 27.5221C10.0422 27.3373 10.1461 27.0868 10.1463 26.8255V25.3423H18.5375V26.8252C18.5378 27.0865 18.6418 27.3371 18.8267 27.522C19.0114 27.7067 19.262 27.8107 19.5233 27.811H21.2684C21.5297 27.8107 21.7803 27.7067 21.9651 27.522C22.1498 27.3371 22.2538 27.0865 22.2541 26.8252V25.3233C22.5183 25.2794 22.7583 25.1434 22.9317 24.9394C23.1051 24.7354 23.2005 24.4765 23.2013 24.2087V21.1964C23.2015 20.9181 23.1398 20.6433 23.0203 20.3918C22.9008 20.1404 22.7268 19.9188 22.5108 19.7434ZM9.36348 26.8255C9.36348 26.8797 9.34195 26.9315 9.30365 26.9698C9.26535 27.0082 9.2134 27.0297 9.15924 27.0297H7.4137C7.35953 27.0297 7.30758 27.0082 7.26928 26.9698C7.23098 26.9315 7.20945 26.8797 7.20945 26.8255V25.3423H9.36348V26.8255ZM21.2671 27.0297H19.5227C19.4684 27.0297 19.4164 27.0081 19.3781 26.9698C19.3398 26.9314 19.3183 26.8794 19.3181 26.8252V25.3423H21.4721V26.8252C21.4721 26.8794 21.4505 26.9314 21.4123 26.9698C21.374 27.0081 21.3214 27.0297 21.2671 27.0297ZM22.4185 24.2087C22.4185 24.3021 22.3814 24.3917 22.3153 24.4577C22.2493 24.5237 22.1598 24.5608 22.0664 24.561H6.61527C6.52188 24.5608 6.43236 24.5237 6.36633 24.4577C6.3003 24.3917 6.26316 24.3021 6.26303 24.2087V21.1964C6.26264 21.0341 6.2985 20.8737 6.36801 20.727C6.43753 20.5801 6.53893 20.4508 6.66481 20.3482L7.77598 19.4407C7.83568 19.3917 7.87963 19.3261 7.90231 19.2522L9.16258 15.1341C9.18001 15.0761 9.21231 15.0235 9.25627 14.9817C9.30023 14.9398 9.35434 14.9102 9.41325 14.8958C11.0275 14.5125 12.6822 14.3264 14.3411 14.3412C16.0001 14.3264 17.6547 14.5127 19.2688 14.8958C19.3278 14.9102 19.382 14.9398 19.426 14.9817C19.47 15.0235 19.5024 15.0762 19.5197 15.1344L20.78 19.2525C20.8027 19.3264 20.8467 19.3918 20.9064 19.4408L22.0175 20.3482C22.1434 20.4508 22.2447 20.5802 22.3143 20.727C22.3837 20.8737 22.4197 21.0341 22.4193 21.1964L22.4185 24.2087Z" fill="#616161"/>
<path d="M9.00484 19.4177C10.775 19.6354 12.5578 19.7348 14.3413 19.7152C16.1247 19.7348 17.9074 19.6354 19.6776 19.4177C19.7337 19.41 19.7876 19.3902 19.8353 19.3597C19.883 19.3291 19.9236 19.2885 19.9541 19.2408C19.9846 19.1931 20.0044 19.1392 20.012 19.0831C20.0197 19.027 20.015 18.9698 19.9984 18.9157L19.0149 15.7014C18.9947 15.635 18.9571 15.5751 18.9061 15.5281C18.8551 15.481 18.7926 15.4484 18.7247 15.4335C17.2834 15.1305 15.814 14.9821 14.3413 14.9907C12.8684 14.9811 11.3989 15.1295 9.95774 15.4335C9.88997 15.4484 9.82738 15.4811 9.77638 15.5281C9.7254 15.5752 9.68784 15.635 9.66757 15.7014L8.68408 18.9157C8.66753 18.9698 8.66293 19.0268 8.6706 19.083C8.67828 19.139 8.69807 19.1928 8.72857 19.2404C8.75908 19.2881 8.79958 19.3287 8.8473 19.3591C8.895 19.3895 8.94876 19.4101 9.00484 19.4177ZM10.3479 16.1498C11.6631 15.8911 13.0009 15.7644 14.3413 15.7718C15.6819 15.7655 17.0199 15.8927 18.3354 16.1514L19.1153 18.7007C17.5297 18.8687 15.9357 18.9465 14.3413 18.934C12.7467 18.9467 11.1528 18.869 9.56713 18.7011L10.3479 16.1498Z" fill="#616161"/>
<path d="M16.0111 21.5598H12.671C12.5608 21.5598 12.452 21.5842 12.3525 21.6315C12.253 21.6787 12.1652 21.7475 12.0956 21.833C12.026 21.9184 11.9763 22.0181 11.95 22.1251C11.9238 22.2321 11.9217 22.3437 11.944 22.4515L12.1574 23.4895C12.1922 23.6567 12.2834 23.807 12.4157 23.9148C12.5481 24.0228 12.7136 24.082 12.8844 24.0824H15.7977C15.9686 24.082 16.134 24.0228 16.2664 23.9148C16.3989 23.807 16.49 23.6567 16.5249 23.4895L16.7381 22.4515C16.7604 22.3437 16.7583 22.2321 16.7321 22.1251C16.7059 22.0181 16.6561 21.9184 16.5866 21.833C16.517 21.7475 16.4291 21.6787 16.3297 21.6315C16.2301 21.5842 16.1213 21.5598 16.0111 21.5598ZM12.7185 22.3411H13.9505V23.3008H12.9161L12.7185 22.3411ZM15.7661 23.3008H14.7317V22.3411H15.9636L15.7661 23.3008Z" fill="#616161"/>
<path d="M21.465 21.5894C21.3201 21.4784 21.1516 21.4025 20.9723 21.3681C20.7931 21.3335 20.6084 21.3414 20.4328 21.3907L19.0214 21.782C18.8184 21.8388 18.6396 21.9603 18.512 22.1281C18.3844 22.296 18.3151 22.5008 18.3147 22.7117V23.0951C18.315 23.351 18.4168 23.5963 18.5977 23.7771C18.7786 23.958 19.0238 24.0597 19.2797 24.0598H20.9671C21.2227 24.0593 21.4676 23.9574 21.6483 23.7765C21.8288 23.5957 21.9304 23.3507 21.9308 23.0951V22.5304C21.9316 22.3481 21.8898 22.1683 21.809 22.0048C21.7281 21.8415 21.6103 21.6993 21.465 21.5894ZM21.1503 23.0951C21.1501 23.1438 21.1307 23.1905 21.0963 23.225C21.0618 23.2593 21.0151 23.2787 20.9666 23.2787H19.279C19.2303 23.2787 19.1836 23.2593 19.1491 23.225C19.1147 23.1905 19.0954 23.1438 19.0953 23.0951V22.7117C19.0954 22.6717 19.1084 22.6327 19.1326 22.6008C19.1568 22.569 19.1907 22.5458 19.2293 22.5348L20.6408 22.1435C20.6761 22.1338 20.7126 22.129 20.7491 22.1288C20.8554 22.1293 20.9573 22.1717 21.0323 22.247C21.1074 22.3223 21.1496 22.4243 21.1496 22.5307L21.1503 23.0951Z" fill="#616161"/>
<path d="M9.6618 21.7819L8.24997 21.3905C8.07438 21.3421 7.88997 21.3348 7.71111 21.3694C7.53225 21.4039 7.36378 21.4792 7.21883 21.5895C7.07387 21.6998 6.95634 21.8421 6.87541 22.0054C6.79447 22.1685 6.7523 22.3482 6.7522 22.5304V23.0951C6.7525 23.3508 6.85427 23.5961 7.03517 23.7769C7.21608 23.9578 7.46134 24.0595 7.71715 24.0598H9.40465C9.66047 24.0595 9.90574 23.9578 10.0866 23.7769C10.2676 23.5961 10.3693 23.3508 10.3696 23.0951V22.7115C10.3691 22.5007 10.2997 22.2957 10.1719 22.1278C10.0441 21.9599 9.865 21.8385 9.6618 21.7819ZM9.5877 23.0951C9.58763 23.1438 9.56825 23.1904 9.53381 23.2248C9.49937 23.2592 9.45267 23.2785 9.40398 23.2785H7.71648C7.6678 23.2785 7.62111 23.2592 7.58667 23.2248C7.55223 23.1904 7.53284 23.1438 7.53278 23.0951V22.5304C7.53278 22.4239 7.57493 22.3219 7.64998 22.2467C7.72505 22.1714 7.8269 22.1289 7.93323 22.1285C7.96974 22.1285 8.00607 22.1335 8.04127 22.1432L9.4531 22.5348C9.49161 22.5457 9.52553 22.5688 9.5497 22.6007C9.57387 22.6327 9.58697 22.6715 9.58703 22.7115L9.5877 23.0951Z" fill="#616161"/>
<path d="M20.3952 1.58301C19.1827 1.58719 18.0186 2.05879 17.145 2.89966C16.2716 3.74054 15.756 4.88588 15.7057 6.09729C15.6553 7.30872 16.0742 8.49288 16.8749 9.40331C17.6756 10.3137 18.7966 10.8803 20.0046 10.985V12.827C20.0046 12.9306 20.0457 13.03 20.119 13.1032C20.1923 13.1765 20.2916 13.2176 20.3952 13.2176C20.4987 13.2176 20.5982 13.1765 20.6715 13.1032C20.7447 13.03 20.7859 12.9306 20.7859 12.827V10.985C21.9937 10.8803 23.1147 10.3137 23.9156 9.40331C24.7163 8.49288 25.135 7.30872 25.0847 6.09729C25.0345 4.88588 24.5189 3.74054 23.6453 2.89966C22.7717 2.05879 21.6076 1.58719 20.3952 1.58301ZM20.3952 6.86359C20.1495 6.86364 19.909 6.79078 19.7046 6.65424C19.5002 6.51771 19.3409 6.32361 19.2467 6.09651C19.1527 5.86941 19.128 5.61951 19.176 5.37841C19.2239 5.13729 19.3423 4.91582 19.516 4.74198C19.6899 4.56815 19.9113 4.44975 20.1525 4.40178C20.3936 4.35381 20.6435 4.37841 20.8706 4.47246C21.0977 4.56652 21.2917 4.72582 21.4283 4.93022C21.5649 5.13461 21.6379 5.37491 21.6379 5.62074C21.6375 5.95022 21.5065 6.26611 21.2735 6.49909C21.0406 6.73209 20.7247 6.86318 20.3952 6.86359ZM19.5916 7.47721C19.8452 7.58758 20.1187 7.64454 20.3952 7.64454C20.6717 7.64454 20.9453 7.58758 21.1987 7.47721L22.4347 7.75065C22.5645 7.78014 22.6805 7.85268 22.7637 7.95648C22.847 8.06028 22.8927 8.18922 22.8935 8.32229V9.32431C22.1905 9.90541 21.3069 10.2233 20.3947 10.2233C19.4827 10.2233 18.5992 9.90541 17.8962 9.32431V8.32208C17.8955 8.18864 17.9406 8.05904 18.0242 7.95497C18.1076 7.85089 18.2245 7.77868 18.3547 7.75042L19.5916 7.47721ZM23.6765 8.45265V8.32252C23.678 8.01095 23.5725 7.70832 23.3773 7.46538C23.1823 7.22244 22.9096 7.05394 22.605 6.98815L21.9976 6.85422C22.229 6.55486 22.3719 6.19664 22.4099 5.82021C22.448 5.44378 22.3797 5.06421 22.213 4.72458C22.0463 4.38497 21.7877 4.09888 21.4666 3.89879C21.1455 3.69872 20.7747 3.59266 20.3963 3.59266C20.018 3.59266 19.6472 3.69872 19.326 3.89879C19.0049 4.09888 18.7463 4.38497 18.5796 4.72458C18.4129 5.06421 18.3446 5.44378 18.3827 5.82021C18.4207 6.19664 18.5636 6.55486 18.795 6.85422L18.1876 6.98815C17.883 7.05391 17.6103 7.22238 17.4153 7.46534C17.2202 7.70829 17.1146 8.01095 17.1162 8.32252V8.45311C16.7252 7.86072 16.502 7.17352 16.4702 6.46446C16.4383 5.75539 16.5992 5.05097 16.9355 4.42595C17.2719 3.80094 17.7712 3.27868 18.3805 2.91465C18.9897 2.55061 19.6863 2.35839 20.3962 2.35839C21.1059 2.35839 21.8025 2.55061 22.4117 2.91465C23.021 3.27868 23.5203 3.80094 23.8567 4.42595C24.193 5.05097 24.3539 5.75539 24.322 6.46446C24.2903 7.17352 24.0675 7.86027 23.6765 8.45265Z" fill="#616161"/>
<path d="M7.89673 12.8272C7.89673 12.9308 7.93789 13.0302 8.01115 13.1034C8.08441 13.1767 8.18376 13.2178 8.28736 13.2178C8.39096 13.2178 8.49032 13.1767 8.56358 13.1034C8.63684 13.0302 8.67798 12.9308 8.67798 12.8272V10.9852C9.88938 10.8844 11.0149 10.3193 11.8193 9.40795C12.6237 8.49659 13.0447 7.30958 12.9942 6.09505C12.9438 4.88052 12.4258 3.7325 11.5486 2.89099C10.6715 2.04946 9.50294 1.57959 8.28736 1.57959C7.07178 1.57959 5.90326 2.04946 5.02606 2.89099C4.14888 3.7325 3.63092 4.88052 3.58048 6.09505C3.53003 7.30958 3.95102 8.49659 4.75541 9.40795C5.55981 10.3193 6.68535 10.8844 7.89673 10.9852V12.8272ZM8.28736 6.86382C8.04154 6.86386 7.80122 6.791 7.59681 6.65446C7.39239 6.51793 7.23305 6.32383 7.13895 6.09673C7.04485 5.86963 7.02021 5.61973 7.06813 5.37863C7.11606 5.13752 7.23442 4.91605 7.40822 4.7422C7.58203 4.56836 7.80349 4.44998 8.04458 4.402C8.28568 4.35403 8.53559 4.37863 8.76271 4.47269C8.98982 4.56675 9.18393 4.72605 9.32052 4.93045C9.45709 5.13483 9.52999 5.37513 9.52999 5.62096C9.52958 5.95042 9.39854 6.26628 9.16559 6.49926C8.93265 6.73225 8.61682 6.86335 8.28736 6.86382ZM7.48379 7.47766C7.73731 7.58803 8.01085 7.64499 8.28736 7.64499C8.56386 7.64499 8.83741 7.58803 9.09094 7.47766L10.3269 7.75132C10.4573 7.77958 10.574 7.85177 10.6575 7.95585C10.741 8.05992 10.7862 8.18953 10.7856 8.32297V9.3252C10.0826 9.9063 9.19899 10.2242 8.28691 10.2242C7.37483 10.2242 6.49126 9.9063 5.78825 9.3252V8.32275C5.78892 8.18966 5.83463 8.06073 5.91792 7.95693C6.00121 7.85313 6.11718 7.78057 6.24696 7.75109L7.48379 7.47766ZM4.35879 6.29462C4.35802 5.68176 4.50061 5.07722 4.77516 4.52929C5.04972 3.98136 5.44862 3.50525 5.93999 3.13899C6.43138 2.77272 7.00161 2.52648 7.60514 2.4199C8.20865 2.31333 8.82873 2.34939 9.41583 2.52522C10.0029 2.70103 10.5408 3.01173 10.9864 3.43249C11.432 3.85325 11.773 4.3724 11.9822 4.94846C12.1914 5.52452 12.2629 6.14152 12.1911 6.75016C12.1193 7.3588 11.9061 7.94222 11.5686 8.45378V8.32319C11.5702 8.01162 11.4646 7.70896 11.2695 7.466C11.0744 7.22306 10.8017 7.05458 10.4972 6.98882L9.89003 6.85489C10.1215 6.5555 10.2644 6.19725 10.3025 5.82075C10.3406 5.44426 10.2724 5.06462 10.1057 4.72492C9.93894 4.38522 9.68029 4.09908 9.35912 3.89895C9.03795 3.69883 8.66712 3.59275 8.28869 3.59275C7.91028 3.59275 7.53944 3.69883 7.21826 3.89895C6.89709 4.09908 6.63846 4.38522 6.47171 4.72492C6.30495 5.06462 6.23676 5.44426 6.27489 5.82075C6.31301 6.19725 6.45591 6.5555 6.68736 6.85489L6.07999 6.98882C5.77545 7.0546 5.50278 7.2231 5.30771 7.46605C5.11264 7.709 5.00702 8.01162 5.00856 8.32319V8.45333C4.58393 7.8133 4.35863 7.06269 4.35879 6.29462Z" fill="#616161"/>
</svg>
