<svg xmlns="http://www.w3.org/2000/svg" width="168" height="41" viewBox="0 0 168 41" fill="none"><path d="M49.2046 29.0417H61.1566V25.4417H53.4526V11.8817H49.2046V29.0417Z" fill="#FFFFFF"></path><path d="M68.238 26.6418C66.534 26.6418 65.646 25.1538 65.646 22.9218C65.646 20.6898 66.534 19.1778 68.238 19.1778C69.942 19.1778 70.854 20.6898 70.854 22.9218C70.854 25.1538 69.942 26.6418 68.238 26.6418ZM68.262 29.4258C72.222 29.4258 74.814 26.6178 74.814 22.9218C74.814 19.2258 72.222 16.4178 68.262 16.4178C64.326 16.4178 61.686 19.2258 61.686 22.9218C61.686 26.6178 64.326 29.4258 68.262 29.4258Z" fill="#FFFFFF"></path><path d="M81.6678 33.2894C83.4918 33.2894 85.0998 32.8814 86.1798 31.9214C87.1638 31.0334 87.8118 29.6894 87.8118 27.8414V16.7534H84.0678V18.0734H84.0198C83.2998 17.0414 82.1958 16.3934 80.5638 16.3934C77.5158 16.3934 75.4038 18.9374 75.4038 22.5374C75.4038 26.3054 77.9718 28.3694 80.7318 28.3694C82.2198 28.3694 83.1558 27.7694 83.8758 26.9534H83.9718V28.1774C83.9718 29.6654 83.2758 30.5294 81.6198 30.5294C80.3238 30.5294 79.6758 29.9774 79.4598 29.3294H75.6678C76.0518 31.8974 78.2838 33.2894 81.6678 33.2894ZM81.6438 25.4654C80.1798 25.4654 79.2198 24.2654 79.2198 22.4174C79.2198 20.5454 80.1798 19.3454 81.6438 19.3454C83.2758 19.3454 84.1398 20.7374 84.1398 22.3934C84.1398 24.1214 83.3478 25.4654 81.6438 25.4654Z" fill="#FFFFFF"></path><path d="M95.5105 26.6418C93.8065 26.6418 92.9185 25.1538 92.9185 22.9218C92.9185 20.6898 93.8065 19.1778 95.5105 19.1778C97.2145 19.1778 98.1265 20.6898 98.1265 22.9218C98.1265 25.1538 97.2145 26.6418 95.5105 26.6418ZM95.5345 29.4258C99.4945 29.4258 102.087 26.6178 102.087 22.9218C102.087 19.2258 99.4945 16.4178 95.5345 16.4178C91.5985 16.4178 88.9585 19.2258 88.9585 22.9218C88.9585 26.6178 91.5985 29.4258 95.5345 29.4258Z" fill="#FFFFFF"></path><path d="M103.229 29.0417H107.141V16.7537H103.229V29.0417ZM103.229 15.0497H107.141V11.8817H103.229V15.0497Z" fill="#FFFFFF"></path><path d="M108.837 33.0974H112.749V27.7694H112.797C113.565 28.8014 114.693 29.4254 116.277 29.4254C119.493 29.4254 121.629 26.8814 121.629 22.8974C121.629 19.2014 119.637 16.3934 116.373 16.3934C114.693 16.3934 113.493 17.1374 112.653 18.2414H112.581V16.7534H108.837V33.0974ZM115.269 26.4014C113.589 26.4014 112.629 25.0334 112.629 23.0414C112.629 21.0494 113.493 19.5374 115.197 19.5374C116.877 19.5374 117.669 20.9294 117.669 23.0414C117.669 25.1294 116.757 26.4014 115.269 26.4014Z" fill="#FFFFFF"></path><path d="M128 29.4254C131.216 29.4254 133.592 28.0334 133.592 25.3454C133.592 22.2014 131.048 21.6494 128.888 21.2894C127.328 21.0014 125.936 20.8814 125.936 20.0174C125.936 19.2494 126.68 18.8894 127.64 18.8894C128.72 18.8894 129.464 19.2254 129.608 20.3294H133.208C133.016 17.9054 131.144 16.3934 127.664 16.3934C124.76 16.3934 122.36 17.7374 122.36 20.3294C122.36 23.2094 124.64 23.7854 126.776 24.1454C128.408 24.4334 129.896 24.5534 129.896 25.6574C129.896 26.4494 129.152 26.8814 127.976 26.8814C126.68 26.8814 125.864 26.2814 125.72 25.0574H122.024C122.144 27.7694 124.4 29.4254 128 29.4254Z" fill="#FFFFFF"></path><path d="M138.904 29.4018C140.608 29.4018 141.688 28.7298 142.576 27.5298H142.648V29.0418H146.392V16.7538H142.48V23.6178C142.48 25.0818 141.664 26.0898 140.32 26.0898C139.072 26.0898 138.472 25.3458 138.472 24.0018V16.7538H134.584V24.8178C134.584 27.5538 136.072 29.4018 138.904 29.4018Z" fill="#FFFFFF"></path><path d="M148.095 29.0414H152.007V22.1534C152.007 20.6894 152.727 19.6574 153.951 19.6574C155.127 19.6574 155.679 20.4254 155.679 21.7454V29.0414H159.591V22.1534C159.591 20.6894 160.287 19.6574 161.535 19.6574C162.711 19.6574 163.263 20.4254 163.263 21.7454V29.0414H167.175V21.0494C167.175 18.2894 165.783 16.3934 162.999 16.3934C161.415 16.3934 160.095 17.0654 159.135 18.5534H159.087C158.463 17.2334 157.239 16.3934 155.631 16.3934C153.855 16.3934 152.679 17.2334 151.911 18.5054H151.839V16.7534H148.095V29.0414Z" fill="#FFFFFF"></path><path fill-rule="evenodd" clip-rule="evenodd" d="M9.22802 4.13974C7.79736 5.1401 6.50366 6.32285 5.38061 7.65427C9.96991 7.2282 15.8005 7.92391 22.5697 11.3085C29.7983 14.9227 35.6191 15.0449 39.6701 14.2635C39.3025 13.1506 38.8397 12.081 38.2916 11.0642C33.6543 11.5533 27.7093 10.9059 20.7809 7.44185C16.3813 5.24205 12.5031 4.33588 9.22802 4.13974ZM35.5827 7.20852C31.9206 3.11687 26.5987 0.54187 20.6753 0.54187C18.9358 0.54187 17.248 0.763977 15.639 1.18135C17.8182 1.77596 20.1332 2.64586 22.5697 3.86414C27.6423 6.4004 32.0217 7.21703 35.5827 7.20852ZM40.5362 18.1699C35.6422 19.1363 28.8841 18.9378 20.7809 14.8862C13.2053 11.0984 7.17572 11.1461 3.10919 12.0498C2.89929 12.0964 2.69433 12.1454 2.49432 12.1964C1.96191 13.3543 1.53693 14.5719 1.23199 15.8363C1.55768 15.7493 1.89422 15.6666 2.24145 15.5894C7.17486 14.4931 14.1454 14.5407 22.5697 18.7529C30.1454 22.5407 36.1749 22.493 40.2415 21.5893C40.3808 21.5584 40.5181 21.5264 40.6531 21.4934C40.6679 21.1781 40.6753 20.8608 40.6753 20.5418C40.6753 19.7393 40.6281 18.9478 40.5362 18.1699ZM40.0001 25.7141C35.1536 26.5614 28.5923 26.2362 20.7809 22.3306C13.2053 18.5428 7.17572 18.5905 3.10919 19.4942C2.20654 19.6947 1.39453 19.939 0.678223 20.1969C0.67627 20.3116 0.675293 20.4266 0.675293 20.5418C0.675293 31.5875 9.62958 40.5418 20.6753 40.5418C29.9324 40.5418 37.7206 34.2527 40.0001 25.7141Z" fill="#FF3600"></path></svg>