<svg xmlns="http://www.w3.org/2000/svg" width="202" height="41" viewBox="0 0 202 41" fill="none"><path fill-rule="evenodd" clip-rule="evenodd" d="M25.8521 12.2272C24.2076 11.1284 22.2742 10.5419 20.2964 10.5419V0.54187C24.252 0.54187 28.1188 1.71485 31.4078 3.91248C34.6968 6.1101 37.2602 9.23368 38.774 12.8882C40.2877 16.5427 40.6838 20.5641 39.9121 24.4437C39.1404 28.3233 37.2356 31.887 34.4385 34.684C31.6415 37.4811 28.0778 39.3859 24.1982 40.1576C20.3186 40.9293 16.2972 40.5332 12.6427 39.0195C8.98819 37.5057 5.86462 34.9423 3.667 31.6533C1.46937 28.3643 0.296387 24.4975 0.296387 20.5419H10.2964C10.2964 22.5197 10.8829 24.4531 11.9817 26.0976C13.0805 27.7421 14.6423 29.0238 16.4696 29.7807C18.2968 30.5376 20.3075 30.7356 22.2473 30.3497C24.1871 29.9639 25.9689 29.0115 27.3675 27.613C28.766 26.2144 29.7184 24.4326 30.1042 22.4928C30.4901 20.553 30.2921 18.5423 29.5352 16.7151C28.7783 14.8878 27.4966 13.326 25.8521 12.2272Z" fill="#FF3600"></path><path fill-rule="evenodd" clip-rule="evenodd" d="M10.2964 0.541875C10.2964 1.85509 10.0377 3.15545 9.53518 4.36871C9.03263 5.58196 8.29604 6.68435 7.36745 7.61294C6.43887 8.54153 5.33648 9.27812 4.12322 9.78067C2.90996 10.2832 1.6096 10.5419 0.296387 10.5419L0.296387 20.5419C2.92282 20.5419 5.52354 20.0246 7.95006 19.0195C10.3766 18.0144 12.5814 16.5412 14.4385 14.684C16.2957 12.8269 17.7689 10.6221 18.774 8.19554C19.7791 5.76902 20.2964 3.1683 20.2964 0.54187L10.2964 0.541875Z" fill="#FF3600"></path><path d="M125.915 14.995H121.063V30.4073H125.915V14.995Z" fill="#FFFFFF"></path><path d="M121.604 12.1085C122.111 12.6159 122.745 12.8696 123.506 12.8696C124.267 12.8696 124.891 12.6159 125.377 12.1085C125.864 11.58 126.107 10.9457 126.107 10.2057C126.107 9.44464 125.864 8.81036 125.377 8.30298C124.891 7.79556 124.267 7.54187 123.506 7.54187C122.745 7.54187 122.111 7.79556 121.604 8.30298C121.117 8.81036 120.874 9.44464 120.874 10.2057C120.874 10.9457 121.117 11.58 121.604 12.1085Z" fill="#FFFFFF"></path><path d="M51.4526 30.4066V8.01746H56.4315V26.0303H66.3576V30.4066H51.4526Z" fill="#FFFFFF"></path><path fill-rule="evenodd" clip-rule="evenodd" d="M75.3237 30.7554C73.7381 30.7554 72.3005 30.4066 71.0108 29.7089C69.7423 28.9901 68.7381 28.0176 67.9981 26.7913C67.2582 25.5651 66.8882 24.1909 66.8882 22.6687C66.8882 21.1465 67.2582 19.7829 67.9981 18.5778C68.7381 17.3727 69.7423 16.4213 71.0108 15.7237C72.2793 15.0048 73.717 14.6454 75.3237 14.6454C76.9305 14.6454 78.3681 14.9943 79.6366 15.6919C80.9051 16.3896 81.9094 17.3516 82.6493 18.5778C83.3893 19.7829 83.7593 21.1465 83.7593 22.6687C83.7593 24.1909 83.3893 25.5651 82.6493 26.7913C81.9094 28.0176 80.9051 28.9901 79.6366 29.7089C78.3681 30.4066 76.9305 30.7554 75.3237 30.7554ZM75.3237 26.3474C76.0214 26.3474 76.6345 26.1994 77.1631 25.9034C77.6916 25.5863 78.0933 25.1529 78.3681 24.6032C78.6641 24.0324 78.8121 23.3875 78.8121 22.6687C78.8121 21.9499 78.6641 21.3262 78.3681 20.7977C78.0721 20.248 77.6599 19.8252 77.1313 19.5292C76.6239 19.212 76.0214 19.0535 75.3237 19.0535C74.6472 19.0535 74.0447 19.212 73.5161 19.5292C72.9876 19.8252 72.5753 20.248 72.2793 20.7977C71.9833 21.3474 71.8354 21.9816 71.8354 22.7004C71.8354 23.3981 71.9833 24.0324 72.2793 24.6032C72.5753 25.1529 72.9876 25.5863 73.5161 25.9034C74.0447 26.1994 74.6472 26.3474 75.3237 26.3474Z" fill="#FFFFFF"></path><path fill-rule="evenodd" clip-rule="evenodd" d="M87.602 36.4315C88.8916 37.0234 90.3821 37.3194 92.0735 37.3194C93.7225 37.3194 95.1919 36.9917 96.4815 36.3363C97.7712 35.6809 98.7859 34.7719 99.5259 33.6091C100.266 32.4463 100.636 31.0721 100.636 29.4864V14.9938H95.8789V16.0293C95.5251 15.7315 95.1233 15.4815 94.6739 15.2792C93.8493 14.8775 92.9085 14.6766 91.8515 14.6766C90.435 14.6766 89.177 15.0149 88.0777 15.6914C86.9782 16.3468 86.1115 17.2559 85.4772 18.4187C84.8429 19.5604 84.5259 20.85 84.5259 22.2877C84.5259 23.7042 84.8429 24.9938 85.4772 26.1566C86.1115 27.3194 86.9782 28.2391 88.0777 28.9156C89.177 29.5921 90.435 29.9304 91.8515 29.9304C92.8874 29.9304 93.8282 29.7296 94.6739 29.3279C95.0835 29.1333 95.4535 28.904 95.7838 28.6399V29.6133C95.7838 30.6915 95.435 31.5266 94.7373 32.1186C94.0608 32.7106 93.12 33.0065 91.9149 33.0065C90.9424 33.0065 90.1073 32.8374 89.4096 32.4991C88.7331 32.1609 88.1199 31.664 87.5702 31.0086L84.5893 33.9896C85.3292 35.0467 86.3335 35.8607 87.602 36.4315ZM94.5153 25.1735C94.029 25.4695 93.4477 25.6175 92.7711 25.6175C92.0946 25.6175 91.5026 25.4695 90.9952 25.1735C90.5089 24.8775 90.1284 24.4758 89.8536 23.9684C89.5787 23.4399 89.4413 22.8796 89.4413 22.2877C89.4413 21.6534 89.5787 21.0826 89.8536 20.5752C90.1284 20.0678 90.5195 19.6661 91.0269 19.3701C91.5343 19.0741 92.1157 18.9261 92.7711 18.9261C93.4477 18.9261 94.029 19.0741 94.5153 19.3701C95.0227 19.6661 95.4032 20.0678 95.657 20.5752C95.9318 21.0826 96.0692 21.6534 96.0692 22.2877C96.0692 22.9219 95.9318 23.4927 95.657 24.0001C95.4032 24.4864 95.0227 24.8775 94.5153 25.1735Z" fill="#FFFFFF"></path><path fill-rule="evenodd" clip-rule="evenodd" d="M110.848 30.7554C109.262 30.7554 107.824 30.4066 106.535 29.7089C105.266 28.9901 104.262 28.0176 103.522 26.7913C102.782 25.5651 102.412 24.1909 102.412 22.6687C102.412 21.1465 102.782 19.7829 103.522 18.5778C104.262 17.3727 105.266 16.4213 106.535 15.7237C107.803 15.0048 109.241 14.6454 110.848 14.6454C112.454 14.6454 113.892 14.9943 115.16 15.6919C116.429 16.3896 117.433 17.3516 118.173 18.5778C118.913 19.7829 119.283 21.1465 119.283 22.6687C119.283 24.1909 118.913 25.5651 118.173 26.7913C117.433 28.0176 116.429 28.9901 115.16 29.7089C113.892 30.4066 112.454 30.7554 110.848 30.7554ZM110.848 26.3474C111.545 26.3474 112.158 26.1994 112.687 25.9034C113.215 25.5863 113.617 25.1529 113.892 24.6032C114.188 24.0324 114.336 23.3875 114.336 22.6687C114.336 21.9499 114.188 21.3262 113.892 20.7977C113.596 20.248 113.184 19.8252 112.655 19.5292C112.148 19.212 111.545 19.0535 110.848 19.0535C110.171 19.0535 109.568 19.212 109.04 19.5292C108.511 19.8252 108.099 20.248 107.803 20.7977C107.507 21.3474 107.359 21.9816 107.359 22.7004C107.359 23.3981 107.507 24.0324 107.803 24.6032C108.099 25.1529 108.511 25.5863 109.04 25.9034C109.568 26.1994 110.171 26.3474 110.848 26.3474Z" fill="#FFFFFF"></path><path fill-rule="evenodd" clip-rule="evenodd" d="M137.578 30.7232C136.543 30.7232 135.591 30.5224 134.724 30.1207C134.268 29.9093 133.856 29.6569 133.488 29.3635V36.9072H128.699V14.9938H133.551V16.0575C133.903 15.7696 134.294 15.5207 134.724 15.3109C135.591 14.888 136.543 14.6766 137.578 14.6766C139.037 14.6766 140.327 15.0255 141.447 15.7232C142.589 16.4208 143.477 17.3722 144.111 18.5773C144.767 19.7824 145.094 21.1566 145.094 22.6999C145.094 24.2433 144.767 25.6175 144.111 26.8226C143.477 28.0277 142.589 28.979 141.447 29.6767C140.327 30.3744 139.037 30.7232 137.578 30.7232ZM136.691 26.3469C137.388 26.3469 137.991 26.1883 138.498 25.8712C139.027 25.5541 139.439 25.1206 139.735 24.571C140.031 24.0213 140.179 23.3976 140.179 22.6999C140.179 21.9811 140.031 21.3469 139.735 20.7972C139.439 20.2475 139.027 19.8247 138.498 19.5287C137.991 19.2115 137.399 19.053 136.722 19.053C136.046 19.053 135.443 19.2115 134.915 19.5287C134.407 19.8247 134.006 20.2475 133.71 20.7972C133.414 21.3469 133.266 21.9811 133.266 22.6999C133.266 23.3976 133.403 24.0213 133.678 24.571C133.974 25.1206 134.386 25.5541 134.915 25.8712C135.443 26.1883 136.035 26.3469 136.691 26.3469Z" fill="#FFFFFF"></path><path d="M149.843 30.4377C150.731 30.6703 151.629 30.7865 152.538 30.7865C154.462 30.7865 155.984 30.3426 157.105 29.4546C158.246 28.5667 158.817 27.3722 158.817 25.8711C158.817 24.8986 158.638 24.1163 158.278 23.5244C157.919 22.9113 157.454 22.425 156.883 22.0656C156.312 21.7062 155.709 21.4207 155.075 21.2093C154.441 20.9979 153.838 20.8182 153.268 20.6702C152.697 20.5222 152.232 20.3531 151.872 20.1628C151.513 19.9725 151.333 19.7188 151.333 19.4017C151.333 19.1057 151.471 18.8837 151.745 18.7357C152.02 18.5666 152.432 18.4821 152.982 18.4821C153.553 18.4821 154.134 18.5983 154.726 18.8309C155.339 19.0634 155.889 19.4652 156.375 20.036L159.134 17.2453C158.437 16.3573 157.528 15.6913 156.407 15.2474C155.308 14.7823 154.103 14.5497 152.792 14.5497C151.545 14.5497 150.456 14.7611 149.526 15.1839C148.595 15.6068 147.876 16.1882 147.369 16.9281C146.862 17.6469 146.608 18.5032 146.608 19.4969C146.608 20.4271 146.788 21.1988 147.147 21.8119C147.506 22.4038 147.972 22.869 148.542 23.2072C149.113 23.5455 149.716 23.8098 150.35 24C150.984 24.1903 151.587 24.37 152.158 24.5392C152.728 24.6872 153.194 24.8669 153.553 25.0783C153.934 25.2686 154.124 25.554 154.124 25.9345C154.124 26.2305 153.965 26.463 153.648 26.6322C153.352 26.8013 152.919 26.8859 152.348 26.8859C151.523 26.8859 150.762 26.7379 150.065 26.4419C149.367 26.1248 148.764 25.6914 148.257 25.1417L145.498 27.9324C146.027 28.5032 146.661 29.0107 147.401 29.4546C148.162 29.8774 148.976 30.2051 149.843 30.4377Z" fill="#FFFFFF"></path><path d="M167.664 30.7561C166.248 30.7561 164.99 30.4707 163.891 29.8999C162.812 29.3079 161.967 28.5045 161.354 27.4897C160.74 26.4538 160.434 25.2699 160.434 23.9379V14.995H165.286V23.8745C165.286 24.403 165.37 24.8576 165.54 25.2381C165.73 25.6187 166.005 25.9147 166.364 26.1261C166.724 26.3375 167.157 26.4432 167.664 26.4432C168.383 26.4432 168.954 26.2212 169.377 25.7772C169.8 25.3121 170.011 24.6779 170.011 23.8745V14.995H174.863V23.9062C174.863 25.2593 174.557 26.4538 173.943 27.4897C173.33 28.5045 172.485 29.3079 171.406 29.8999C170.328 30.4707 169.081 30.7561 167.664 30.7561Z" fill="#FFFFFF"></path><path d="M182.127 14.9938H177.275V30.4061H182.127V21.3997C182.127 20.8712 182.233 20.4272 182.444 20.0678C182.677 19.7084 182.984 19.4335 183.364 19.2433C183.745 19.0318 184.178 18.9261 184.664 18.9261C185.362 18.9261 185.943 19.1481 186.408 19.5921C186.895 20.0149 187.138 20.6175 187.138 21.3997V30.4061H191.99V21.3997C191.99 20.8712 192.096 20.4272 192.307 20.0678C192.54 19.7084 192.846 19.4335 193.227 19.2433C193.607 19.0318 194.041 18.9261 194.527 18.9261C195.225 18.9261 195.806 19.1481 196.271 19.5921C196.757 20.0149 197 20.6175 197 21.3997V30.4061H201.853V20.8606C201.853 19.571 201.578 18.4716 201.028 17.5625C200.499 16.6322 199.77 15.924 198.84 15.4378C197.931 14.9303 196.884 14.6766 195.7 14.6766C194.495 14.6766 193.406 14.9409 192.434 15.4695C191.802 15.8062 191.25 16.2408 190.777 16.7732C190.336 16.2163 189.8 15.7606 189.167 15.406C188.322 14.9198 187.36 14.6766 186.282 14.6766C185.14 14.6766 184.115 14.9198 183.206 15.406C182.81 15.6083 182.451 15.8506 182.127 16.1329V14.9938Z" fill="#FFFFFF"></path></svg>