<svg xmlns="http://www.w3.org/2000/svg" width="168" height="41" viewBox="0 0 168 41" fill="none"><path d="M49.5698 28.571H61.5218V24.971H53.8178V11.411H49.5698V28.571Z" fill="#FFFFFF"></path><path d="M68.6033 26.1721C66.8993 26.1721 66.0113 24.6841 66.0113 22.4521C66.0113 20.2201 66.8993 18.7081 68.6033 18.7081C70.3073 18.7081 71.2193 20.2201 71.2193 22.4521C71.2193 24.6841 70.3073 26.1721 68.6033 26.1721ZM68.6273 28.9561C72.5873 28.9561 75.1793 26.1481 75.1793 22.4521C75.1793 18.7561 72.5873 15.9481 68.6273 15.9481C64.6913 15.9481 62.0513 18.7561 62.0513 22.4521C62.0513 26.1481 64.6913 28.9561 68.6273 28.9561Z" fill="#FFFFFF"></path><path d="M82.034 32.8187C83.858 32.8187 85.466 32.4107 86.546 31.4507C87.53 30.5627 88.178 29.2187 88.178 27.3707V16.2827H84.434V17.6027H84.386C83.666 16.5707 82.562 15.9227 80.93 15.9227C77.882 15.9227 75.77 18.4667 75.77 22.0667C75.77 25.8347 78.338 27.8987 81.098 27.8987C82.586 27.8987 83.522 27.2987 84.242 26.4827H84.338V27.7067C84.338 29.1947 83.642 30.0587 81.986 30.0587C80.69 30.0587 80.042 29.5067 79.826 28.8587H76.034C76.418 31.4267 78.65 32.8187 82.034 32.8187ZM82.01 24.9947C80.546 24.9947 79.586 23.7947 79.586 21.9467C79.586 20.0747 80.546 18.8747 82.01 18.8747C83.642 18.8747 84.506 20.2667 84.506 21.9227C84.506 23.6507 83.714 24.9947 82.01 24.9947Z" fill="#FFFFFF"></path><path d="M95.8757 26.1721C94.1717 26.1721 93.2837 24.6841 93.2837 22.4521C93.2837 20.2201 94.1717 18.7081 95.8757 18.7081C97.5797 18.7081 98.4917 20.2201 98.4917 22.4521C98.4917 24.6841 97.5797 26.1721 95.8757 26.1721ZM95.8997 28.9561C99.8597 28.9561 102.451 26.1481 102.451 22.4521C102.451 18.7561 99.8597 15.9481 95.8997 15.9481C91.9637 15.9481 89.3237 18.7561 89.3237 22.4521C89.3237 26.1481 91.9637 28.9561 95.8997 28.9561Z" fill="#FFFFFF"></path><path d="M103.594 28.571H107.506V16.283H103.594V28.571ZM103.594 14.579H107.506V11.411H103.594V14.579Z" fill="#FFFFFF"></path><path d="M109.204 32.6267H113.116V27.2987H113.164C113.932 28.3307 115.06 28.9547 116.644 28.9547C119.86 28.9547 121.996 26.4107 121.996 22.4267C121.996 18.7307 120.004 15.9227 116.74 15.9227C115.06 15.9227 113.86 16.6667 113.02 17.7707H112.948V16.2827H109.204V32.6267ZM115.636 25.9307C113.956 25.9307 112.996 24.5627 112.996 22.5707C112.996 20.5787 113.86 19.0667 115.564 19.0667C117.244 19.0667 118.036 20.4587 118.036 22.5707C118.036 24.6587 117.124 25.9307 115.636 25.9307Z" fill="#FFFFFF"></path><path d="M128.364 28.9547C131.58 28.9547 133.956 27.5627 133.956 24.8747C133.956 21.7307 131.412 21.1787 129.252 20.8187C127.692 20.5307 126.3 20.4107 126.3 19.5467C126.3 18.7787 127.044 18.4187 128.004 18.4187C129.084 18.4187 129.828 18.7547 129.972 19.8587H133.572C133.38 17.4347 131.508 15.9227 128.028 15.9227C125.124 15.9227 122.724 17.2667 122.724 19.8587C122.724 22.7387 125.004 23.3147 127.14 23.6747C128.772 23.9627 130.26 24.0827 130.26 25.1867C130.26 25.9787 129.516 26.4107 128.34 26.4107C127.044 26.4107 126.228 25.8107 126.084 24.5867H122.388C122.508 27.2987 124.764 28.9547 128.364 28.9547Z" fill="#FFFFFF"></path><path d="M139.271 28.9321C140.975 28.9321 142.055 28.2601 142.943 27.0601H143.015V28.5721H146.759V16.2841H142.847V23.1481C142.847 24.6121 142.031 25.6201 140.687 25.6201C139.439 25.6201 138.839 24.8761 138.839 23.5321V16.2841H134.951V24.3481C134.951 27.0841 136.439 28.9321 139.271 28.9321Z" fill="#FFFFFF"></path><path d="M148.46 28.5707H152.372V21.6827C152.372 20.2187 153.092 19.1867 154.316 19.1867C155.492 19.1867 156.044 19.9547 156.044 21.2747V28.5707H159.956V21.6827C159.956 20.2187 160.652 19.1867 161.9 19.1867C163.076 19.1867 163.628 19.9547 163.628 21.2747V28.5707H167.54V20.5787C167.54 17.8187 166.148 15.9227 163.364 15.9227C161.78 15.9227 160.46 16.5947 159.5 18.0827H159.452C158.828 16.7627 157.604 15.9227 155.996 15.9227C154.22 15.9227 153.044 16.7627 152.276 18.0347H152.204V16.2827H148.46V28.5707Z" fill="#FFFFFF"></path><path d="M25.7024 1.59573L21.7694 0.54187L18.455 12.9114L15.4627 1.74411L11.5296 2.79797L14.7626 14.8634L6.70994 6.81085L3.83075 9.69004L12.6635 18.5228L1.66372 15.5754L0.609863 19.5084L12.6285 22.7288C12.4909 22.1353 12.4181 21.5169 12.4181 20.8815C12.4181 16.3839 16.0641 12.7379 20.5617 12.7379C25.0593 12.7379 28.7053 16.3839 28.7053 20.8815C28.7053 21.5128 28.6334 22.1274 28.4975 22.7174L39.4202 25.6441L40.474 21.7111L28.4076 18.4779L39.4081 15.5303L38.3542 11.5973L26.2883 14.8303L34.3409 6.77779L31.4617 3.8986L22.7515 12.6088L25.7024 1.59573Z" fill="#FF3600"></path><path d="M28.4863 22.7635C28.1491 24.1891 27.4372 25.4699 26.4604 26.496L34.3735 34.4091L37.2527 31.5299L28.4863 22.7635Z" fill="#FF3600"></path><path d="M26.3806 26.579C25.392 27.5887 24.1427 28.3422 22.7417 28.7305L25.6211 39.4765L29.5541 38.4226L26.3806 26.579Z" fill="#FF3600"></path><path d="M22.5948 28.7693C21.9448 28.9364 21.2635 29.0252 20.5614 29.0252C19.8092 29.0252 19.0808 28.9232 18.3893 28.7323L15.5073 39.4881L19.4403 40.5419L22.5948 28.7693Z" fill="#FF3600"></path><path d="M18.2503 28.6929C16.8707 28.2853 15.6436 27.5222 14.6752 26.5096L6.74268 34.4421L9.62187 37.3213L18.2503 28.6929Z" fill="#FF3600"></path><path d="M14.6097 26.439C13.6579 25.42 12.9646 24.1564 12.6346 22.7528L1.67627 25.6891L2.73012 29.6221L14.6097 26.439Z" fill="#FF3600"></path></svg>