<svg xmlns="http://www.w3.org/2000/svg" width="170" height="41" viewBox="0 0 170 41" fill="none"><path d="M51.6782 28.5417H63.6302V24.9417H55.9262V11.3817H51.6782V28.5417Z" fill="#FFFFFF"></path><path d="M70.7107 26.1418C69.0067 26.1418 68.1187 24.6538 68.1187 22.4218C68.1187 20.1898 69.0067 18.6778 70.7107 18.6778C72.4147 18.6778 73.3267 20.1898 73.3267 22.4218C73.3267 24.6538 72.4147 26.1418 70.7107 26.1418ZM70.7347 28.9258C74.6947 28.9258 77.2867 26.1178 77.2867 22.4218C77.2867 18.7258 74.6947 15.9178 70.7347 15.9178C66.7987 15.9178 64.1587 18.7258 64.1587 22.4218C64.1587 26.1178 66.7987 28.9258 70.7347 28.9258Z" fill="#FFFFFF"></path><path d="M84.1414 32.7894C85.9654 32.7894 87.5734 32.3814 88.6534 31.4214C89.6374 30.5334 90.2854 29.1894 90.2854 27.3414V16.2534H86.5414V17.5734H86.4934C85.7734 16.5414 84.6694 15.8934 83.0374 15.8934C79.9894 15.8934 77.8774 18.4374 77.8774 22.0374C77.8774 25.8054 80.4454 27.8694 83.2054 27.8694C84.6934 27.8694 85.6294 27.2694 86.3494 26.4534H86.4454V27.6774C86.4454 29.1654 85.7494 30.0294 84.0934 30.0294C82.7974 30.0294 82.1494 29.4774 81.9334 28.8294H78.1414C78.5254 31.3974 80.7574 32.7894 84.1414 32.7894ZM84.1174 24.9654C82.6534 24.9654 81.6934 23.7654 81.6934 21.9174C81.6934 20.0454 82.6534 18.8454 84.1174 18.8454C85.7494 18.8454 86.6134 20.2374 86.6134 21.8934C86.6134 23.6214 85.8214 24.9654 84.1174 24.9654Z" fill="#FFFFFF"></path><path d="M97.9841 26.1418C96.2801 26.1418 95.3921 24.6538 95.3921 22.4218C95.3921 20.1898 96.2801 18.6778 97.9841 18.6778C99.6881 18.6778 100.6 20.1898 100.6 22.4218C100.6 24.6538 99.6881 26.1418 97.9841 26.1418ZM98.0081 28.9258C101.968 28.9258 104.56 26.1178 104.56 22.4218C104.56 18.7258 101.968 15.9178 98.0081 15.9178C94.0721 15.9178 91.4321 18.7258 91.4321 22.4218C91.4321 26.1178 94.0721 28.9258 98.0081 28.9258Z" fill="#FFFFFF"></path><path d="M105.702 28.5417H109.614V16.2537H105.702V28.5417ZM105.702 14.5497H109.614V11.3817H105.702V14.5497Z" fill="#FFFFFF"></path><path d="M111.312 32.5974H115.224V27.2694H115.272C116.04 28.3014 117.168 28.9254 118.752 28.9254C121.968 28.9254 124.104 26.3814 124.104 22.3974C124.104 18.7014 122.112 15.8934 118.848 15.8934C117.168 15.8934 115.968 16.6374 115.128 17.7414H115.056V16.2534H111.312V32.5974ZM117.744 25.9014C116.064 25.9014 115.104 24.5334 115.104 22.5414C115.104 20.5494 115.968 19.0374 117.672 19.0374C119.352 19.0374 120.144 20.4294 120.144 22.5414C120.144 24.6294 119.232 25.9014 117.744 25.9014Z" fill="#FFFFFF"></path><path d="M130.473 28.9254C133.689 28.9254 136.065 27.5334 136.065 24.8454C136.065 21.7014 133.521 21.1494 131.361 20.7894C129.801 20.5014 128.409 20.3814 128.409 19.5174C128.409 18.7494 129.153 18.3894 130.113 18.3894C131.193 18.3894 131.937 18.7254 132.081 19.8294H135.681C135.489 17.4054 133.617 15.8934 130.137 15.8934C127.233 15.8934 124.833 17.2374 124.833 19.8294C124.833 22.7094 127.113 23.2854 129.249 23.6454C130.881 23.9334 132.369 24.0534 132.369 25.1574C132.369 25.9494 131.625 26.3814 130.449 26.3814C129.153 26.3814 128.337 25.7814 128.193 24.5574H124.497C124.617 27.2694 126.873 28.9254 130.473 28.9254Z" fill="#FFFFFF"></path><path d="M141.379 28.9018C143.083 28.9018 144.163 28.2298 145.051 27.0298H145.123V28.5418H148.867V16.2538H144.955V23.1178C144.955 24.5818 144.139 25.5898 142.795 25.5898C141.547 25.5898 140.947 24.8458 140.947 23.5018V16.2538H137.059V24.3178C137.059 27.0538 138.547 28.9018 141.379 28.9018Z" fill="#FFFFFF"></path><path d="M150.568 28.5414H154.48V21.6534C154.48 20.1894 155.2 19.1574 156.424 19.1574C157.6 19.1574 158.152 19.9254 158.152 21.2454V28.5414H162.064V21.6534C162.064 20.1894 162.76 19.1574 164.008 19.1574C165.184 19.1574 165.736 19.9254 165.736 21.2454V28.5414H169.648V20.5494C169.648 17.7894 168.256 15.8934 165.472 15.8934C163.888 15.8934 162.568 16.5654 161.608 18.0534H161.56C160.936 16.7334 159.712 15.8934 158.104 15.8934C156.328 15.8934 155.152 16.7334 154.384 18.0054H154.312V16.2534H150.568V28.5414Z" fill="#FFFFFF"></path><path fill-rule="evenodd" clip-rule="evenodd" d="M20.5015 40.5418C31.5472 40.5418 40.5015 31.5875 40.5015 20.5418C40.5015 9.49618 31.5472 0.54187 20.5015 0.54187C9.45575 0.54187 0.501465 9.49618 0.501465 20.5418C0.501465 31.5875 9.45575 40.5418 20.5015 40.5418ZM26.7408 9.85871C27.0445 8.77992 25.9976 8.142 25.0415 8.82317L11.6946 18.3314C10.6577 19.0701 10.8208 20.5418 11.9396 20.5418H15.4542V20.5146H22.304L16.7227 22.4839L14.2622 31.225C13.9585 32.3038 15.0053 32.9417 15.9615 32.2605L29.3084 22.7523C30.3453 22.0136 30.1821 20.5418 29.0634 20.5418H23.7336L26.7408 9.85871Z" fill="#FF3600"></path></svg>