<svg width="1920" height="730" viewBox="0 0 1920 730" fill="none" xmlns="http://www.w3.org/2000/svg">
<rect x="10" y="60" width="20" height="20" rx="10" fill="#FF3600"/>
<rect x="10" y="120" width="20" height="20" rx="10" fill="white" fill-opacity="0.2"/>
<rect x="10" y="180" width="20" height="20" rx="10" fill="white" fill-opacity="0.2"/>
<rect x="10" y="30" width="20" height="20" rx="10" fill="white" fill-opacity="0.2"/>
<rect x="10" y="90" width="20" height="20" rx="10" fill="white"/>
<rect x="10" y="150" width="20" height="20" rx="10" fill="white" fill-opacity="0.2"/>
<rect x="40" y="60" width="20" height="20" rx="10" fill="white" fill-opacity="0.2"/>
<rect x="70.5" y="60.5" width="19" height="19" rx="9.5" stroke="white" stroke-opacity="0.2"/>
<rect x="40" y="120" width="20" height="20" rx="10" fill="#FF3600"/>
<rect x="70" y="120" width="20" height="20" rx="10" fill="white" fill-opacity="0.2"/>
<rect x="70" y="180" width="20" height="20" rx="10" fill="white" fill-opacity="0.2"/>
<rect x="40" y="30" width="20" height="20" rx="10" fill="white" fill-opacity="0.2"/>
<rect x="40" y="90" width="20" height="20" rx="10" fill="white" fill-opacity="0.2"/>
<rect x="40" y="150" width="20" height="20" rx="10" fill="white"/>
<rect x="70.5" y="150.5" width="19" height="19" rx="9.5" stroke="white" stroke-opacity="0.2"/>
<rect x="100" y="150" width="20" height="20" rx="10" fill="white" fill-opacity="0.2"/>
<rect x="1910" y="670" width="20" height="20" rx="10" transform="rotate(-180 1910 670)" fill="#FF3600"/>
<rect x="1910" y="610" width="20" height="20" rx="10" transform="rotate(-180 1910 610)" fill="white" fill-opacity="0.2"/>
<rect x="1910" y="550" width="20" height="20" rx="10" transform="rotate(-180 1910 550)" fill="white" fill-opacity="0.2"/>
<rect x="1910" y="700" width="20" height="20" rx="10" transform="rotate(-180 1910 700)" fill="white" fill-opacity="0.2"/>
<rect x="1910" y="640" width="20" height="20" rx="10" transform="rotate(-180 1910 640)" fill="white"/>
<rect x="1910" y="580" width="20" height="20" rx="10" transform="rotate(-180 1910 580)" fill="white" fill-opacity="0.2"/>
<rect x="1880" y="670" width="20" height="20" rx="10" transform="rotate(-180 1880 670)" fill="white" fill-opacity="0.2"/>
<rect x="1849.5" y="669.5" width="19" height="19" rx="9.5" transform="rotate(-180 1849.5 669.5)" stroke="white" stroke-opacity="0.2"/>
<rect x="1880" y="610" width="20" height="20" rx="10" transform="rotate(-180 1880 610)" fill="#FF3600"/>
<rect x="1850" y="610" width="20" height="20" rx="10" transform="rotate(-180 1850 610)" fill="white" fill-opacity="0.2"/>
<rect x="1850" y="550" width="20" height="20" rx="10" transform="rotate(-180 1850 550)" fill="white" fill-opacity="0.2"/>
<rect x="1880" y="700" width="20" height="20" rx="10" transform="rotate(-180 1880 700)" fill="white" fill-opacity="0.2"/>
<rect x="1880" y="640" width="20" height="20" rx="10" transform="rotate(-180 1880 640)" fill="white" fill-opacity="0.2"/>
<rect x="1880" y="580" width="20" height="20" rx="10" transform="rotate(-180 1880 580)" fill="white"/>
<rect x="1849.5" y="579.5" width="19" height="19" rx="9.5" transform="rotate(-180 1849.5 579.5)" stroke="white" stroke-opacity="0.2"/>
<rect x="1820" y="580" width="20" height="20" rx="10" transform="rotate(-180 1820 580)" fill="white" fill-opacity="0.2"/>
</svg>
